<svg width="5305" height="814" viewBox="0 0 5305 814" fill="none" xmlns="http://www.w3.org/2000/svg">
<mask id="mask0_1551_3822" style="mask-type:alpha" maskUnits="userSpaceOnUse" x="0" y="14" width="1766" height="785">
<rect y="14" width="1766" height="785" fill="#D9D9D9"/>
</mask>
<g mask="url(#mask0_1551_3822)">
<path fill-rule="evenodd" clip-rule="evenodd" d="M656.267 123.109L664.793 128.279C693.661 156.29 767.373 239.782 861.769 278.184C891.214 290.158 895.225 279.061 921.141 297.031C952.323 318.649 991.489 338.81 988.432 414.859L985.487 416.567C985.014 415.809 983.447 418.274 982.974 417.516C978.699 410.629 977.407 364.949 932.944 330.517C859.62 273.734 943.66 349.948 953.677 367.469C982.57 418.006 884.278 324.563 899.87 349.8C917.854 378.912 989.656 400.485 975.85 466.573C960.139 541.762 840.124 374.528 872.174 428.723C906.63 486.987 956.183 500.065 965.378 502.492C977.64 505.732 965.669 530.963 931.007 510.062C866.915 471.413 818.949 383.886 855.798 449.027C894.083 516.709 953.664 533.277 964.4 536.263C1000.01 546.167 952.508 564.593 917.696 537.103C834.797 471.639 845.788 460.728 837.831 456.343C828.842 451.393 832.754 463.991 860.001 499.589C872.661 516.126 928.597 563.804 940.945 564.363C991.983 566.674 990.118 574.908 1027.95 608.829C1101.95 675.17 1131.48 641.801 1173.31 652.651C1201.74 660.025 1122.1 656.772 1121.71 661.907C1120.18 681.845 1197.81 664.893 1255.42 694.094C1337.4 735.653 1370.38 815.936 1344.43 783.115C1299.5 726.28 1229.43 693.984 1221.45 695.348C1201.92 698.694 1282.6 733.695 1315.92 777.143C1370.35 848.109 1378.75 839.281 1450.35 893.093C1522.1 947.027 1498.62 974.099 1550.4 995.528C1567.12 1002.45 1538.76 1009.35 1511.24 979.351C1470.48 934.905 1474.91 929.705 1411.35 890.096C1316.18 830.786 1297.21 774.483 1275.91 755.258C1210.26 696.013 1154.86 684.913 1142.97 682.534C1002.37 654.358 1029.07 584.798 944.254 582.015C906.414 580.774 903.579 553.791 881.522 540.044C857.642 525.159 856.946 525.677 830.803 490.638C790.218 436.254 830.724 518.824 866.02 547.881C933.709 603.608 939.056 593.794 940.698 593.924C970.814 596.351 972.717 594.02 1000.56 619.086C1111.86 719.283 1160.62 661.773 1228.02 734.432C1247.48 755.402 1256.62 745.08 1281.85 779.577C1323.25 836.162 1319.34 841.904 1440.37 920.425C1508.6 964.685 1481.84 991.84 1527.93 1020.28C1544.13 1030.28 1531.44 1033.04 1530.41 1032.99C1488.72 1030.92 1476.93 974.079 1476.41 972.91C1476.04 974.826 1472.91 975.381 1472.54 977.298C1468.25 999.484 1484.98 1020.86 1487.4 1023.94C1501.1 1041.44 1547 1057.88 1516.79 1053.55C1462.84 1045.81 1466.15 986.461 1462.96 963.229C1461.96 956.002 1431.62 936.853 1383.77 904.117C1300.67 847.265 1311.17 836.662 1265.11 779.519C1218.85 722.132 1266.04 840.762 1363.15 904.131C1443.82 956.78 1450 957.637 1465.98 1031.93C1481.33 1103.28 1553.64 1051.65 1609.52 1068.91C1611.14 1069.41 1657.72 1083.81 1626.13 1082.02C1619.78 1081.66 1547.97 1077.57 1546.8 1086.58C1544.02 1107.92 1659.87 1051.66 1701.94 1152.03C1702.16 1152.57 1706 1169.09 1695.29 1155.08C1621.67 1058.81 1516.98 1160.5 1458.88 1055.82C1440.69 1023.06 1471.18 997.643 1386.17 943.342C1208.96 830.169 1273.11 757.065 1166.91 711.169C1160.66 708.471 1161.05 716.051 1170.09 720.531C1177 723.956 1215.21 742.889 1233.95 792.703C1269.95 888.396 1301.98 891.344 1398.97 964.987C1451.66 1004.99 1441.68 1052.67 1449.54 1069.08C1484.84 1142.83 1578.35 1106.94 1636.11 1129.42C1688.74 1149.9 1721.53 1231.16 1701.38 1207.72C1645.41 1142.6 1621.17 1135.06 1547.59 1139.29C1436.55 1145.68 1428.95 1038.04 1422.95 1025.78C1412.28 1003.97 1366.98 960.28 1363.54 963.873C1353.54 974.298 1400.45 1002.03 1417.77 1042.19C1421.79 1051.52 1399.57 1060.1 1360.3 990.167C1326.4 929.804 1324.32 931.217 1273.67 884.193C1245.58 858.115 1269.49 897.895 1269.99 898.204C1354.52 950.178 1354.23 1034.74 1400.69 1058.38C1426.4 1071.46 1424.24 1111.11 1472.79 1137.07C1511.77 1157.91 1546.12 1150.1 1561.28 1149.42C1655.93 1145.21 1699.62 1231.03 1700.37 1254.57C1701 1274.34 1688.73 1234.78 1670.33 1214.35C1620.54 1159.06 1561.85 1181.06 1561.23 1181.07C1545.56 1181.27 1561.3 1166.22 1561.32 1165.78C1562.88 1138.13 1480.62 1237.06 1403.03 1073.48C1398.67 1064.28 1370.35 1072.07 1339.34 1007.63C1308.29 943.081 1281.72 939.143 1253.14 904.858C1232.65 880.289 1239.49 730.219 1119.13 722.376C1020.24 715.927 1033.92 681.533 981.061 646.018C942.207 619.916 914.014 654.149 880.888 580.311C867.436 550.328 848.153 566.794 808.637 506.298C807.914 505.19 773.811 452.98 794.983 496.925C820.762 550.435 850.913 566.866 857.707 570.571C867.971 576.166 882.002 643.159 944.264 647.132C982.717 649.583 984.716 660.878 1009.86 685.252C1081.7 754.888 1125.98 713.277 1172.5 748.961C1237.43 798.775 1212.64 876.058 1257.74 927.737C1269.84 941.594 1279.75 932.602 1295.75 967.651C1308.76 996.142 1315.36 991.713 1330.89 1018.75C1335.21 1026.27 1351.53 1068.29 1350.91 1069.31C1347.98 1074.12 1342.89 1072.28 1309.72 1012.21C1278.39 955.474 1255.69 948.978 1230.39 907.611C1209.05 872.74 1217.63 755.831 1112.27 746.722C1048.46 741.206 1046.02 740 1001.96 693.147C963.941 652.726 948.813 664.118 937.291 662.13C866.377 649.874 861.242 616.803 850.494 590.345C843.875 574.041 815.678 563.523 791.322 523.534C790.338 521.916 760.942 473.648 774.027 507.36C791.874 553.321 821.27 575.981 826.984 580.386C853.247 600.629 837.207 666.374 947.555 673.576C978.607 675.602 991.654 698.691 1009.55 716.452C1071.48 777.942 1116.14 740.106 1155.56 769.663C1228.75 824.544 1180.24 899.037 1260.83 965.738C1294.08 993.255 1214.28 972.988 1197.64 881.279C1179.3 780.205 1149.06 773.537 1081.24 769.07C1014.03 764.644 1018.93 730.761 972.731 698.05C944.188 677.841 849.778 702.66 829.833 614.098C824.146 588.833 799.141 593.54 758.261 514.974C745.981 491.378 748.909 526.407 777.071 565.22C790.705 584.006 792.412 582.354 805.867 601.037C816.745 616.141 824.712 692.215 927.014 699.966C985.264 704.381 980.094 718.108 1020.62 760.325C1063.8 805.302 1115.18 779.392 1139.06 793.057C1218.49 838.496 1153.97 946.784 1270.92 996.711L1270.18 1001.56C1257.22 1012.81 1298.88 1051.27 1280.18 1045.67C1276.02 1044.43 1279.79 1038.71 1236.04 1014.2C1207 997.938 1161.86 940.267 1205.65 979.032C1209.21 982.179 1235.05 1005.06 1256.35 1009.9C1346.17 1030.29 1193.67 999.923 1181.28 908.526C1180.04 899.356 1179.76 829.333 1132.81 805.628C1113.7 795.974 1047.69 822.703 1004.5 762.203C945.536 679.627 910.099 739.31 828.602 684.509C759.203 637.838 716.448 543.037 710.01 528.759C690.679 485.89 703.099 579.629 790.413 668.187C870.851 749.773 946.869 695.904 983.814 755.344C1015.49 806.317 1024.84 812.779 1115.63 814.829C1169.96 816.059 1181.12 926.146 1163.84 908.372C1161.49 905.951 1156.49 831.794 1119.08 829.271C1103.31 828.208 1038.32 833.964 993.42 794.154C980.825 782.985 983.588 781.329 973.941 761.826C966.725 747.243 940.75 737.267 937.408 735.982C930.62 735.001 931.048 735.289 923.764 736.044C880.024 733.791 797.482 742.721 698.978 564.908C683.565 537.086 672.013 499.949 676.428 531.525C680.031 557.294 747.16 684.676 814.269 719.438C883.507 755.303 907.168 731.361 919.537 771.761C930.812 808.576 934.37 834.845 988.535 850.783C989.333 851.845 990.129 852.908 990.927 853.971C985.593 861.475 984.044 858.201 975.168 856.086C911.491 840.91 915.738 769.159 895.746 762.618C803.454 732.423 747.616 727.483 711.823 678.42C642.353 583.204 617.821 493.192 622.6 531.59C627.176 568.388 707.631 704.765 722.015 711.79C786.796 743.417 819.919 741.151 878.907 771.799C888.742 776.907 895.293 767.082 897.069 778.227C902.153 810.084 934.627 871.338 995.607 874.358C997.043 874.43 1031.45 876.13 1009.75 885.458C997.832 890.576 934.477 889.452 900.823 822.333C887.014 794.791 889.643 783.804 878.763 791.658C870.59 797.561 829.665 759.848 830.769 774.983C831.845 789.748 866.044 772.042 899.122 840.197C916.51 876.027 865.931 801.003 813.433 782.964C622.727 717.442 638.654 668.602 625.949 679.678C620.498 684.43 659.445 731.765 735.632 763.29C770.173 777.582 886.133 796.334 907.326 901.635C922.3 976.05 872.359 987.736 921.672 1047.94C991.489 1133.17 1080.89 1131.13 1079.33 1210.39C1078.79 1237.87 1025.7 1309.43 1150.47 1366.79C1152.32 1367.64 1262.95 1400.73 1236.18 1501.91C1230.89 1521.93 1218.13 1533.29 1221.41 1518.85C1257.95 1358.09 1049.84 1402.91 1052.03 1272.05C1052.8 1226.02 1091.55 1191.57 1015.19 1143.29C1000.8 1134.19 965.672 1109 971.216 1124.8C976.622 1140.22 1062.72 1155.5 1048.85 1223.75C1025.6 1338.13 1050.82 1343.48 1146.01 1392.96C1277.18 1461.16 1177.27 1579.56 1192.3 1536.34C1235.4 1412.32 1094.1 1413.04 1044.91 1346.42C984.04 1263.99 1064.78 1208.38 1012.59 1165.95C1011.26 1164.87 983.502 1142.3 992.384 1158.83C1003 1178.59 1020.29 1195.68 1006.64 1272.17C1005.97 1275.93 996.951 1326.46 988.829 1316.56C976.409 1301.42 1052.86 1215.89 946.204 1122.76C885.948 1070.14 839.805 1061.41 863.545 1005.56C900.408 918.845 827.43 828.061 783.218 818.713C774.829 816.94 733.493 808.202 684.316 777.39C667.635 766.938 670.511 753.962 679.387 759.379C773.396 816.762 800.886 788.83 850.762 854.468C923.791 950.579 851.759 1018.61 879.253 1049.04C887.216 1057.85 970.979 1123.11 916.952 1066.2C852.287 998.086 926.952 972.923 881.855 881.557C839.092 794.918 774.592 801.229 684.495 752.725C620.265 718.145 602.22 663.275 601.147 682.39C600.56 692.808 650.337 744.292 650.337 744.531C650.477 755.7 610.324 729.4 585.137 687.865C584.678 687.104 571.116 664.742 575.432 682.459C581.339 706.709 634.711 754.37 604.897 737.034C571.164 717.415 551.713 665.983 550.76 682.565C550.441 688.098 568.178 716.675 575.398 726.047C599.936 757.915 565.018 730.308 564.356 729.657C546.245 711.855 508.018 650.07 526.009 689.243C546.674 734.23 593.433 776.989 553.537 747.247C529.132 729.05 490.799 655.747 501.776 689.277C509.129 711.745 554.12 761.775 526.996 742.458C504.95 726.757 487.576 689.301 485.297 685.084C468.873 654.698 481.289 692.03 481.553 692.65C482.383 694.625 500.363 737.285 485.691 719.081C458.893 685.835 414.976 668.119 464.512 645.253C492.609 632.285 493.15 633.971 519.869 618.815C532.207 611.815 582.741 643.697 652.373 669.757C669.414 676.134 701.995 701.57 685.835 679.726C598.181 561.244 602.669 500.46 595.566 524.998C595.452 525.382 607.252 577.088 613.351 592.714C618.328 605.477 637.893 637.975 625.325 631.078C620.042 628.178 591.198 575.652 582.031 541.415C581.778 540.459 563.801 485.03 571.528 534.871C572.086 538.46 595.713 617.972 568.665 564.912C547.904 524.186 556.166 521.447 547.596 503.048C535.8 477.721 542.755 519.804 542.999 521.289C546.396 541.847 551.908 547.356 542.94 546.403C531.299 545.166 528.673 490.398 515.252 496.97C511.402 498.852 541.634 559.54 511.559 528.882C481.138 497.868 425.188 516.424 450.686 517.549C472.589 518.515 473.332 514.912 492.643 524.641L495.595 528.584C483.401 527.151 468.3 521.124 445.908 530.438C445.284 530.699 411.232 549.629 443.693 538.59C517.432 513.517 530.058 581.511 515.238 603.293C494.655 633.55 453.885 605.326 453.425 605.137C411.222 587.767 360.276 640.505 323.911 620.516C326.434 618.192 324.939 614.914 330.514 616.474C362.645 625.466 407.533 580.04 460.758 590.911C462.064 591.178 511.409 601.257 477.138 587.746C412.956 562.443 400.937 610.903 320.74 609.436C273.12 592.35 301.141 570.883 325.461 489.928C376.337 320.583 375.429 309.853 402.6 310.531C428.486 311.179 435.195 299.126 448.167 321.848C459.281 341.319 482.842 331.217 511.114 381.387C537.565 428.325 556.917 459.826 628.633 454.694C682.914 450.81 794.859 390.167 707.531 424.225C639.034 450.937 614.897 443.1 627.187 437.752C636.083 433.882 638.647 441.153 741.48 397.215C769.992 385.035 735.933 391.761 735.337 392.011C617.272 441.39 602.717 431.057 609.775 423.481C616.998 415.727 624.626 432.62 733.198 375.323C735.536 374.089 767.215 357.37 758.727 354.332C757.839 354.014 688.721 393.615 625.38 412.113C582.95 424.503 634.776 403.91 669.164 376.567C677.936 369.591 667.686 368.648 666.689 367.095C665.636 365.46 710.973 335.207 699.136 353.033C698.543 353.924 685.184 374.041 697.069 366.238C698.221 365.481 698.066 365.44 710.514 355.453C717.384 359.886 717.24 360.362 717.936 360.239C717.936 360.239 727.949 355.32 728.82 354.891C746.437 345.608 746.351 345.714 747.85 344.867C786.104 323.239 825.075 283.01 827.012 277.704C830.402 268.424 811.993 281.478 810.9 282.253C808.435 279.689 805.973 277.121 803.508 274.557C762.717 272.188 761.404 271.163 761.291 267.745C761.154 263.532 812.425 266.243 787.64 259.288C777.585 256.463 777.321 258.441 659.822 232.662C494.103 196.303 478.464 230.162 480.638 215.932C480.895 214.263 527.864 190.225 549.855 184.949C640.313 163.256 652.836 189.759 653.247 175.079C653.508 165.878 591.044 163.873 567.006 167.572C493.15 178.933 476.963 196.927 485.814 182.477C489.311 176.766 547.414 153.777 608.281 156.002C648.928 157.49 654.43 159.855 651.465 155.234C641.886 140.298 511.392 155.567 539.54 144.041C543.643 142.361 570.105 142.331 594.911 135.156C616.134 129.016 629.326 122.022 656.267 123.109Z" fill="#D4F7D2"/>
<path fill-rule="evenodd" clip-rule="evenodd" d="M1559.18 460.75C1575.87 454.662 1606.06 455.375 1639.12 414.265C1658.73 389.884 1663.66 386.212 1657.16 385.533C1644.09 384.169 1609.2 464.274 1506.46 441.947C1475.59 435.238 1530.8 455.601 1545.92 528.709C1551.76 556.915 1553.19 525.425 1553.1 524.777C1545.83 473.105 1540.5 466.554 1549.96 467.699C1583.38 525.342 1539.35 588.533 1616.27 606.287C1624.99 608.3 1703.63 626.452 1715.21 658.48C1725.01 685.549 1692.83 626.979 1629.83 628.378C1606.92 628.885 1575.64 638.169 1531.54 585.595C1501.74 550.076 1511.59 499.371 1436.93 450.716C1344.67 390.593 1193.75 522.336 1142.84 387.662C1127.07 345.952 1119.66 308.949 1119.5 339.672C1119.47 344.955 1135.14 411.831 1160.71 438.488C1214.79 494.856 1321.97 429.482 1390.01 445.111C1517.47 474.384 1474.06 617.401 1605.6 638.807C1607.06 639.043 1686.55 632.026 1724.36 699.865C1744.16 735.366 1709.7 670.657 1639.95 663.194C1536.43 652.111 1523.89 637.514 1478.27 545.627C1411.3 410.754 1261.18 480.324 1242.31 482.124C1114.21 494.335 1137.26 367.923 1123.36 404.937C1121.73 409.28 1136.75 496.779 1218.43 493.893C1296.1 491.15 1400.68 408.79 1474.96 562.695C1549.82 717.794 1637.51 634.998 1696.87 704.273C1725.83 738.078 1725.48 758.05 1716.22 746.7C1630.99 642.214 1554.47 736.964 1473.78 595.766C1436.57 530.656 1421.53 460.976 1266.86 505.696C1093.58 555.798 1113.24 378.314 1090.99 326.169C1077.63 294.843 1034.31 244.267 1060.22 261.885C1065.19 265.268 1061.88 268.905 1117.87 310.211C1129.86 319.055 1125.06 325.932 1139.82 328.243C1163.24 331.907 1185.37 424.881 1307.86 388.519C1430.1 352.226 1452.73 432.488 1509.81 433.325C1622.72 434.974 1636.84 347.512 1691.27 374.392C1721.49 389.315 1743.53 452.108 1714.41 412.921C1683.01 370.673 1655.33 413.575 1652.64 417.741C1648.42 424.281 1622.15 464.99 1568.16 465.95C1562.51 466.05 1562.03 466.393 1559.18 460.75Z" fill="#D4F7D2"/>
<path fill-rule="evenodd" clip-rule="evenodd" d="M1598.88 -28.5941C1650.11 -36.3827 1649.9 -26.2801 1701.92 -24.974C1711.77 -24.7271 1736.83 3.8325 1687.99 48.0964C1626.79 103.581 1601.29 83.3306 1607.54 99.9981C1618.08 128.122 1543.66 118.256 1495.81 93.3579C1436.75 62.6282 1442.58 54.5104 1437.35 52.1862C1420.41 44.658 1421.08 44.1712 1404.15 30.3491C1377.05 8.23082 1444.12 30.5719 1537.25 34.7302C1605.09 37.7572 1663.06 21.0622 1666.87 16.8251C1681.48 0.568941 1641.51 27.7951 1551.02 26.1324C1502.99 25.2514 1385.69 5.21748 1383.98 2.9652C1380.15 -2.10842 1379.53 -8.68011 1448.84 -43.0025C1555.12 -95.6413 1577.31 -54.2501 1577.69 -44.3429C1578.31 -28.217 1582.8 -28.9506 1598.88 -28.5941Z" fill="#D4F7D2"/>
<path fill-rule="evenodd" clip-rule="evenodd" d="M656.267 123.115C681.241 104.559 796.063 134.431 812.699 161.832C815.682 166.745 821.777 176.782 873.041 200.783C914.096 220.004 975.117 209.459 990.214 203.868C990.804 203.649 1022.03 188.417 992.23 196.251C888.955 223.391 836.127 164.325 791.058 135.971C705.975 82.4371 694.608 95.2925 642.658 95.4262C635.184 95.4468 639.432 87.7918 649.637 86.8114C729.602 79.1255 788.977 114.428 821.599 136.118C928.697 207.313 947.209 191.122 1061.1 155.641C1161.7 124.308 1248.56 177.194 1268.57 243.939C1268.98 245.3 1290.61 335.179 1265.38 261.426C1228.13 152.535 1098.02 161.407 1043.05 191.187C922.711 256.383 865.232 219.14 793.012 165.223C735.968 122.639 694.035 129.108 673.22 125.662C668.688 124.912 669.353 126.866 664.793 128.285L656.267 123.115Z" fill="#D4F7D2"/>
<path fill-rule="evenodd" clip-rule="evenodd" d="M259.628 -62.0996C279.953 -34.4416 226.889 49.7085 138.598 49.9519C127.508 49.9862 68.9282 44.8098 68.3728 31.0801C67.4232 7.66949 156.043 -109.888 259.628 -62.0996Z" fill="#D4F7D2"/>
<path fill-rule="evenodd" clip-rule="evenodd" d="M1509.41 233.267C1504.46 240.881 1492.98 258.501 1401.56 197.649C1324.18 146.152 1292.22 69.3069 1316.77 123.526C1321.77 134.565 1359.77 179.655 1383.48 194.807C1383.61 194.893 1455.64 233.058 1424.39 238.138C1413.39 239.928 1366.33 227.484 1319.57 173.481C1271.58 118.051 1275.44 115.192 1225.59 61.645C1222.96 58.8237 1188.73 22.0502 1201.12 20.0893C1202.05 19.9419 1232.32 33.7333 1233.21 7.1036C1234.28 -24.7471 1179.99 -29.639 1197.85 -34.1127C1214.34 -38.247 1274.68 1.28266 1229.87 39.28C1223.28 44.8644 1237.85 71.9499 1247.67 57.017C1267.26 27.2335 1437.13 198.554 1458.56 212.517C1479.54 226.191 1480.66 223.192 1509.41 233.267Z" fill="#D4F7D2"/>
<path fill-rule="evenodd" clip-rule="evenodd" d="M1428.01 102.133C1455.14 130.604 1454.47 130.679 1480.1 160.339C1533.31 221.908 1548.65 207.075 1616.71 166.294C1648.88 147.021 1573.72 223.417 1537.36 227.273C1446.36 236.934 1415.33 113.59 1259.45 38.1301C1245.27 31.2635 1253.45 14.1229 1266.3 15.3262C1374.66 25.494 1413.98 102.047 1425.69 122.133C1434.74 136.078 1443.67 153.39 1439.78 137.158C1435.74 120.288 1433.13 121.67 1424.33 106.514L1428.01 102.133Z" fill="#D4F7D2"/>
<path fill-rule="evenodd" clip-rule="evenodd" d="M554.779 -33.9227C553.435 -35.4859 556.38 -35.7533 555.023 -37.3371C550.11 -43.0518 548.934 -40.3778 548.759 -40.9298C547.165 -46.0034 549.442 -51.5947 548.873 -56.8808C548.663 -58.8417 547.943 -60.9808 546.463 -62.2801C541.283 -66.8361 536.836 14.6264 548.235 -23.7892C550.24 -30.5494 552.541 -28.4274 554.474 -30.5117C553.926 -27.2104 550.021 19.9503 532.424 26.6831C507.876 36.0796 514.725 44.6053 480.759 74.8276C462.138 91.3991 470.441 25.7472 463.56 18.003C450.17 2.92273 488.987 -97.6858 517.241 -124.963C534.79 -141.905 638.257 -183.848 656.224 -184.914C684.952 -186.618 649.704 -179.347 626.386 -162.943C548.924 -108.453 528.753 -87.1306 493.395 6.52911C493.159 7.15646 483.855 43.57 497.938 13.5534C527.388 -49.2121 522.476 -52.3969 569.126 -103.946C587.799 -124.576 576.469 -97.5761 575.996 -96.9487C554.618 -68.6667 556.798 -50.6279 554.779 -33.9227Z" fill="#D4F7D2"/>
<path fill-rule="evenodd" clip-rule="evenodd" d="M803.125 -37.9318C796.92 -18.94 787.452 31.0112 731.495 18.0357C712.63 13.6614 725.207 -1.70686 714.45 -2.8827C713.692 -2.96498 652.014 16.5513 681.595 -22.7007C692.356 -36.9788 700.412 -39.1796 687.711 -51.7026C683.364 -55.9877 676.028 -72.2987 752.029 -92.768C839.881 -116.429 733.284 -95.8054 731.68 -95.4557C729.763 -95.0375 697.707 -88.0475 707.498 -99.3535C710.737 -103.094 712.935 -98.5033 765.721 -120.289C804.335 -136.226 867.67 -140.402 850.954 -123.878C849.552 -122.49 748.262 -115.373 775.645 -108.609C781.549 -107.152 863.518 -123.467 817.938 -101.493C765.454 -76.1931 770.925 -54.8256 731.985 -46.7969C731.234 -46.6427 690.258 -31.0927 728.173 -37.9832C744.851 -41.0137 746.565 -36.6805 759.221 -47.6162C784.384 -69.3608 888.965 -135.184 841.969 -88.356C809.783 -56.286 824.266 -25.5254 809.779 -33.2524C809.09 -42.5426 809.207 -42.4981 809.035 -43.2865C807.688 -49.5086 805.929 -43.739 803.125 -37.9318Z" fill="#D4F7D2"/>
<path fill-rule="evenodd" clip-rule="evenodd" d="M663.084 -121.316C662.162 -123.071 652.477 -141.528 649.145 -141.805C646.697 -142.008 645.419 -139.467 659.004 -112.708C673.45 -84.2576 655.768 -16.559 638.439 -4.07382C628.761 2.90241 624.973 -1.31421 620.356 9.87175C607.384 41.2939 607.692 41.3008 606.544 44.0124C587.521 89.0408 580.775 45.9082 579.647 38.0886C558.091 -111.254 609.852 -127.01 643.496 -152.57C648.415 -156.31 684.448 -131.223 663.084 -121.316Z" fill="#D4F7D2"/>
<path fill-rule="evenodd" clip-rule="evenodd" d="M1060.87 -126.287C1112.93 -127.041 1127.01 -85.1325 1128.48 -81.7215C1138.79 -57.9269 1187.1 -60.7757 1160.59 -20.0804C1145.73 2.72343 1200.18 20.8479 1187.08 41.0498C1177.16 56.353 1153.81 35.4757 1153.04 35.0163C1138.98 26.5832 1129.55 54.1761 1122.43 58.451C1090.25 77.765 1101.35 2.02066 1094.37 -9.70008C1078.65 -36.1 1081.72 -37.1765 1080.18 -68.2387C1078.79 -96.5755 1059.3 -90.6415 1059.2 -119.071C1058.61 -120.404 1058.03 -121.738 1057.45 -123.071L1060.87 -126.287Z" fill="#D4F7D2"/>
<path fill-rule="evenodd" clip-rule="evenodd" d="M1016.67 -48.6761C1019.41 -42.9511 1006.03 18.875 1023.97 -30.0546C1033.16 -55.1073 1040.29 -52.303 1044.12 -78.4459C1046.26 -93.0531 1065.82 -58.5936 1030.67 -6.17765C1029.8 -4.87497 1011.74 22.0563 1025.94 12.8278C1032.21 8.75178 1056.05 -28.9507 1059.15 -48.1379C1065.74 -89.0011 1039.9 -115.483 1056.87 -101.27C1071.27 -89.1931 1086.37 27.082 1063.89 33.4137C1044.07 38.9981 1078.18 62.5424 1060.14 74.7946C1040.66 88.0202 1035.66 70.9928 1027.07 79.5768C1010.6 96.0283 991.142 87.2318 988.187 68.8913C986.977 61.37 988.797 51.4319 979.346 43.5678C969.418 35.306 983.038 -11.8066 1009.86 -43.9178C1012.13 -45.5016 1014.4 -47.0889 1016.67 -48.6761Z" fill="#D4F7D2"/>
<path fill-rule="evenodd" clip-rule="evenodd" d="M1358.61 529.572C1306.12 519.373 1305.11 529.513 1301.49 526.709C1282.4 511.907 1396.81 464.355 1451.94 572.506C1496.73 660.409 1512.51 677.399 1619.32 700.388C1707.42 719.352 1729.1 825.621 1709.95 794.418C1655.45 705.609 1587.05 723.819 1534.24 695.4C1426.66 637.506 1476.44 573.147 1358.61 529.572Z" fill="#D4F7D2"/>
<path fill-rule="evenodd" clip-rule="evenodd" d="M980.4 1237.83C978.926 1227.7 971.085 1173.84 912.224 1129.5C830.155 1067.68 821.002 1060.36 839.956 1000.82C858.022 944.082 832.5 879.699 788.833 848.465C768.528 833.944 709.125 827.924 677.532 794.942C658.094 774.648 704.758 799.323 706.87 800.441C780.129 839.182 795.535 817.736 833.1 871.883C885.015 946.719 848.79 1019.46 848.095 1021.75C830.104 1080.96 931.857 1093.03 980.633 1186.95C1007.39 1238.48 974.174 1315.1 967.215 1322.18C942.433 1347.4 975.292 1309.88 980.4 1237.83Z" fill="#D4F7D2"/>
<path fill-rule="evenodd" clip-rule="evenodd" d="M966.399 1255.12C953.986 1322.04 941.614 1320.19 938.429 1315.89C923.482 1295.69 1022.36 1243.72 868.026 1129.1C793.029 1073.41 784.328 1061.16 816.57 1000.8C836.388 963.708 812.356 862.726 735.124 853.353C707.247 849.973 683.332 821.064 645.009 796.93C643.871 796.217 625.428 784.602 635.695 782.97C643.384 781.747 714.436 838.191 738.686 842.743C742.526 843.463 768.075 841.3 798.856 872.263C868.814 942.635 818.229 1015.31 817.972 1042.35C817.269 1115.69 971.665 1128.92 966.399 1255.12Z" fill="#D4F7D2"/>
<path fill-rule="evenodd" clip-rule="evenodd" d="M812.15 973.96C801.119 1034.02 752.919 1052.38 828.571 1113.2C891.337 1163.66 971.081 1198.98 926.893 1299.36C904.034 1351.28 923.633 1283.75 924.017 1282.43C963.457 1146.53 692.519 1124.53 792.49 997.11C818.317 964.186 776.823 881.03 741.689 875.497C711.089 870.674 708.241 873.9 642.568 819.464C641.457 818.546 615.64 797.147 635.585 802.838C666.987 811.803 663.504 848.919 745.089 865.189C749.937 866.156 771.123 874.236 792.229 902.641C813.045 930.659 812.274 968.039 812.15 973.96Z" fill="#D4F7D2"/>
<path fill-rule="evenodd" clip-rule="evenodd" d="M205.184 127.965C208.05 123.402 232.143 85.0651 236.716 68.4387C245.067 38.0724 241.08 35.5836 252.026 28.2131C276.3 11.8713 234.302 100.169 227.114 113.015C185.62 187.148 234.645 215.015 224.776 230.356C221.454 235.515 209.723 233.887 201.338 157.309C200.409 148.828 192.517 163.161 192.078 163.96C129.639 277.372 24.6077 258.161 23.6478 243.362C23.4558 240.386 44.5113 231.7 46.4311 230.908C146.231 189.732 157.386 200.942 205.184 127.965Z" fill="#D4F7D2"/>
<path fill-rule="evenodd" clip-rule="evenodd" d="M431.253 -124.604C441.449 -111.076 435.785 1.13983 374.891 47.8925C337.326 76.7367 389.756 -141.144 431.253 -124.604Z" fill="#D4F7D2"/>
<path fill-rule="evenodd" clip-rule="evenodd" d="M1536.61 837.931C1618.37 876.82 1608.41 889.799 1660.52 963.613C1695.36 1012.97 1760.45 1056.22 1709.03 1024.21C1631.32 975.824 1622.37 903.786 1553.5 865.768C1481.81 826.194 1459.02 834.027 1389.52 730.59C1388.62 729.24 1355.79 680.375 1385.81 710.591C1443.47 768.618 1443.09 793.325 1536.61 837.931Z" fill="#D4F7D2"/>
<path fill-rule="evenodd" clip-rule="evenodd" d="M1544.13 826.343C1495.77 803.57 1490.95 798.479 1489.98 797.838C1439.69 764.324 1404.76 710.338 1404.55 709.646C1397.03 684.415 1412.98 711.182 1432.18 729.094C1504.83 796.847 1563.66 813.82 1564.05 813.991C1659.96 857.093 1654.57 923.605 1705 991.03C1733.18 1028.7 1694.81 989.525 1694.24 988.856C1625.16 907.531 1647.47 883.705 1544.13 826.343Z" fill="#D4F7D2"/>
<path fill-rule="evenodd" clip-rule="evenodd" d="M401.906 -119.563C386.798 -93.5645 381.676 -81.3055 380.226 -77.8362C377.977 -78.827 377.017 -81.7992 374.769 -82.7899C372.383 -83.8423 369.02 -74.8881 368.084 -68.6009C316.792 7.51712 276.505 24.7743 272.443 23.379C264.311 20.5885 267.27 -7.61464 267.554 -10.3263C281.178 -81.5078 287.43 -88.7137 358.033 -99.358C380.24 -102.704 279.254 -17.4602 282.703 6.99945C283.903 15.5012 292.333 -8.69102 338.969 -56.6367C387.021 -106.033 379.616 -117.349 401.906 -119.563Z" fill="#D4F7D2"/>
<path fill-rule="evenodd" clip-rule="evenodd" d="M1098.56 584.877C1103.85 584.243 1110.94 588.932 1109.85 576.159C1109.79 575.398 1109.33 565.909 1119.39 575.703C1207.88 661.893 1301.63 617.544 1357.45 666.881C1378.77 685.732 1383.16 702.784 1372.46 693.418C1304.43 633.807 1280.62 673.463 1205.2 643.364C1134.13 615.003 1136.93 591.041 1115.81 597.283C1026.82 623.591 1020.22 457.927 1035.78 508.029C1042.26 528.899 1045.14 574.805 1098.56 584.877Z" fill="#D4F7D2"/>
<path fill-rule="evenodd" clip-rule="evenodd" d="M986.836 242.044C989.575 238.924 987.895 237.731 991.838 236.353C1000.51 233.312 1026.39 220.738 1037.18 217.697C1190.78 174.448 1204.16 334.86 1200.04 338.336C1195.96 341.774 1188.02 318.734 1186.61 316.204C1120.72 197.876 1000.39 244.776 986.836 242.044Z" fill="#D4F7D2"/>
<path fill-rule="evenodd" clip-rule="evenodd" d="M1517.29 760.183C1611.56 811.214 1659.27 807.117 1704.5 949.844C1726.59 1019.56 1696.88 930.259 1652.69 871.758C1584.23 781.132 1516.67 810.13 1437.47 713.564C1427.42 701.318 1434.82 698.603 1437.34 700.331C1438.34 701.017 1448.17 715.113 1452.42 718.487C1482.73 742.525 1483.56 740.78 1517.29 760.183Z" fill="#D4F7D2"/>
<path fill-rule="evenodd" clip-rule="evenodd" d="M196.332 121.456C195.664 128.785 194.796 129.66 175.232 135.655C95.0654 157.225 92.059 149.33 87.6401 154.983C81.9837 162.216 93.348 158.456 105.6 160.016C90.1564 175.254 89.6182 174.266 88.5967 175.819C81.5005 186.577 96.543 179.851 114.914 162.48C119.498 160.828 168.386 143.245 172.894 143.821C174.879 144.075 175.174 147.794 177.162 148.048C169.709 155.662 152.37 178.973 118.288 189.611C90.5712 198.26 31.3161 190.478 43.2665 175.518C87.0299 120.736 167.447 129.156 196.332 121.456Z" fill="#D4F7D2"/>
<path fill-rule="evenodd" clip-rule="evenodd" d="M129.833 363.703C140.865 358.708 139.854 357.762 146.864 348.101C192.921 284.65 204.196 210.829 200.703 253.8C192.472 354.978 96.2376 397.994 108.425 374.093C140.426 311.335 139.302 310.971 165.654 226.338C171.845 206.458 189.291 199.862 189.15 216.194C188.701 267.746 131.613 360.069 129.833 363.703Z" fill="#D4F7D2"/>
<path fill-rule="evenodd" clip-rule="evenodd" d="M1585.4 377.412C1599.58 375.722 1625.2 338.147 1681.37 345.692C1718.4 350.666 1731.83 397.868 1711.2 375.071C1658.03 316.323 1618.76 409.544 1543.95 417.011C1445.49 426.839 1405.81 352.531 1437.18 374.954C1518.44 433.051 1574.01 390.964 1585.4 377.412Z" fill="#D4F7D2"/>
<path fill-rule="evenodd" clip-rule="evenodd" d="M1591.69 758.985C1611.85 767.538 1671.83 784.141 1713.03 901.808C1728.18 945.057 1697.64 884.098 1696.73 882.278C1640.37 769.763 1515.1 766.575 1474.87 710.097C1460.29 689.61 1481.58 706.61 1482.04 707.025C1518.55 739.531 1585.76 756.976 1591.69 758.985Z" fill="#D4F7D2"/>
<path fill-rule="evenodd" clip-rule="evenodd" d="M1718.89 867.642C1648.11 718.611 1552.45 756.804 1490.42 688.269C1475.6 671.893 1495 679.034 1495.59 679.592C1537.84 719.952 1563.6 709.132 1619.13 734.669C1707.6 775.353 1721.77 866.699 1721.75 866.956L1718.89 867.642Z" fill="#D4F7D2"/>
<path fill-rule="evenodd" clip-rule="evenodd" d="M1129.09 135.326C1127.28 134.883 1104.82 129.422 1113.6 117.897C1133.62 91.6445 1287.71 144.462 1300.08 253.904C1306.76 313.012 1297.12 231.933 1255.04 189.87C1215.88 150.728 1139.9 137.242 1129.09 135.326Z" fill="#D4F7D2"/>
<path fill-rule="evenodd" clip-rule="evenodd" d="M1075.7 442.203C1090.63 505.308 1114.45 548.208 1092.28 517.138C1023.16 420.239 1085 378.118 1005.71 295.188C981.192 269.549 1014.82 279.453 1022.41 286.035C1068.91 326.343 1062.53 358.811 1075.7 442.203Z" fill="#D4F7D2"/>
<path fill-rule="evenodd" clip-rule="evenodd" d="M1324.4 608.364C1345.88 615.248 1368.38 618.083 1396.65 668.719C1397.01 669.367 1413.21 703.604 1392.25 676.902C1328.94 596.232 1268.08 664.091 1157.03 589.485C1147.91 583.359 1154.7 579.732 1156.61 580.579C1166.49 584.936 1216.06 616.653 1269.81 613.28C1297.57 611.538 1296.95 605.251 1324.4 608.364Z" fill="#D4F7D2"/>
<path fill-rule="evenodd" clip-rule="evenodd" d="M957.746 104.584C970.81 105.87 978.201 103.666 973.697 116.377C968.746 130.34 1052.25 125.829 1019.19 132.932C956.464 146.418 902.361 113.607 893.605 108.301C888.628 105.284 844.755 72.0173 842.259 65.1371C841.121 62.0037 846.297 33.444 883.472 71.2425C905.724 93.8681 951.366 103.271 957.746 104.584Z" fill="#D4F7D2"/>
<path fill-rule="evenodd" clip-rule="evenodd" d="M1393.58 633.105C1346.69 587.271 1328.34 592.756 1276.74 600.322C1242.94 605.279 1180.05 583.47 1164.18 575.228C1113.32 548.818 1201.07 581.176 1204.95 580.792C1258.44 575.485 1259.39 587.254 1311.34 574.097C1353.57 563.401 1401.89 615.738 1393.58 633.105Z" fill="#D4F7D2"/>
<path fill-rule="evenodd" clip-rule="evenodd" d="M1122.61 500.172C1054.52 430.276 1104.04 354.097 1034.44 287.365C1023.04 276.432 1022.47 264.201 1029.92 267.478C1109.19 302.342 1085.13 411.901 1118.2 480.46C1126.35 497.361 1126.35 497.313 1126.32 497.382C1125.67 498.784 1123.26 498.77 1122.61 500.172Z" fill="#D4F7D2"/>
<path fill-rule="evenodd" clip-rule="evenodd" d="M1242.66 563.252C1268.34 560.002 1267.98 558.775 1290.93 546.256C1313.4 533.997 1356.37 530.469 1391.88 560.51C1412.3 577.787 1430.79 619.861 1431.03 624.125C1431.98 640.933 1417.41 609.58 1402.29 594.493C1345.52 537.839 1312.95 578.987 1236.52 568.415C1241.57 563.914 1241.41 563.835 1242.66 563.252Z" fill="#D4F7D2"/>
<path fill-rule="evenodd" clip-rule="evenodd" d="M469.225 792.76C469.332 793.864 474.23 844.374 459.791 802.962C449.514 773.487 454.426 819.136 454.001 819.557C445.05 828.426 432.623 784.213 432.846 805.629C432.856 806.469 436.696 823.863 435.589 825.498C425.733 840.037 383.639 762.644 474.511 762.678C530.266 762.698 519.972 801.405 519.985 802.598C520.291 825.889 507.428 782.184 503.051 786.246C502.577 786.685 504.892 826.606 494.165 799.499C481.327 767.049 488.231 806.421 487.168 808.505C481.042 820.531 481.2 792.129 469.225 792.76Z" fill="#D4F7D2"/>
<path fill-rule="evenodd" clip-rule="evenodd" d="M923.763 736.043C931.047 735.289 930.619 735.001 937.407 735.981C937.479 739.68 934.232 740.739 939.817 744.997C991.231 784.198 976.439 838.924 1112.18 839.579C1141.7 839.723 1152.71 888.772 1147.44 895.886C1139.08 907.181 1141.05 893.298 1134.91 874.844C1120.83 832.531 1072.87 875.303 999.809 825.284C962.336 796.34 927.955 743.975 923.763 736.043Z" fill="#D4F7D2"/>
<path fill-rule="evenodd" clip-rule="evenodd" d="M974.864 145.617C1014.58 147.561 1041.99 143.273 1021.05 152.326C1017.39 153.907 942.243 165.645 890.115 135.919C885.805 133.461 807.826 82.8965 807.493 82.3C805.663 79.0296 809.965 52.2286 854.078 87.3908C906.137 128.888 910.433 135.415 974.864 145.617Z" fill="#D4F7D2"/>
<path fill-rule="evenodd" clip-rule="evenodd" d="M412.513 249.556C412.287 235.827 369.435 222.083 389.966 182.718C399.322 164.775 460.562 261.493 412.75 263.31C329.419 266.474 373.429 156.27 372.723 191.816C372.61 197.425 371.801 238.003 412.513 249.556Z" fill="#D4F7D2"/>
<path fill-rule="evenodd" clip-rule="evenodd" d="M1587.11 363.702C1587.11 362.008 1586.96 330.822 1579.69 343.914C1577.1 348.573 1559.08 402.182 1489.44 390.023C1446.46 382.515 1411.26 336.448 1448.86 358.717C1494.23 385.597 1566.75 387.438 1577.98 315.506C1578.1 314.721 1584.5 279.665 1587.38 312.3C1588.58 325.869 1596.25 322.907 1597.7 336.308C1599.59 353.695 1595.31 368.751 1592.85 367.641C1590.73 366.688 1589.23 364.655 1587.11 363.702Z" fill="#D4F7D2"/>
<path fill-rule="evenodd" clip-rule="evenodd" d="M255.572 -57.2552C256.892 -54.9206 259.569 -56.5216 259.274 -50.6938C259.202 -49.2848 258.308 -49.7408 258.229 -48.1912C251.277 -47.2794 251.671 -47.3445 244.63 -45.8635C223.344 -36.7893 217.177 -42.6411 209.409 -20.9994C194.325 21.0363 137.631 33.1478 160.397 18.7051C181.322 5.43488 181.151 5.40402 197.647 -13.1764C202.858 -19.0488 197.058 -19.7344 196.461 -21.2119C184.384 -14.8802 159.76 -13.173 122.126 11.722C120.343 12.9013 94.2653 30.1516 96.9529 20.5838C98.4887 15.1091 172.855 -32.1339 211.072 -43.1828C247.773 -53.7928 192.186 -53.8476 152.423 -40.238C135.248 -34.3622 149.146 -46.2201 149.633 -46.4635C186.259 -64.9342 215.264 -50.4264 255.572 -57.2552Z" fill="#181818"/>
<path fill-rule="evenodd" clip-rule="evenodd" d="M967.044 171.757C953.859 179.576 904.22 175.929 858.194 148.103C851.53 144.075 776.098 98.4706 775.806 96.2697C770.928 59.3214 874.073 141.051 893.185 150.201C942.739 173.927 952.413 159.385 967.044 171.757Z" fill="#D4F7D2"/>
<path fill-rule="evenodd" clip-rule="evenodd" d="M1506.39 364.595C1422.84 352.83 1439.86 317.298 1395.84 299.989C1369.27 289.537 1308.82 303.517 1342.22 292.183C1404.21 271.152 1461.41 330.869 1476.25 338.257C1513.66 356.882 1528.44 345.552 1533.42 347.794C1535.74 348.84 1542.21 361.215 1506.39 364.595Z" fill="#D4F7D2"/>
<path fill-rule="evenodd" clip-rule="evenodd" d="M1129.47 626.067C1131.47 626.217 1161.11 628.466 1152.2 636.55C1148.26 640.122 1019.4 654.863 1001.95 521.293C1000.17 507.663 1008.58 513.885 1008.94 514.697C1031.5 564.929 1025.58 607.634 1129.47 626.067Z" fill="#D4F7D2"/>
<path fill-rule="evenodd" clip-rule="evenodd" d="M974.348 298.13C984.975 275.706 991.54 291.764 1008.39 309.494C1057.34 361.015 1042.99 464.342 1034.33 438.46C1028.22 420.202 1027.69 341.533 974.348 298.13Z" fill="#D4F7D2"/>
<path fill-rule="evenodd" clip-rule="evenodd" d="M673.044 322.453C652.804 345.414 576.738 372.706 589.172 305.624C592.027 290.222 612.623 307.235 656.476 317.756C668.32 320.598 668.42 319.978 673.044 322.453Z" fill="#D4F7D2"/>
<path fill-rule="evenodd" clip-rule="evenodd" d="M242.818 215.909C260.757 283.82 290.445 271.997 292.94 284.718C296.684 303.796 199.466 254.15 238.985 141.128C242.89 129.952 250.877 118.999 274.888 57.9001C325.391 -70.6099 272.293 86.7134 271.391 89.0514C250.401 143.511 234.182 150.782 242.818 215.909Z" fill="#D4F7D2"/>
<path fill-rule="evenodd" clip-rule="evenodd" d="M694.333 606.716C742.238 680.088 746.087 676.886 775.024 703.814C793.683 721.184 735.066 707.821 679.424 603.963C643.463 536.84 649.826 516.933 655.42 528.774C665.688 550.491 661.502 552.373 694.333 606.716Z" fill="#181818"/>
<path fill-rule="evenodd" clip-rule="evenodd" d="M1124.79 700.776C1124.85 704.338 1125.75 705.476 1122.22 705.802C1048.99 712.572 989.759 623.808 957.847 621.264C953.939 620.952 911.907 617.606 912.277 603.249C912.38 599.283 914.635 604.216 961.457 609.612C1014.74 615.755 989.475 672.552 1124.79 700.776Z" fill="#181818"/>
<path fill-rule="evenodd" clip-rule="evenodd" d="M1198.44 267.237C1171.93 229.668 1169.72 231.413 1130.14 208.339C1116.83 200.577 1144.79 189.035 1173.7 209.586C1228.95 248.845 1223.71 335.275 1214.84 305.433C1208.08 282.688 1199.56 269.51 1198.44 267.237Z" fill="#D4F7D2"/>
<path fill-rule="evenodd" clip-rule="evenodd" d="M896.169 374.005C945.188 412.639 974.522 431.343 962.788 460.242C949.74 492.364 845.721 368.406 907.496 420.274C910.481 422.783 950.128 456.074 950.896 442.413C951.242 436.314 892.974 384.203 892.542 377.295C892.439 375.667 896.272 375.633 896.169 374.005Z" fill="#181818"/>
<path fill-rule="evenodd" clip-rule="evenodd" d="M1243.92 267.454C1244.06 269.185 1247.72 316.746 1238.51 288.464C1222.1 238.071 1216.99 240.851 1181.23 202.114C1172.98 193.187 1189.39 188.48 1204.05 196.601C1232.87 212.569 1242.64 261.077 1243.92 267.454Z" fill="#D4F7D2"/>
<path fill-rule="evenodd" clip-rule="evenodd" d="M968.847 300.519C981.398 316.025 986.194 315.792 998.165 339.967C1008.8 361.437 1012.7 395.41 1011.76 397.443C1001.59 419.386 1002.13 352.555 957.737 312.353C924.405 282.172 967.795 299.762 968.847 300.519Z" fill="#D4F7D2"/>
<path fill-rule="evenodd" clip-rule="evenodd" d="M821.057 648.152L817.036 652.084C807.917 642.883 735.402 569.727 726.156 518.052C726.139 517.959 730.28 511.692 733.516 518.929C765.583 590.663 777.918 582.569 821.057 648.152Z" fill="#181818"/>
<path fill-rule="evenodd" clip-rule="evenodd" d="M693.412 320.646C640.931 302.449 641.003 302.73 636.275 300.557C515.876 245.254 717.971 305.01 715.65 322.802C715.105 326.977 695.129 321.146 693.412 320.646Z" fill="#D4F7D2"/>
<path fill-rule="evenodd" clip-rule="evenodd" d="M277.627 181.725C274.086 245.231 295.686 240.871 296.002 257.309C296.273 271.326 235.622 210.923 290.03 124.02C307.962 95.3745 310.602 96.2247 313.012 97.6439C317.558 100.321 301.065 120.434 293.51 134.205C281.316 156.426 282.92 156.899 277.627 181.725Z" fill="#D4F7D2"/>
<path fill-rule="evenodd" clip-rule="evenodd" d="M735.291 740.213C728.894 737.045 672.296 709.034 659.787 692.62C643.095 670.714 672.635 695.17 673.503 695.89C709.649 725.814 802.698 756.013 806.408 758.632C835.735 779.344 740.769 742.345 735.291 740.213Z" fill="#181818"/>
<path fill-rule="evenodd" clip-rule="evenodd" d="M320.74 609.434C400.938 610.901 412.957 562.441 477.138 587.744C511.409 601.255 462.065 591.176 460.758 590.909C407.533 580.038 362.646 625.464 330.514 616.472C324.94 614.912 326.434 618.19 323.911 620.514C320.675 615.485 320.987 615.564 320.74 609.434Z" fill="#D4F7D2"/>
<path fill-rule="evenodd" clip-rule="evenodd" d="M622.34 375.172C543.617 395.151 632.796 357.058 648.569 348.391C651.369 346.856 693.12 323.925 686.484 335.875C676.748 353.403 627.928 372.937 622.34 375.172Z" fill="#D4F7D2"/>
<path fill-rule="evenodd" clip-rule="evenodd" d="M1417.23 126.839C1412.69 124.549 1401.94 119.129 1365.85 89.3281C1298.06 33.3401 1285.17 44.9066 1287.4 37.7315C1293.85 16.9194 1383.15 93.675 1398.2 104.882C1412.64 115.629 1412.78 115.656 1417.23 126.839Z" fill="#181818"/>
<path fill-rule="evenodd" clip-rule="evenodd" d="M396.696 700.126C400.032 693.973 399.977 693.993 400.299 693.479C404.786 686.318 423.593 703.668 427.573 712.814C438.684 738.357 377.55 743.067 396.696 700.126Z" fill="#D4F7D2"/>
<path fill-rule="evenodd" clip-rule="evenodd" d="M1256.82 68.756C1257.99 68.5606 1259.38 62.8939 1269.61 72.5201C1271.43 74.2375 1282.21 84.3779 1289.33 96.8494C1328.72 165.772 1351.43 164.462 1344.62 170.492C1335.08 178.925 1270.55 91.2959 1256.82 68.756Z" fill="#181818"/>
<path fill-rule="evenodd" clip-rule="evenodd" d="M803.507 274.559C805.972 277.123 808.434 279.691 810.899 282.255C804.69 285.755 761.455 310.136 721.97 277.236C687.675 248.663 784.087 299.738 803.507 274.559Z" fill="#D4F7D2"/>
<path fill-rule="evenodd" clip-rule="evenodd" d="M395.779 286.607C327.597 275.493 347.329 219.885 351.344 233.145C361.919 268.109 387.215 271.653 405.652 278.575C420.304 284.077 396.79 286.501 395.779 286.607Z" fill="#D4F7D2"/>
<path fill-rule="evenodd" clip-rule="evenodd" d="M824.62 4.34758C822.775 5.24918 802.097 15.3553 799.786 10.813C796.444 4.23789 802.09 -12.7827 810.475 -12.8273C853.025 -13.057 853.149 -43.9787 861.098 -30.297C865.329 -23.0157 827.962 2.10216 824.62 4.34758Z" fill="#D4F7D2"/>
<path fill-rule="evenodd" clip-rule="evenodd" d="M991.988 833.022C952.229 835.734 925.068 780.38 930.135 774.696C934.499 769.801 934.962 775.238 955.112 798.391C971.862 817.64 975.842 813.064 991.988 833.022Z" fill="#D4F7D2"/>
<path fill-rule="evenodd" clip-rule="evenodd" d="M426.011 -96.046C434.214 -48.9367 387.66 24.6205 381.953 27.4933C367.335 34.85 439.35 -75.7549 416.967 -88.3087C421.146 -92.8784 420.828 -92.9229 426.011 -96.046Z" fill="#181818"/>
<path fill-rule="evenodd" clip-rule="evenodd" d="M258.23 -48.1849C253.89 -36.3819 245.118 3.00378 179.548 30.3088C118.486 55.742 206.061 18.7526 236.465 -21.4696C237.566 -22.9265 248.532 -37.4377 248.58 -40.859C248.608 -42.981 244.604 -43.7352 244.631 -45.8572C251.672 -47.3382 251.278 -47.2731 258.23 -48.1849Z" fill="#181818"/>
<path fill-rule="evenodd" clip-rule="evenodd" d="M1616.43 474.093C1634.24 466.075 1635.95 469.026 1649.11 454.909C1657.24 446.181 1662.15 431.797 1667.15 433.264C1687.85 439.328 1620.64 494.497 1589.05 488.913C1572.92 486.061 1614.03 474.755 1616.43 474.093Z" fill="#D4F7D2"/>
<path fill-rule="evenodd" clip-rule="evenodd" d="M422.516 -106.871C427.429 -102.73 427.22 -102.394 426.013 -96.0451C420.83 -92.9221 421.149 -92.8775 416.97 -88.3078C414.491 -82.816 388.808 -25.9263 386.583 -19.4231C366.645 38.8892 377.282 -49.0867 422.516 -106.871Z" fill="#181818"/>
<path fill-rule="evenodd" clip-rule="evenodd" d="M175.235 135.648C177.339 139.676 182.763 139.501 177.165 148.041C175.176 147.787 174.882 144.068 172.897 143.814C168.389 143.238 119.5 160.821 114.917 162.473C112.953 161.894 113.09 162.939 111.067 162.343C110.611 162.206 111.067 162.343 105.603 160.008C93.3506 158.449 81.9863 162.209 87.6427 154.976C92.0616 149.323 95.068 157.218 175.235 135.648Z" fill="#181818"/>
<path fill-rule="evenodd" clip-rule="evenodd" d="M1578.23 6.5037C1575.47 7.28874 1504.37 27.4735 1542.43 9.18108C1574.26 -6.11519 1670.86 -15.2648 1639.46 -1.49408C1639.37 -1.45294 1611.45 -2.73851 1578.23 6.5037Z" fill="#181818"/>
<path fill-rule="evenodd" clip-rule="evenodd" d="M318.33 767.915C318.021 750.654 317.805 750.778 318.241 747.706C318.412 746.479 338.621 671.616 329.601 737.158C325.145 769.547 338.34 792.906 338.144 795.666C337.952 798.388 327.953 803.399 318.33 767.915Z" fill="#D4F7D2"/>
<path fill-rule="evenodd" clip-rule="evenodd" d="M447.159 100.776C448.373 100.756 519.38 99.5112 460.396 108.215C380.277 120.039 381.847 128.945 375.001 127.464C368.985 126.165 371.028 113.196 447.159 100.776Z" fill="#D4F7D2"/>
<path fill-rule="evenodd" clip-rule="evenodd" d="M335.356 222.94C338.211 250.869 350.021 283.227 336.072 258.781C309.309 211.885 337.68 159.475 336.641 182.005C335.685 202.762 335.39 202.286 335.356 222.94Z" fill="#D4F7D2"/>
<path fill-rule="evenodd" clip-rule="evenodd" d="M694.39 290.426C659.989 277.276 660.17 277.464 657.239 276.223C622.502 261.527 694.657 274.588 734.643 298.918C770.844 320.947 697.444 291.646 694.39 290.426Z" fill="#D4F7D2"/>
<path fill-rule="evenodd" clip-rule="evenodd" d="M364.203 167.554C384.268 150.839 385.138 146.259 388.7 151.127C392.653 156.529 387.795 156.18 372.674 172.405C350.644 196.038 351.035 210.807 347.011 215.27C344.292 218.284 332.527 210.131 364.203 167.554Z" fill="#D4F7D2"/>
<path fill-rule="evenodd" clip-rule="evenodd" d="M1526.79 82.8088C1524.22 81.3313 1507.4 71.6778 1496.06 61.9591C1483.81 51.4519 1490.93 48.0169 1492.37 49.0487C1550.81 90.8787 1557.66 82.97 1558.57 89.0892C1559.86 97.6389 1529.16 83.8681 1526.79 82.8088Z" fill="#181818"/>
<path fill-rule="evenodd" clip-rule="evenodd" d="M488.894 -30.3777C476.889 -9.32562 469.813 20.1562 472.651 -4.08057C475.469 -28.1563 510.693 -91.1583 501.235 -61.3953C500.426 -58.8516 500.32 -59.0985 488.894 -30.3777Z" fill="#181818"/>
<path fill-rule="evenodd" clip-rule="evenodd" d="M1609.24 48.1753C1610.86 47.9387 1628.19 45.3916 1629.57 45.5665C1656.58 49.0151 1583.45 62.4671 1579.51 54.3905C1575.11 45.3642 1583.58 49.9716 1609.24 48.1753Z" fill="#181818"/>
<path fill-rule="evenodd" clip-rule="evenodd" d="M554.776 -33.9263L554.471 -30.5154C552.537 -28.4311 550.237 -30.5531 548.231 -23.7928C536.833 14.6227 541.279 -66.8397 546.459 -62.2838C547.94 -60.9845 548.66 -58.8454 548.869 -56.8845C549.438 -51.5983 547.162 -46.007 548.756 -40.9334C548.931 -40.3815 550.107 -43.0554 555.019 -37.3407C556.377 -35.7569 553.432 -35.4895 554.776 -33.9263Z" fill="#181818"/>
<path fill-rule="evenodd" clip-rule="evenodd" d="M339.095 754.433C342.42 735.356 341.392 734.108 344.158 733.601C349.77 732.576 348.015 744.355 348.906 768.317C351.655 842.299 339.235 755.787 339.095 754.433Z" fill="#D4F7D2"/>
<path fill-rule="evenodd" clip-rule="evenodd" d="M420.302 77.0452C421.392 76.7298 492.861 59.0991 434.165 80.014C420.696 84.81 406.726 94.083 405.941 94.1139C390.909 94.7241 418.773 77.964 420.302 77.0452Z" fill="#D4F7D2"/>
<path fill-rule="evenodd" clip-rule="evenodd" d="M615.63 -67.9752L619.387 -69.2128C620.34 -65.9835 627.248 -42.5763 624.43 -27.4308C615.702 19.5173 615.633 -64.6534 615.63 -67.9752Z" fill="#181818"/>
<path fill-rule="evenodd" clip-rule="evenodd" d="M1475.6 72.1288C1456.67 51.9954 1459.78 48.6804 1461.96 48.629C1464.54 48.5673 1498.87 84.1889 1475.6 72.1288Z" fill="#181818"/>
<path fill-rule="evenodd" clip-rule="evenodd" d="M1077.44 132.441C1076.6 132.674 1041.46 139.328 1071.03 123.621C1083.08 117.217 1088.48 127.618 1084.46 130.103C1082.36 131.396 1079.54 131.145 1077.44 132.441Z" fill="#181818"/>
<path fill-rule="evenodd" clip-rule="evenodd" d="M105.597 160.012C111.061 162.347 110.605 162.21 111.061 162.347C113.084 162.943 112.947 161.898 114.911 162.477C96.5396 179.847 81.4971 186.573 88.5933 175.816C89.6149 174.263 90.1531 175.25 105.597 160.012Z" fill="#181818"/>
<path fill-rule="evenodd" clip-rule="evenodd" d="M728.822 354.889C727.951 355.318 717.938 360.237 717.938 360.237C717.242 360.36 717.386 359.884 710.516 355.451C726.539 337.533 730.34 342.027 730.375 343.864C730.385 344.485 728.825 346.151 728.661 346.326C724.293 350.991 728.757 351.464 728.822 354.889Z" fill="#D4F7D2"/>
<path fill-rule="evenodd" clip-rule="evenodd" d="M429.633 680.27C444.056 698.323 423.494 686.102 423.422 685.735C422.441 680.764 424.855 682.156 429.633 680.27Z" fill="#181818"/>
<path fill-rule="evenodd" clip-rule="evenodd" d="M1561.54 51.6594C1565.46 47.1892 1568.49 45.7939 1568.87 51.4983C1568.91 52.0845 1568.84 62.8625 1561.54 51.6594Z" fill="#181818"/>
<path fill-rule="evenodd" clip-rule="evenodd" d="M1242.66 563.255C1241.41 563.838 1241.57 563.917 1236.52 568.418C1236.37 563.488 1238.21 564.835 1242.66 563.255Z" fill="#181818"/>
<path fill-rule="evenodd" clip-rule="evenodd" d="M492.646 524.648C493.077 524.891 498.041 527.692 498.041 527.692C498.285 529.608 495.357 526.695 495.597 528.59L492.646 524.648Z" fill="#181818"/>
</g>
<path d="M4886.53 802.238C4880.48 802.238 4877.46 799.591 4877.46 794.296L4876.32 21.5594C4876.32 15.5076 4879.35 12.4817 4885.4 12.4817H4987.52L5179.29 459.557L5173.62 21.5594C5173.62 15.5076 5177.02 12.4817 5183.83 12.4817H5296.16C5300.7 12.4817 5302.97 15.5076 5302.97 21.5594L5304.11 795.43C5304.11 799.969 5302.22 802.238 5298.43 802.238H5198.58L5002.27 384.666L5010.22 793.161C5010.22 799.213 5006.81 802.238 5000.01 802.238H4886.53Z" fill="#D4F7D2"/>
<path d="M4353.5 796.565L4494.2 17.0205C4494.96 13.9946 4496.85 12.4817 4499.88 12.4817H4664.41C4667.44 12.4817 4669.33 13.9946 4670.08 17.0205L4805.11 796.565C4805.87 800.347 4804.36 802.238 4800.57 802.238H4674.62C4671.6 802.238 4669.71 800.347 4668.95 796.565L4656.47 713.731H4502.15L4489.66 796.565C4488.91 800.347 4487.02 802.238 4483.99 802.238H4358.04C4355.01 802.238 4353.5 800.347 4353.5 796.565ZM4524.84 592.318H4633.77L4587.25 273.465L4580.44 231.48L4575.9 273.465L4524.84 592.318Z" fill="#D4F7D2"/>
<path d="M4181.67 802.238C4177.89 802.238 4176 800.347 4176 796.565L4177.13 17.0205C4177.13 13.9946 4178.64 12.4817 4181.67 12.4817H4308.76C4311.78 12.4817 4313.3 13.9946 4313.3 17.0205L4314.43 796.565C4314.43 800.347 4312.92 802.238 4309.89 802.238H4181.67Z" fill="#D4F7D2"/>
<path d="M3646.45 802.238C3642.67 802.238 3640.78 800.347 3640.78 796.565L3643.05 17.0205C3643.05 13.9946 3644.56 12.4817 3647.59 12.4817L3859.78 11.347C3901.38 10.5905 3939.21 20.4247 3973.25 40.8494C4008.04 61.2741 4035.66 88.8854 4056.08 123.683C4076.51 157.724 4086.72 195.548 4086.72 237.154V562.815C4086.72 606.69 4076.13 646.783 4054.95 683.094C4033.76 718.648 4005.4 747.016 3969.84 768.197C3934.29 789.378 3894.2 800.347 3849.56 801.104L3646.45 802.238ZM3779.21 662.669H3849.56C3877.55 662.669 3901 652.835 3919.92 633.167C3939.58 613.499 3949.42 590.048 3949.42 562.815V236.019C3949.42 211.812 3940.34 191.009 3922.18 173.61C3904.79 155.455 3883.98 146.756 3859.78 147.512L3780.35 148.647L3779.21 662.669Z" fill="#D4F7D2"/>
<path d="M3117.95 796.565L3258.66 17.0205C3259.41 13.9946 3261.3 12.4817 3264.33 12.4817H3428.86C3431.89 12.4817 3433.78 13.9946 3434.54 17.0205L3569.57 796.565C3570.32 800.347 3568.81 802.238 3565.03 802.238H3439.07C3436.05 802.238 3434.16 800.347 3433.4 796.565L3420.92 713.731H3266.6L3254.12 796.565C3253.36 800.347 3251.47 802.238 3248.44 802.238H3122.49C3119.47 802.238 3117.95 800.347 3117.95 796.565ZM3289.29 592.318H3398.22L3351.7 273.465L3344.89 231.48L3340.35 273.465L3289.29 592.318Z" fill="#D4F7D2"/>
<path d="M2854.48 813.585C2812.87 813.585 2775.05 803.373 2741.01 782.948C2707.72 761.767 2681.25 733.778 2661.58 698.98C2641.91 664.182 2632.08 625.224 2632.08 582.105L2633.21 228.076C2633.21 186.47 2642.67 148.647 2661.58 114.605C2681.25 79.8078 2707.72 52.1966 2741.01 31.7718C2775.05 10.5906 2812.87 0 2854.48 0C2896.08 0 2933.53 10.2124 2966.81 30.6371C3000.1 51.0618 3026.58 78.673 3046.24 113.471C3065.91 147.512 3075.75 185.714 3075.75 228.076V280.273C3075.75 283.299 3074.23 284.812 3071.21 284.812H2944.12C2941.09 284.812 2939.58 283.299 2939.58 280.273V228.076C2939.58 203.113 2931.26 181.553 2914.62 163.398C2898.73 145.243 2878.69 136.165 2854.48 136.165C2827.24 136.165 2806.44 145.621 2792.07 164.533C2777.7 182.688 2770.51 203.869 2770.51 228.076V582.105C2770.51 610.095 2778.45 632.789 2794.34 650.188C2810.98 667.586 2831.03 676.286 2854.48 676.286C2878.69 676.286 2898.73 666.83 2914.62 647.918C2931.26 628.25 2939.58 606.312 2939.58 582.105V529.909C2939.58 526.883 2941.09 525.37 2944.12 525.37H3072.34C3075.37 525.37 3076.88 526.883 3076.88 529.909V582.105C3076.88 625.224 3066.67 664.182 3046.24 698.98C3026.58 733.778 3000.1 761.767 2966.81 782.948C2933.53 803.373 2896.08 813.585 2854.48 813.585Z" fill="#D4F7D2"/>
<path d="M2108.36 802.238C2105.34 802.238 2103.82 800.347 2103.82 796.565L2106.09 17.0205C2106.09 13.9946 2107.61 12.4817 2110.63 12.4817H2339.84C2380.69 12.4817 2418.14 22.6941 2452.18 43.1188C2486.98 62.7871 2514.59 89.6419 2535.01 123.683C2555.44 156.968 2565.65 194.791 2565.65 237.154C2565.65 265.143 2561.49 290.485 2553.17 313.179C2544.85 335.117 2535.01 354.029 2523.67 369.915C2512.32 385.044 2502.11 396.391 2493.03 403.956C2533.88 449.344 2554.3 502.676 2554.3 563.95L2555.44 796.565C2555.44 800.347 2553.55 802.238 2549.76 802.238H2421.54C2418.52 802.238 2417 801.104 2417 798.834V563.95C2417 536.717 2407.17 513.266 2387.5 493.598C2368.59 473.173 2345.14 462.961 2317.15 462.961H2242.26L2241.12 796.565C2241.12 800.347 2239.61 802.238 2236.59 802.238H2108.36ZM2242.26 326.796H2339.84C2363.29 326.796 2384.1 318.096 2402.25 300.697C2420.41 283.299 2429.49 262.117 2429.49 237.154C2429.49 212.947 2420.41 192.144 2402.25 174.745C2384.85 157.346 2364.05 148.647 2339.84 148.647H2242.26V326.796Z" fill="#D4F7D2"/>
<path d="M1581 796.565L1721.7 17.0205C1722.46 13.9946 1724.35 12.4817 1727.38 12.4817H1891.91C1894.94 12.4817 1896.83 13.9946 1897.58 17.0205L2032.61 796.565C2033.37 800.347 2031.86 802.238 2028.07 802.238H1902.12C1899.1 802.238 1897.21 800.347 1896.45 796.565L1883.97 713.731H1729.65L1717.16 796.565C1716.41 800.347 1714.52 802.238 1711.49 802.238H1585.54C1582.51 802.238 1581 800.347 1581 796.565ZM1752.34 592.318H1861.27L1814.75 273.465L1807.94 231.48L1803.4 273.465L1752.34 592.318Z" fill="#D4F7D2"/>
</svg>
