<svg width="455" height="748" viewBox="0 0 455 748" fill="none" xmlns="http://www.w3.org/2000/svg">
    <path d="M448.017 385.496C442.908 369.487 443.064 372.041 442.011 367.283C440.256 359.367 440.509 355.467 437.214 349.188C436.863 348.525 435.225 346.165 431.949 341.446C425.573 332.262 423.369 329.61 421.926 324.638C421.088 321.752 420.737 319.509 420.756 317.696C420.815 310.344 425.319 305.567 425.105 292.736C424.949 283.513 420.269 274.933 411.279 258.163C404.357 245.274 399.053 235.407 389.381 223.22C389.381 223.22 371.519 200.62 338.351 178.624C336.83 177.61 335.289 176.752 335.289 176.752C334.49 176.304 333.827 175.953 333.378 175.719C331.877 169.635 329.79 161.601 327.021 152.241C325.422 146.84 322.341 136.427 318.246 125.195C313.098 111.116 306.898 97.1546 302.296 88.5553C280.651 48.035 240.833 25.1034 234.632 21.6129C224.434 15.88 203.198 4.23875 173.266 0.904307C165.701 0.0658214 150.569 -1.02616 131.791 1.97679C125.921 2.91277 112.31 5.42823 96.1648 12.0776C85.4985 16.465 61.1239 26.8388 39.1673 51.2134C34.1754 56.7708 11.0878 83.2514 3.40489 125.429C0.635938 140.619 -4.04399 165.793 6.89532 194.516C9.54727 201.497 19.1216 224.409 42.1702 241.179C62.0794 255.667 78.3421 255.102 81.852 254.907C86.5319 254.653 92.5573 253.561 92.6548 252.079C92.7328 250.792 88.2674 250.324 83.3145 246.561C81.384 245.099 79.6876 243.363 76.8211 239.366C73.9937 235.407 68.4168 228.056 64.9458 218.521C61.4164 208.849 55.8005 193.288 59.3494 174.256C65.7063 140.171 96.7692 122.797 106.149 118.156C106.48 118 106.987 117.746 107.67 117.415C150.432 97.2326 184.752 114.977 184.752 114.977C196.042 120.827 203.881 129.193 202.906 130.948C202.087 132.43 196.062 129.563 183.738 128.705C176.484 128.198 170.809 128.666 167.436 128.959C160.319 129.563 153.942 130.792 148.463 132.196C140.624 134.146 129.002 137.987 116.698 145.923C107.884 151.617 98.8167 157.467 91.9333 169.128C89.5544 173.164 81.891 187.009 84.309 204.227C85.4594 212.378 88.6769 218.287 90.9194 222.537C92.9668 226.418 96.4183 232.833 103.263 239.19C109.405 244.904 115.742 248.219 120.422 250.13C114.085 259.938 107.065 264.715 102.873 267.036C102.873 267.036 75.7486 282.109 36.4373 260.932C29.5344 257.208 22.768 252.294 22.768 252.294C21.4031 251.299 20.1746 250.364 19.0826 249.506C16.9766 258.124 15.5922 265.612 14.6757 271.54C12.2187 287.296 12.1992 297.104 12.2382 300.146C12.2382 301.511 12.2772 302.545 12.2967 303.11C12.9402 327.056 18.7901 346.906 20.2916 351.82C20.7401 353.302 22.8655 359.893 26.2975 368.18C27.604 371.32 28.5789 373.484 30.3924 377.443C33.0444 383.254 34.2339 385.516 35.4818 387.622C38.1338 392.146 39.5183 394.407 41.7217 395.382C42.7552 395.85 44.5297 396.533 50.8865 394.993C56.054 393.745 58.6279 393.14 62.3328 391.678C67.4613 389.669 73.5452 387.251 80.526 382.259C86.8634 377.735 90.0224 375.454 91.2119 371.963C93.2983 365.821 89.3594 361.375 92.7328 356.832C92.9083 356.598 95.5018 353.185 98.9727 353.263C102.931 353.361 104.725 357.924 107.494 357.085C109.327 356.52 110.224 353.985 110.4 353.497C110.946 351.957 110.692 350.65 110.653 349.675C110.517 346.594 109.542 344.878 109.932 341.017C109.99 340.335 110.809 332.847 115.606 329.747C116.405 329.22 118.414 327.933 120.208 328.674C121.69 329.298 121.748 330.8 123.347 331.424C124.79 331.989 126.487 331.482 127.54 330.644C129.47 329.103 129.568 326.061 129.626 322.688C129.743 316.467 129.802 313.367 129.607 308.453C129.197 298.177 129.041 292.951 131.732 289.382C133.429 287.14 136.49 284.839 139.22 285.58C142.925 286.574 144.758 292.834 145.031 293.887C145.967 297.28 145.382 299.249 147 300.77C148.209 301.901 150.218 302.369 151.407 301.472C152.187 300.887 152.558 299.776 152.636 295.72C152.733 291.137 152.324 289.168 152.324 287.101C152.324 282.655 153.903 279.73 154.8 277.332C158.954 266.353 151.485 259.977 154.8 246.425C156.282 240.399 160.416 230.805 166.793 230.142C170.926 229.713 174.612 233.165 175.645 234.159C179.584 237.942 180.852 243.402 181.476 246.113C182.763 251.709 181.846 254.283 184.108 256.642C185.454 258.046 187.677 259.119 189.705 258.456C192.025 257.695 193.039 254.946 193.78 252.996C194.482 251.085 194.794 249.369 195.126 240.575C195.301 235.719 195.301 233.73 196.393 231.039C196.939 229.713 197.7 227.861 199.435 226.671C201.755 225.072 203.159 226.535 205.402 225.599C209.672 223.844 208.307 217.078 212.948 214.231C215.444 212.69 218.525 213.002 220.612 213.997C222.971 215.128 224.239 217.214 225.311 219.008C227.846 223.22 226.871 225.111 229.113 227.568C230.79 229.401 233.618 230.805 235.899 229.967C237.674 229.323 237.888 227.783 240.072 224.741C241.086 223.317 243.816 219.515 247.931 217.39C249.393 216.629 253.937 214.27 257.622 216.317C259.416 217.312 260.566 219.067 262.302 221.777C264.486 225.131 264.798 227.003 266.182 227.217C267.645 227.451 268.249 225.54 270.297 224.214C274.138 221.699 279.715 223.376 283.147 225.891C283.927 226.457 288.997 230.201 288.938 235.388C288.919 237.104 288.353 237.825 284.668 244.611C280.846 251.67 280.495 252.664 280.788 253.854C281.685 257.442 286.891 256.584 288.275 260.289C289.66 264.033 286.15 269.863 282.289 273.042C278.233 276.376 275.874 275.05 267.255 277.975C263.101 279.379 253.761 282.538 253.8 286.184C253.82 288.407 257.349 290.104 262.438 292.541C270.57 296.441 273.865 295.778 275.562 299.113C277.063 302.096 276.4 306.445 274.489 308.882C272.481 311.456 270.394 310.305 265.519 312.645C264.154 313.308 263.16 313.952 262.341 314.595C259.377 316.935 258.655 318.242 256.062 319.529C255.75 319.685 254.444 320.309 252.806 320.601C249.023 321.284 246.449 319.626 243.582 318.749C237.81 316.974 230.069 318.164 228.606 321.459C227.592 323.741 229.581 326.88 231.609 330C238.746 341.037 246.917 341.895 247.638 348.232C248.126 352.444 244.986 356.052 243.758 357.475C236.484 365.899 223.088 363.208 220.261 362.623C204.485 359.464 197.271 347.433 191.967 351.177C189.783 352.737 188.71 356.403 188.944 359.113C189.354 364.242 194.404 365.684 194.677 370.832C194.872 374.674 192.279 377.638 192.064 377.891C187.092 383.429 176.542 380.134 171.901 378.691C160.143 375.025 155.483 368.648 151.154 371.456C148.931 372.899 147.098 376.136 147.741 378.476C148.424 380.914 151.407 381.421 151.68 383.975C151.856 385.652 150.744 387.037 150.218 387.68C146.708 392.029 135.281 393.706 122.002 392.048C109.6 390.664 103.419 389.24 99.3627 390.683C98.0562 391.151 96.3793 392.146 93.0058 394.154C89.4764 396.26 88.6769 397.04 85.635 399.009C79.9996 402.636 75.2416 404.84 72.3362 406.127C69.5282 407.375 65.9598 408.915 60.9874 410.222C57.419 411.158 54.3185 411.665 51.959 411.957C54.377 415.155 57.7309 419.796 61.4164 425.587C70.3277 439.549 83.568 458.659 86.4149 480.889C90.1394 509.982 77.1331 524.022 88.0139 537.788C92.6938 543.697 95.7553 541.942 111.94 551.087C113.09 551.731 132.317 562.729 148.638 578.738C157.062 587.006 159.675 591.666 179.487 621.813C196.783 648.118 205.421 661.26 208.21 664.887C219.578 679.668 231.336 693.844 258.85 718.375C258.85 718.375 281.295 741.872 313.625 746.981C314.229 747.078 316.433 747.098 316.803 746.532C317.954 744.992 313.196 735.32 312.962 734.794C311.188 730.601 300.014 704.277 295.549 690.51C289.289 671.186 274.879 634.273 295.939 614.364C300.892 609.684 309.433 605.355 309.101 598.354C309.023 596.502 308.321 594.786 301.477 586.713C293.735 577.587 292.39 577.158 286.598 570.489C278.604 561.266 275.796 555.923 271.662 556.508C269.439 556.82 269.478 558.458 267.216 559.18C264.622 560.018 251.129 553.427 240.618 534.435C237.674 529.131 236.075 524.646 232.994 515.871C228.197 502.26 223.517 485.666 224.941 485.139C226.325 484.613 232.896 499.511 247.931 521.682C253.079 529.267 258.714 536.95 263.257 535.839C266.494 535.039 266.104 530.574 268.815 529.267C279.286 524.178 311.675 582.462 322.595 577.88C325.578 576.632 324.018 571.796 327.236 570.197C337.824 564.952 366.196 611.497 378.871 606.057C384.077 603.814 383.999 597.984 388.64 596.658C398.273 593.909 408.354 628.657 421.458 627.662C433.801 626.727 448.27 591.725 441.133 563.84C435.556 542.078 421.166 537.535 417.207 511.191C415.823 502.026 417.129 499.686 417.714 492.705C416.349 486.602 417.675 480.284 417.753 479.797C418.748 473.264 414.068 463.085 408.14 439.569C405.78 430.248 404.415 425.549 406.989 422.916C409.095 420.752 411.806 421.98 427.016 422.468C429.472 422.546 435.966 422.721 444.117 421.454C450.805 420.401 452.697 419.309 453.847 417.749C455.544 415.428 455.251 412.523 453.73 405.698C451.429 395.441 448.797 387.563 448.095 385.379L448.017 385.496Z"
          fill="currentColor"/>
</svg>
