<?xml version="1.0" encoding="UTF-8"?>
<svg id="Layer_1" data-name="Layer 1" xmlns="http://www.w3.org/2000/svg" xmlns:xlink="http://www.w3.org/1999/xlink" viewBox="0 0 1701 850">
  <defs>
    <style>
      .cls-1 {
        stroke-width: 1px;
      }

      .cls-1, .cls-2, .cls-3, .cls-4, .cls-5, .cls-6, .cls-7 {
        fill: none;
      }

      .cls-1, .cls-2, .cls-4, .cls-5, .cls-6, .cls-7 {
        stroke: #000;
        stroke-linecap: round;
        stroke-linejoin: round;
      }

      .cls-2 {
        stroke-width: 1.5px;
      }

      .cls-3, .cls-4 {
        stroke-width: 0px;
      }

      .cls-4, .cls-5 {
        opacity: .5;
      }

      .cls-8 {
        clip-path: url(#clippath-1);
      }

      .cls-5, .cls-7 {
        stroke-width: 1px;
      }

      .cls-9 {
        clip-path: url(#clippath);
      }

      .cls-6 {
        stroke-width: 1px;
      }
    </style>
    <clipPath id="clippath">
      <rect class="cls-3" width="1701" height="850"/>
    </clipPath>
    <clipPath id="clippath-1">
      <polyline class="cls-3" points="133.56 850 1567.2 850 1567.2 -.32 133.56 -.32 133.56 850"/>
    </clipPath>
  </defs>
  <g class="cls-9">
    <g class="cls-8">
      <line class="cls-5" x1="309.12" y1="709" x2="317.4" y2="709"/>
      <line class="cls-5" x1="364.92" y1="709" x2="380.64" y2="709"/>
      <line class="cls-5" x1="444" y1="709" x2="475.56" y2="709"/>
      <line class="cls-5" x1="523.08" y1="709" x2="538.92" y2="709"/>
      <line class="cls-5" x1="602.16" y1="709" x2="633.84" y2="709"/>
      <line class="cls-5" x1="681.24" y1="709" x2="697.08" y2="709"/>
      <line class="cls-5" x1="760.44" y1="709" x2="792" y2="709"/>
      <line class="cls-5" x1="839.52" y1="709" x2="855.36" y2="709"/>
      <line class="cls-5" x1="918.6" y1="709" x2="950.28" y2="709"/>
      <line class="cls-5" x1="997.68" y1="709" x2="1013.52" y2="709"/>
      <line class="cls-5" x1="1235.04" y1="709" x2="1263.96" y2="709"/>
      <line class="cls-5" x1="396.48" y1="705.04" x2="428.16" y2="705.04"/>
      <line class="cls-5" x1="554.76" y1="705.04" x2="586.32" y2="705.04"/>
      <line class="cls-5" x1="712.92" y1="705.04" x2="744.6" y2="705.04"/>
      <line class="cls-5" x1="871.08" y1="705.04" x2="902.76" y2="705.04"/>
      <line class="cls-5" x1="1029.36" y1="705.04" x2="1045.2" y2="705.04"/>
      <line class="cls-5" x1="1197.72" y1="705.04" x2="1219.2" y2="705.04"/>
      <line class="cls-5" x1="380.64" y1="697.12" x2="396.48" y2="697.12"/>
      <line class="cls-5" x1="538.92" y1="697.12" x2="554.76" y2="697.12"/>
      <line class="cls-5" x1="697.08" y1="697.12" x2="712.92" y2="697.12"/>
      <line class="cls-5" x1="855.36" y1="697.12" x2="871.08" y2="697.12"/>
      <line class="cls-5" x1="1013.52" y1="697.12" x2="1029.36" y2="697.12"/>
      <line class="cls-5" x1="412.32" y1="693.16" x2="420.24" y2="693.16"/>
      <line class="cls-5" x1="451.92" y1="693.16" x2="459.84" y2="693.16"/>
      <line class="cls-5" x1="570.48" y1="693.16" x2="578.4" y2="693.16"/>
      <line class="cls-5" x1="610.08" y1="693.16" x2="618" y2="693.16"/>
      <line class="cls-5" x1="728.76" y1="693.16" x2="736.68" y2="693.16"/>
      <line class="cls-5" x1="768.24" y1="693.16" x2="776.16" y2="693.16"/>
      <line class="cls-5" x1="886.92" y1="693.16" x2="894.84" y2="693.16"/>
      <line class="cls-5" x1="926.52" y1="693.16" x2="934.44" y2="693.16"/>
      <line class="cls-5" x1="1203.36" y1="693.16" x2="1211.28" y2="693.16"/>
      <line class="cls-5" x1="1242.96" y1="693.16" x2="1250.88" y2="693.16"/>
      <line class="cls-5" x1="349.08" y1="685.24" x2="380.64" y2="685.24"/>
      <line class="cls-5" x1="428.16" y1="685.24" x2="436.08" y2="685.24"/>
      <line class="cls-5" x1="507.24" y1="685.24" x2="538.92" y2="685.24"/>
      <line class="cls-5" x1="586.32" y1="685.24" x2="594.24" y2="685.24"/>
      <line class="cls-5" x1="665.52" y1="685.24" x2="697.08" y2="685.24"/>
      <line class="cls-5" x1="744.6" y1="685.24" x2="752.52" y2="685.24"/>
      <line class="cls-5" x1="823.68" y1="685.24" x2="855.36" y2="685.24"/>
      <line class="cls-5" x1="902.76" y1="685.24" x2="910.68" y2="685.24"/>
      <line class="cls-5" x1="981.84" y1="685.24" x2="1013.52" y2="685.24"/>
      <line class="cls-5" x1="1219.2" y1="685.24" x2="1227.12" y2="685.24"/>
      <line class="cls-5" x1="309.48" y1="681.28" x2="333.24" y2="681.28"/>
      <line class="cls-5" x1="467.76" y1="681.28" x2="491.4" y2="681.28"/>
      <line class="cls-5" x1="625.92" y1="681.28" x2="649.68" y2="681.28"/>
      <line class="cls-5" x1="784.08" y1="681.28" x2="807.84" y2="681.28"/>
      <line class="cls-5" x1="942.36" y1="681.28" x2="966" y2="681.28"/>
      <line class="cls-5" x1="1258.8" y1="681.28" x2="1263.96" y2="681.28"/>
      <line class="cls-5" x1="349.08" y1="677.32" x2="396.48" y2="677.32"/>
      <line class="cls-5" x1="507.24" y1="677.32" x2="554.76" y2="677.32"/>
      <line class="cls-5" x1="665.52" y1="677.32" x2="712.92" y2="677.32"/>
      <line class="cls-5" x1="823.68" y1="677.32" x2="871.08" y2="677.32"/>
      <line class="cls-5" x1="981.84" y1="677.32" x2="1029.36" y2="677.32"/>
      <line class="cls-5" x1="309.12" y1="171.04" x2="317.4" y2="171.04"/>
      <line class="cls-5" x1="444" y1="171.04" x2="475.56" y2="171.04"/>
      <line class="cls-5" x1="602.16" y1="171.04" x2="633.84" y2="171.04"/>
      <line class="cls-5" x1="760.44" y1="171.04" x2="792" y2="171.04"/>
      <line class="cls-5" x1="918.6" y1="171.04" x2="950.28" y2="171.04"/>
      <line class="cls-5" x1="1235.04" y1="171.04" x2="1263.96" y2="171.04"/>
      <line class="cls-5" x1="364.92" y1="167.08" x2="396.48" y2="167.08"/>
      <line class="cls-5" x1="523.08" y1="167.08" x2="554.76" y2="167.08"/>
      <line class="cls-5" x1="681.24" y1="167.08" x2="712.92" y2="167.08"/>
      <line class="cls-5" x1="839.52" y1="167.08" x2="871.08" y2="167.08"/>
      <line class="cls-5" x1="997.68" y1="167.08" x2="1029.36" y2="167.08"/>
      <line class="cls-5" x1="364.92" y1="159.16" x2="396.48" y2="159.16"/>
      <line class="cls-5" x1="428.16" y1="159.16" x2="459.84" y2="159.16"/>
      <line class="cls-5" x1="523.08" y1="159.16" x2="554.76" y2="159.16"/>
      <line class="cls-5" x1="586.32" y1="159.16" x2="618" y2="159.16"/>
      <line class="cls-5" x1="681.24" y1="159.16" x2="712.92" y2="159.16"/>
      <line class="cls-5" x1="744.6" y1="159.16" x2="776.16" y2="159.16"/>
      <line class="cls-5" x1="839.52" y1="159.16" x2="871.08" y2="159.16"/>
      <line class="cls-5" x1="902.76" y1="159.16" x2="934.44" y2="159.16"/>
      <line class="cls-5" x1="997.68" y1="159.16" x2="1029.36" y2="159.16"/>
      <line class="cls-5" x1="1219.2" y1="159.16" x2="1250.88" y2="159.16"/>
      <line class="cls-5" x1="333.24" y1="151.36" x2="349.08" y2="151.36"/>
      <line class="cls-5" x1="428.16" y1="151.36" x2="459.84" y2="151.36"/>
      <line class="cls-5" x1="491.4" y1="151.36" x2="507.24" y2="151.36"/>
      <line class="cls-5" x1="586.32" y1="151.36" x2="618" y2="151.36"/>
      <line class="cls-5" x1="649.68" y1="151.36" x2="665.52" y2="151.36"/>
      <line class="cls-5" x1="744.6" y1="151.36" x2="776.16" y2="151.36"/>
      <line class="cls-5" x1="807.84" y1="151.36" x2="823.68" y2="151.36"/>
      <line class="cls-5" x1="902.76" y1="151.36" x2="934.44" y2="151.36"/>
      <line class="cls-5" x1="966" y1="151.36" x2="981.84" y2="151.36"/>
      <line class="cls-5" x1="1219.2" y1="151.36" x2="1250.88" y2="151.36"/>
      <line class="cls-5" x1="364.92" y1="147.4" x2="412.32" y2="147.4"/>
      <line class="cls-5" x1="523.08" y1="147.4" x2="570.48" y2="147.4"/>
      <line class="cls-5" x1="681.24" y1="147.4" x2="728.76" y2="147.4"/>
      <line class="cls-5" x1="839.52" y1="147.4" x2="886.92" y2="147.4"/>
      <line class="cls-5" x1="997.68" y1="147.4" x2="1045.2" y2="147.4"/>
      <line class="cls-5" x1="1197.72" y1="147.4" x2="1203.36" y2="147.4"/>
      <line class="cls-5" x1="364.92" y1="139.48" x2="396.48" y2="139.48"/>
      <line class="cls-5" x1="523.08" y1="139.48" x2="554.76" y2="139.48"/>
      <line class="cls-5" x1="681.24" y1="139.48" x2="712.92" y2="139.48"/>
      <line class="cls-5" x1="839.52" y1="139.48" x2="871.08" y2="139.48"/>
      <line class="cls-5" x1="997.68" y1="139.48" x2="1029.36" y2="139.48"/>
      <line class="cls-5" x1="309.12" y1="135.52" x2="349.08" y2="135.52"/>
      <line class="cls-5" x1="412.32" y1="135.52" x2="428.16" y2="135.52"/>
      <line class="cls-5" x1="459.84" y1="135.52" x2="507.24" y2="135.52"/>
      <line class="cls-5" x1="570.48" y1="135.52" x2="586.32" y2="135.52"/>
      <line class="cls-5" x1="618" y1="135.52" x2="665.52" y2="135.52"/>
      <line class="cls-5" x1="728.76" y1="135.52" x2="744.6" y2="135.52"/>
      <line class="cls-5" x1="776.16" y1="135.52" x2="823.68" y2="135.52"/>
      <line class="cls-5" x1="886.92" y1="135.52" x2="902.76" y2="135.52"/>
      <line class="cls-5" x1="934.44" y1="135.52" x2="981.84" y2="135.52"/>
      <line class="cls-5" x1="1203.36" y1="135.52" x2="1219.2" y2="135.52"/>
      <line class="cls-5" x1="1250.88" y1="135.52" x2="1263.96" y2="135.52"/>
      <line class="cls-5" x1="309.12" y1="127.6" x2="380.64" y2="127.6"/>
      <line class="cls-5" x1="459.84" y1="127.6" x2="538.92" y2="127.6"/>
      <line class="cls-5" x1="618" y1="127.6" x2="697.08" y2="127.6"/>
      <line class="cls-5" x1="776.16" y1="127.6" x2="855.36" y2="127.6"/>
      <line class="cls-5" x1="934.44" y1="127.6" x2="1013.52" y2="127.6"/>
      <line class="cls-5" x1="1250.88" y1="127.6" x2="1263.96" y2="127.6"/>
      <line class="cls-5" x1="396.48" y1="123.64" x2="412.32" y2="123.64"/>
      <line class="cls-5" x1="554.76" y1="123.64" x2="570.48" y2="123.64"/>
      <line class="cls-5" x1="712.92" y1="123.64" x2="728.76" y2="123.64"/>
      <line class="cls-5" x1="871.08" y1="123.64" x2="886.92" y2="123.64"/>
      <line class="cls-5" x1="1029.36" y1="123.64" x2="1045.2" y2="123.64"/>
      <line class="cls-5" x1="1197.72" y1="123.64" x2="1203.36" y2="123.64"/>
      <line class="cls-5" x1="309.12" y1="728.8" x2="333.24" y2="728.8"/>
      <line class="cls-5" x1="459.84" y1="728.8" x2="491.4" y2="728.8"/>
      <line class="cls-5" x1="618" y1="728.8" x2="649.68" y2="728.8"/>
      <line class="cls-5" x1="776.16" y1="728.8" x2="807.84" y2="728.8"/>
      <line class="cls-5" x1="934.44" y1="728.8" x2="966" y2="728.8"/>
      <line class="cls-5" x1="1250.88" y1="728.8" x2="1263.96" y2="728.8"/>
      <line class="cls-5" x1="380.64" y1="724.84" x2="396.48" y2="724.84"/>
      <line class="cls-5" x1="538.92" y1="724.84" x2="554.76" y2="724.84"/>
      <line class="cls-5" x1="697.08" y1="724.84" x2="712.92" y2="724.84"/>
      <line class="cls-5" x1="855.36" y1="724.84" x2="871.08" y2="724.84"/>
      <line class="cls-5" x1="1013.52" y1="724.84" x2="1029.36" y2="724.84"/>
      <line class="cls-5" x1="412.32" y1="720.88" x2="428.16" y2="720.88"/>
      <line class="cls-5" x1="570.48" y1="720.88" x2="586.32" y2="720.88"/>
      <line class="cls-5" x1="728.76" y1="720.88" x2="744.6" y2="720.88"/>
      <line class="cls-5" x1="886.92" y1="720.88" x2="902.76" y2="720.88"/>
      <line class="cls-5" x1="1203.36" y1="720.88" x2="1219.2" y2="720.88"/>
      <line class="cls-5" x1="396.48" y1="697.12" x2="412.32" y2="693.16"/>
      <line class="cls-5" x1="554.76" y1="697.12" x2="570.48" y2="693.16"/>
      <line class="cls-5" x1="712.92" y1="697.12" x2="728.76" y2="693.16"/>
      <line class="cls-5" x1="871.08" y1="697.12" x2="886.92" y2="693.16"/>
      <line class="cls-5" x1="1029.36" y1="697.12" x2="1045.2" y2="693.16"/>
      <line class="cls-5" x1="1197.72" y1="694.6" x2="1203.36" y2="693.16"/>
      <line class="cls-5" x1="396.48" y1="724.84" x2="412.32" y2="720.88"/>
      <line class="cls-5" x1="554.76" y1="724.84" x2="570.48" y2="720.88"/>
      <line class="cls-5" x1="712.92" y1="724.84" x2="728.76" y2="720.88"/>
      <line class="cls-5" x1="871.08" y1="724.84" x2="886.92" y2="720.88"/>
      <line class="cls-5" x1="1029.36" y1="724.84" x2="1045.2" y2="720.88"/>
      <line class="cls-5" x1="1197.72" y1="722.2" x2="1203.36" y2="720.88"/>
      <line class="cls-5" x1="349.08" y1="151.36" x2="364.8" y2="147.4"/>
      <line class="cls-5" x1="507.24" y1="151.36" x2="523.08" y2="147.4"/>
      <line class="cls-5" x1="665.52" y1="151.36" x2="681.24" y2="147.4"/>
      <line class="cls-5" x1="823.68" y1="151.36" x2="839.52" y2="147.4"/>
      <line class="cls-5" x1="981.84" y1="151.36" x2="997.68" y2="147.4"/>
      <line class="cls-5" x1="380.64" y1="127.6" x2="396.48" y2="123.64"/>
      <line class="cls-5" x1="538.92" y1="127.6" x2="554.76" y2="123.64"/>
      <line class="cls-5" x1="697.08" y1="127.6" x2="712.92" y2="123.64"/>
      <line class="cls-5" x1="855.36" y1="127.6" x2="871.08" y2="123.64"/>
      <line class="cls-5" x1="1013.52" y1="127.6" x2="1029.36" y2="123.64"/>
      <line class="cls-5" x1="396.48" y1="139.48" x2="412.32" y2="135.52"/>
      <line class="cls-5" x1="554.76" y1="139.48" x2="570.48" y2="135.52"/>
      <line class="cls-5" x1="712.92" y1="139.48" x2="728.76" y2="135.52"/>
      <line class="cls-5" x1="871.08" y1="139.48" x2="886.92" y2="135.52"/>
      <line class="cls-5" x1="1029.36" y1="139.48" x2="1045.2" y2="135.52"/>
      <line class="cls-5" x1="1197.72" y1="136.84" x2="1203.36" y2="135.52"/>
      <line class="cls-5" x1="434.4" y1="173.44" x2="444" y2="171.04"/>
      <line class="cls-5" x1="592.68" y1="173.44" x2="602.16" y2="171.04"/>
      <line class="cls-5" x1="750.84" y1="173.44" x2="760.32" y2="171.04"/>
      <line class="cls-5" x1="909" y1="173.44" x2="918.6" y2="171.04"/>
      <line class="cls-5" x1="1225.44" y1="173.44" x2="1235.04" y2="171.04"/>
      <line class="cls-5" x1="396.48" y1="167.08" x2="428.16" y2="159.16"/>
      <line class="cls-5" x1="554.76" y1="167.08" x2="586.32" y2="159.16"/>
      <line class="cls-5" x1="712.92" y1="167.08" x2="744.6" y2="159.16"/>
      <line class="cls-5" x1="871.08" y1="167.08" x2="902.76" y2="159.16"/>
      <line class="cls-5" x1="1029.36" y1="167.08" x2="1045.2" y2="163.12"/>
      <line class="cls-5" x1="1197.72" y1="164.56" x2="1219.2" y2="159.16"/>
      <line class="cls-5" x1="396.48" y1="159.16" x2="428.16" y2="151.36"/>
      <line class="cls-5" x1="554.76" y1="159.16" x2="586.32" y2="151.36"/>
      <line class="cls-5" x1="712.92" y1="159.16" x2="744.6" y2="151.36"/>
      <line class="cls-5" x1="871.08" y1="159.16" x2="902.76" y2="151.36"/>
      <line class="cls-5" x1="1029.36" y1="159.16" x2="1045.2" y2="155.2"/>
      <line class="cls-5" x1="1197.72" y1="156.64" x2="1219.2" y2="151.36"/>
      <line class="cls-5" x1="349.08" y1="685.24" x2="333.24" y2="681.28"/>
      <line class="cls-5" x1="507.24" y1="685.24" x2="491.4" y2="681.28"/>
      <line class="cls-5" x1="665.52" y1="685.24" x2="649.68" y2="681.28"/>
      <line class="cls-5" x1="823.68" y1="685.24" x2="807.84" y2="681.28"/>
      <line class="cls-5" x1="981.84" y1="685.24" x2="966.12" y2="681.28"/>
      <line class="cls-5" x1="1029.36" y1="705.04" x2="1013.52" y2="709"/>
      <line class="cls-5" x1="871.08" y1="705.04" x2="855.36" y2="709"/>
      <line class="cls-5" x1="712.92" y1="705.04" x2="697.08" y2="709"/>
      <line class="cls-5" x1="554.76" y1="705.04" x2="538.92" y2="709"/>
      <line class="cls-5" x1="396.48" y1="705.04" x2="380.76" y2="709"/>
      <line class="cls-5" x1="1219.2" y1="705.04" x2="1235.04" y2="709"/>
      <line class="cls-5" x1="902.76" y1="705.04" x2="918.6" y2="709"/>
      <line class="cls-5" x1="744.6" y1="705.04" x2="760.32" y2="709"/>
      <line class="cls-5" x1="586.32" y1="705.04" x2="602.16" y2="709"/>
      <line class="cls-5" x1="428.16" y1="705.04" x2="444" y2="709"/>
      <line class="cls-5" x1="1203.36" y1="147.4" x2="1219.2" y2="151.24"/>
      <line class="cls-5" x1="886.92" y1="147.4" x2="902.76" y2="151.24"/>
      <line class="cls-5" x1="728.76" y1="147.4" x2="744.6" y2="151.24"/>
      <line class="cls-5" x1="570.48" y1="147.4" x2="586.32" y2="151.24"/>
      <line class="cls-5" x1="412.32" y1="147.4" x2="428.16" y2="151.24"/>
      <line class="cls-5" x1="981.84" y1="135.52" x2="997.68" y2="139.48"/>
      <line class="cls-5" x1="823.68" y1="135.52" x2="839.52" y2="139.48"/>
      <line class="cls-5" x1="665.52" y1="135.52" x2="681.24" y2="139.48"/>
      <line class="cls-5" x1="507.24" y1="135.52" x2="523.08" y2="139.48"/>
      <line class="cls-5" x1="349.08" y1="135.52" x2="364.8" y2="139.48"/>
      <line class="cls-5" x1="981.84" y1="135.52" x2="997.68" y2="139.48"/>
      <line class="cls-5" x1="823.68" y1="135.52" x2="839.52" y2="139.48"/>
      <line class="cls-5" x1="665.52" y1="135.52" x2="681.24" y2="139.48"/>
      <line class="cls-5" x1="507.24" y1="135.52" x2="523.08" y2="139.48"/>
      <line class="cls-5" x1="349.08" y1="135.52" x2="364.8" y2="139.48"/>
      <line class="cls-5" x1="1219.68" y1="119.8" x2="1250.76" y2="127.6"/>
      <line class="cls-5" x1="903.24" y1="119.8" x2="934.32" y2="127.6"/>
      <line class="cls-5" x1="745.08" y1="119.8" x2="776.16" y2="127.6"/>
      <line class="cls-5" x1="586.92" y1="119.8" x2="618" y2="127.6"/>
      <line class="cls-5" x1="428.64" y1="119.8" x2="459.72" y2="127.6"/>
      <line class="cls-5" x1="1250.88" y1="693.16" x2="1263.96" y2="696.4"/>
      <line class="cls-5" x1="934.44" y1="693.16" x2="997.68" y2="709"/>
      <line class="cls-5" x1="776.16" y1="693.16" x2="839.4" y2="709"/>
      <line class="cls-5" x1="618" y1="693.16" x2="681.24" y2="709"/>
      <line class="cls-5" x1="459.84" y1="693.16" x2="523.08" y2="709"/>
      <line class="cls-5" x1="309.12" y1="695.08" x2="364.8" y2="709"/>
      <line class="cls-5" x1="950.28" y1="681.28" x2="1013.52" y2="697.12"/>
      <line class="cls-5" x1="792" y1="681.28" x2="855.24" y2="697.12"/>
      <line class="cls-5" x1="633.84" y1="681.28" x2="697.08" y2="697.12"/>
      <line class="cls-5" x1="475.56" y1="681.28" x2="538.8" y2="697.12"/>
      <line class="cls-5" x1="317.4" y1="681.28" x2="380.64" y2="697.12"/>
      <line class="cls-5" x1="1197.72" y1="691.72" x2="1203.36" y2="693.16"/>
      <line class="cls-5" x1="977.88" y1="676.36" x2="981.84" y2="677.32"/>
      <line class="cls-5" x1="1013.52" y1="685.24" x2="1045.08" y2="693.16"/>
      <line class="cls-5" x1="819.72" y1="676.36" x2="823.68" y2="677.32"/>
      <line class="cls-5" x1="855.24" y1="685.24" x2="886.92" y2="693.16"/>
      <line class="cls-5" x1="661.44" y1="676.36" x2="665.4" y2="677.32"/>
      <line class="cls-5" x1="697.08" y1="685.24" x2="728.64" y2="693.16"/>
      <line class="cls-5" x1="503.28" y1="676.36" x2="507.24" y2="677.32"/>
      <line class="cls-5" x1="538.92" y1="685.24" x2="570.48" y2="693.16"/>
      <line class="cls-5" x1="345" y1="676.36" x2="349.08" y2="677.32"/>
      <line class="cls-5" x1="380.64" y1="685.24" x2="412.32" y2="693.16"/>
      <line class="cls-5" x1="1197.72" y1="679.84" x2="1219.08" y2="685.24"/>
      <line class="cls-5" x1="1029.24" y1="677.32" x2="1045.2" y2="681.28"/>
      <line class="cls-5" x1="871.08" y1="677.32" x2="902.76" y2="685.24"/>
      <line class="cls-5" x1="712.92" y1="677.32" x2="744.48" y2="685.24"/>
      <line class="cls-5" x1="554.64" y1="677.32" x2="586.32" y2="685.24"/>
      <line class="cls-5" x1="396.48" y1="677.32" x2="428.04" y2="685.24"/>
      <line class="cls-5" x1="950.28" y1="171.04" x2="959.76" y2="173.44"/>
      <line class="cls-5" x1="792" y1="171.04" x2="801.6" y2="173.44"/>
      <line class="cls-5" x1="633.84" y1="171.04" x2="643.32" y2="173.44"/>
      <line class="cls-5" x1="475.56" y1="171.04" x2="485.16" y2="173.44"/>
      <line class="cls-5" x1="317.4" y1="171.04" x2="327" y2="173.44"/>
      <line class="cls-5" x1="1250.88" y1="159.16" x2="1263.96" y2="162.52"/>
      <line class="cls-5" x1="934.44" y1="159.16" x2="991.44" y2="173.44"/>
      <line class="cls-5" x1="776.16" y1="159.16" x2="833.28" y2="173.44"/>
      <line class="cls-5" x1="618" y1="159.16" x2="675" y2="173.44"/>
      <line class="cls-5" x1="459.84" y1="159.16" x2="516.84" y2="173.44"/>
      <line class="cls-5" x1="309.12" y1="161.08" x2="358.56" y2="173.44"/>
      <line class="cls-5" x1="1250.88" y1="151.36" x2="1263.96" y2="154.6"/>
      <line class="cls-5" x1="934.44" y1="151.36" x2="997.68" y2="167.08"/>
      <line class="cls-5" x1="776.16" y1="151.36" x2="839.4" y2="167.08"/>
      <line class="cls-5" x1="618" y1="151.36" x2="681.24" y2="167.08"/>
      <line class="cls-5" x1="459.84" y1="151.36" x2="523.08" y2="167.08"/>
      <line class="cls-5" x1="309.12" y1="153.16" x2="364.8" y2="167.08"/>
      <line class="cls-5" x1="1219.2" y1="720.88" x2="1250.76" y2="728.8"/>
      <line class="cls-5" x1="902.76" y1="720.88" x2="934.44" y2="728.8"/>
      <line class="cls-5" x1="744.6" y1="720.88" x2="776.16" y2="728.8"/>
      <line class="cls-5" x1="586.32" y1="720.88" x2="618" y2="728.8"/>
      <line class="cls-5" x1="428.16" y1="720.88" x2="459.72" y2="728.8"/>
      <line class="cls-5" x1="966" y1="728.8" x2="971.04" y2="730"/>
      <line class="cls-5" x1="807.84" y1="728.8" x2="812.88" y2="730"/>
      <line class="cls-5" x1="649.68" y1="728.8" x2="654.72" y2="730"/>
      <line class="cls-5" x1="491.4" y1="728.8" x2="496.44" y2="730"/>
      <line class="cls-5" x1="333.24" y1="728.8" x2="338.28" y2="730"/>
      <line class="cls-5" x1="950.28" y1="709" x2="1013.52" y2="724.84"/>
      <line class="cls-5" x1="792" y1="709" x2="855.24" y2="724.84"/>
      <line class="cls-5" x1="633.84" y1="709" x2="697.08" y2="724.84"/>
      <line class="cls-5" x1="475.56" y1="709" x2="538.8" y2="724.84"/>
      <line class="cls-5" x1="317.4" y1="709" x2="380.64" y2="724.84"/>
      <line class="cls-5" x1="1203.36" y1="123.64" x2="1250.76" y2="135.52"/>
      <line class="cls-5" x1="886.92" y1="123.64" x2="934.44" y2="135.52"/>
      <line class="cls-5" x1="728.76" y1="123.64" x2="776.16" y2="135.52"/>
      <line class="cls-5" x1="570.48" y1="123.64" x2="618" y2="135.52"/>
      <line class="cls-5" x1="412.32" y1="123.64" x2="459.72" y2="135.52"/>
      <line class="cls-5" x1="1219.2" y1="135.52" x2="1263.96" y2="146.68"/>
      <line class="cls-5" x1="902.76" y1="135.52" x2="997.68" y2="159.16"/>
      <line class="cls-5" x1="744.6" y1="135.52" x2="839.4" y2="159.16"/>
      <line class="cls-5" x1="586.32" y1="135.52" x2="681.24" y2="159.16"/>
      <line class="cls-5" x1="428.16" y1="135.52" x2="522.96" y2="159.16"/>
      <line class="cls-5" x1="309.12" y1="145.24" x2="364.8" y2="159.16"/>
      <line class="cls-5" x1="1167.24" y1="250.96" x2="1167.24" y2="245.68"/>
      <line class="cls-5" x1="1167.24" y1="177.88" x2="1167.24" y2="143.92"/>
      <line class="cls-5" x1="1167.24" y1="422.56" x2="1167.24" y2="415.12"/>
      <line class="cls-5" x1="1167.24" y1="347.32" x2="1167.24" y2="339.52"/>
      <line class="cls-5" x1="1162.92" y1="730" x2="1162.92" y2="705.16"/>
      <line class="cls-5" x1="1162.92" y1="228.76" x2="1162.92" y2="194.8"/>
      <line class="cls-5" x1="1162.92" y1="398.2" x2="1162.92" y2="364.36"/>
      <line class="cls-5" x1="306.96" y1="584.68" x2="306.96" y2="567.76"/>
      <line class="cls-5" x1="306.96" y1="415.12" x2="306.96" y2="398.2"/>
      <line class="cls-5" x1="306.96" y1="245.68" x2="306.96" y2="228.76"/>
      <line class="cls-5" x1="1154.52" y1="240.88" x2="1154.52" y2="228.76"/>
      <line class="cls-5" x1="1154.52" y1="415.12" x2="1154.52" y2="398.2"/>
      <line class="cls-5" x1="302.76" y1="720.28" x2="302.76" y2="711.76"/>
      <line class="cls-5" x1="302.76" y1="677.92" x2="302.76" y2="669.4"/>
      <line class="cls-5" x1="302.76" y1="550.72" x2="302.76" y2="542.32"/>
      <line class="cls-5" x1="302.76" y1="508.36" x2="302.76" y2="499.96"/>
      <line class="cls-5" x1="302.76" y1="381.28" x2="302.76" y2="372.76"/>
      <line class="cls-5" x1="302.76" y1="338.92" x2="302.76" y2="330.4"/>
      <line class="cls-5" x1="302.76" y1="211.72" x2="302.76" y2="203.32"/>
      <line class="cls-5" x1="302.76" y1="169.36" x2="302.76" y2="160.96"/>
      <line class="cls-5" x1="1150.2" y1="720.28" x2="1150.2" y2="711.76"/>
      <line class="cls-5" x1="1150.2" y1="211.72" x2="1150.2" y2="203.32"/>
      <line class="cls-5" x1="1150.2" y1="169.36" x2="1150.2" y2="160.96"/>
      <line class="cls-5" x1="1150.2" y1="381.28" x2="1150.2" y2="372.76"/>
      <line class="cls-5" x1="294.24" y1="703.36" x2="294.24" y2="694.84"/>
      <line class="cls-5" x1="294.24" y1="618.52" x2="294.24" y2="584.68"/>
      <line class="cls-5" x1="294.24" y1="533.8" x2="294.24" y2="525.4"/>
      <line class="cls-5" x1="294.24" y1="449.08" x2="294.24" y2="415.12"/>
      <line class="cls-5" x1="294.24" y1="364.36" x2="294.24" y2="355.84"/>
      <line class="cls-5" x1="294.24" y1="279.52" x2="294.24" y2="245.68"/>
      <line class="cls-5" x1="294.24" y1="194.8" x2="294.24" y2="186.28"/>
      <line class="cls-5" x1="1141.8" y1="703.36" x2="1141.8" y2="694.84"/>
      <line class="cls-5" x1="1141.8" y1="194.8" x2="1141.8" y2="186.28"/>
      <line class="cls-5" x1="1141.8" y1="364.36" x2="1141.8" y2="355.84"/>
      <line class="cls-5" x1="1311.24" y1="703.36" x2="1311.24" y2="694.84"/>
      <line class="cls-5" x1="1311.24" y1="618.52" x2="1311.24" y2="584.68"/>
      <line class="cls-5" x1="1311.24" y1="533.8" x2="1311.24" y2="525.4"/>
      <line class="cls-5" x1="1311.24" y1="449.08" x2="1311.24" y2="415.12"/>
      <line class="cls-5" x1="1311.24" y1="364.36" x2="1311.24" y2="355.84"/>
      <line class="cls-5" x1="1311.24" y1="279.52" x2="1311.24" y2="245.68"/>
      <line class="cls-5" x1="1311.24" y1="194.8" x2="1311.24" y2="186.28"/>
      <line class="cls-5" x1="290.04" y1="661" x2="290.04" y2="635.56"/>
      <line class="cls-5" x1="290.04" y1="491.44" x2="290.04" y2="466"/>
      <line class="cls-5" x1="290.04" y1="321.88" x2="290.04" y2="296.56"/>
      <line class="cls-5" x1="290.04" y1="152.44" x2="290.04" y2="127"/>
      <line class="cls-5" x1="1137.6" y1="152.44" x2="1137.6" y2="127"/>
      <line class="cls-5" x1="1307.04" y1="661" x2="1307.04" y2="635.56"/>
      <line class="cls-5" x1="1307.04" y1="491.44" x2="1307.04" y2="466"/>
      <line class="cls-5" x1="1307.04" y1="321.88" x2="1307.04" y2="296.56"/>
      <line class="cls-5" x1="1307.04" y1="152.44" x2="1307.04" y2="127"/>
      <line class="cls-5" x1="285.72" y1="618.52" x2="285.72" y2="567.76"/>
      <line class="cls-5" x1="285.72" y1="449.08" x2="285.72" y2="398.2"/>
      <line class="cls-5" x1="285.72" y1="279.52" x2="285.72" y2="228.76"/>
      <line class="cls-5" x1="1133.28" y1="232.72" x2="1133.28" y2="228.76"/>
      <line class="cls-5" x1="1133.28" y1="402.88" x2="1133.28" y2="398.2"/>
      <line class="cls-5" x1="1302.84" y1="618.52" x2="1302.84" y2="567.76"/>
      <line class="cls-5" x1="1302.84" y1="449.08" x2="1302.84" y2="398.2"/>
      <line class="cls-5" x1="1302.84" y1="279.52" x2="1302.84" y2="228.76"/>
      <line class="cls-5" x1="281.52" y1="669.4" x2="281.52" y2="635.56"/>
      <line class="cls-5" x1="281.52" y1="499.96" x2="281.52" y2="466"/>
      <line class="cls-5" x1="281.52" y1="330.4" x2="281.52" y2="296.56"/>
      <line class="cls-5" x1="281.52" y1="160.96" x2="281.52" y2="127"/>
      <line class="cls-5" x1="1129.08" y1="160.96" x2="1129.08" y2="127"/>
      <line class="cls-5" x1="1298.52" y1="669.4" x2="1298.52" y2="635.56"/>
      <line class="cls-5" x1="1298.52" y1="499.96" x2="1298.52" y2="466"/>
      <line class="cls-5" x1="1298.52" y1="330.4" x2="1298.52" y2="296.56"/>
      <line class="cls-5" x1="1298.52" y1="160.96" x2="1298.52" y2="127"/>
      <line class="cls-5" x1="277.32" y1="730" x2="277.32" y2="686.32"/>
      <line class="cls-5" x1="277.32" y1="601.6" x2="277.32" y2="516.88"/>
      <line class="cls-5" x1="277.32" y1="432.16" x2="277.32" y2="347.32"/>
      <line class="cls-5" x1="277.32" y1="262.6" x2="277.32" y2="177.88"/>
      <line class="cls-5" x1="1124.88" y1="730" x2="1124.88" y2="686.32"/>
      <line class="cls-5" x1="1124.88" y1="231.64" x2="1124.88" y2="177.88"/>
      <line class="cls-5" x1="1124.88" y1="397.96" x2="1124.88" y2="358.84"/>
      <line class="cls-5" x1="1294.32" y1="730" x2="1294.32" y2="686.32"/>
      <line class="cls-5" x1="1294.32" y1="601.6" x2="1294.32" y2="516.88"/>
      <line class="cls-5" x1="1294.32" y1="432.16" x2="1294.32" y2="347.32"/>
      <line class="cls-5" x1="1294.32" y1="262.6" x2="1294.32" y2="177.88"/>
      <line class="cls-5" x1="268.8" y1="728.08" x2="268.8" y2="720.28"/>
      <line class="cls-5" x1="268.8" y1="652.48" x2="268.8" y2="635.56"/>
      <line class="cls-5" x1="268.8" y1="584.68" x2="268.8" y2="550.72"/>
      <line class="cls-5" x1="268.8" y1="482.92" x2="268.8" y2="466"/>
      <line class="cls-5" x1="268.8" y1="415.12" x2="268.8" y2="381.28"/>
      <line class="cls-5" x1="268.8" y1="313.48" x2="268.8" y2="296.56"/>
      <line class="cls-5" x1="268.8" y1="245.68" x2="268.8" y2="211.72"/>
      <line class="cls-5" x1="268.8" y1="143.92" x2="268.8" y2="127"/>
      <line class="cls-5" x1="1116.36" y1="730" x2="1116.36" y2="720.28"/>
      <line class="cls-5" x1="1116.36" y1="231.76" x2="1116.36" y2="211.72"/>
      <line class="cls-5" x1="1116.36" y1="143.92" x2="1116.36" y2="127"/>
      <line class="cls-5" x1="1116.36" y1="393.04" x2="1116.36" y2="381.28"/>
      <line class="cls-5" x1="1285.92" y1="730" x2="1285.92" y2="720.28"/>
      <line class="cls-5" x1="1285.92" y1="652.48" x2="1285.92" y2="635.56"/>
      <line class="cls-5" x1="1285.92" y1="584.68" x2="1285.92" y2="550.72"/>
      <line class="cls-5" x1="1285.92" y1="482.92" x2="1285.92" y2="466"/>
      <line class="cls-5" x1="1285.92" y1="415.12" x2="1285.92" y2="381.28"/>
      <line class="cls-5" x1="1285.92" y1="313.48" x2="1285.92" y2="296.56"/>
      <line class="cls-5" x1="1285.92" y1="245.68" x2="1285.92" y2="211.72"/>
      <line class="cls-5" x1="1285.92" y1="143.92" x2="1285.92" y2="127"/>
      <line class="cls-5" x1="264.6" y1="703.36" x2="264.6" y2="669.4"/>
      <line class="cls-5" x1="264.6" y1="533.8" x2="264.6" y2="499.96"/>
      <line class="cls-5" x1="264.6" y1="364.36" x2="264.6" y2="330.4"/>
      <line class="cls-5" x1="264.6" y1="194.8" x2="264.6" y2="160.96"/>
      <line class="cls-5" x1="1112.16" y1="703.36" x2="1112.16" y2="675.64"/>
      <line class="cls-5" x1="1112.16" y1="194.8" x2="1112.16" y2="160.96"/>
      <line class="cls-5" x1="1112.16" y1="364.36" x2="1112.16" y2="358.12"/>
      <line class="cls-5" x1="1281.6" y1="703.36" x2="1281.6" y2="669.4"/>
      <line class="cls-5" x1="1281.6" y1="533.8" x2="1281.6" y2="503.32"/>
      <line class="cls-5" x1="1281.6" y1="364.36" x2="1281.6" y2="330.4"/>
      <line class="cls-5" x1="1281.6" y1="194.8" x2="1281.6" y2="160.96"/>
      <line class="cls-5" x1="260.28" y1="721.48" x2="260.28" y2="720.28"/>
      <line class="cls-5" x1="260.28" y1="567.76" x2="260.28" y2="550.72"/>
      <line class="cls-5" x1="260.28" y1="398.2" x2="260.28" y2="381.28"/>
      <line class="cls-5" x1="260.28" y1="228.76" x2="260.28" y2="211.72"/>
      <line class="cls-5" x1="1107.84" y1="730" x2="1107.84" y2="720.28"/>
      <line class="cls-5" x1="1107.84" y1="228.76" x2="1107.84" y2="211.72"/>
      <line class="cls-5" x1="1107.84" y1="388.12" x2="1107.84" y2="381.28"/>
      <line class="cls-5" x1="1277.4" y1="730" x2="1277.4" y2="720.28"/>
      <line class="cls-5" x1="1277.4" y1="567.76" x2="1277.4" y2="550.72"/>
      <line class="cls-5" x1="1277.4" y1="398.2" x2="1277.4" y2="381.28"/>
      <line class="cls-5" x1="1277.4" y1="228.76" x2="1277.4" y2="211.72"/>
      <line class="cls-5" x1="256.08" y1="601.6" x2="256.08" y2="584.68"/>
      <line class="cls-5" x1="256.08" y1="432.16" x2="256.08" y2="415.12"/>
      <line class="cls-5" x1="256.08" y1="262.6" x2="256.08" y2="245.68"/>
      <line class="cls-5" x1="1273.2" y1="601.6" x2="1273.2" y2="584.68"/>
      <line class="cls-5" x1="1273.2" y1="432.16" x2="1273.2" y2="415.12"/>
      <line class="cls-5" x1="1273.2" y1="262.6" x2="1273.2" y2="245.68"/>
      <line class="cls-5" x1="1099.44" y1="686.32" x2="1099.44" y2="668.32"/>
      <line class="cls-5" x1="1099.44" y1="177.88" x2="1099.44" y2="143.92"/>
      <line class="cls-5" x1="1268.88" y1="686.32" x2="1268.88" y2="652.48"/>
      <line class="cls-5" x1="1268.88" y1="347.32" x2="1268.88" y2="313.48"/>
      <line class="cls-5" x1="1268.88" y1="177.88" x2="1268.88" y2="143.92"/>
      <line class="cls-5" x1="1095.12" y1="237.28" x2="1095.12" y2="228.76"/>
      <line class="cls-5" x1="1264.68" y1="601.6" x2="1264.68" y2="567.76"/>
      <line class="cls-5" x1="1264.68" y1="432.16" x2="1264.68" y2="398.2"/>
      <line class="cls-5" x1="1264.68" y1="262.6" x2="1264.68" y2="228.76"/>
      <line class="cls-5" x1="1086.72" y1="703.36" x2="1086.72" y2="669.4"/>
      <line class="cls-5" x1="1086.72" y1="241.96" x2="1086.72" y2="228.76"/>
      <line class="cls-5" x1="1086.72" y1="194.8" x2="1086.72" y2="160.96"/>
      <line class="cls-5" x1="1086.72" y1="364.36" x2="1086.72" y2="348.52"/>
      <line class="cls-5" x1="1078.2" y1="703.36" x2="1078.2" y2="669.4"/>
      <line class="cls-5" x1="1078.2" y1="194.8" x2="1078.2" y2="160.96"/>
      <line class="cls-5" x1="1078.2" y1="127" x2="1078.2" y2="119.8"/>
      <line class="cls-5" x1="1078.2" y1="364.36" x2="1078.2" y2="341.92"/>
      <line class="cls-5" x1="1074" y1="730" x2="1074" y2="720.28"/>
      <line class="cls-5" x1="1074" y1="252.88" x2="1074" y2="211.72"/>
      <line class="cls-5" x1="1065.48" y1="262.6" x2="1065.48" y2="228.76"/>
      <line class="cls-5" x1="1061.28" y1="720.28" x2="1061.28" y2="703.36"/>
      <line class="cls-5" x1="1061.28" y1="669.4" x2="1061.28" y2="646.12"/>
      <line class="cls-5" x1="1061.28" y1="211.72" x2="1061.28" y2="194.8"/>
      <line class="cls-5" x1="1061.28" y1="160.96" x2="1061.28" y2="119.8"/>
      <line class="cls-5" x1="1061.28" y1="381.28" x2="1061.28" y2="364.36"/>
      <line class="cls-5" x1="1061.28" y1="330.4" x2="1061.28" y2="315.76"/>
      <line class="cls-5" x1="1052.76" y1="669.4" x2="1052.76" y2="641.2"/>
      <line class="cls-5" x1="1052.76" y1="330.4" x2="1052.76" y2="245.68"/>
      <line class="cls-5" x1="1052.76" y1="160.96" x2="1052.76" y2="119.8"/>
      <line class="cls-5" x1="1048.56" y1="730" x2="1048.56" y2="720.28"/>
      <line class="cls-5" x1="1048.56" y1="398.2" x2="1048.56" y2="381.28"/>
      <line class="cls-5" x1="1048.56" y1="228.76" x2="1048.56" y2="211.72"/>
      <line class="cls-5" x1="1196.88" y1="730" x2="1196.88" y2="720.28"/>
      <line class="cls-5" x1="1196.88" y1="432.16" x2="1196.88" y2="381.28"/>
      <line class="cls-5" x1="1196.88" y1="262.6" x2="1196.88" y2="211.72"/>
      <line class="cls-5" x1="1188.36" y1="669.4" x2="1188.36" y2="664"/>
      <line class="cls-5" x1="1188.36" y1="330.4" x2="1188.36" y2="296.56"/>
      <line class="cls-5" x1="1188.36" y1="160.96" x2="1188.36" y2="127"/>
      <line class="cls-5" x1="1184.16" y1="245.68" x2="1184.16" y2="228.76"/>
      <line class="cls-5" x1="1184.16" y1="415.12" x2="1184.16" y2="398.2"/>
      <line class="cls-5" x1="1179.96" y1="720.28" x2="1179.96" y2="703.36"/>
      <line class="cls-5" x1="1179.96" y1="211.72" x2="1179.96" y2="194.8"/>
      <line class="cls-5" x1="1179.96" y1="381.28" x2="1179.96" y2="364.36"/>
      <line class="cls-5" x1="305.16" y1="730" x2="302.76" y2="720.28"/>
      <line class="cls-5" x1="306.96" y1="567.76" x2="302.76" y2="550.84"/>
      <line class="cls-5" x1="306.96" y1="398.2" x2="302.76" y2="381.28"/>
      <line class="cls-5" x1="306.96" y1="228.76" x2="302.76" y2="211.72"/>
      <line class="cls-5" x1="1152.72" y1="730" x2="1150.2" y2="720.28"/>
      <line class="cls-5" x1="1154.52" y1="398.2" x2="1150.2" y2="381.28"/>
      <line class="cls-5" x1="1154.52" y1="228.76" x2="1150.2" y2="211.72"/>
      <line class="cls-5" x1="268.8" y1="720.28" x2="264.6" y2="703.36"/>
      <line class="cls-5" x1="268.8" y1="550.72" x2="264.6" y2="533.8"/>
      <line class="cls-5" x1="268.8" y1="381.28" x2="264.6" y2="364.36"/>
      <line class="cls-5" x1="268.8" y1="211.72" x2="264.6" y2="194.8"/>
      <line class="cls-5" x1="1116.36" y1="720.28" x2="1112.16" y2="703.36"/>
      <line class="cls-5" x1="1116.36" y1="381.28" x2="1112.16" y2="364.36"/>
      <line class="cls-5" x1="1116.36" y1="211.72" x2="1112.16" y2="194.8"/>
      <line class="cls-5" x1="1285.92" y1="720.28" x2="1281.6" y2="703.36"/>
      <line class="cls-5" x1="1285.92" y1="550.72" x2="1281.6" y2="533.8"/>
      <line class="cls-5" x1="1285.92" y1="381.28" x2="1281.6" y2="364.36"/>
      <line class="cls-5" x1="1285.92" y1="211.72" x2="1281.6" y2="194.8"/>
      <line class="cls-5" x1="1182.36" y1="730" x2="1179.96" y2="720.28"/>
      <line class="cls-5" x1="1184.16" y1="398.2" x2="1179.96" y2="381.28"/>
      <line class="cls-5" x1="1184.16" y1="228.76" x2="1179.96" y2="211.72"/>
      <line class="cls-5" x1="1051.2" y1="409" x2="1048.56" y2="398.2"/>
      <line class="cls-5" x1="1052.76" y1="245.68" x2="1048.56" y2="228.76"/>
      <line class="cls-5" x1="1063.68" y1="730" x2="1061.28" y2="720.28"/>
      <line class="cls-5" x1="1063.08" y1="388.6" x2="1061.28" y2="381.28"/>
      <line class="cls-5" x1="1065.48" y1="228.76" x2="1061.28" y2="211.72"/>
      <line class="cls-5" x1="260.28" y1="720.28" x2="255.48" y2="700.6"/>
      <line class="cls-5" x1="260.28" y1="550.72" x2="255.48" y2="531.16"/>
      <line class="cls-5" x1="260.28" y1="381.28" x2="255.48" y2="361.6"/>
      <line class="cls-5" x1="260.28" y1="211.72" x2="255.48" y2="192.04"/>
      <line class="cls-5" x1="1107.84" y1="720.28" x2="1099.44" y2="686.44"/>
      <line class="cls-5" x1="1107.84" y1="381.28" x2="1101.48" y2="355.6"/>
      <line class="cls-5" x1="1107.84" y1="211.72" x2="1099.44" y2="177.88"/>
      <line class="cls-5" x1="1277.4" y1="720.28" x2="1268.88" y2="686.44"/>
      <line class="cls-5" x1="1277.4" y1="550.72" x2="1270.32" y2="522.76"/>
      <line class="cls-5" x1="1277.4" y1="381.28" x2="1268.88" y2="347.44"/>
      <line class="cls-5" x1="1277.4" y1="211.72" x2="1268.88" y2="177.88"/>
      <line class="cls-5" x1="1093.32" y1="730" x2="1086.72" y2="703.36"/>
      <line class="cls-5" x1="1090.08" y1="377.8" x2="1086.72" y2="364.36"/>
      <line class="cls-5" x1="1095.12" y1="228.76" x2="1086.72" y2="194.8"/>
      <line class="cls-5" x1="1264.68" y1="567.76" x2="1263.96" y2="565"/>
      <line class="cls-5" x1="1264.68" y1="398.2" x2="1263.96" y2="395.44"/>
      <line class="cls-5" x1="1264.68" y1="228.76" x2="1263.96" y2="226"/>
      <line class="cls-5" x1="1084.92" y1="730" x2="1078.2" y2="703.36"/>
      <line class="cls-5" x1="1080.12" y1="372.04" x2="1078.2" y2="364.36"/>
      <line class="cls-5" x1="1086.72" y1="228.76" x2="1078.2" y2="194.8"/>
      <line class="cls-5" x1="1311.24" y1="618.52" x2="1307.04" y2="635.56"/>
      <line class="cls-5" x1="1298.64" y1="669.4" x2="1294.32" y2="686.32"/>
      <line class="cls-5" x1="1311.24" y1="449.08" x2="1307.04" y2="466"/>
      <line class="cls-5" x1="1298.64" y1="499.84" x2="1294.32" y2="516.76"/>
      <line class="cls-5" x1="1311.24" y1="279.52" x2="1307.04" y2="296.56"/>
      <line class="cls-5" x1="1298.64" y1="330.4" x2="1294.32" y2="347.32"/>
      <line class="cls-5" x1="1307.88" y1="123.76" x2="1307.04" y2="127"/>
      <line class="cls-5" x1="1298.64" y1="160.84" x2="1294.32" y2="177.76"/>
      <line class="cls-5" x1="1125.6" y1="683.44" x2="1124.88" y2="686.32"/>
      <line class="cls-5" x1="1139.4" y1="119.8" x2="1137.6" y2="127"/>
      <line class="cls-5" x1="1129.08" y1="160.84" x2="1124.88" y2="177.76"/>
      <line class="cls-5" x1="294.24" y1="618.52" x2="290.04" y2="635.56"/>
      <line class="cls-5" x1="281.52" y1="669.4" x2="277.32" y2="686.32"/>
      <line class="cls-5" x1="294.24" y1="449.08" x2="290.04" y2="466"/>
      <line class="cls-5" x1="281.52" y1="499.84" x2="277.32" y2="516.76"/>
      <line class="cls-5" x1="294.24" y1="279.52" x2="290.04" y2="296.44"/>
      <line class="cls-5" x1="281.52" y1="330.4" x2="277.32" y2="347.32"/>
      <line class="cls-5" x1="291.84" y1="119.8" x2="290.04" y2="127"/>
      <line class="cls-5" x1="281.52" y1="160.84" x2="277.32" y2="177.76"/>
      <line class="cls-5" x1="1285.92" y1="652.48" x2="1281.6" y2="669.4"/>
      <line class="cls-5" x1="1285.92" y1="482.92" x2="1284" y2="490.24"/>
      <line class="cls-5" x1="1285.92" y1="313.48" x2="1281.6" y2="330.4"/>
      <line class="cls-5" x1="1285.92" y1="143.92" x2="1281.6" y2="160.84"/>
      <line class="cls-5" x1="1116.36" y1="143.92" x2="1112.16" y2="160.84"/>
      <line class="cls-5" x1="268.8" y1="652.48" x2="264.6" y2="669.4"/>
      <line class="cls-5" x1="268.8" y1="482.92" x2="264.6" y2="499.96"/>
      <line class="cls-5" x1="268.8" y1="313.48" x2="264.6" y2="330.4"/>
      <line class="cls-5" x1="268.8" y1="143.92" x2="264.6" y2="160.84"/>
      <line class="cls-5" x1="1162.92" y1="228.76" x2="1167.24" y2="245.68"/>
      <line class="cls-5" x1="1162.92" y1="398.2" x2="1167.24" y2="415.12"/>
      <line class="cls-5" x1="1162.92" y1="194.8" x2="1167.24" y2="177.88"/>
      <line class="cls-5" x1="1162.92" y1="364.36" x2="1167.24" y2="347.32"/>
      <line class="cls-5" x1="256.08" y1="245.68" x2="260.28" y2="228.76"/>
      <line class="cls-5" x1="256.08" y1="415.12" x2="260.28" y2="398.2"/>
      <line class="cls-5" x1="256.08" y1="584.68" x2="260.28" y2="567.76"/>
      <line class="cls-5" x1="1106.76" y1="233.32" x2="1107.84" y2="228.76"/>
      <line class="cls-5" x1="1273.2" y1="245.68" x2="1277.4" y2="228.76"/>
      <line class="cls-5" x1="1273.2" y1="415.12" x2="1277.4" y2="398.2"/>
      <line class="cls-5" x1="1273.2" y1="584.68" x2="1277.4" y2="567.76"/>
      <line class="cls-5" x1="1074" y1="211.72" x2="1078.2" y2="194.8"/>
      <line class="cls-5" x1="1076.76" y1="370" x2="1078.2" y2="364.36"/>
      <line class="cls-5" x1="1074" y1="720.28" x2="1078.2" y2="703.36"/>
      <polyline class="cls-5" points="1064.28 267.28 1065.48 262.6 1064.28 267.28"/>
      <line class="cls-5" x1="1045.2" y1="191.44" x2="1052.76" y2="160.96"/>
      <line class="cls-5" x1="1045.2" y1="361" x2="1052.76" y2="330.52"/>
      <line class="cls-5" x1="1045.2" y1="700" x2="1052.76" y2="669.52"/>
      <line class="cls-5" x1="302.76" y1="160.96" x2="309.12" y2="135.4"/>
      <line class="cls-5" x1="302.76" y1="330.4" x2="309.12" y2="304.84"/>
      <line class="cls-5" x1="302.76" y1="499.96" x2="309.12" y2="474.4"/>
      <line class="cls-5" x1="302.76" y1="669.4" x2="309.12" y2="643.84"/>
      <line class="cls-5" x1="1150.2" y1="160.96" x2="1160.52" y2="119.8"/>
      <line class="cls-5" x1="290.04" y1="143.92" x2="296.04" y2="119.8"/>
      <line class="cls-5" x1="290.04" y1="313.48" x2="306.96" y2="245.68"/>
      <line class="cls-5" x1="290.04" y1="482.92" x2="306.96" y2="415.24"/>
      <line class="cls-5" x1="290.04" y1="652.48" x2="306.96" y2="584.68"/>
      <line class="cls-5" x1="1137.6" y1="143.92" x2="1143.6" y2="119.8"/>
      <line class="cls-5" x1="1307.04" y1="143.92" x2="1311.36" y2="126.76"/>
      <line class="cls-5" x1="1307.04" y1="313.48" x2="1317.72" y2="271"/>
      <line class="cls-5" x1="1307.04" y1="482.92" x2="1317.72" y2="440.44"/>
      <line class="cls-5" x1="1307.04" y1="652.48" x2="1317.72" y2="610"/>
      <line class="cls-5" x1="281.52" y1="127" x2="283.32" y2="119.8"/>
      <line class="cls-5" x1="281.52" y1="296.56" x2="285.72" y2="279.52"/>
      <line class="cls-5" x1="294.24" y1="245.68" x2="302.64" y2="211.84"/>
      <line class="cls-5" x1="281.52" y1="466" x2="285.72" y2="449.08"/>
      <line class="cls-5" x1="294.24" y1="415.24" x2="302.64" y2="381.28"/>
      <line class="cls-5" x1="281.52" y1="635.56" x2="285.72" y2="618.64"/>
      <line class="cls-5" x1="294.24" y1="584.68" x2="302.64" y2="550.84"/>
      <line class="cls-5" x1="300.24" y1="730" x2="302.64" y2="720.4"/>
      <line class="cls-5" x1="1129.08" y1="127" x2="1130.88" y2="119.8"/>
      <line class="cls-5" x1="1144.2" y1="235.84" x2="1150.2" y2="211.84"/>
      <line class="cls-5" x1="1143.36" y1="408.64" x2="1150.2" y2="381.28"/>
      <line class="cls-5" x1="1147.8" y1="730" x2="1150.2" y2="720.4"/>
      <line class="cls-5" x1="1298.52" y1="127" x2="1300.2" y2="120.4"/>
      <line class="cls-5" x1="1298.52" y1="296.56" x2="1302.84" y2="279.52"/>
      <line class="cls-5" x1="1311.24" y1="245.68" x2="1317.72" y2="220.12"/>
      <line class="cls-5" x1="1298.52" y1="466" x2="1302.84" y2="449.08"/>
      <line class="cls-5" x1="1311.24" y1="415.24" x2="1317.72" y2="389.68"/>
      <line class="cls-5" x1="1298.52" y1="635.56" x2="1302.84" y2="618.64"/>
      <line class="cls-5" x1="1311.24" y1="584.68" x2="1317.72" y2="559.12"/>
      <line class="cls-5" x1="268.8" y1="127" x2="270.24" y2="121.12"/>
      <line class="cls-5" x1="268.8" y1="296.56" x2="277.32" y2="262.6"/>
      <line class="cls-5" x1="285.72" y1="228.76" x2="294.24" y2="194.92"/>
      <line class="cls-5" x1="268.8" y1="466" x2="277.32" y2="432.16"/>
      <line class="cls-5" x1="285.72" y1="398.32" x2="294.24" y2="364.36"/>
      <line class="cls-5" x1="268.8" y1="635.56" x2="277.32" y2="601.6"/>
      <line class="cls-5" x1="285.72" y1="567.76" x2="294.24" y2="533.92"/>
      <line class="cls-5" x1="287.52" y1="730" x2="294.24" y2="703.36"/>
      <line class="cls-5" x1="1116.36" y1="127" x2="1118.16" y2="119.8"/>
      <line class="cls-5" x1="1133.28" y1="228.76" x2="1141.8" y2="194.92"/>
      <line class="cls-5" x1="1133.28" y1="398.32" x2="1141.8" y2="364.36"/>
      <line class="cls-5" x1="1135.08" y1="730" x2="1141.8" y2="703.36"/>
      <line class="cls-5" x1="1285.92" y1="127" x2="1287.72" y2="119.8"/>
      <line class="cls-5" x1="1285.92" y1="296.56" x2="1294.32" y2="262.6"/>
      <line class="cls-5" x1="1302.84" y1="228.76" x2="1311.24" y2="194.92"/>
      <line class="cls-5" x1="1285.92" y1="466" x2="1294.32" y2="432.16"/>
      <line class="cls-5" x1="1302.84" y1="398.32" x2="1311.24" y2="364.36"/>
      <line class="cls-5" x1="1285.92" y1="635.56" x2="1294.32" y2="601.6"/>
      <line class="cls-5" x1="1302.84" y1="567.76" x2="1311.24" y2="533.92"/>
      <line class="cls-5" x1="1305.24" y1="727.6" x2="1311.24" y2="703.36"/>
      <line class="cls-5" x1="255.48" y1="299.2" x2="268.8" y2="245.68"/>
      <line class="cls-5" x1="255.48" y1="468.76" x2="268.8" y2="415.24"/>
      <line class="cls-5" x1="255.48" y1="638.2" x2="268.8" y2="584.68"/>
      <line class="cls-5" x1="1099.44" y1="143.92" x2="1105.44" y2="119.8"/>
      <line class="cls-5" x1="1268.88" y1="143.92" x2="1275" y2="119.8"/>
      <line class="cls-5" x1="1268.88" y1="313.48" x2="1285.8" y2="245.68"/>
      <line class="cls-5" x1="1269.24" y1="481.72" x2="1285.8" y2="415.24"/>
      <line class="cls-5" x1="1268.88" y1="652.48" x2="1285.8" y2="584.68"/>
      <line class="cls-5" x1="255.48" y1="265.36" x2="256.08" y2="262.72"/>
      <line class="cls-5" x1="255.48" y1="434.8" x2="256.08" y2="432.16"/>
      <line class="cls-5" x1="255.48" y1="604.36" x2="256.08" y2="601.72"/>
      <line class="cls-5" x1="1086.72" y1="160.96" x2="1096.92" y2="119.8"/>
      <line class="cls-5" x1="1086.72" y1="669.4" x2="1088.52" y2="661.96"/>
      <line class="cls-5" x1="1263.96" y1="129.76" x2="1266.48" y2="119.8"/>
      <line class="cls-5" x1="1263.96" y1="299.2" x2="1273.08" y2="262.72"/>
      <line class="cls-5" x1="1263.96" y1="468.76" x2="1273.08" y2="432.16"/>
      <line class="cls-5" x1="1263.96" y1="638.2" x2="1273.08" y2="601.72"/>
      <line class="cls-5" x1="1078.2" y1="160.96" x2="1088.52" y2="119.8"/>
      <line class="cls-5" x1="1078.2" y1="669.4" x2="1081.2" y2="657.64"/>
      <line class="cls-5" x1="1263.96" y1="265.36" x2="1264.68" y2="262.72"/>
      <line class="cls-5" x1="1263.96" y1="434.8" x2="1264.68" y2="432.16"/>
      <line class="cls-5" x1="1263.96" y1="604.36" x2="1264.68" y2="601.72"/>
      <line class="cls-5" x1="1196.88" y1="211.72" x2="1197.72" y2="208.36"/>
      <line class="cls-5" x1="1196.88" y1="381.28" x2="1197.72" y2="377.92"/>
      <line class="cls-5" x1="1196.88" y1="720.28" x2="1197.72" y2="716.92"/>
      <line class="cls-5" x1="1179.96" y1="194.8" x2="1188.36" y2="160.96"/>
      <line class="cls-5" x1="1179.96" y1="364.36" x2="1188.36" y2="330.4"/>
      <line class="cls-5" x1="1179.96" y1="703.36" x2="1188.36" y2="669.4"/>
      <line class="cls-5" x1="1188.36" y1="127" x2="1190.16" y2="119.8"/>
      <line class="cls-5" x1="1188.36" y1="296.56" x2="1196.88" y2="262.6"/>
      <line class="cls-5" x1="1195.2" y1="438.76" x2="1196.88" y2="432.16"/>
      <line class="cls-5" x1="1167.24" y1="143.92" x2="1173.24" y2="119.8"/>
      <line class="cls-5" x1="1178.76" y1="267.4" x2="1184.16" y2="245.68"/>
      <line class="cls-5" x1="1180.44" y1="430.12" x2="1184.16" y2="415.24"/>
      <line class="cls-5" x1="1048.56" y1="211.72" x2="1061.28" y2="160.96"/>
      <line class="cls-5" x1="1048.56" y1="381.28" x2="1061.28" y2="330.4"/>
      <line class="cls-5" x1="1048.56" y1="720.28" x2="1061.28" y2="669.52"/>
      <line class="cls-5" x1="1061.28" y1="194.8" x2="1080" y2="119.8"/>
      <line class="cls-5" x1="1061.28" y1="364.36" x2="1069.44" y2="331.72"/>
      <line class="cls-5" x1="1061.28" y1="703.36" x2="1073.76" y2="653.44"/>
      <line class="cls-6" x1="1317.72" y1="424.96" x2="1317.72" y2="142.36"/>
      <path class="cls-6" d="M1317.72,142.3c0-12.49-10.13-22.62-22.62-22.62"/>
      <polyline class="cls-6" points="1295.04 119.8 1012.56 119.8 278.04 119.8"/>
      <path class="cls-6" d="M278.1,119.68c-12.49,0-22.62,10.13-22.62,22.62"/>
      <line class="cls-6" x1="255.48" y1="142.36" x2="255.48" y2="239.8"/>
      <line class="cls-6" x1="1263.96" y1="173.44" x2="1197.72" y2="173.44"/>
      <polyline class="cls-6" points="1045.2 173.44 1012.56 173.44 309.12 173.44"/>
      <line class="cls-6" x1="1263.96" y1="119.8" x2="1263.96" y2="478.6"/>
      <line class="cls-6" x1="1263.96" y1="533.68" x2="1263.96" y2="730"/>
      <line class="cls-6" x1="278.04" y1="730" x2="1295.04" y2="730"/>
      <path class="cls-6" d="M1295.1,730c12.49,0,22.62-10.13,22.62-22.62"/>
      <line class="cls-6" x1="1317.72" y1="707.44" x2="1317.72" y2="424.96"/>
      <line class="cls-6" x1="309.12" y1="119.8" x2="309.12" y2="730"/>
      <line class="cls-6" x1="357.48" y1="730" x2="278.04" y2="730"/>
      <path class="cls-6" d="M255.48,707.38c0,12.49,10.13,22.62,22.62,22.62"/>
      <line class="cls-6" x1="255.48" y1="707.44" x2="255.48" y2="142.36"/>
      <line class="cls-6" x1="1263.96" y1="676.36" x2="1197.72" y2="676.36"/>
      <polyline class="cls-6" points="1045.2 676.36 1012.56 676.36 560.52 676.36 309.12 676.36"/>
      <line class="cls-6" x1="1197.72" y1="119.8" x2="1197.72" y2="440.2"/>
      <line class="cls-6" x1="1197.72" y1="647.92" x2="1197.72" y2="730"/>
      <line class="cls-6" x1="1045.2" y1="119.8" x2="1045.2" y2="419.44"/>
      <line class="cls-6" x1="1045.2" y1="636.76" x2="1045.2" y2="730"/>
      <line class="cls-1" x1="1205.04" y1="475.36" x2="1034.04" y2="598.96"/>
      <polyline class="cls-1" points="1213.44 582.76 1119.36 537.28 1134 641.8"/>
      <polyline class="cls-1" points="1179.48 433.72 1075.8 373.6 1015.8 477.16 955.68 580.84 1059.24 640.96 1162.92 700.96 1222.92 597.4 1283.04 493.84 1179.48 433.72"/>
      <polyline class="cls-1" points="1181.28 430.6 1074.6 368.8 1012.68 475.48 950.88 582.04 1057.44 643.96 1164.12 705.88 1226.04 599.2 1287.84 492.52 1181.28 430.6"/>
      <polyline class="cls-1" points="1104.84 433.84 1106.52 433.84 1111.2 433.96 1116.36 434.08 1122.12 434.32 1128.12 434.68 1134.36 435.16 1140.6 435.76 1146.96 436.6 1152.96 437.56 1158.72 438.88 1164 440.44 1168.8 442.24 1173.24 444.28 1177.32 446.44 1180.92 448.72 1184.28 451.12 1187.4 453.52 1190.04 456.04 1192.56 458.44 1194.72 460.96 1196.88 463.48 1198.8 466 1200.6 468.64 1202.52 471.4 1204.32 474.28 1206.24 477.28 1208.28 480.52 1210.32 483.88 1212.36 487.48 1214.4 491.2 1216.32 495.16 1218.12 499.36 1219.68 503.68 1221.12 508.24 1222.08 513.04 1222.92 517.96 1223.4 523 1223.64 528.04 1223.76 533.2 1223.52 538.24 1223.16 543.28 1222.68 548.2 1221.96 552.88 1221.12 557.56 1220.16 562 1219.08 566.32 1217.88 570.52 1216.56 574.6 1215.12 578.68 1213.56 582.52 1212 586.36 1210.2 590.2 1208.4 593.92 1206.36 597.64 1204.2 601.24 1201.92 604.72 1199.28 608.2 1196.52 611.56 1193.52 614.92 1190.28 618.16 1186.92 621.28 1183.32 624.28 1179.6 627.04 1175.64 629.56 1171.68 631.84 1167.72 633.88 1163.64 635.56 1159.56 637 1155.48 638.2 1151.52 639.04 1147.8 639.88 1144.2 640.48 1140.96 640.96 1137.96 641.32 1135.32 641.68 1132.92 641.92 1130.76 642.16 1128.72 642.28 1126.56 642.28 1124.4 642.28 1122 642.16 1119.48 642.04 1116.48 641.8 1113.24 641.44 1109.76 641.08 1106.16 640.6 1102.44 640.12 1098.72 639.64 1095 639.04 1091.52 638.44 1088.16 637.84 1084.92 637.24 1081.8 636.4 1078.68 635.44 1075.56 634.24 1072.44 632.68 1069.2 630.88 1065.84 628.6 1062.24 625.96 1058.52 622.96 1054.8 619.6 1050.96 616.12 1047.24 612.52 1043.64 608.92 1040.16 605.44 1036.92 602.08 1034.04 598.96 1031.4 596.08 1029 593.32 1026.84 590.56 1024.92 587.68 1023.24 584.8 1021.8 581.68 1020.48 578.32 1019.28 574.72 1018.32 570.76 1017.36 566.44 1016.52 562.12 1015.8 557.44 1015.08 552.76 1014.48 548.08 1013.88 543.28 1013.28 538.6 1012.92 533.68 1012.8 528.4 1013.28 522.64 1014.48 516.28 1016.52 508.96 1019.52 500.68 1023.84 491.2"/>
      <polyline class="cls-1" points="1191.48 478.6 1189.8 476.08 1188.12 473.8 1186.56 471.64 1184.76 469.6 1182.96 467.56 1181.04 465.52 1178.76 463.6 1176.36 461.56 1173.6 459.64 1170.72 457.84 1167.48 456.04 1163.76 454.48 1159.8 452.92 1155.36 451.6 1150.44 450.52 1144.92 449.56 1139.16 448.84 1133.28 448.24 1127.28 447.88 1121.4 447.52 1115.88 447.28"/>
      <polyline class="cls-1" points="1204.08 570.4 1205.28 566.68 1206.36 562.84 1207.32 559 1208.28 554.92 1209 550.84 1209.6 546.52 1210.08 542.08 1210.44 537.52 1210.56 532.96 1210.56 528.4 1210.32 523.96 1209.84 519.64 1209.24 515.44 1208.28 511.6 1207.2 507.88 1205.88 504.28 1204.32 500.68 1202.64 497.32 1200.84 493.96 1198.92 490.6 1197 487.48"/>
      <polyline class="cls-1" points="1139.16 627.88 1142.16 627.4 1145.4 626.92 1148.76 626.2 1152.12 625.36 1155.48 624.4 1158.96 623.2 1162.2 621.88 1165.44 620.2 1168.8 618.28 1172.04 616.24 1175.16 613.84 1178.28 611.32 1181.16 608.68 1183.92 605.92 1186.56 603.04 1188.84 600.16 1191.12 597.16 1193.04 594.16 1194.96 591.04 1196.76 587.8 1198.32 584.56 1199.88 581.2"/>
      <polyline class="cls-1" points="1049.64 596.2 1053 599.56 1056.48 603.04 1059.96 606.52 1063.56 609.76 1067.04 612.88 1070.4 615.64 1073.4 617.92 1076.16 619.72 1078.56 621.04 1080.84 622.12 1083.12 623.08 1085.4 623.8 1087.8 624.4 1090.56 625 1093.68 625.48 1097.04 626.08 1100.64 626.56 1104.24 627.16 1107.72 627.64 1111.32 628 1114.56 628.36 1117.68 628.72 1120.44 628.96 1122.72 629.08 1124.76 629.08 1126.44 629.2 1128.12 629.08"/>
      <polyline class="cls-1" points="1031.76 505.6 1029 513.04 1027.32 519.16 1026.36 524.44 1026 528.88 1026 533.08 1026.36 537.28 1026.96 541.72 1027.56 546.4 1028.16 550.96 1028.76 555.52 1029.48 559.84 1030.32 563.92 1031.04 567.64 1032 571 1032.84 574 1033.92 576.4 1034.88 578.68 1036.08 580.72 1037.52 582.76 1039.2 584.92 1041.24 587.32"/>
      <polyline class="cls-1" points="1023.84 491.2 1028.52 493.6 1033.56 496.24 1038.84 499.24 1044.24 502.24 1049.88 505.24 1055.52 508.12 1061.28 511 1067.16 513.52 1072.92 515.68 1078.8 517.84 1084.68 519.88 1090.92 522.28 1097.4 524.92 1104.24 528.28 1111.56 532.24 1119.36 537.28 1118.16 529.72 1116.84 523 1115.52 517.24 1114.32 511.96 1113.12 507.28 1112.04 502.96 1111.08 498.88 1110.36 494.92 1109.88 490.84 1109.64 486.76 1109.64 482.68 1109.64 478.72 1109.76 474.76 1109.88 470.92 1109.88 467.2 1109.88 463.6 1109.76 460.12 1109.52 456.88 1109.04 453.52 1108.56 450.16 1107.84 446.56 1107 442.72 1105.92 438.52 1104.84 433.84"/>
      <path class="cls-1" d="M1078.08,532.42c0-5.53-4.49-10.02-10.02-10.02s-10.02,4.49-10.02,10.02,4.49,10.02,10.02,10.02,10.02-4.49,10.02-10.02"/>
      <path class="cls-1" d="M1109.76,551.38c0-5.53-4.49-10.02-10.02-10.02s-10.02,4.49-10.02,10.02,4.49,10.02,10.02,10.02,10.02-4.49,10.02-10.02"/>
      <path class="cls-1" d="M1067.4,567.22c0-5.53-4.49-10.02-10.02-10.02s-10.02,4.49-10.02,10.02,4.49,10.02,10.02,10.02,10.02-4.49,10.02-10.02"/>
      <path class="cls-1" d="M1102.44,587.74c0-5.53-4.49-10.02-10.02-10.02s-10.02,4.49-10.02,10.02,4.49,10.02,10.02,10.02,10.02-4.49,10.02-10.02"/>
      <path class="cls-1" d="M1122.6,609.34c0-5.53-4.49-10.02-10.02-10.02s-10.02,4.49-10.02,10.02,4.49,10.02,10.02,10.02,10.02-4.49,10.02-10.02"/>
      <path class="cls-1" d="M1152.36,606.46c0-5.53-4.49-10.02-10.02-10.02s-10.02,4.49-10.02,10.02,4.49,10.02,10.02,10.02,10.02-4.49,10.02-10.02"/>
      <path class="cls-1" d="M1158.6,575.26c0-5.53-4.49-10.02-10.02-10.02s-10.02,4.49-10.02,10.02,4.49,10.02,10.02,10.02,10.02-4.49,10.02-10.02"/>
      <path class="cls-1" d="M1187.04,587.14c0-5.53-4.49-10.02-10.02-10.02s-10.02,4.49-10.02,10.02,4.49,10.02,10.02,10.02,10.02-4.49,10.02-10.02"/>
      <path class="cls-1" d="M1194.84,551.74c0-5.53-4.49-10.02-10.02-10.02s-10.02,4.49-10.02,10.02,4.49,10.02,10.02,10.02,10.02-4.49,10.02-10.02"/>
      <path class="cls-1" d="M1165.56,538.18c0-5.53-4.49-10.02-10.02-10.02s-10.02,4.49-10.02,10.02,4.49,10.02,10.02,10.02,10.02-4.49,10.02-10.02"/>
      <path class="cls-1" d="M1147.68,519.34c0-5.53-4.49-10.02-10.02-10.02s-10.02,4.49-10.02,10.02,4.49,10.02,10.02,10.02,10.02-4.49,10.02-10.02"/>
      <path class="cls-1" d="M1189.32,494.02c0-5.53-4.49-10.02-10.02-10.02s-10.02,4.49-10.02,10.02,4.49,10.02,10.02,10.02,10.02-4.49,10.02-10.02"/>
      <path class="cls-1" d="M1195.44,518.98c0-5.53-4.49-10.02-10.02-10.02s-10.02,4.49-10.02,10.02,4.49,10.02,10.02,10.02,10.02-4.49,10.02-10.02"/>
      <path class="cls-1" d="M1146.48,491.02c0-5.53-4.49-10.02-10.02-10.02s-10.02,4.49-10.02,10.02,4.49,10.02,10.02,10.02,10.02-4.49,10.02-10.02"/>
      <path class="cls-1" d="M1137.96,464.62c0-5.53-4.49-10.02-10.02-10.02s-10.02,4.49-10.02,10.02,4.49,10.02,10.02,10.02,10.02-4.49,10.02-10.02"/>
      <polyline class="cls-4" points="1080.48 484.24 1081.68 483.04 1082.52 481.72 1083.24 480.4 1083.6 479.2 1083.84 477.88 1083.72 476.8 1083.6 475.84 1083.24 475 1082.64 474.28 1081.92 473.8 1081.2 473.32 1080.48 472.96 1079.64 472.72 1078.8 472.36 1078.08 471.88 1077.48 471.4 1077 470.68 1076.64 469.96 1076.28 469.12 1076.04 468.04 1075.8 467.08 1075.44 465.88 1075.2 464.8 1074.72 463.6 1074.24 462.52 1073.64 461.32 1072.8 460.24 1071.96 459.28 1071.12 458.56 1070.04 457.84 1068.84 457.36 1067.64 457.12 1066.32 457.24 1065 457.48 1063.68 457.96 1062.36 458.56 1061.04 459.4 1059.84 460.36 1058.76 461.32 1057.92 462.4 1057.2 463.48 1056.6 464.56 1056.12 465.76 1055.64 466.84 1055.16 467.8 1054.56 468.88 1053.72 469.72 1052.76 470.56 1051.44 471.16 1049.88 471.76 1048.2 472.24 1046.52 472.72 1044.72 473.08 1043.04 473.44 1041.48 473.92 1040.16 474.28 1039.08 474.76 1038.12 475.24 1037.52 475.72 1037.04 476.32 1036.68 477.04 1036.44 477.76 1036.32 478.6 1036.2 479.44 1036.08 480.4 1035.96 481.36 1035.96 482.44 1036.08 483.52 1036.2 484.6 1036.56 485.56 1037.04 486.52 1037.64 487.36 1038.48 488.08 1039.44 488.8 1040.64 489.4 1041.72 489.88 1042.92 490.36 1044 490.96 1045.08 491.44 1045.92 491.92 1046.64 492.52 1047.24 493.24 1047.6 493.84 1047.96 494.44 1048.2 495.04 1048.56 495.64 1048.92 496.24 1049.28 496.6 1049.76 496.96 1050.48 497.2 1051.2 497.44 1052.04 497.56 1053 497.68 1053.96 497.68 1055.16 497.68 1056.36 497.68 1057.68 497.68 1059 497.68 1060.44 497.68 1061.88 497.68 1063.2 497.8 1064.64 497.8 1065.96 497.92 1067.28 497.92 1068.36 498.04 1069.44 498.16 1070.52 498.28 1071.48 498.4 1072.32 498.52 1073.16 498.52 1074 498.4 1074.84 498.28 1075.56 497.92 1076.4 497.56 1077 497.2 1077.72 496.6 1078.2 496 1078.68 495.28 1079.04 494.56 1079.28 493.84 1079.28 493 1079.28 492.04 1079.16 491.08 1079.16 490 1079.28 488.8 1079.4 487.48 1079.88 485.92 1080.48 484.24"/>
      <path class="cls-1" d="M1185.24,295.18c0-35.16-28.5-63.66-63.66-63.66s-63.66,28.5-63.66,63.66,28.5,63.66,63.66,63.66,63.66-28.5,63.66-63.66"/>
      <path class="cls-1" d="M1175.04,295.18c0-29.53-23.93-53.46-53.46-53.46s-53.46,23.93-53.46,53.46,23.93,53.46,53.46,53.46,53.46-23.93,53.46-53.46"/>
      <path class="cls-7" d="M697.3,54.12c-42.97-8.2-86.61-12.32-130.36-12.32"/>
      <path class="cls-7" d="M703.77,20.12c-45.05-9.04-90.88-13.6-136.83-13.6"/>
      <line class="cls-7" x1="645.96" y1="48.88" x2="487.68" y2="48.88"/>
      <path class="cls-7" d="M487.74,48.88c-31.18,0-56.46,25.28-56.46,56.46"/>
      <line class="cls-7" x1="431.16" y1="105.4" x2="431.16" y2="119.8"/>
      <line class="cls-7" x1="702.48" y1="119.8" x2="702.48" y2="105.4"/>
      <path class="cls-7" d="M702.48,105.34c0-31.18-25.28-56.46-56.46-56.46"/>
      <path class="cls-7" d="M693.3,53.38c9.19,2.84,18.95-2.29,21.83-11.47,2.87-9.19-2.23-18.96-11.41-21.86"/>
      <path class="cls-7" d="M566.94,41.8c-43.74,0-87.39,4.13-130.36,12.32"/>
      <path class="cls-7" d="M566.82,6.52c-45.95,0-91.78,4.55-136.83,13.6"/>
      <path class="cls-7" d="M430.04,20.05c-9.18,2.9-14.28,12.67-11.41,21.86,2.87,9.18,12.63,14.32,21.83,11.47"/>
      <polyline class="cls-7" points="1006.32 41.8 987.6 42.04 968.88 42.88 950.16 44.08 931.44 45.88 912.84 48.16 894.36 50.92 875.88 54.16"/>
      <polyline class="cls-7" points="1006.32 6.52 989.04 6.76 971.88 7.36 954.72 8.44 937.56 9.88 920.4 11.8 903.36 14.2 886.32 16.96 869.4 20.08"/>
      <line class="cls-7" x1="927.12" y1="48.88" x2="1085.4" y2="48.88"/>
      <path class="cls-7" d="M1141.92,105.34c0-31.18-25.28-56.46-56.46-56.46"/>
      <line class="cls-7" x1="1141.92" y1="105.4" x2="1141.92" y2="119.8"/>
      <line class="cls-7" x1="870.72" y1="119.8" x2="870.72" y2="105.4"/>
      <path class="cls-7" d="M927.18,48.88c-31.18,0-56.46,25.28-56.46,56.46"/>
      <path class="cls-7" d="M869.48,20.05c-9.18,2.9-14.28,12.67-11.41,21.86,2.87,9.18,12.63,14.32,21.83,11.47"/>
      <polyline class="cls-7" points="1136.64 54.16 1118.16 50.92 1099.68 48.16 1081.08 45.88 1062.36 44.08 1043.76 42.88 1025.04 42.04 1006.32 41.8"/>
      <polyline class="cls-7" points="1143.12 20.08 1126.2 16.96 1109.16 14.2 1092.12 11.8 1075.08 9.88 1057.92 8.44 1040.64 7.36 1023.48 6.76 1006.32 6.52"/>
      <path class="cls-7" d="M1132.74,53.38c9.19,2.84,18.95-2.29,21.83-11.47,2.87-9.19-2.23-18.96-11.41-21.86"/>
      <polyline class="cls-7" points="566.88 808 585.6 807.76 604.32 806.92 622.92 805.72 641.64 803.92 660.24 801.64 678.72 798.88 697.2 795.64"/>
      <polyline class="cls-7" points="566.88 843.28 584.04 843.04 601.2 842.44 618.48 841.36 635.64 839.92 652.68 838 669.72 835.6 686.76 832.84 703.68 829.72"/>
      <line class="cls-7" x1="645.96" y1="800.92" x2="487.68" y2="800.92"/>
      <path class="cls-7" d="M431.28,744.34c0,31.18,25.28,56.46,56.46,56.46"/>
      <line class="cls-7" x1="431.16" y1="744.4" x2="431.16" y2="730"/>
      <line class="cls-7" x1="702.48" y1="730" x2="702.48" y2="744.4"/>
      <path class="cls-7" d="M646.02,800.8c31.18,0,56.46-25.28,56.46-56.46"/>
      <path class="cls-7" d="M703.72,829.63c9.18-2.9,14.28-12.67,11.41-21.86s-12.63-14.32-21.83-11.47"/>
      <polyline class="cls-7" points="436.44 795.64 454.92 798.88 473.4 801.64 492 803.92 510.72 805.72 529.32 806.92 548.04 807.76 566.88 808"/>
      <polyline class="cls-7" points="429.96 829.72 446.88 832.84 463.92 835.6 480.96 838 498 839.92 515.16 841.36 532.44 842.44 549.6 843.04 566.88 843.28"/>
      <path class="cls-7" d="M440.46,796.3c-9.19-2.84-18.95,2.29-21.83,11.47s2.23,18.96,11.41,21.86"/>
      <polyline class="cls-7" points="875.88 795.64 894.36 798.88 912.84 801.64 931.44 803.92 950.16 805.72 968.88 806.92 987.6 807.76 1006.32 808"/>
      <polyline class="cls-7" points="869.4 829.72 886.32 832.84 903.36 835.6 920.4 838 937.56 839.92 954.72 841.36 971.88 842.44 989.04 843.04 1006.32 843.28"/>
      <line class="cls-7" x1="927.12" y1="800.92" x2="1085.4" y2="800.92"/>
      <path class="cls-7" d="M1085.46,800.8c31.18,0,56.46-25.28,56.46-56.46"/>
      <line class="cls-7" x1="1141.92" y1="744.4" x2="1141.92" y2="730"/>
      <line class="cls-7" x1="870.72" y1="730" x2="870.72" y2="744.4"/>
      <path class="cls-7" d="M870.72,744.34c0,31.18,25.28,56.46,56.46,56.46"/>
      <path class="cls-7" d="M879.9,796.3c-9.19-2.84-18.95,2.29-21.83,11.47s2.23,18.96,11.41,21.86"/>
      <polyline class="cls-7" points="1006.32 808 1025.04 807.76 1043.76 806.92 1062.36 805.72 1081.08 803.92 1099.68 801.64 1118.16 798.88 1136.64 795.64"/>
      <polyline class="cls-7" points="1006.32 843.28 1023.48 843.04 1040.64 842.44 1057.92 841.36 1075.08 839.92 1092.12 838 1109.16 835.6 1126.2 832.84 1143.12 829.72"/>
      <path class="cls-7" d="M1143.16,829.63c9.18-2.9,14.28-12.67,11.41-21.86-2.87-9.19-12.63-14.32-21.83-11.47"/>
      <polyline class="cls-7" points="189.84 294.52 186.48 313 183.72 331.48 181.56 350.08 179.76 368.8 178.44 387.4 177.72 406.12 177.48 424.96"/>
      <polyline class="cls-7" points="155.76 288.04 152.52 304.96 149.76 322 147.48 339.04 145.56 356.08 144.12 373.24 143.04 390.52 142.32 407.68 142.2 424.96"/>
      <line class="cls-7" x1="184.56" y1="345.76" x2="184.56" y2="504.04"/>
      <path class="cls-7" d="M184.68,503.98c0,31.18,25.28,56.46,56.46,56.46"/>
      <line class="cls-7" x1="241.08" y1="560.56" x2="255.48" y2="560.56"/>
      <line class="cls-7" x1="255.48" y1="289.24" x2="241.08" y2="289.24"/>
      <path class="cls-7" d="M241.14,289.24c-31.18,0-56.46,25.28-56.46,56.46"/>
      <path class="cls-7" d="M189.18,298.42c2.84-9.19-2.29-18.95-11.47-21.83s-18.96,2.23-21.86,11.41"/>
      <polyline class="cls-7" points="177.48 424.96 177.72 443.68 178.44 462.4 179.76 481 181.56 499.72 183.72 518.32 186.48 536.8 189.84 555.28"/>
      <polyline class="cls-7" points="142.2 424.96 142.32 442.12 143.04 459.28 144.12 476.56 145.56 493.72 147.48 510.76 149.76 527.8 152.52 544.84 155.76 561.76"/>
      <path class="cls-7" d="M155.85,561.68c2.9,9.18,12.67,14.28,21.86,11.41s14.32-12.63,11.47-21.83"/>
      <polyline class="cls-1" points="693.72 403.96 707.88 428.44 693.72 452.92"/>
      <line class="cls-1" x1="654.48" y1="374.32" x2="655.56" y2="372.28"/>
      <polyline class="cls-1" points="663.6 358.48 665.52 355.12 693.72 355.12 707.88 379.48 693.72 403.96 665.52 403.96 654 384.16 655.56 386.8"/>
      <line class="cls-1" x1="623.16" y1="379.48" x2="621.12" y2="376.12"/>
      <line class="cls-1" x1="613.2" y1="362.32" x2="611.64" y2="359.68"/>
      <line class="cls-1" x1="612" y1="349.84" x2="613.2" y2="347.8"/>
      <polyline class="cls-1" points="621.12 334 623.16 330.64 651.36 330.64 665.52 355.12"/>
      <polyline class="cls-1" points="603.72 355.12 580.8 355.12 566.64 330.64 580.8 306.16 609 306.16 623.16 330.64"/>
      <polyline class="cls-1" points="693.72 452.92 665.52 452.92 651.36 477.4 665.52 501.88 693.72 501.88 707.88 477.4 693.72 452.92"/>
      <polyline class="cls-1" points="623.16 477.4 609 501.88 623.16 526.36 651.36 526.36 665.52 501.88"/>
      <polyline class="cls-1" points="566.64 526.36 580.8 550.84 609 550.84 623.16 526.36"/>
      <polyline class="cls-1" points="495.96 403.96 481.92 428.44 495.96 452.92"/>
      <polyline class="cls-1" points="538.44 379.48 524.28 355.12 495.96 355.12 481.92 379.48 495.96 403.96 499.92 403.96"/>
      <line class="cls-1" x1="515.88" y1="403.96" x2="518.16" y2="403.96"/>
      <polyline class="cls-1" points="566.64 330.64 538.44 330.64 524.28 355.12"/>
      <polyline class="cls-1" points="538.44 477.4 524.28 501.88 495.96 501.88 481.92 477.4 495.96 452.92 499.92 452.92"/>
      <line class="cls-1" x1="495.96" y1="452.92" x2="518.16" y2="452.92"/>
      <polyline class="cls-1" points="580.8 501.88 566.64 526.36 538.44 526.36 524.28 501.88"/>
      <line class="cls-1" x1="623.16" y1="428.44" x2="621.12" y2="425.08"/>
      <line class="cls-1" x1="613.2" y1="411.28" x2="611.64" y2="408.64"/>
      <polyline class="cls-1" points="611.64 399.4 623.16 379.48 627.12 379.48"/>
      <line class="cls-1" x1="642.96" y1="379.48" x2="646.08" y2="379.48"/>
      <polyline class="cls-1" points="651.36 477.4 623.16 477.4 609 452.92 623.16 428.44 627.12 428.44"/>
      <line class="cls-1" x1="642.96" y1="428.44" x2="645.36" y2="428.44"/>
      <line class="cls-1" x1="654" y1="433.12" x2="655.56" y2="435.76"/>
      <line class="cls-1" x1="663.6" y1="449.56" x2="665.52" y2="452.92"/>
      <polyline class="cls-1" points="580.8 403.96 566.64 379.48 580.8 355.12"/>
      <polyline class="cls-1" points="580.8 452.92 566.64 428.44 580.8 403.96 584.76 403.96"/>
      <line class="cls-1" x1="600.6" y1="403.96" x2="602.88" y2="403.96"/>
      <polyline class="cls-1" points="609 501.88 580.8 501.88 566.64 477.4 580.8 452.92 609 452.92"/>
      <line class="cls-1" x1="538.44" y1="428.44" x2="536.4" y2="425.08"/>
      <line class="cls-1" x1="528.48" y1="411.28" x2="526.92" y2="408.64"/>
      <polyline class="cls-1" points="526.92 399.4 538.44 379.48 566.64 379.48"/>
      <polyline class="cls-1" points="566.64 477.4 538.44 477.4 536.4 473.92"/>
      <line class="cls-1" x1="528.48" y1="460.24" x2="526.92" y2="457.48"/>
      <line class="cls-1" x1="526.92" y1="448.36" x2="528.48" y2="445.6"/>
      <polyline class="cls-1" points="536.4 431.92 538.44 428.44 566.64 428.44"/>
      <line class="cls-1" x1="665.52" y1="403.96" x2="654" y2="423.88"/>
      <polyline class="cls-1" points="594.84 262.6 738.48 345.52 738.48 511.36 594.84 594.28"/>
      <polyline class="cls-1" points="594.84 262.6 451.32 345.52 451.32 511.36 594.84 594.28"/>
      <path class="cls-7" d="M687.48,477.34c0-4.27-3.47-7.74-7.74-7.74s-7.74,3.47-7.74,7.74,3.47,7.74,7.74,7.74,7.74-3.47,7.74-7.74"/>
      <path class="cls-7" d="M687.48,428.38c0-4.27-3.47-7.74-7.74-7.74s-7.74,3.47-7.74,7.74,3.47,7.74,7.74,7.74,7.74-3.47,7.74-7.74"/>
      <path class="cls-7" d="M687.48,379.42c0-4.27-3.47-7.74-7.74-7.74s-7.74,3.47-7.74,7.74,3.47,7.74,7.74,7.74,7.74-3.47,7.74-7.74"/>
      <path class="cls-7" d="M645.12,355.06c0-4.27-3.47-7.74-7.74-7.74s-7.74,3.47-7.74,7.74,3.47,7.74,7.74,7.74,7.74-3.47,7.74-7.74"/>
      <path class="cls-7" d="M645.12,403.9c0-4.27-3.47-7.74-7.74-7.74s-7.74,3.47-7.74,7.74,3.47,7.74,7.74,7.74,7.74-3.47,7.74-7.74"/>
      <path class="cls-7" d="M645.12,452.86c0-4.27-3.47-7.74-7.74-7.74s-7.74,3.47-7.74,7.74,3.47,7.74,7.74,7.74,7.74-3.47,7.74-7.74"/>
      <path class="cls-7" d="M645.12,501.82c0-4.27-3.47-7.74-7.74-7.74s-7.74,3.47-7.74,7.74,3.47,7.74,7.74,7.74,7.74-3.47,7.74-7.74"/>
      <path class="cls-7" d="M602.64,526.3c0-4.27-3.47-7.74-7.74-7.74s-7.74,3.47-7.74,7.74,3.47,7.74,7.74,7.74,7.74-3.47,7.74-7.74"/>
      <path class="cls-7" d="M602.64,428.38c0-4.27-3.47-7.74-7.74-7.74s-7.74,3.47-7.74,7.74,3.47,7.74,7.74,7.74,7.74-3.47,7.74-7.74"/>
      <path class="cls-7" d="M602.64,379.42c0-4.27-3.47-7.74-7.74-7.74s-7.74,3.47-7.74,7.74,3.47,7.74,7.74,7.74,7.74-3.47,7.74-7.74"/>
      <path class="cls-7" d="M602.64,330.58c0-4.27-3.47-7.74-7.74-7.74s-7.74,3.47-7.74,7.74,3.47,7.74,7.74,7.74,7.74-3.47,7.74-7.74"/>
      <path class="cls-7" d="M560.28,403.9c0-4.27-3.47-7.74-7.74-7.74s-7.74,3.47-7.74,7.74,3.47,7.74,7.74,7.74,7.74-3.47,7.74-7.74"/>
      <path class="cls-7" d="M560.28,452.86c0-4.27-3.47-7.74-7.74-7.74s-7.74,3.47-7.74,7.74,3.47,7.74,7.74,7.74,7.74-3.47,7.74-7.74"/>
      <path class="cls-7" d="M560.28,501.82c0-4.27-3.47-7.74-7.74-7.74s-7.74,3.47-7.74,7.74,3.47,7.74,7.74,7.74,7.74-3.47,7.74-7.74"/>
      <path class="cls-7" d="M517.92,477.34c0-4.27-3.47-7.74-7.74-7.74s-7.74,3.47-7.74,7.74,3.47,7.74,7.74,7.74,7.74-3.47,7.74-7.74"/>
      <path class="cls-7" d="M517.92,428.38c0-4.27-3.47-7.74-7.74-7.74s-7.74,3.47-7.74,7.74,3.47,7.74,7.74,7.74,7.74-3.47,7.74-7.74"/>
      <path class="cls-7" d="M517.92,379.42c0-4.27-3.47-7.74-7.74-7.74s-7.74,3.47-7.74,7.74,3.47,7.74,7.74,7.74,7.74-3.47,7.74-7.74"/>
      <polyline class="cls-7" points="615.84 399.4 615.84 408.64 602.88 408.64 602.88 399.4 615.84 399.4"/>
      <polyline class="cls-7" points="600.6 402.52 600.6 405.52 584.76 405.52 584.76 402.52 600.6 402.52"/>
      <polyline class="cls-7" points="614.52 410.56 612 412 619.92 425.8 622.44 424.36 614.52 410.56"/>
      <polyline class="cls-7" points="644.04 383.2 651.96 387.76 658.44 376.6 650.52 371.92 644.04 383.2"/>
      <polyline class="cls-7" points="654.36 371.56 656.88 373 664.8 359.2 662.28 357.76 654.36 371.56"/>
      <polyline class="cls-7" points="642.96 378.04 642.96 381.04 627.12 381.04 627.12 378.04 642.96 378.04"/>
      <polyline class="cls-7" points="531.12 448.36 531.12 457.48 518.16 457.48 518.16 448.36 531.12 448.36"/>
      <polyline class="cls-7" points="527.16 460.96 529.68 459.52 537.72 473.2 535.2 474.76 527.16 460.96"/>
      <polyline class="cls-7" points="529.8 446.44 527.16 444.88 535.08 431.08 537.72 432.64 529.8 446.44"/>
      <line class="cls-1" x1="655.56" y1="435.76" x2="654" y2="433.12"/>
      <line class="cls-1" x1="642.96" y1="428.44" x2="645.36" y2="428.44"/>
      <polyline class="cls-7" points="658.2 423.88 658.2 433.12 645.36 433.12 645.36 423.88 658.2 423.88"/>
      <polyline class="cls-7" points="642.96 427 642.96 429.88 627.12 429.88 627.12 427 642.96 427"/>
      <polyline class="cls-7" points="656.88 435.04 654.36 436.48 662.28 450.28 664.8 448.72 656.88 435.04"/>
      <polyline class="cls-7" points="531.12 399.4 531.12 408.64 518.16 408.64 518.16 399.4 531.12 399.4"/>
      <polyline class="cls-7" points="515.88 402.52 515.88 405.4 499.92 405.4 499.92 402.52 515.88 402.52"/>
      <polyline class="cls-7" points="529.68 410.56 527.16 412 535.08 425.8 537.72 424.24 529.68 410.56"/>
      <polyline class="cls-7" points="601.68 358.72 609.6 363.28 616.08 352.12 608.04 347.56 601.68 358.72"/>
      <polyline class="cls-7" points="612 347.08 614.52 348.52 622.44 334.72 619.92 333.28 612 347.08"/>
      <polyline class="cls-7" points="612 363.04 614.52 361.6 622.44 375.4 619.92 376.84 612 363.04"/>
      <line class="cls-7" x1="738.48" y1="345.52" x2="700.8" y2="367.24"/>
      <line class="cls-7" x1="700.8" y1="489.64" x2="738.48" y2="511.36"/>
      <line class="cls-7" x1="594.84" y1="550.84" x2="594.84" y2="594.28"/>
      <line class="cls-7" x1="489" y1="489.64" x2="451.32" y2="511.36"/>
      <line class="cls-7" x1="489" y1="367.24" x2="451.32" y2="345.52"/>
      <line class="cls-7" x1="594.84" y1="306.16" x2="594.84" y2="262.6"/>
      <polyline class="cls-7" points="742.68 241.36 716.52 255.04 726.12 273.4 752.28 259.84 742.68 241.36"/>
      <polyline class="cls-7" points="755.16 265.24 728.88 278.8 738.48 297.28 764.76 283.6 755.16 265.24"/>
      <polyline class="cls-7" points="767.52 289 741.36 302.68 750.96 321.04 777.12 307.36 767.52 289"/>
      <polyline class="cls-7" points="745.32 233.2 708.36 252.52 748.32 329.2 785.28 310 745.32 233.2"/>
      <polyline class="cls-7" points="660.36 603.64 680.16 625.48 695.52 611.68 675.72 589.72 660.36 603.64"/>
      <polyline class="cls-7" points="680.28 585.64 700.08 607.6 715.44 593.68 695.64 571.72 680.28 585.64"/>
      <polyline class="cls-7" points="700.2 567.64 720 589.6 735.36 575.68 715.56 553.72 700.2 567.64"/>
      <polyline class="cls-7" points="651.72 603.16 679.68 634.12 744 576.16 716.04 545.2 651.72 603.16"/>
      <polyline class="cls-7" points="1338.84 632.8 1354.2 622 1369.32 610.96 1384.08 599.32 1398.48 587.44 1412.52 575.08 1426.32 562.36 1439.76 549.28"/>
      <polyline class="cls-7" points="1358.4 661.48 1372.56 651.76 1386.48 641.68 1400.28 631.24 1413.72 620.56 1426.92 609.4 1439.76 598 1452.36 586.36 1464.72 574.36"/>
      <line class="cls-7" x1="1378.8" y1="600.28" x2="1490.64" y2="488.44"/>
      <path class="cls-7" d="M1490.78,488.34c22.05-22.05,22.05-57.8,0-79.85"/>
      <line class="cls-7" x1="1490.64" y1="408.52" x2="1390.8" y2="308.56"/>
      <path class="cls-7" d="M1390.82,308.54c-19.63-19.63-50.62-22.08-73.08-5.77"/>
      <path class="cls-7" d="M1317.72,612.6c21.01,8.5,45.07,3.62,61.1-12.41"/>
      <path class="cls-7" d="M1342.16,630.5c-8.51,4.49-11.79,15.02-7.32,23.54,4.46,8.52,14.99,11.83,23.52,7.39"/>
      <polyline class="cls-7" points="1439.76 549.28 1452.84 535.96 1465.56 522.16 1477.8 508 1489.8 493.6 1501.32 478.84 1512.48 463.84 1523.16 448.48"/>
      <polyline class="cls-7" points="1464.72 574.36 1476.72 562 1488.48 549.4 1499.88 536.44 1510.92 523.24 1521.72 509.8 1532.04 496.12 1542.12 482.08 1551.84 467.92"/>
      <path class="cls-7" d="M1551.91,467.88c4.44-8.54,1.13-19.06-7.39-23.52-8.52-4.46-19.06-1.19-23.54,7.32"/>
      <polyline class="cls-7" points="422.52 256 415.8 243.04 397.32 252.64 411 278.8 427.32 270.4"/>
      <polyline class="cls-7" points="432.72 241.12 427.68 239.56 418.8 267.76 438.6 273.88 439.92 269.92"/>
      <polyline class="cls-7" points="434.04 237.04 425.16 265.24 444.96 271.48 453.84 243.28 434.04 237.04"/>
      <path class="cls-7" d="M602.64,477.34c0-4.27-3.47-7.74-7.74-7.74s-7.74,3.47-7.74,7.74,3.47,7.74,7.74,7.74,7.74-3.47,7.74-7.74"/>
      <line class="cls-2" x1="1567.08" y1="850" x2="1567.08" y2="850"/>
      <line class="cls-2" x1="133.56" y1="-.2" x2="133.56" y2="-.2"/>
      <line class="cls-2" x1="1567.08" y1="850" x2="1567.08" y2="850"/>
    </g>
  </g>
</svg>
