<svg width="1307" height="1514" viewBox="0 0 1307 1514" fill="none" xmlns="http://www.w3.org/2000/svg">
<path fill-rule="evenodd" clip-rule="evenodd" d="M484.418 423.991L490.947 427.949C513.052 449.398 569.495 513.33 641.777 542.735C664.323 551.905 667.394 543.407 687.239 557.168C711.116 573.721 741.107 589.159 738.765 647.392L736.51 648.699C736.148 648.119 734.948 650.006 734.586 649.426C731.313 644.152 730.323 609.174 696.277 582.809C640.131 539.328 704.483 597.687 712.153 611.104C734.276 649.801 659.012 578.249 670.951 597.574C684.722 619.866 739.702 636.385 729.131 686.99C717.101 744.564 625.202 616.508 649.743 658.007C676.127 702.622 714.072 712.636 721.112 714.494C730.502 716.975 721.335 736.295 694.794 720.29C645.717 690.696 608.988 623.675 637.204 673.555C666.52 725.38 712.142 738.067 720.364 740.353C747.632 747.937 711.258 762.046 684.601 740.996C621.123 690.869 629.539 682.514 623.446 679.157C616.563 675.366 619.559 685.013 640.422 712.271C650.116 724.934 692.948 761.443 702.404 761.87C741.485 763.64 740.057 769.945 769.026 795.919C825.687 846.718 848.301 821.167 880.334 829.475C902.1 835.121 841.122 832.63 840.82 836.562C839.649 851.829 899.092 838.849 943.205 861.208C1005.98 893.031 1031.23 954.506 1011.36 929.374C976.96 885.854 923.305 861.124 917.194 862.169C902.24 864.731 964.016 891.532 989.534 924.802C1031.21 979.142 1037.64 972.382 1092.47 1013.59C1147.41 1054.89 1129.43 1075.62 1169.08 1092.02C1181.88 1097.32 1160.16 1102.61 1139.1 1079.64C1107.88 1045.6 1111.27 1041.62 1062.6 1011.29C989.733 965.878 975.204 922.765 958.892 908.044C908.624 862.678 866.206 854.179 857.103 852.357C749.441 830.782 769.884 777.518 704.937 775.387C675.962 774.436 673.791 753.775 656.902 743.249C638.616 731.851 638.083 732.247 618.065 705.417C586.988 663.774 618.005 727 645.032 749.249C696.862 791.921 700.957 784.406 702.214 784.506C725.275 786.364 726.732 784.579 748.052 803.773C833.276 880.497 870.614 836.46 922.226 892.097C937.126 908.154 944.121 900.25 963.447 926.665C995.146 969.994 992.149 974.39 1084.83 1034.52C1137.07 1068.41 1116.58 1089.2 1151.87 1110.98C1164.28 1118.64 1154.56 1120.75 1153.77 1120.71C1121.85 1119.12 1112.82 1075.6 1112.43 1074.7C1112.14 1076.17 1109.74 1076.6 1109.46 1078.06C1106.17 1095.05 1118.99 1111.42 1120.84 1113.78C1131.33 1127.18 1166.48 1139.77 1143.34 1136.45C1102.03 1130.53 1104.57 1085.08 1102.12 1067.29C1101.36 1061.76 1078.13 1047.1 1041.49 1022.03C977.855 978.496 985.893 970.377 950.621 926.621C915.204 882.678 951.338 973.516 1025.69 1022.04C1087.47 1062.35 1092.2 1063.01 1104.44 1119.9C1116.19 1174.54 1171.56 1135 1214.35 1148.22C1215.59 1148.6 1251.26 1159.62 1227.07 1158.25C1222.2 1157.98 1167.22 1154.85 1166.32 1161.74C1164.19 1178.09 1252.9 1135.01 1285.11 1211.86C1285.29 1212.27 1288.22 1224.92 1280.02 1214.2C1223.66 1140.48 1143.49 1218.35 1099 1138.19C1085.07 1113.1 1108.42 1093.64 1043.32 1052.06C907.631 965.405 956.753 909.427 875.428 874.283C870.642 872.218 870.944 878.021 877.869 881.452C883.158 884.075 912.417 898.573 926.765 936.716C954.327 1009.99 978.856 1012.25 1053.12 1068.64C1093.47 1099.27 1085.83 1135.78 1091.85 1148.34C1118.88 1204.82 1190.48 1177.33 1234.71 1194.55C1275.01 1210.23 1300.12 1272.45 1284.69 1254.5C1241.83 1204.64 1223.27 1198.86 1166.93 1202.1C1081.9 1207 1076.08 1124.58 1071.49 1115.19C1063.32 1098.49 1028.63 1065.03 1025.99 1067.79C1018.34 1075.77 1054.26 1097 1067.52 1127.76C1070.6 1134.9 1053.58 1141.47 1023.51 1087.92C997.556 1041.7 995.96 1042.78 957.176 1006.77C935.666 986.804 953.978 1017.26 954.362 1017.5C1019.09 1057.3 1018.87 1122.05 1054.45 1140.15C1074.13 1150.17 1072.47 1180.53 1109.65 1200.41C1139.49 1216.37 1165.8 1210.38 1177.41 1209.87C1249.88 1206.64 1283.34 1272.35 1283.91 1290.38C1284.39 1305.52 1275 1275.22 1260.91 1259.58C1222.79 1217.25 1177.84 1234.09 1177.37 1234.1C1165.37 1234.25 1177.42 1222.73 1177.44 1222.39C1178.63 1201.22 1115.65 1276.97 1056.24 1151.71C1052.89 1144.67 1031.21 1150.64 1007.47 1101.29C983.685 1051.86 963.344 1048.85 941.457 1022.6C925.773 1003.78 931.01 888.871 838.846 882.865C763.125 877.927 773.599 851.59 733.121 824.395C703.37 804.409 681.782 830.622 656.416 774.082C646.116 751.124 631.35 763.732 601.092 717.408C600.538 716.56 574.424 676.582 590.636 710.231C610.376 751.205 633.463 763.787 638.666 766.624C646.525 770.908 657.269 822.206 704.945 825.248C734.389 827.125 735.92 835.775 755.174 854.438C810.181 907.76 844.088 875.898 879.709 903.221C929.432 941.365 910.445 1000.54 944.982 1040.12C954.243 1050.73 961.832 1043.84 974.086 1070.68C984.045 1092.49 989.103 1089.1 1000.99 1109.8C1004.3 1115.56 1016.8 1147.74 1016.33 1148.52C1014.08 1152.21 1010.18 1150.8 984.783 1104.8C960.793 1061.35 943.413 1056.38 924.035 1024.7C907.697 998.002 914.267 908.482 833.588 901.507C784.732 897.284 782.86 896.36 749.121 860.484C720.012 829.532 708.428 838.255 699.605 836.733C645.305 827.348 641.372 802.025 633.143 781.765C628.074 769.281 606.483 761.227 587.833 730.607C587.079 729.368 564.57 692.408 574.59 718.222C588.255 753.415 610.765 770.767 615.141 774.14C635.251 789.64 622.968 839.983 707.464 845.498C731.242 847.049 741.232 864.728 754.932 878.329C802.361 925.413 836.552 896.441 866.736 919.074C922.78 961.097 885.639 1018.14 947.348 1069.21C972.807 1090.28 911.705 1074.77 898.964 1004.54C884.92 927.146 861.762 922.04 809.832 918.62C758.366 915.231 762.12 889.285 726.743 864.238C704.887 848.763 632.594 867.768 617.322 799.954C612.967 780.608 593.82 784.212 562.517 724.052C553.115 705.984 555.356 732.806 576.921 762.527C587.36 776.912 588.668 775.646 598.971 789.953C607.3 801.518 613.4 859.77 691.736 865.705C736.34 869.086 732.381 879.596 763.414 911.923C796.476 946.363 835.819 926.524 854.108 936.987C914.929 971.781 865.518 1054.7 955.073 1092.93L954.509 1096.64C944.583 1105.26 976.48 1134.71 962.16 1130.42C958.982 1129.47 961.864 1125.09 928.364 1106.33C906.125 1093.87 871.561 1049.71 905.093 1079.39C907.818 1081.8 927.605 1099.32 943.919 1103.03C1012.69 1118.64 895.921 1095.39 886.437 1025.4C885.487 1018.38 885.266 964.765 849.322 946.613C834.683 939.221 784.141 959.688 751.066 913.362C705.918 850.131 678.784 895.832 616.38 853.869C563.239 818.132 530.5 745.54 525.57 734.607C510.768 701.782 520.278 773.56 587.137 841.371C648.73 903.844 706.94 862.594 735.229 908.109C759.487 947.14 766.645 952.088 836.163 953.658C877.764 954.601 886.311 1038.9 873.078 1025.29C871.278 1023.43 867.453 966.649 838.804 964.717C826.734 963.904 776.967 968.311 742.584 937.827C732.94 929.275 735.056 928.007 727.669 913.073C722.144 901.906 702.254 894.268 699.695 893.283C694.497 892.532 694.825 892.753 689.247 893.33C655.755 891.606 592.55 898.444 517.123 762.288C505.321 740.983 496.475 712.547 499.856 736.726C502.615 756.458 554.018 853.997 605.405 880.615C658.422 908.078 676.539 889.745 686.01 920.68C694.644 948.87 697.369 968.986 738.844 981.189C739.455 982.003 740.064 982.817 740.676 983.63C736.592 989.377 735.405 986.87 728.609 985.25C679.85 973.629 683.102 918.688 667.793 913.679C597.123 890.558 554.367 886.776 526.959 849.207C473.763 776.297 454.979 707.373 458.638 736.775C462.143 764.952 523.749 869.38 534.763 874.759C584.368 898.977 609.731 897.242 654.899 920.709C662.43 924.62 667.446 917.097 668.806 925.631C672.699 950.025 697.566 996.929 744.259 999.241C745.359 999.296 771.704 1000.6 755.087 1007.74C745.963 1011.66 697.45 1010.8 671.681 959.404C661.107 938.315 663.12 929.902 654.789 935.916C648.531 940.436 617.193 911.558 618.039 923.148C618.863 934.454 645.05 920.896 670.378 973.083C683.692 1000.52 644.963 943.072 604.764 929.259C458.735 879.087 470.931 841.689 461.203 850.17C457.029 853.808 486.852 890.054 545.19 914.194C571.639 925.138 660.432 939.496 676.66 1020.13C688.126 1077.11 649.885 1086.06 687.646 1132.16C741.107 1197.42 809.561 1195.86 808.367 1256.55C807.952 1277.59 767.299 1332.39 862.844 1376.31C864.261 1376.96 948.97 1402.3 928.474 1479.77C924.418 1495.1 914.651 1503.8 917.163 1492.75C945.14 1369.65 785.789 1403.97 787.467 1303.77C788.057 1268.52 817.722 1242.14 759.253 1205.17C748.239 1198.2 721.338 1178.91 725.582 1191.01C729.722 1202.82 795.651 1214.52 785.028 1266.78C767.225 1354.37 786.537 1358.46 859.426 1396.35C959.864 1448.57 883.366 1539.24 894.869 1506.14C927.875 1411.17 819.678 1411.72 782.009 1360.71C735.402 1297.6 797.224 1255.01 757.266 1222.52C756.248 1221.69 734.99 1204.41 741.792 1217.07C749.921 1232.2 763.162 1245.29 752.709 1303.85C752.195 1306.74 745.288 1345.42 739.07 1337.85C729.559 1326.25 788.097 1260.76 706.43 1189.45C660.291 1149.16 624.958 1142.47 643.136 1099.71C671.363 1033.31 615.482 963.791 581.627 956.632C575.204 955.275 543.552 948.584 505.896 924.991C493.123 916.987 495.325 907.051 502.121 911.199C574.107 955.139 595.157 933.75 633.348 984.011C689.268 1057.61 634.112 1109.7 655.164 1133C661.262 1139.75 725.401 1189.72 684.031 1146.14C634.516 1093.98 691.688 1074.72 657.156 1004.75C624.412 938.412 575.023 943.245 506.033 906.104C456.851 879.625 443.033 837.61 442.211 852.247C441.762 860.224 479.877 899.646 479.877 899.83C479.985 908.382 449.238 888.243 429.952 856.439C429.6 855.856 419.216 838.733 422.521 852.299C427.044 870.868 467.912 907.364 445.083 894.089C419.253 879.066 404.358 839.683 403.629 852.38C403.385 856.617 416.966 878.499 422.495 885.676C441.284 910.078 414.546 888.939 414.039 888.44C400.172 874.808 370.9 827.498 384.676 857.494C400.5 891.942 436.305 924.683 405.755 901.909C387.068 887.975 357.715 831.845 366.12 857.52C371.751 874.724 406.201 913.034 385.432 898.242C368.551 886.219 355.247 857.539 353.502 854.31C340.925 831.042 350.433 859.628 350.635 860.103C351.27 861.615 365.039 894.281 353.804 880.342C333.284 854.885 299.655 841.319 337.586 823.81C359.101 813.88 359.516 815.171 379.975 803.566C389.422 798.206 428.117 822.618 481.436 842.573C494.485 847.456 519.433 866.933 507.059 850.207C439.94 759.482 443.376 712.938 437.937 731.728C437.851 732.022 446.886 771.614 451.556 783.579C455.367 793.352 470.348 818.237 460.725 812.956C456.68 810.735 434.593 770.515 427.574 744.299C427.38 743.566 413.614 701.123 419.531 739.288C419.959 742.036 438.05 802.92 417.339 762.29C401.442 731.105 407.768 729.008 401.206 714.92C392.173 695.526 397.499 727.751 397.686 728.887C400.287 744.629 404.508 748.848 397.641 748.118C388.727 747.17 386.716 705.233 376.439 710.266C373.491 711.707 396.641 758.177 373.612 734.702C350.318 710.953 307.475 725.162 327 726.023C343.771 726.764 344.34 724.005 359.127 731.455L361.387 734.473C352.05 733.376 340.487 728.761 323.34 735.893C322.863 736.093 296.789 750.588 321.645 742.136C378.108 722.936 387.776 775.001 376.428 791.68C360.668 814.848 329.449 793.237 329.097 793.092C296.781 779.791 257.771 820.174 229.925 804.868C231.857 803.088 230.712 800.579 234.98 801.773C259.584 808.658 293.956 773.875 334.712 782.198C335.712 782.403 373.496 790.121 347.254 779.776C298.109 760.4 288.906 797.507 227.496 796.384C191.033 783.301 212.489 766.863 231.111 704.874C270.069 575.201 269.373 566.985 290.179 567.505C310 568.001 315.137 558.772 325.07 576.17C333.581 591.08 351.622 583.344 373.271 621.761C393.525 657.703 408.343 681.824 463.258 677.894C504.822 674.92 590.542 628.484 523.673 654.563C471.222 675.017 452.74 669.016 462.15 664.921C468.962 661.958 470.926 667.525 549.668 633.881C571.5 624.554 545.421 629.704 544.964 629.896C454.559 667.706 443.413 659.795 448.818 653.993C454.349 648.056 460.19 660.992 543.326 617.117C545.116 616.172 569.374 603.37 562.874 601.045C562.194 600.8 509.269 631.124 460.767 645.289C428.277 654.776 467.962 639.007 494.294 618.07C501.011 612.728 493.162 612.006 492.398 610.817C491.592 609.565 526.308 586.4 517.244 600.05C516.79 600.732 506.56 616.136 515.661 610.161C516.543 609.581 516.425 609.55 525.956 601.903C531.217 605.297 531.107 605.662 531.639 605.567C531.639 605.567 539.307 601.801 539.974 601.472C553.464 594.364 553.398 594.445 554.545 593.797C583.838 577.236 613.679 546.431 615.162 542.368C617.758 535.262 603.662 545.258 602.824 545.851C600.937 543.888 599.052 541.922 597.165 539.958C565.93 538.144 564.924 537.359 564.838 534.742C564.733 531.516 603.992 533.593 585.014 528.266C577.314 526.103 577.112 527.618 487.14 507.878C360.245 480.037 348.27 505.964 349.934 495.068C350.131 493.79 386.096 475.383 402.936 471.343C472.202 454.732 481.791 475.026 482.106 463.786C482.305 456.74 434.475 455.205 416.069 458.037C359.516 466.736 347.12 480.515 353.898 469.451C356.576 465.077 401.067 447.474 447.674 449.178C478.798 450.317 483.011 452.128 480.741 448.59C473.406 437.153 373.483 448.844 395.037 440.019C398.179 438.733 418.442 438.709 437.436 433.215C453.687 428.514 463.788 423.159 484.418 423.991Z" fill="#D4F7D2"/>
<path fill-rule="evenodd" clip-rule="evenodd" d="M1175.81 682.527C1188.58 677.865 1211.7 678.411 1237.01 646.932C1252.03 628.263 1255.8 625.452 1250.83 624.932C1240.82 623.887 1214.11 685.226 1135.44 668.129C1111.8 662.992 1154.07 678.584 1165.65 734.565C1170.12 756.164 1171.22 732.05 1171.15 731.554C1165.58 691.988 1161.5 686.971 1168.74 687.848C1194.34 731.987 1160.62 780.374 1219.52 793.969C1226.2 795.51 1286.41 809.409 1295.28 833.935C1302.78 854.662 1278.14 809.813 1229.9 810.884C1212.36 811.273 1188.41 818.381 1154.64 778.124C1131.82 750.927 1139.36 712.1 1082.2 674.844C1011.55 628.807 895.981 729.685 856.997 626.562C844.922 594.624 839.25 566.29 839.126 589.815C839.105 593.86 851.104 645.068 870.687 665.48C912.099 708.643 994.167 658.585 1046.27 670.552C1143.86 692.967 1110.62 802.479 1211.35 818.87C1212.46 819.051 1273.33 813.677 1302.29 865.624C1317.44 892.808 1291.06 843.259 1237.65 837.544C1158.38 829.057 1148.78 817.88 1113.85 747.52C1062.57 644.244 947.62 697.516 933.167 698.894C835.079 708.244 852.727 611.447 842.085 639.79C840.835 643.115 852.341 710.116 914.884 707.906C974.359 705.806 1054.43 642.74 1111.32 760.589C1168.64 879.352 1235.78 815.953 1281.23 868.999C1303.41 894.884 1303.14 910.178 1296.05 901.486C1230.79 821.479 1172.19 894.031 1110.41 785.913C1081.92 736.056 1070.4 682.7 951.97 716.944C819.281 755.308 834.333 619.404 817.3 579.475C807.065 555.488 773.898 516.761 793.735 530.251C797.544 532.842 795.008 535.627 837.879 567.255C847.059 574.028 843.384 579.294 854.69 581.063C872.624 583.869 889.571 655.062 983.362 627.218C1076.96 599.428 1094.29 660.887 1138 661.527C1224.46 662.79 1235.27 595.818 1276.95 616.401C1300.09 627.827 1316.96 675.91 1294.66 645.903C1270.62 613.553 1249.42 646.405 1247.37 649.594C1244.13 654.602 1224.02 685.774 1182.68 686.509C1178.35 686.585 1177.98 686.848 1175.81 682.527Z" fill="#D4F7D2"/>
<path fill-rule="evenodd" clip-rule="evenodd" d="M391.968 973.309L389.947 975.663C386.243 975.556 382.542 975.448 378.838 975.341C375.179 977.236 375.208 976.905 375.179 977.236C375.069 978.504 377.093 976.519 376.961 977.997C413.89 989.164 436.433 993.739 435.446 1025.46C434.619 1052.06 457.347 1156.57 522.856 1207.76C523.505 1208.26 538.328 1219.85 523.804 1217.99C510.34 1216.28 546.287 1256.29 540.475 1316.98C535.653 1367.34 478.428 1409.38 507.017 1371.44C538.953 1329.06 534.787 1252.14 489.036 1188.7C442.586 1124.28 424.35 1088.07 426.214 1020.33C426.923 994.558 395.874 1068.26 459.323 1161.21C459.662 1161.71 517.992 1227.08 519.312 1301.11C520.887 1389.38 410.446 1400.71 432.68 1469.02C444.369 1504.94 413.346 1459.68 421.046 1432.28C438.04 1371.83 572.904 1359.53 471.716 1195.82C445.933 1154.11 404.141 1126 408.115 1020.27C409.685 978.485 383.928 1063.15 418.197 1130.78C439.019 1171.86 558.107 1293.83 464.901 1370.74C428.553 1400.74 390.913 1417.48 413.543 1477C420.948 1496.47 369.236 1445.48 413.932 1398.65C454.824 1355.82 527.592 1346.53 464.854 1222.97C440.872 1175.73 374.793 1125.08 391.863 1009.98C391.286 1009.65 390.708 1009.33 390.131 1009C386.246 1010.33 380.355 1012.35 381.602 1059.63C384.532 1170.88 452.8 1174.84 480.541 1283C505.382 1379.86 350.409 1362.76 386.477 1471.82C394.357 1495.64 346.913 1438.84 385.233 1396.13C428.175 1348.25 494.525 1344.4 465.537 1267.17C430.43 1173.65 369.887 1158.27 370.535 1049.14C370.646 1030.57 379.056 990.815 370.968 1006.48C367.755 1012.7 358.216 1053.07 364.902 1093.59C371.772 1135.2 393.501 1168.87 376.78 1148.86C339.272 1103.95 358.077 1015.89 360.503 1004.53C371.375 953.619 322.771 1066.17 359.222 1140.68C359.516 1141.28 371.829 1166.45 356.213 1148.42C350.685 1142.04 323.025 1093.33 342.023 1014.93C342.24 1014.04 355.925 956.674 339.096 1003.8C314.796 1071.85 337.836 1140.81 337.492 1141.11C329.323 1148.27 304.958 1072 330.302 1001.9C341.101 972.025 291.809 1035.42 319.5 1135.74C326.669 1161.71 302.144 1126.38 302.637 1070.13C303.047 1023.58 326.771 968.295 307.044 1010.43C303.348 1018.33 286.165 1076.33 302.49 1130.72C310.26 1156.61 313.882 1160.16 308.472 1159.59C303.115 1159.03 284.044 1106.96 287.097 1067.49C289.066 1042.04 297.634 1010.02 290.604 1018.44C289.26 1020.05 264.073 1078.89 294.581 1157.09C298.445 1166.98 312.599 1194.49 303.285 1190.83C301.521 1190.14 222.658 1046.78 310.438 990.264C362.154 956.968 386.128 970.106 391.968 973.309Z" fill="#D4F7D2"/>
<path fill-rule="evenodd" clip-rule="evenodd" d="M1206.2 307.829C1245.43 301.865 1245.27 309.601 1285.1 310.601C1292.65 310.79 1311.83 332.659 1274.44 366.553C1227.57 409.039 1208.04 393.533 1212.83 406.296C1220.9 427.831 1163.92 420.276 1127.28 401.211C1082.05 377.681 1086.51 371.465 1082.51 369.685C1069.54 363.92 1070.06 363.548 1057.09 352.964C1036.34 336.027 1087.7 353.134 1159.01 356.318C1210.95 358.636 1255.35 345.852 1258.26 342.608C1269.45 330.16 1238.84 351.008 1169.55 349.735C1132.78 349.06 1042.95 333.72 1041.65 331.995C1038.71 328.11 1038.24 323.078 1091.31 296.796C1172.69 256.49 1189.68 288.184 1189.97 295.77C1190.45 308.118 1193.89 307.556 1206.2 307.829Z" fill="#D4F7D2"/>
<path fill-rule="evenodd" clip-rule="evenodd" d="M566.082 90.8181C567.053 92.8813 565.998 92.8944 566.964 94.9472C568.741 98.7141 567.998 93.7869 570.886 90.545C586.442 93.4903 605.276 155.506 604.845 163.58C586.827 157.968 464.673 26.264 500.664 74.9316C506.836 83.2791 508.576 81.5413 591.576 167.513C620.637 197.616 492.606 196.729 465.865 167.248C452.052 152.02 451.994 152.403 436.68 138.601C438.678 133.466 444.563 118.346 425.324 70.6817C420.654 59.1054 416.431 63.5784 416.798 64.7702C421.284 79.3862 422.531 78.6591 426.621 93.6321C435.788 127.201 433.365 132.458 431.95 135.524C409.695 115.301 410.485 113.839 409.8 101.573C407.742 64.8096 393.743 42.7097 395.276 56.8925C395.339 57.4858 402.862 86.8176 403.261 101.562C403.587 113.553 395.087 97.1758 394.719 96.4697C391.955 91.1436 387.411 94.5875 350.323 36.0028C350.01 35.5119 328.858 10.5587 343.059 35.6616C406.435 147.691 463.371 157.624 453.882 167.744C451.299 170.5 450.703 168.479 436.614 163.15C327.624 121.853 328.034 67.5448 328.401 14.8847C328.572 -9.49895 341.802 3.18243 342.842 4.17731C343.842 5.13543 373.929 25.1799 374.176 25.2298C380.529 26.4793 381.986 13.9974 389.672 20.4182C402.928 31.4957 407.613 49.8129 410.553 47.9886C438.93 30.3722 450.923 138.714 453.567 143.2C485.384 197.183 572.505 181.121 572.571 180.48C572.999 176.327 490.679 166.841 477.205 132.729C466.878 106.581 459.591 94.4852 479.265 91.9967C487.542 90.9519 492.606 93.4483 490.083 85.6284C489.269 83.1084 478.431 49.5006 494.645 52.8396C512.873 56.5933 521.426 75.6062 532.493 65.7834C538.661 60.3129 546.153 67.8047 548.838 73.3644C550.875 77.5854 551.432 78.3572 555.621 76.2231C562.05 72.9497 566.024 90.6448 566.082 90.8181Z" fill="#D4F7D2"/>
<path fill-rule="evenodd" clip-rule="evenodd" d="M1199.57 112.453C1197.28 122.948 1192.86 150.466 1160.43 203.197C1125.8 259.524 1028.79 260.763 996.146 276.988C987.977 281.047 989.279 275.909 989.529 275.426C991.894 270.872 992.842 271.891 1019.4 258.104C1032.85 251.119 1121.22 174.091 1134.86 161.336C1172.49 126.137 1206.77 69.3324 1182.67 96.2886C1158.62 123.192 1166.26 131.227 1041.25 230.589C1026.45 241.889 1027.45 242.955 1011.32 252.463C995.375 261.868 1003.16 247.202 1004.89 243.619C1029.73 192.012 1024.08 172.28 1051.9 141.347C1069.07 122.252 1072.67 128.206 1078.06 132.448C1087.44 139.822 1114.39 100.09 1127.5 100.628C1135.9 100.974 1135.35 99.3887 1143.07 95.8896C1147.36 93.9444 1151.75 92.2224 1156.02 90.2301C1184.8 76.8137 1190.52 67.4871 1198.49 72.4824C1211.72 80.7669 1200.55 108.689 1199.57 112.453Z" fill="#D4F7D2"/>
<path fill-rule="evenodd" clip-rule="evenodd" d="M292.731 148.768L295.689 151.697C280.671 154.094 278.879 154.771 277.49 155.299C259.299 162.181 258.737 157.454 243.656 144.93C191.287 101.439 253.106 171.164 284.716 183.299C285.69 183.675 311.785 193.694 290.019 195.217C245.948 198.299 206.998 149.09 201.903 142.654C154.062 82.2106 136.961 84.2083 129.527 28.07C123.374 -18.403 162.486 13.8635 172.177 7.21439C207.342 -16.9172 234.876 65.0038 247.064 48.2274C248.996 45.5683 263.073 26.1905 286.276 60.515C292.473 69.6815 295.503 58.6959 296.28 57.6301C309.061 40.0873 324.745 79.8823 327.824 111.899C331.953 154.808 366.38 178.099 342.986 163.633C307.462 141.67 319.091 110.49 303.811 74.4223C291.111 44.4474 310.431 119.578 307.076 123.715C298.758 133.976 278.92 74.2018 277.797 71.4035C253.707 11.396 279.616 94.2095 280.209 96.1048C291.292 131.534 329.848 155.986 305.984 148.219C255.474 131.776 277.907 100.651 259.178 66.5341C247.365 45.0223 267.696 116.624 265.578 121.801C265.018 123.171 263.509 124.843 249.009 113.54C218.811 90.0043 232.337 79.6644 191.001 26.7575C163.922 -7.90561 200.241 49.5241 201.383 51.3275C202.473 53.0495 223.1 85.6625 208.531 75.7663C182.754 58.2601 154.194 30.716 153.606 30.884C141.42 34.4146 198.971 75.7295 226.197 102.505C263.142 138.835 267 133.283 292.731 148.768Z" fill="#D4F7D2"/>
<path fill-rule="evenodd" clip-rule="evenodd" d="M950.199 1248.55C958.384 1319.15 1060.27 1338.62 1072.3 1340.92C1082.37 1342.84 1148.4 1355.46 1179.2 1411.59C1195.79 1441.83 1159.02 1376.25 1075.22 1355.49C908.585 1314.2 955.543 1250.05 927.464 1188.49C913.06 1156.91 840.319 1068.57 849.706 1051.96C856.106 1040.64 858.012 1095.98 916.938 1128.97C996.189 1173.33 956.462 1218.45 981.583 1258.48C1038.35 1348.95 1109.61 1281.72 1174.39 1374.79C1194.27 1403.35 1147.8 1349.5 1098.44 1335.95C1033.39 1318.09 974.002 1322.68 959.977 1217.06C957.701 1199.93 952.351 1171.99 924.382 1144.91C902.553 1123.77 933.914 1168.41 934.893 1170.37C946.897 1194.45 947.477 1217.02 950.199 1248.55Z" fill="#D4F7D2"/>
<path fill-rule="evenodd" clip-rule="evenodd" d="M484.418 423.991C503.542 409.782 591.463 432.656 604.202 453.638C606.486 457.399 611.154 465.085 650.408 483.463C681.845 498.181 728.57 490.107 740.13 485.825C740.582 485.657 764.496 473.995 741.674 479.993C662.593 500.775 622.142 455.546 587.631 433.835C522.481 392.843 513.776 402.686 473.997 402.789C468.275 402.804 471.527 396.943 479.342 396.192C540.573 390.307 586.037 417.339 611.017 433.948C693.025 488.464 707.2 476.066 794.41 448.897C871.438 424.904 937.955 465.4 953.278 516.509C953.59 517.551 970.154 586.373 950.834 529.899C922.308 446.519 822.679 453.312 780.587 476.116C688.441 526.038 644.428 497.52 589.127 456.234C545.447 423.626 513.338 428.579 497.399 425.941C493.929 425.366 494.438 426.863 490.947 427.949L484.418 423.991Z" fill="#D4F7D2"/>
<path fill-rule="evenodd" clip-rule="evenodd" d="M180.696 282.167C196.259 303.346 155.627 367.782 88.0201 367.968C79.5282 367.994 34.6723 364.031 34.247 353.518C33.5199 335.591 101.379 245.575 180.696 282.167Z" fill="#D4F7D2"/>
<path fill-rule="evenodd" clip-rule="evenodd" d="M1137.69 508.337C1133.9 514.168 1125.11 527.66 1055.1 481.064C995.85 441.631 971.377 382.789 990.177 424.306C994.007 432.758 1023.1 467.285 1041.26 478.888C1041.36 478.953 1096.52 508.177 1072.59 512.068C1064.17 513.438 1028.12 503.909 992.319 462.558C955.572 420.114 958.533 417.925 920.36 376.922C918.347 374.762 892.134 346.603 901.623 345.102C902.334 344.989 925.513 355.549 926.196 335.158C927.012 310.769 885.44 307.024 899.116 303.598C911.742 300.432 957.953 330.701 923.636 359.797C918.594 364.073 929.745 384.813 937.268 373.378C952.264 350.572 1082.34 481.757 1098.75 492.448C1114.82 502.919 1115.68 500.623 1137.69 508.337Z" fill="#D4F7D2"/>
<path fill-rule="evenodd" clip-rule="evenodd" d="M1075.36 407.923C1096.14 429.724 1095.62 429.782 1115.25 452.493C1155.99 499.638 1167.74 488.28 1219.86 457.053C1244.49 442.295 1186.93 500.793 1159.09 503.746C1089.41 511.144 1065.65 416.696 946.292 358.915C935.433 353.657 941.696 340.532 951.534 341.453C1034.51 349.239 1064.62 407.858 1073.58 423.238C1080.52 433.916 1087.35 447.172 1084.37 434.743C1081.28 421.825 1079.29 422.883 1072.54 411.278L1075.36 407.923Z" fill="#D4F7D2"/>
<path fill-rule="evenodd" clip-rule="evenodd" d="M406.706 303.745C405.677 302.548 407.932 302.343 406.892 301.13C403.131 296.755 402.23 298.802 402.096 298.379C400.876 294.494 402.619 290.213 402.183 286.165C402.023 284.664 401.472 283.026 400.338 282.031C396.371 278.542 392.967 340.92 401.695 311.504C403.23 306.328 404.992 307.953 406.472 306.357C406.052 308.885 403.062 344.997 389.588 350.152C370.791 357.347 376.035 363.876 350.027 387.018C335.768 399.707 342.126 349.436 336.857 343.506C326.604 331.958 356.327 254.92 377.962 234.033C391.399 221.06 470.627 188.943 484.385 188.127C506.382 186.822 479.392 192.39 461.537 204.95C402.222 246.675 386.777 263.002 359.703 334.72C359.521 335.2 352.397 363.083 363.181 340.099C385.732 292.037 381.97 289.599 417.691 250.127C431.99 234.329 423.314 255.004 422.952 255.484C406.582 277.141 408.252 290.953 406.706 303.745Z" fill="#D4F7D2"/>
<path fill-rule="evenodd" clip-rule="evenodd" d="M645.404 114.839C636.041 143.187 636.818 143.329 635.865 145.733C631.203 157.532 574.543 90.7997 583.73 64.6311C590.161 46.306 585.176 46.1353 580.643 22.8936C577.225 5.36121 623.496 38.9244 628.51 37.7196C647.714 33.1127 656.327 58.6723 672.899 83.4339C690.302 109.442 662.018 134.535 694.476 145.56C700.267 147.529 749.213 164.155 749.501 198.622C733.518 188.962 736.458 178.808 728.756 176.957C716.434 173.996 712.142 154.569 707.543 156.393C706.273 156.897 705.911 158.787 704.64 159.291C700.388 155.708 698.508 151.713 687.04 152.243C680.616 142.412 676.55 146.909 670.668 138.328C665.179 130.316 658.172 107.356 654.056 102.788C651.476 99.9242 650.45 107.579 645.404 114.839Z" fill="#D4F7D2"/>
<path fill-rule="evenodd" clip-rule="evenodd" d="M596.871 300.676C592.119 315.219 584.869 353.468 542.021 343.532C527.576 340.183 537.207 328.415 528.97 327.514C528.39 327.451 481.161 342.395 503.812 312.339C512.052 301.406 518.22 299.721 508.495 290.132C505.166 286.85 499.549 274.361 557.745 258.687C625.016 240.569 543.392 256.361 542.163 256.629C540.696 256.949 516.149 262.301 523.646 253.644C526.127 250.78 527.81 254.295 568.229 237.613C597.797 225.41 646.294 222.212 633.495 234.865C632.421 235.928 554.86 241.378 575.829 246.557C580.349 247.672 643.115 235.18 608.213 252.006C568.025 271.379 572.214 287.74 542.397 293.888C541.822 294.006 510.445 305.913 539.478 300.637C552.248 298.316 553.561 301.634 563.252 293.261C582.52 276.61 662.601 226.208 626.615 262.065C601.968 286.622 613.059 310.176 601.966 304.259C601.438 297.146 601.527 297.18 601.396 296.576C600.365 291.812 599.018 296.23 596.871 300.676Z" fill="#D4F7D2"/>
<path fill-rule="evenodd" clip-rule="evenodd" d="M489.634 236.823C488.928 235.479 481.513 221.346 478.961 221.134C477.087 220.979 476.108 222.924 486.511 243.415C497.572 265.199 484.033 317.038 470.763 326.598C463.353 331.94 460.452 328.711 456.916 337.277C446.983 361.337 447.22 361.343 446.34 363.419C431.774 397.898 426.608 364.871 425.745 358.883C409.239 244.528 448.873 232.463 474.635 212.891C478.402 210.027 505.993 229.237 489.634 236.823Z" fill="#D4F7D2"/>
<path fill-rule="evenodd" clip-rule="evenodd" d="M794.226 233.02C834.095 232.442 844.87 264.533 846.002 267.145C853.893 285.365 890.889 283.183 870.585 314.345C859.206 331.806 900.901 345.685 890.874 361.154C883.277 372.872 865.393 356.885 864.807 356.534C854.037 350.076 846.816 371.205 841.366 374.478C816.728 389.267 825.225 331.268 819.881 322.293C807.842 302.078 810.194 301.254 809.018 277.469C807.947 255.77 793.029 260.314 792.948 238.545C792.502 237.524 792.056 236.503 791.609 235.482L794.226 233.02Z" fill="#D4F7D2"/>
<path fill-rule="evenodd" clip-rule="evenodd" d="M680.064 1088.65C680.101 1086.34 680.49 1062.65 684.152 1060.18C695.484 1052.54 673.344 1127.77 780.654 1178.56C825.812 1199.94 832.414 1241.98 824.807 1269.4C801.83 1352.2 879.698 1354.03 906.177 1373.06C977.511 1424.33 934.272 1519.49 939.252 1469.17C946.366 1397.25 879.449 1378.06 859.394 1367.43C786.167 1328.64 814.772 1277.1 816.189 1267.2C829.511 1174.14 706.01 1197.75 680.064 1088.65Z" fill="#D4F7D2"/>
<path fill-rule="evenodd" clip-rule="evenodd" d="M760.385 292.452C762.485 296.836 752.24 344.178 765.974 306.711C773.009 287.528 778.469 289.675 781.401 269.657C783.039 258.472 798.02 284.858 771.105 324.994C770.439 325.992 756.61 346.614 767.48 339.547C772.281 336.426 790.538 307.556 792.909 292.864C797.959 261.574 778.175 241.296 791.163 252.179C802.196 261.427 813.757 350.462 796.544 355.31C781.367 359.587 807.483 377.615 793.67 386.997C778.757 397.124 774.925 384.086 768.347 390.659C755.739 403.256 740.837 396.52 738.574 382.477C737.647 376.717 739.041 369.107 731.804 363.086C724.202 356.759 734.631 320.684 755.172 296.096C756.909 294.883 758.647 293.668 760.385 292.452Z" fill="#D4F7D2"/>
<path fill-rule="evenodd" clip-rule="evenodd" d="M1022.22 735.224C982.029 727.414 981.252 735.179 978.483 733.032C963.87 721.697 1051.47 685.286 1093.68 768.099C1127.99 835.41 1140.07 848.419 1221.85 866.022C1289.31 880.544 1305.91 961.916 1291.25 938.024C1249.52 870.02 1197.15 883.964 1156.71 862.203C1074.33 817.872 1112.44 768.59 1022.22 735.224Z" fill="#D4F7D2"/>
<path fill-rule="evenodd" clip-rule="evenodd" d="M732.61 1277.56C731.481 1269.8 725.477 1228.56 680.406 1194.61C617.564 1147.27 610.555 1141.67 625.069 1096.08C638.902 1052.63 619.359 1003.33 585.922 979.412C570.374 968.293 524.888 963.683 500.696 938.428C485.812 922.888 521.544 941.783 523.161 942.638C579.257 972.304 591.054 955.881 619.819 997.343C659.572 1054.65 631.833 1110.35 631.3 1112.1C617.524 1157.44 695.44 1166.68 732.788 1238.6C753.276 1278.05 727.843 1336.72 722.514 1342.15C703.538 1361.46 728.698 1332.73 732.61 1277.56Z" fill="#D4F7D2"/>
<path fill-rule="evenodd" clip-rule="evenodd" d="M504.237 1109.35C507.726 1093.1 508.214 1093.52 513.617 1078.11C516.008 1071.29 500.878 1060.45 496.927 1038.75C485.742 977.28 475.158 981.788 450.323 959.835C449.845 959.412 447.624 951.595 457.964 957.638C503.098 984.021 506.771 1036.99 510.871 1049.05C516.344 1065.14 527.406 1061.27 524.311 1054.21C522.941 1051.08 513.233 1028.92 515.853 1012.37C519.402 989.962 527.154 1042.63 528.928 1043.99C535.856 1049.32 538.803 1010.76 542.597 1027.91C547.35 1049.4 533.937 1070.16 535.42 1071.72C539.835 1076.34 548.923 1055.63 550.159 1054.77C552.404 1053.2 562.337 1059.08 537.817 1086.71C470.21 1162.89 614.228 1238.66 631.285 1280.17C637.013 1294.1 630.447 1298.05 628.463 1293.54C595.044 1217.58 498.234 1210.08 504.237 1109.35Z" fill="#D4F7D2"/>
<path fill-rule="evenodd" clip-rule="evenodd" d="M721.892 1290.8C712.387 1342.04 702.913 1340.63 700.475 1337.33C689.03 1321.87 764.743 1282.07 646.565 1194.31C589.138 1151.66 582.476 1142.28 607.164 1096.06C622.339 1067.66 603.938 990.335 544.799 983.158C523.453 980.57 505.141 958.433 475.796 939.953C474.924 939.407 460.802 930.514 468.663 929.264C474.551 928.327 528.957 971.548 547.526 975.034C550.466 975.585 570.03 973.928 593.6 997.637C647.169 1051.52 608.434 1107.18 608.237 1127.88C607.699 1184.03 725.924 1194.17 721.892 1290.8Z" fill="#D4F7D2"/>
<path fill-rule="evenodd" clip-rule="evenodd" d="M778.561 208.499C767.36 181.528 769.974 178.611 745.157 163.195C724.289 150.23 737.739 111.603 752.366 107.983C765.811 104.657 760.18 91.3693 770.221 85.3239C794.009 70.9967 794.366 108.046 802.049 108.558C819.476 109.715 803.8 147.455 803.251 149.146C793.602 178.924 794.224 223.79 784.937 208.334C786.042 202.079 797.329 138.194 785.304 128.909C778.017 123.281 791.919 210.124 772.702 170.025C772.087 168.746 753.03 128.98 761.152 156.577C768.268 180.753 783.572 186.494 778.561 208.499Z" fill="#D4F7D2"/>
<path fill-rule="evenodd" clip-rule="evenodd" d="M603.777 1075.51C595.33 1121.5 558.423 1135.55 616.351 1182.12C664.412 1220.76 725.475 1247.82 691.639 1324.67C674.135 1364.43 689.142 1312.72 689.436 1311.71C719.637 1207.65 512.173 1190.8 588.723 1093.23C608.5 1068.02 576.727 1004.35 549.823 1000.11C526.392 996.419 524.211 998.889 473.924 957.207C473.073 956.503 453.305 940.118 468.577 944.476C492.622 951.34 489.955 979.761 552.427 992.219C556.139 992.96 572.361 999.147 588.524 1020.9C604.463 1042.35 603.872 1070.97 603.777 1075.51Z" fill="#D4F7D2"/>
<path fill-rule="evenodd" clip-rule="evenodd" d="M713.93 1075.12C751.641 1189.65 833.56 1139.27 845.052 1230.14C850.252 1271.27 812.84 1308.35 883.975 1341.9C913.667 1355.91 915.528 1353.89 919.717 1361.69C930.16 1381.13 819.595 1341.27 829.525 1288.23C837.151 1247.51 853.722 1207.58 778.471 1169.71C671.954 1116.12 706.822 1022.01 710.397 1049.04C711.45 1056.99 710.956 1056.67 712.083 1064.98C712.791 1070.23 713.224 1069.92 713.93 1075.12Z" fill="#D4F7D2"/>
<path fill-rule="evenodd" clip-rule="evenodd" d="M1082.78 1307.44C1077.35 1306.57 1038.44 1300.32 1018.18 1284.18C952.96 1232.24 1015.2 1178.34 923.421 1124.08C878.513 1097.54 870.11 1055.43 875.649 1055.81C888.884 1056.72 867.829 1084.12 935.457 1120.78C1005.47 1158.73 973.147 1216.62 1015.16 1261.23C1050.26 1298.49 1090.96 1295.3 1093.42 1295.58C1161.51 1303.19 1182.03 1355.09 1177.48 1355.17C1163.05 1355.43 1174.04 1323.78 1082.78 1307.44Z" fill="#D4F7D2"/>
<path fill-rule="evenodd" clip-rule="evenodd" d="M916.383 1240.87C897.476 1103.45 807.645 1112.41 784.553 1035.74C784.383 1035.16 781.201 1002.98 789.751 1030.37C797.65 1055.67 826.761 1085.07 830.874 1085.93C842.18 1088.28 830.528 1055.41 829.462 1048.9C829.123 1046.82 822.104 1003.89 831.147 1022.63C844.469 1050.23 825.981 1061.78 882.65 1133.75C931.301 1195.54 925.311 1203.01 929.018 1248.55C934.136 1311.46 980.581 1328.42 992.923 1338.56C995.168 1340.4 993.873 1345.02 988.647 1342.37C926.463 1310.87 920.93 1281.81 916.383 1240.87Z" fill="#D4F7D2"/>
<path fill-rule="evenodd" clip-rule="evenodd" d="M749.706 225.887L754.83 224.341C758.928 225.551 759.224 225.675 759.419 229.856C759.046 230.087 754.751 232.736 754.751 232.736C748.344 235.085 689.176 256.778 691.922 290.457C693.413 308.772 698.471 268.263 715.437 267.515C748.543 266.06 748.21 248.864 754.757 251.174C756.09 251.647 756.586 253.537 757.922 254.006C748.401 267.488 749.252 267.596 741.033 282.296C735.917 291.447 720.65 298.734 719.466 300.64C710.255 315.487 747.934 282.603 740.938 298.18C730.305 321.857 713.163 318.482 699.66 318.135C698.206 319.198 687.656 331.066 675.783 328.052C668.909 326.307 660.792 313.854 659.238 303.832C653.67 267.932 675.909 274.127 681.267 274.361C702.734 275.3 684.378 240.146 749.706 225.887Z" fill="#D4F7D2"/>
<path fill-rule="evenodd" clip-rule="evenodd" d="M910.414 221.551C908.847 222.436 908.393 224.698 906.829 225.583C906.519 225.759 892.21 213.096 889.874 217.658C889.049 219.262 889.141 220.364 907.59 231.581C909.254 232.592 910.152 231.896 915.247 227.205C923.445 239.228 921.765 241.892 935.974 245.58C960.158 251.854 949.731 287.782 925.306 272.208C925.434 267.58 925.148 267.814 925.434 267.58C925.629 267.423 950.863 275.419 935.787 256.521C934.218 256.555 932.651 256.587 931.081 256.618C928.395 265.31 916.234 255.227 918.087 264.121C918.856 267.822 918.462 267.599 918.888 271.539C918.179 273.011 910.278 289.439 902.686 283.963C894.242 277.876 895.187 259.325 875.51 259.695C855.189 260.073 853.331 260.74 840.886 243.407C837.754 239.047 798.306 222.042 822.973 227.751C827.824 228.875 854.273 243.682 861.605 234.925C861.991 234.555 866.403 230.271 866.403 230.271C866.419 229.964 866.403 230.271 862.66 229.36C830.79 230.234 831.971 221.572 834.095 220.469C856.52 208.812 877.77 227.759 880.607 230.29C887.411 236.356 907.17 268.216 903.369 253.72C900.539 242.929 885.12 226.714 880.287 219.821C871.887 207.838 831.336 214.534 852.604 202.428C874.785 189.802 906.776 218.309 910.414 221.551Z" fill="#D4F7D2"/>
<path fill-rule="evenodd" clip-rule="evenodd" d="M850.399 1280.35C856.177 1244.77 866.913 1192.37 799.133 1157.24C790.21 1152.62 711.893 1112.03 726.664 1054.63C735.545 1020.11 727.706 1067.48 745.459 1098.3C776.988 1153.04 868.527 1145.8 864.582 1243.36C862.503 1294.78 852.354 1308.14 914.543 1338.58C925.692 1344.03 923.878 1352.4 917.221 1349.45C884.7 1335.03 846.556 1318.34 850.399 1280.35Z" fill="#D4F7D2"/>
<path fill-rule="evenodd" clip-rule="evenodd" d="M139.008 427.705C141.202 424.211 159.651 394.856 163.153 382.125C169.547 358.873 166.494 356.967 174.876 351.323C193.464 338.81 161.305 406.422 155.8 416.258C124.027 473.023 161.567 494.362 154.01 506.109C151.466 510.059 142.483 508.813 136.063 450.175C135.351 443.681 129.309 454.656 128.973 455.268C81.1608 542.111 0.735999 527.4 0.000998998 516.068C-0.146001 513.79 15.9767 507.138 17.4467 506.531C93.8657 475.003 102.408 483.586 139.008 427.705Z" fill="#D4F7D2"/>
<path fill-rule="evenodd" clip-rule="evenodd" d="M312.119 234.311C319.926 244.669 315.589 330.596 268.961 366.396C240.196 388.483 280.343 221.645 312.119 234.311Z" fill="#D4F7D2"/>
<path fill-rule="evenodd" clip-rule="evenodd" d="M1158.52 971.351C1221.12 1001.13 1213.5 1011.07 1253.4 1067.59C1280.08 1105.38 1329.92 1138.5 1290.55 1113.99C1231.04 1076.94 1224.18 1021.78 1171.45 992.666C1116.55 962.363 1099.1 968.361 1045.89 889.157C1045.19 888.122 1020.05 850.706 1043.04 873.842C1087.19 918.276 1086.91 937.194 1158.52 971.351Z" fill="#D4F7D2"/>
<path fill-rule="evenodd" clip-rule="evenodd" d="M1164.27 962.473C1127.24 945.035 1123.55 941.137 1122.81 940.646C1084.3 914.984 1057.55 873.645 1057.39 873.115C1051.63 853.795 1063.85 874.291 1078.55 888.007C1134.18 939.887 1179.23 952.884 1179.52 953.015C1252.97 986.019 1248.84 1036.95 1287.46 1088.58C1309.03 1117.43 1279.65 1087.43 1279.22 1086.91C1226.32 1024.64 1243.4 1006.4 1164.27 962.473Z" fill="#D4F7D2"/>
<path fill-rule="evenodd" clip-rule="evenodd" d="M289.649 238.17C278.081 258.078 274.159 267.465 273.048 270.121C271.326 269.363 270.591 267.087 268.869 266.328C267.042 265.522 264.467 272.379 263.751 277.193C224.475 335.479 193.626 348.693 190.516 347.624C184.289 345.488 186.555 323.892 186.772 321.815C197.204 267.31 201.992 261.792 256.054 253.642C273.059 251.08 195.732 316.353 198.372 335.082C199.291 341.592 205.746 323.068 241.456 286.354C278.251 248.531 272.581 239.866 289.649 238.17Z" fill="#D4F7D2"/>
<path fill-rule="evenodd" clip-rule="evenodd" d="M672.326 1293.41C663.688 1261.14 662.596 1260.41 609.599 1212.72C571.566 1178.5 552.737 1165.68 550.261 1138.36C548.34 1117.15 567.316 1093.43 569.915 1090.18C590.844 1064.03 555.013 1020.97 555.385 1017.66C557.357 1000.16 601.633 1060.07 581.045 1090.84C526.169 1172.87 603.654 1178.68 664.578 1246.76C702.307 1288.93 662.375 1351.2 668.413 1324.75C671.964 1309.2 672.169 1309.37 672.326 1293.41Z" fill="#D4F7D2"/>
<path fill-rule="evenodd" clip-rule="evenodd" d="M687.039 152.243C698.508 151.713 700.387 155.708 704.64 159.291C705.823 163.092 707.748 169.287 730.745 201.648C737.988 209.003 737.4 209.271 746.304 214.747L749.95 216.81C749.286 217.645 751.086 219.141 750.422 219.976C750.422 219.976 745.616 221.008 745.196 221.097C724.054 211.201 711.945 180.863 660.235 170.665C656.072 169.844 656.883 175.343 660.792 176.616C664.853 177.942 700.513 189.578 709.202 199.136C733.381 225.74 674.384 214.896 653.565 184.701C634.557 157.131 643.776 118.814 656.279 134.574C673.431 156.199 676.027 155.214 687.039 152.243Z" fill="#D4F7D2"/>
<path fill-rule="evenodd" clip-rule="evenodd" d="M823.091 777.576C827.138 777.09 832.567 780.681 831.737 770.9C831.688 770.318 831.338 763.052 839.038 770.551C906.799 836.549 978.585 802.589 1021.33 840.368C1037.66 854.803 1041.01 867.86 1032.83 860.689C980.73 815.042 962.502 845.408 904.749 822.361C850.33 800.644 852.475 782.296 836.3 787.076C768.16 807.22 763.107 680.367 775.016 718.731C779.978 734.712 782.185 769.863 823.091 777.576Z" fill="#D4F7D2"/>
<path fill-rule="evenodd" clip-rule="evenodd" d="M815.929 206.99C827.844 185.909 830.96 187.594 830.863 185.502C830.07 168.702 850.55 170.573 858.995 158.824C867.453 147.059 853.979 157.299 833.281 166.494C826.269 169.61 828.49 160.407 827.789 159.601C821.366 152.222 818.827 183.759 816.528 190.271C807.968 214.503 813.401 173.088 812.136 173.17C806.185 173.553 804.568 205.851 803.888 208.914C803.783 209.395 793.811 228.785 797.764 209.14C805.201 172.201 802.896 134.593 846.65 133.947C882.725 133.417 878.478 154.745 878.982 159.199C880.134 169.337 775.011 261.514 815.929 206.99Z" fill="#D4F7D2"/>
<path fill-rule="evenodd" clip-rule="evenodd" d="M737.542 515.057C739.639 512.669 738.353 511.755 741.372 510.7C748.016 508.372 767.829 498.743 776.095 496.415C893.706 463.298 903.954 586.129 900.796 588.791C897.675 591.424 891.595 573.781 890.517 571.844C840.061 481.237 747.924 517.15 737.542 515.057Z" fill="#D4F7D2"/>
<path fill-rule="evenodd" clip-rule="evenodd" d="M927.203 94.9892C986.339 82.124 989.799 83.2502 989.623 88.2692C987.41 151.211 896.856 212.631 895.824 196.377C895.598 192.854 939.037 161.743 935.669 151.469C931.85 139.819 964.022 139.785 963.583 130.358C963.31 124.439 927.702 148.768 938.84 130.516C940.307 128.111 968.103 115.16 961.95 109.592C961.105 108.826 960.911 109.516 943.938 120.433C936.845 124.996 938.483 119.189 937.874 114.635C934.249 103.72 933.957 104.148 927.203 94.9892Z" fill="#D4F7D2"/>
<path fill-rule="evenodd" clip-rule="evenodd" d="M1108.96 1289.15C1079.89 1286.15 1080.07 1286.19 1077.56 1285.91C1017.07 1279.16 995.763 1189.66 995.855 1188.2C996.852 1172.25 1007.26 1194.64 1007.73 1195.66C1042.15 1269.73 1061.98 1273.61 1109.2 1276.72C1190.08 1282.05 1205.79 1372.73 1190.94 1350.65C1174.74 1326.56 1179.25 1306.05 1108.96 1289.15Z" fill="#D4F7D2"/>
<path fill-rule="evenodd" clip-rule="evenodd" d="M1143.72 911.813C1215.91 950.889 1252.44 947.752 1287.07 1057.04C1303.99 1110.43 1281.24 1042.04 1247.4 997.249C1194.98 927.854 1143.25 950.059 1082.6 876.116C1074.91 866.739 1080.57 864.66 1082.5 865.983C1083.27 866.508 1090.79 877.302 1094.05 879.885C1117.26 898.292 1117.9 896.956 1143.72 911.813Z" fill="#D4F7D2"/>
<path fill-rule="evenodd" clip-rule="evenodd" d="M261.306 1331.19C285.43 1329.03 309.087 1331.39 328.422 1300.45C345.23 1273.55 341.217 1271.82 336.434 1240.58C332.614 1215.63 377.935 1289.81 313.239 1326.43C265.128 1353.67 257.553 1336.67 227.032 1345.32C165.192 1362.84 198.991 1413.5 202.569 1422.24C210.612 1441.91 198.978 1459.19 198.582 1448.04C197.246 1410.43 171.991 1401.95 181.249 1369.01C192.691 1328.31 261.131 1331.2 261.306 1331.19Z" fill="#D4F7D2"/>
<path fill-rule="evenodd" clip-rule="evenodd" d="M132.233 422.72C131.721 428.333 131.057 429.002 116.076 433.593C54.6901 450.11 52.388 444.064 49.0044 448.393C44.6731 453.932 53.375 451.052 62.7568 452.246C50.9312 463.915 50.5191 463.159 49.7368 464.348C44.3031 472.585 55.8215 467.435 69.8889 454.134C73.3985 452.869 110.834 439.405 114.286 439.846C115.805 440.04 116.031 442.888 117.554 443.083C111.847 448.913 98.5696 466.763 72.4719 474.908C51.2488 481.531 5.87563 475.572 15.0264 464.117C48.5371 422.169 110.114 428.616 132.233 422.72Z" fill="#D4F7D2"/>
<path fill-rule="evenodd" clip-rule="evenodd" d="M81.3158 608.219C89.7631 604.394 88.9886 603.67 94.3568 596.272C129.624 547.686 138.257 491.159 135.582 524.064C129.28 601.538 55.5907 634.477 64.9226 616.175C89.427 568.119 88.566 567.841 108.744 503.035C113.485 487.813 126.844 482.762 126.736 495.268C126.392 534.742 82.6782 605.436 81.3158 608.219Z" fill="#D4F7D2"/>
<path fill-rule="evenodd" clip-rule="evenodd" d="M446.151 1290.79C428.322 1365.86 325.643 1354.05 322.779 1432.41C322.136 1450.02 334.904 1465.98 326.714 1464.67C317.248 1463.16 294.285 1398.68 364.201 1354.51C378.828 1345.26 431.74 1322.23 434.985 1274.89C435.993 1260.2 425.185 1245.22 436.373 1254.96C447.02 1264.23 446.248 1287.83 446.151 1290.79Z" fill="#D4F7D2"/>
<path fill-rule="evenodd" clip-rule="evenodd" d="M286.152 1427.35C318.733 1308.81 420.353 1346.5 414.499 1253.8C412.832 1227.42 424.056 1253.51 424.122 1253.84C437.782 1321.61 354.882 1343.01 325.159 1372.9C259.177 1439.25 319.106 1506.29 298.697 1486.51C283.603 1471.89 285.874 1432.18 286.152 1427.35Z" fill="#D4F7D2"/>
<path fill-rule="evenodd" clip-rule="evenodd" d="M186.153 199.015C172.209 195.965 149.689 176.732 148.553 156.637C147.909 145.279 181.583 156.338 192.506 162.764C215.057 176.036 212.232 180.344 253.747 200.464C263.102 205 261.191 211.334 250.815 212.24C204.864 216.251 178.079 178.74 176.291 179.614C174.729 180.38 175.603 181.087 186.153 199.015Z" fill="#D4F7D2"/>
<path fill-rule="evenodd" clip-rule="evenodd" d="M922.951 95.669C932.469 118.903 935.391 119.596 927.13 143.205C919.024 166.373 892.774 194.618 875.229 195.052C859.368 195.443 858.024 195.283 858.303 193.697C861.261 176.842 867.852 181.73 893.294 166.095C920.717 149.24 915.525 119.291 910.391 130.849C906.385 139.864 908.031 140.543 901.599 147.917L899.646 145.636C909.574 107.405 891.372 150.098 890.987 150.235C885.6 152.122 880.699 135.083 887.086 125.891C899.948 107.377 906.214 95.3567 922.951 95.669Z" fill="#D4F7D2"/>
<path fill-rule="evenodd" clip-rule="evenodd" d="M1195.88 618.716C1206.73 617.422 1226.36 588.649 1269.36 594.427C1297.72 598.236 1308 634.379 1292.2 616.923C1251.49 571.938 1221.42 643.32 1164.14 649.037C1088.75 656.563 1058.36 599.664 1082.38 616.834C1144.61 661.32 1187.15 629.093 1195.88 618.716Z" fill="#D4F7D2"/>
<path fill-rule="evenodd" clip-rule="evenodd" d="M1200.7 910.892C1216.14 917.441 1262.06 930.154 1293.61 1020.25C1305.21 1053.37 1281.83 1006.69 1281.13 1005.3C1237.97 919.145 1142.05 916.703 1111.25 873.457C1100.08 857.77 1116.38 870.787 1116.74 871.105C1144.7 895.995 1196.16 909.353 1200.7 910.892Z" fill="#D4F7D2"/>
<path fill-rule="evenodd" clip-rule="evenodd" d="M565.788 1061.95L567.799 1062.6C567.907 1080.45 566.812 1080.38 556.459 1094.62C496.045 1177.74 655.495 1241.21 651.516 1274.77C651.361 1276.09 647.867 1282.11 636.855 1266.85C595.501 1209.55 475.058 1156.83 554.538 1079.9C560.791 1073.85 563.914 1060.93 564.156 1060.62C564.581 1060.06 565.361 1062.51 565.788 1061.95Z" fill="#D4F7D2"/>
<path fill-rule="evenodd" clip-rule="evenodd" d="M141.756 1377.23C145.124 1405.78 172.739 1451.04 156.537 1439.92C148.699 1434.55 136.343 1394.56 135.07 1390.44C132.939 1383.54 124 1316.49 198.288 1303.92C252.898 1294.68 253.967 1289.47 269.877 1259.57C277.954 1244.39 291.352 1289.57 235.156 1306.79C212.686 1313.68 149.468 1309.92 141.756 1377.23Z" fill="#D4F7D2"/>
<path fill-rule="evenodd" clip-rule="evenodd" d="M1298.09 994.096C1243.9 879.98 1170.64 909.225 1123.15 856.746C1111.8 844.206 1126.66 849.674 1127.11 850.102C1159.46 881.006 1179.19 872.722 1221.71 892.275C1289.45 923.429 1300.3 993.374 1300.28 993.571L1298.09 994.096Z" fill="#D4F7D2"/>
<path fill-rule="evenodd" clip-rule="evenodd" d="M846.469 433.346C845.083 433.008 827.884 428.826 834.609 420.001C849.934 399.899 967.925 440.342 977.399 524.145C982.515 569.405 975.134 507.322 942.912 475.113C912.924 445.141 854.748 434.814 846.469 433.346Z" fill="#D4F7D2"/>
<path fill-rule="evenodd" clip-rule="evenodd" d="M805.585 668.326C817.017 716.647 835.255 749.496 818.284 725.706C765.351 651.507 812.706 619.254 751.99 555.753C733.219 536.12 758.967 543.704 764.782 548.744C800.39 579.609 795.499 604.47 805.585 668.326Z" fill="#D4F7D2"/>
<path fill-rule="evenodd" clip-rule="evenodd" d="M354.499 1460.73C352.607 1460.85 346.194 1461.27 342.503 1440.28C330.014 1369.21 435.649 1362.01 455.538 1293.27C466.188 1256.46 464.603 1300.24 463.954 1303.85C450.984 1375.97 331.856 1363.05 354.499 1460.73Z" fill="#D4F7D2"/>
<path fill-rule="evenodd" clip-rule="evenodd" d="M127.39 1416.61C99.9084 1384.2 106.526 1306.26 187.581 1287.29C220.131 1279.68 239.251 1281.24 247.544 1245.85C253.169 1221.83 272.09 1265.02 237.151 1284.57C211.027 1299.19 113.653 1295.65 121.848 1385.15C123.195 1399.86 130.293 1413.54 130.106 1414.01C129.65 1415.18 127.846 1415.44 127.39 1416.61Z" fill="#D4F7D2"/>
<path fill-rule="evenodd" clip-rule="evenodd" d="M996.026 795.557C1012.48 800.828 1029.7 802.999 1051.35 841.773C1051.63 842.269 1064.03 868.485 1047.98 848.039C999.504 786.267 952.9 838.229 867.866 781.101C860.883 776.41 866.083 773.633 867.548 774.281C875.111 777.618 913.068 801.904 954.223 799.321C975.483 797.988 975.005 793.174 996.026 795.557Z" fill="#D4F7D2"/>
<path fill-rule="evenodd" clip-rule="evenodd" d="M271.557 1308.05C272.337 1307.94 281.333 1306.68 281.354 1309.2C281.535 1332.28 219.404 1316.74 191.321 1339.09C155.054 1367.97 172.812 1400.27 177.225 1411.4C190.447 1444.75 177.761 1458.9 176.474 1448.48C174.062 1428.95 171.411 1429.98 165.092 1411.04C133.584 1316.56 230.163 1314.3 271.557 1308.05Z" fill="#D4F7D2"/>
<path fill-rule="evenodd" clip-rule="evenodd" d="M715.264 409.803C725.268 410.787 730.927 409.099 727.478 418.833C723.688 429.524 787.625 426.07 762.317 431.509C714.282 441.836 672.854 416.712 666.15 412.648C662.339 410.338 628.744 384.865 626.833 379.597C625.961 377.198 629.925 355.329 658.391 384.272C675.43 401.597 710.379 408.797 715.264 409.803Z" fill="#D4F7D2"/>
<path fill-rule="evenodd" clip-rule="evenodd" d="M1048.99 814.507C1013.09 779.411 999.034 783.611 959.527 789.404C933.647 793.2 885.484 776.5 873.333 770.189C834.391 749.966 901.586 774.743 904.552 774.449C945.515 770.386 946.237 779.398 986.019 769.323C1018.36 761.133 1055.35 801.209 1048.99 814.507Z" fill="#D4F7D2"/>
<path fill-rule="evenodd" clip-rule="evenodd" d="M841.505 712.715C789.365 659.194 827.286 600.861 773.993 549.763C765.262 541.391 764.829 532.025 770.533 534.535C831.226 561.231 812.804 645.124 838.127 697.621C844.369 710.562 844.372 710.525 844.346 710.578C843.847 711.652 842.004 711.641 841.505 712.715Z" fill="#D4F7D2"/>
<path fill-rule="evenodd" clip-rule="evenodd" d="M933.432 761.017C953.093 758.529 952.82 757.589 970.387 748.003C987.594 738.616 1020.5 735.914 1047.69 758.917C1063.32 772.147 1077.49 804.364 1077.67 807.629C1078.39 820.5 1067.24 796.491 1055.67 784.939C1012.2 741.558 987.25 773.066 928.726 764.97C932.595 761.524 932.474 761.464 933.432 761.017Z" fill="#D4F7D2"/>
<path fill-rule="evenodd" clip-rule="evenodd" d="M341.191 936.758C341.272 937.604 345.023 976.281 333.967 944.571C326.097 922.001 329.859 956.955 329.533 957.278C322.679 964.069 313.164 930.214 313.334 946.613C313.342 947.256 316.282 960.575 315.434 961.827C307.887 972.96 275.655 913.698 345.238 913.724C387.931 913.74 380.048 943.379 380.059 944.292C380.293 962.127 370.444 928.66 367.091 931.771C366.729 932.107 368.501 962.675 360.288 941.919C350.457 917.071 355.744 947.219 354.93 948.815C350.239 958.024 350.36 936.275 341.191 936.758Z" fill="#D4F7D2"/>
<path fill-rule="evenodd" clip-rule="evenodd" d="M284.37 223.99C268.076 229.544 255.298 240.01 216.994 226.381C200.018 220.343 181.354 207.72 195.115 219.629C233.77 253.093 265.937 237.768 279.288 231.62C283.868 229.51 283.246 232.214 285.27 233.069C279.745 236.201 274.432 239.7 268.906 242.832C219.8 270.673 190.096 220.635 172.855 205.762C155.75 191.004 205.586 212.579 216.826 216.411C254.692 229.318 281.955 207.029 294.962 212.482C302.658 215.708 285.509 223.472 284.37 223.99Z" fill="#D4F7D2"/>
<path fill-rule="evenodd" clip-rule="evenodd" d="M1058.94 1398.99C1029.66 1388.11 1025.53 1386.02 1022.75 1384.62C1009.71 1378.04 1015.99 1370.6 1022.27 1372.79C1047.23 1381.5 1139.94 1401.81 1161.92 1466.46C1164.36 1473.63 1158.95 1471.84 1156.8 1468.74C1127.06 1425.96 1103.93 1419.29 1058.94 1398.99Z" fill="#D4F7D2"/>
<path fill-rule="evenodd" clip-rule="evenodd" d="M689.247 893.33C694.825 892.753 694.497 892.532 699.695 893.283C699.75 896.116 697.264 896.927 701.54 900.187C740.91 930.204 729.583 972.109 833.522 972.611C856.129 972.721 864.555 1010.28 860.523 1015.73C854.118 1024.38 855.633 1013.74 850.929 999.614C840.148 967.214 803.421 999.966 747.477 961.664C718.784 939.501 692.457 899.405 689.247 893.33Z" fill="#D4F7D2"/>
<path fill-rule="evenodd" clip-rule="evenodd" d="M728.373 441.227C758.781 442.715 779.773 439.431 763.737 446.364C760.933 447.574 703.393 456.562 663.477 433.801C660.178 431.918 600.467 393.2 600.212 392.743C598.81 390.239 602.105 369.716 635.883 396.641C675.747 428.417 679.036 433.415 728.373 441.227Z" fill="#D4F7D2"/>
<path fill-rule="evenodd" clip-rule="evenodd" d="M297.768 520.811C297.595 510.298 264.782 499.775 280.503 469.632C287.667 455.893 334.56 529.952 297.949 531.343C234.14 533.766 267.84 449.38 267.299 476.599C267.213 480.893 266.593 511.965 297.768 520.811Z" fill="#D4F7D2"/>
<path fill-rule="evenodd" clip-rule="evenodd" d="M1077.36 1432.98C1033.97 1415.52 993.044 1399.26 989.227 1390.11C984.791 1379.48 1004.97 1388.39 1006.22 1388.94C1080.46 1421.75 1081.15 1420.04 1087.48 1423.14C1147.15 1452.36 1148.76 1504.94 1138.2 1484.72C1119.85 1449.63 1112.49 1449.29 1077.36 1432.98Z" fill="#D4F7D2"/>
<path fill-rule="evenodd" clip-rule="evenodd" d="M1072.1 1365.02C1081.35 1368.04 1151.42 1390.88 1169.58 1437.62C1182.95 1472.04 1162.41 1427.91 1131.86 1407.39C1084 1375.25 995.261 1359.3 1020.31 1352.1C1020.85 1351.94 1067.96 1363.97 1072.1 1365.02Z" fill="#D4F7D2"/>
<path fill-rule="evenodd" clip-rule="evenodd" d="M1197.19 608.216C1197.18 606.919 1197.07 583.04 1191.5 593.065C1189.52 596.632 1175.72 637.682 1122.4 628.371C1089.48 622.622 1062.53 587.347 1091.32 604.399C1126.06 624.982 1181.59 626.392 1190.19 571.311C1190.28 570.71 1195.19 543.867 1197.39 568.857C1198.31 579.247 1204.18 576.979 1205.29 587.24C1206.74 600.554 1203.46 612.083 1201.58 611.232C1199.96 610.502 1198.81 608.946 1197.19 608.216Z" fill="#D4F7D2"/>
<path fill-rule="evenodd" clip-rule="evenodd" d="M177.593 285.882C178.603 287.669 180.654 286.444 180.428 290.906C180.373 291.985 179.688 291.636 179.627 292.822C174.304 293.521 174.606 293.471 169.214 294.605C152.915 301.553 148.193 297.072 142.245 313.644C130.695 345.832 87.2823 355.106 104.715 344.047C120.738 333.885 120.607 333.862 133.238 319.634C137.228 315.137 132.787 314.612 132.33 313.481C123.082 318.329 104.227 319.637 75.4094 338.699C74.0444 339.602 54.076 352.811 56.134 345.485C57.31 341.293 114.254 305.118 143.518 296.657C171.621 288.533 129.057 288.491 98.6091 298.912C85.4579 303.412 96.0996 294.332 96.4724 294.145C124.518 280.002 146.728 291.111 177.593 285.882Z" fill="black"/>
<path fill-rule="evenodd" clip-rule="evenodd" d="M722.388 461.24C712.292 467.227 674.282 464.434 639.039 443.127C633.936 440.043 576.176 405.122 575.952 403.437C572.217 375.145 651.198 437.728 665.832 444.734C703.777 462.901 711.185 451.766 722.388 461.24Z" fill="#D4F7D2"/>
<path fill-rule="evenodd" clip-rule="evenodd" d="M1135.37 608.904C1071.4 599.895 1084.43 572.687 1050.73 559.433C1030.38 551.429 984.092 562.134 1009.67 553.456C1057.13 537.352 1100.93 583.079 1112.3 588.736C1140.94 602.998 1152.26 594.322 1156.07 596.039C1157.85 596.839 1162.8 606.316 1135.37 608.904Z" fill="#D4F7D2"/>
<path fill-rule="evenodd" clip-rule="evenodd" d="M846.76 809.115C848.291 809.231 870.986 810.953 864.164 817.142C861.15 819.878 762.482 831.165 749.115 728.887C747.75 718.45 754.19 723.215 754.471 723.837C771.743 762.301 767.212 795.001 846.76 809.115Z" fill="#D4F7D2"/>
<path fill-rule="evenodd" clip-rule="evenodd" d="M202.323 1393.1C202.339 1392.67 199.021 1370.32 227.725 1354.79C247.218 1344.25 306.612 1352.3 306.391 1356.32C305.633 1370.16 226.134 1341.76 216.002 1384.98C210.636 1407.87 218.105 1406.92 229.326 1432.42C231.266 1436.83 210.72 1431.26 202.323 1393.1Z" fill="#D4F7D2"/>
<path fill-rule="evenodd" clip-rule="evenodd" d="M727.981 558.005C736.119 540.835 741.146 553.13 754.045 566.707C791.53 606.158 780.542 685.278 773.911 665.459C769.233 651.479 768.829 591.24 727.981 558.005Z" fill="#D4F7D2"/>
<path fill-rule="evenodd" clip-rule="evenodd" d="M497.263 576.635C481.765 594.217 423.519 615.115 433.039 563.749C435.226 551.954 450.997 564.982 484.576 573.038C493.645 575.215 493.722 574.74 497.263 576.635Z" fill="#D4F7D2"/>
<path fill-rule="evenodd" clip-rule="evenodd" d="M1088.34 1263.16C1088.29 1263.15 1072.62 1261.53 1055.11 1247.38C1028.55 1225.9 1009.24 1167.74 1009.77 1164.75C1011.69 1153.92 1024.74 1185.32 1028.95 1192.83C1057.72 1244.1 1102.58 1259.52 1102.75 1259.76C1106.24 1264.94 1089.52 1263.28 1088.34 1263.16Z" fill="#D4F7D2"/>
<path fill-rule="evenodd" clip-rule="evenodd" d="M167.83 495.044C181.567 547.046 204.299 537.992 206.21 547.733C209.077 562.342 134.635 524.326 164.896 437.783C167.885 429.225 174.002 420.838 192.387 374.053C231.059 275.65 190.4 396.116 189.71 397.906C173.637 439.607 161.218 445.175 167.83 495.044Z" fill="#D4F7D2"/>
<path fill-rule="evenodd" clip-rule="evenodd" d="M707.281 223.604C704.625 233.258 701.866 230.964 691.676 231.88C677.684 233.135 659.002 220.771 671.169 232.366C676.847 237.776 689.171 238.516 694.371 237.264C696.088 236.852 697.716 235.45 699.451 235.765C701.126 236.07 701.792 238.611 703.464 238.913C690.476 250.478 690.536 253.592 673.408 250.975C652.844 247.83 628.18 215.821 668.14 215.975C685.334 216.041 684.431 223.407 707.281 223.604Z" fill="#D4F7D2"/>
<path fill-rule="evenodd" clip-rule="evenodd" d="M513.561 794.302C550.243 850.485 553.191 848.034 575.348 868.653C589.636 881.954 544.751 871.721 502.145 792.194C474.608 740.797 479.481 725.554 483.765 734.62C491.626 751.25 488.421 752.691 513.561 794.302Z" fill="black"/>
<path fill-rule="evenodd" clip-rule="evenodd" d="M461.967 1072.45C473.422 1113.22 472.776 1119.54 489.29 1123.9C501.901 1127.23 482.822 1147.79 471.81 1127.57C450.191 1087.87 432.546 1005.4 447.886 1019.97C451.039 1022.96 451.616 1023.51 461.967 1072.45Z" fill="#D4F7D2"/>
<path fill-rule="evenodd" clip-rule="evenodd" d="M843.177 866.322C843.225 869.049 843.915 869.921 841.209 870.17C785.136 875.354 739.781 807.385 715.345 805.438C712.353 805.199 680.168 802.637 680.451 791.643C680.53 788.606 682.257 792.383 718.109 796.515C758.91 801.219 739.563 844.71 843.177 866.322Z" fill="black"/>
<path fill-rule="evenodd" clip-rule="evenodd" d="M899.575 534.351C879.276 505.584 877.58 506.92 847.272 489.251C837.081 483.308 858.488 474.47 880.63 490.207C922.932 520.268 918.924 586.45 912.13 563.599C906.954 546.182 900.431 536.092 899.575 534.351Z" fill="#D4F7D2"/>
<path fill-rule="evenodd" clip-rule="evenodd" d="M668.116 616.107C705.651 645.691 728.113 660.013 719.128 682.141C709.137 706.738 629.487 611.82 676.789 651.537C679.076 653.458 709.434 678.949 710.022 668.489C710.287 663.819 665.67 623.916 665.339 618.627C665.26 617.38 668.195 617.354 668.116 616.107Z" fill="black"/>
<path fill-rule="evenodd" clip-rule="evenodd" d="M764.703 1088.79C803.711 1146.15 836.263 1127.26 831.63 1146.51C829.488 1155.41 757.484 1121.14 751.426 1083.39C747.769 1060.59 754.948 1056.98 759.547 1062.67C760.886 1064.33 757.253 1065.22 764.703 1088.79Z" fill="#D4F7D2"/>
<path fill-rule="evenodd" clip-rule="evenodd" d="M1085.79 1213.92C1088.73 1215.44 1160.98 1252.85 1114.27 1243.95C1066.96 1234.94 1029.96 1168.97 1051.1 1178.59C1061.76 1183.44 1052.24 1195.61 1085.79 1213.92Z" fill="#D4F7D2"/>
<path fill-rule="evenodd" clip-rule="evenodd" d="M934.402 534.517C934.504 535.842 937.305 572.261 930.254 550.605C917.691 512.018 913.78 514.147 886.393 484.484C880.08 477.649 892.641 474.044 903.868 480.263C925.939 492.49 933.42 529.634 934.402 534.517Z" fill="#D4F7D2"/>
<path fill-rule="evenodd" clip-rule="evenodd" d="M759.418 229.856C760.156 232.13 760.894 234.403 761.631 236.676C757.384 238.002 757.702 237.844 757.384 238.002C737.255 247.924 736.465 246.407 735.52 248.084C729.241 259.238 756.636 244.793 758.271 243.929C760.712 249.024 761.014 249.384 757.922 254.006C756.586 253.537 756.09 251.647 754.756 251.174C748.21 248.864 748.543 266.06 715.436 267.515C698.471 268.263 693.413 308.772 691.922 290.457C689.176 256.778 748.343 235.085 754.751 232.736C754.751 232.736 759.046 230.087 759.418 229.856Z" fill="black"/>
<path fill-rule="evenodd" clip-rule="evenodd" d="M664.076 1379.77C664.706 1361.79 671.754 1366.63 672.579 1367.49C674.568 1369.59 672.639 1384.36 682.357 1400.23C703.026 1433.99 726.874 1429.92 733.612 1430.3C752.352 1431.33 681.301 1462.46 664.076 1379.77Z" fill="#D4F7D2"/>
<path fill-rule="evenodd" clip-rule="evenodd" d="M723.766 559.835C733.376 571.708 737.048 571.529 746.215 590.041C754.357 606.481 757.345 632.495 756.623 634.051C748.834 650.854 749.252 599.68 715.258 568.896C689.735 545.786 722.96 559.255 723.766 559.835Z" fill="#D4F7D2"/>
<path fill-rule="evenodd" clip-rule="evenodd" d="M693.618 1443.3C688.221 1453.14 667.701 1436.16 658.676 1423.77C640.842 1399.3 641.845 1382.98 649.457 1366.57C658.548 1346.97 654.387 1382.48 657.091 1393.14C665.425 1426.01 688.872 1439.31 693.618 1443.3Z" fill="#D4F7D2"/>
<path fill-rule="evenodd" clip-rule="evenodd" d="M638.585 1411.68C650.872 1435.15 652.586 1435.11 651.232 1436.92C646.617 1443.08 604.982 1403.71 637.338 1348.74C647.184 1332.01 646.32 1350.08 646.147 1350.78C639.574 1377.76 630.009 1384.22 638.585 1411.68Z" fill="#D4F7D2"/>
<path fill-rule="evenodd" clip-rule="evenodd" d="M237.71 1180.16C190.555 1123.37 260.992 1050.02 241.553 1096.94C215.461 1159.92 245.517 1167.17 240.606 1177.84C240.089 1178.96 238.228 1179.04 237.71 1180.16Z" fill="#D4F7D2"/>
<path fill-rule="evenodd" clip-rule="evenodd" d="M431.808 154.661C425.235 151.597 382.256 131.574 358.379 101.507C342.254 81.2001 335.303 49.2958 337.676 44.9383C338.206 43.9618 341.199 42.9564 344.021 57.2889C355.311 114.656 434.142 149.663 434.105 151.781C434.087 153.007 431.829 153.432 431.808 154.661Z" fill="black"/>
<path fill-rule="evenodd" clip-rule="evenodd" d="M590.592 1356.42C591.734 1353.21 601.646 1317.79 607.789 1317.64C617.764 1317.4 604.153 1354.43 603.631 1356.52C593.85 1395.8 614.611 1415.97 603.053 1407.86C589.03 1398.01 590.432 1360.65 590.592 1356.42Z" fill="#D4F7D2"/>
<path fill-rule="evenodd" clip-rule="evenodd" d="M610.603 826.028L607.523 829.039C600.541 821.993 545.014 765.976 537.935 726.407C537.921 726.336 541.092 721.537 543.57 727.079C568.125 782.007 577.57 775.809 610.603 826.028Z" fill="black"/>
<path fill-rule="evenodd" clip-rule="evenodd" d="M512.858 575.246C472.671 561.313 472.727 561.528 469.107 559.864C376.914 517.517 531.663 563.273 529.886 576.897C529.469 580.094 514.173 575.629 512.858 575.246Z" fill="#D4F7D2"/>
<path fill-rule="evenodd" clip-rule="evenodd" d="M269.397 167.203C273.151 165.699 300.868 154.582 319.177 158.485C322.262 159.142 339.655 169.907 341.388 170.98C361.414 183.378 332.806 172.91 332.098 172.652C318.248 167.584 298.29 189.418 269.397 167.203Z" fill="#D4F7D2"/>
<path fill-rule="evenodd" clip-rule="evenodd" d="M505.652 222.9C506.054 222.903 510.661 222.95 510.661 222.95C558.74 229.006 580.173 204.937 600.585 194.44C626.308 181.21 643.286 201.312 628.757 199.49C594.319 195.17 596.847 206.735 565.51 221.792C541.158 233.492 507.393 232.387 504.565 224.669L505.652 222.9Z" fill="black"/>
<path fill-rule="evenodd" clip-rule="evenodd" d="M194.485 468.873C191.773 517.501 208.313 514.162 208.555 526.749C208.762 537.483 162.321 491.23 203.982 424.687C217.713 402.752 219.735 403.403 221.58 404.49C225.061 406.54 212.432 421.941 206.646 432.485C197.309 449.501 198.538 449.863 194.485 468.873Z" fill="#D4F7D2"/>
<path fill-rule="evenodd" clip-rule="evenodd" d="M186.83 1117.37C188.77 1101.21 189.177 1083.52 214.747 1060.78C239.43 1038.84 193.589 1093.52 194.282 1130.71C195.529 1197.49 186.946 1118.58 186.83 1117.37Z" fill="#D4F7D2"/>
<path fill-rule="evenodd" clip-rule="evenodd" d="M218.036 1169.15C214.881 1169.12 214.928 1168.92 213.335 1165.89C183.394 1108.97 229.791 1065.68 230.579 1077.83C231.6 1093.57 201.346 1090.94 218.036 1169.15Z" fill="#D4F7D2"/>
<path fill-rule="evenodd" clip-rule="evenodd" d="M544.925 896.523C540.027 894.097 496.688 872.648 487.109 860.08C474.328 843.306 496.948 862.033 497.612 862.584C525.29 885.497 596.54 908.621 599.381 910.627C621.837 926.487 549.12 898.155 544.925 896.523Z" fill="black"/>
<path fill-rule="evenodd" clip-rule="evenodd" d="M778.56 208.499C783.571 186.494 768.267 180.753 761.151 156.577C753.029 128.98 772.087 168.746 772.701 170.025C791.919 210.124 778.017 123.281 785.304 128.909C797.329 138.194 786.041 202.079 784.936 208.334C782.812 208.389 780.686 208.444 778.56 208.499Z" fill="black"/>
<path fill-rule="evenodd" clip-rule="evenodd" d="M1016.82 1433.24C988.81 1417.11 988.904 1417.35 986.568 1415.82C971.159 1405.72 1004.43 1412.41 1032.3 1428.39C1059.06 1443.74 1061.56 1440.27 1061.86 1442.89C1063.19 1454.21 1020.18 1434.76 1016.82 1433.24Z" fill="#D4F7D2"/>
<path fill-rule="evenodd" clip-rule="evenodd" d="M227.497 796.384C288.906 797.507 298.109 760.4 347.254 779.776C373.496 790.121 335.712 782.403 334.712 782.198C293.956 773.875 259.585 808.658 234.98 801.773C230.712 800.579 231.857 803.088 229.925 804.868C227.447 801.017 227.686 801.077 227.497 796.384Z" fill="#D4F7D2"/>
<path fill-rule="evenodd" clip-rule="evenodd" d="M328.008 1272.5C314.689 1318.19 285.648 1314.97 291.077 1309.77C311.071 1290.63 314.959 1291.89 318.789 1264.35C319.306 1260.65 315.508 1235.51 326.202 1246.61C330.754 1251.34 328.273 1270.44 328.008 1272.5Z" fill="#D4F7D2"/>
<path fill-rule="evenodd" clip-rule="evenodd" d="M458.436 616.999C398.156 632.298 466.442 603.129 478.52 596.493C480.665 595.317 512.634 577.758 507.552 586.909C500.097 600.331 462.715 615.288 458.436 616.999Z" fill="#D4F7D2"/>
<path fill-rule="evenodd" clip-rule="evenodd" d="M1067.11 426.842C1063.63 425.088 1055.4 420.938 1027.77 398.119C975.857 355.247 965.987 364.104 967.691 358.61C972.631 342.674 1041.02 401.447 1052.54 410.029C1063.59 418.258 1063.7 418.279 1067.11 426.842Z" fill="black"/>
<path fill-rule="evenodd" clip-rule="evenodd" d="M285.654 865.823C288.208 861.111 288.166 861.127 288.412 860.733C291.849 855.25 306.249 868.535 309.297 875.538C317.805 895.097 270.993 898.704 285.654 865.823Z" fill="#D4F7D2"/>
<path fill-rule="evenodd" clip-rule="evenodd" d="M284.37 223.99C288.94 226.966 289.701 227.73 286.819 232.413L285.27 233.069C283.247 232.214 283.869 229.51 279.288 231.62C265.937 237.768 233.771 253.093 195.115 219.629C181.355 207.72 200.018 220.344 216.994 226.381C255.298 240.01 268.077 229.544 284.37 223.99Z" fill="black"/>
<path fill-rule="evenodd" clip-rule="evenodd" d="M944.276 382.372C945.171 382.222 946.237 377.883 954.068 385.254C955.464 386.569 963.714 394.334 969.169 403.883C999.328 456.659 1016.72 455.656 1011.51 460.274C1004.2 466.731 954.787 399.631 944.276 382.372Z" fill="black"/>
<path fill-rule="evenodd" clip-rule="evenodd" d="M722.918 1407.14C729.819 1408.54 729.659 1408.09 736.555 1408.21C758.285 1408.59 702.257 1434.79 689.166 1390.37C687.313 1384.08 692.153 1375.86 698.702 1385.87C707.013 1398.57 706.052 1400.02 722.918 1407.14Z" fill="#D4F7D2"/>
<path fill-rule="evenodd" clip-rule="evenodd" d="M387.301 182.286C371.31 178.693 368.349 177.446 366.782 176.787C344.535 167.421 371 172.322 371.494 172.461C421.839 186.596 458.788 175.301 465.474 178.645C471.073 181.444 464.629 192.051 387.301 182.286Z" fill="#D4F7D2"/>
<path fill-rule="evenodd" clip-rule="evenodd" d="M597.165 539.958C599.052 541.922 600.937 543.888 602.825 545.851C598.071 548.531 564.964 567.2 534.729 542.008C508.469 520.129 582.294 559.239 597.165 539.958Z" fill="#D4F7D2"/>
<path fill-rule="evenodd" clip-rule="evenodd" d="M208.688 114.698C226.559 138.937 221.724 142.024 219.377 142.003C215.445 141.969 219.569 136.679 185.26 106.621C165.717 89.5003 158.782 64.3213 168.518 76.1942C176.86 86.3687 173.975 89.3743 208.688 114.698Z" fill="black"/>
<path fill-rule="evenodd" clip-rule="evenodd" d="M156.283 166.476C156.291 165.712 157.102 165.103 157.107 164.336C157.155 159.582 162.205 156.028 211.986 187.195C224.334 194.925 250.754 204.144 240.74 204.743C218.089 206.097 202.452 180.64 156.283 166.476Z" fill="black"/>
<path fill-rule="evenodd" clip-rule="evenodd" d="M284.952 549.182C232.744 540.672 247.853 498.092 250.927 508.245C259.025 535.018 278.395 537.732 292.512 543.032C303.732 547.245 285.727 549.101 284.952 549.182Z" fill="#D4F7D2"/>
<path fill-rule="evenodd" clip-rule="evenodd" d="M704.641 159.291C705.911 158.787 706.273 156.897 707.544 156.393C712.143 154.569 716.435 173.996 728.757 176.957C736.458 178.808 733.518 188.962 749.502 198.622C748.512 200.509 747.52 202.399 746.528 204.286C741.488 199.889 742.438 196.81 736.214 198.553C734.392 199.585 732.568 200.617 730.746 201.648C707.749 169.287 705.825 163.092 704.641 159.291Z" fill="black"/>
<path fill-rule="evenodd" clip-rule="evenodd" d="M613.332 333.053C611.92 333.743 596.086 341.482 594.316 338.004C591.757 332.969 596.08 319.936 602.501 319.902C635.083 319.726 635.177 296.048 641.264 306.525C644.504 312.1 615.891 331.334 613.332 333.053Z" fill="#D4F7D2"/>
<path fill-rule="evenodd" clip-rule="evenodd" d="M741.487 967.589C711.042 969.665 690.244 927.279 694.124 922.927C697.466 919.179 697.82 923.342 713.25 941.071C726.076 955.81 729.123 952.306 741.487 967.589Z" fill="#D4F7D2"/>
<path fill-rule="evenodd" clip-rule="evenodd" d="M244.021 1156.5C241.501 1140.54 240.85 1140.86 242.094 1124.96C242.635 1118.05 247.223 1118.85 247.717 1122.8C255.508 1185.21 264.701 1182.93 264.42 1188.34C264.265 1191.36 255.261 1193.98 244.021 1156.5Z" fill="#D4F7D2"/>
<path fill-rule="evenodd" clip-rule="evenodd" d="M470.522 1015.28C454.375 947.828 492.307 1026.77 490.566 1041.76C490.259 1044.39 483.542 1046.72 470.522 1015.28Z" fill="#D4F7D2"/>
<path fill-rule="evenodd" clip-rule="evenodd" d="M621.708 1364.4C621.133 1366.43 611.1 1401.8 608.769 1387.37C602.16 1346.43 633.339 1323.58 626.751 1348.52C626.409 1349.81 626.378 1349.7 621.708 1364.4Z" fill="#D4F7D2"/>
<path fill-rule="evenodd" clip-rule="evenodd" d="M294.424 1269.41C295.502 1249.77 293.927 1249.73 294.376 1248.09C295.791 1242.93 301.616 1249.44 302.036 1249.91C322.934 1273.25 275.148 1309.05 277.08 1293.28C278.059 1285.3 287.189 1290.67 294.424 1269.41Z" fill="#D4F7D2"/>
<path fill-rule="evenodd" clip-rule="evenodd" d="M308.103 256.177C314.384 292.25 278.737 348.575 274.366 350.774C263.173 356.408 318.317 271.715 301.178 262.102C304.378 258.603 304.134 258.569 308.103 256.177Z" fill="black"/>
<path fill-rule="evenodd" clip-rule="evenodd" d="M179.627 292.822C176.304 301.86 169.586 332.019 119.378 352.927C72.6214 372.402 139.68 344.078 162.961 313.279C163.803 312.163 172.201 301.052 172.238 298.432C172.259 296.807 169.192 296.23 169.213 294.605C174.605 293.471 174.303 293.521 179.627 292.822Z" fill="black"/>
<path fill-rule="evenodd" clip-rule="evenodd" d="M528.991 156.664C501.917 140.916 502.137 138.622 503.938 136.808C504.471 136.273 506.687 134.036 513.246 138.275C564.92 171.665 570.889 160.438 578.089 168.095C590.414 181.207 532.737 158.16 528.991 156.664Z" fill="black"/>
<path fill-rule="evenodd" clip-rule="evenodd" d="M470.538 1065.11C461.605 1021.24 501.869 1096.9 492.254 1104.25C489.409 1106.42 487.317 1104.87 470.538 1065.11Z" fill="#D4F7D2"/>
<path fill-rule="evenodd" clip-rule="evenodd" d="M615.479 304.317C615.763 303.201 613.92 302.225 614.204 301.109C617.259 289.105 638.107 265.504 641.141 261.081C656.327 238.949 651.271 280.603 615.479 304.317Z" fill="#D4F7D2"/>
<path fill-rule="evenodd" clip-rule="evenodd" d="M1219.63 692.746C1233.27 686.606 1234.58 688.867 1244.66 678.057C1250.88 671.374 1254.64 660.359 1258.47 661.483C1274.32 666.126 1222.85 708.37 1198.67 704.094C1186.32 701.91 1217.8 693.253 1219.63 692.746Z" fill="#D4F7D2"/>
<path fill-rule="evenodd" clip-rule="evenodd" d="M305.425 247.888C309.186 251.059 309.026 251.316 308.102 256.177C304.133 258.569 304.377 258.603 301.178 262.102C299.28 266.307 279.613 309.869 277.91 314.849C262.643 359.5 270.788 292.135 305.425 247.888Z" fill="black"/>
<path fill-rule="evenodd" clip-rule="evenodd" d="M955.073 1092.93C956.344 1093.07 967.957 1083.25 989.765 1141.32C993.884 1152.29 989.13 1151.81 988.421 1151.42C985.904 1150.01 968.694 1104.73 954.509 1096.64L955.073 1092.93Z" fill="#D4F7D2"/>
<path fill-rule="evenodd" clip-rule="evenodd" d="M431.95 135.524C433.365 132.458 435.788 127.201 426.621 93.632C422.532 78.659 421.285 79.3861 416.799 64.7701C416.431 63.5784 420.655 59.1054 425.325 70.6817C444.563 118.346 438.678 133.466 436.68 138.601C435.103 137.575 433.528 136.551 431.95 135.524Z" fill="black"/>
<path fill-rule="evenodd" clip-rule="evenodd" d="M116.076 433.593C117.688 436.678 121.84 436.544 117.554 443.083C116.031 442.888 115.806 440.04 114.286 439.846C110.834 439.405 73.3987 452.869 69.889 454.134C68.3849 453.69 68.49 454.491 66.9412 454.034C66.5921 453.929 66.9412 454.034 62.757 452.246C53.3752 451.052 44.6733 453.932 49.0046 448.393C52.3882 444.064 54.6903 450.11 116.076 433.593Z" fill="black"/>
<path fill-rule="evenodd" clip-rule="evenodd" d="M195.844 324.708C195.726 322.01 192.206 324.979 192.085 322.214C192.038 321.112 192.198 321.157 195.149 308.772C207.108 258.571 266.346 253.581 245.404 263.372C200.729 284.26 205.591 298.6 195.844 324.708Z" fill="black"/>
<path fill-rule="evenodd" clip-rule="evenodd" d="M385.506 185.654C377.206 195.498 357.781 196.432 327.349 215.261C271.027 250.111 347.601 185.226 385.506 185.654Z" fill="#D4F7D2"/>
<path fill-rule="evenodd" clip-rule="evenodd" d="M715.783 1021.96C713.142 1020.55 692.977 1009.76 684.456 1001.46C680.073 997.194 683.073 994.262 686.554 996.414C712.371 1012.37 712.959 1010.79 740.952 1021.32C742.836 1022.03 741.392 1030.11 715.783 1021.96Z" fill="#D4F7D2"/>
<path fill-rule="evenodd" clip-rule="evenodd" d="M1190.39 334.699C1188.27 335.3 1133.83 350.756 1162.98 336.749C1187.34 325.036 1261.31 318.03 1237.27 328.575C1237.2 328.606 1215.82 327.622 1190.39 334.699Z" fill="black"/>
<path fill-rule="evenodd" clip-rule="evenodd" d="M225.646 917.732C225.41 904.515 225.244 904.61 225.578 902.258C225.709 901.318 241.183 843.993 234.277 894.181C230.864 918.982 240.968 936.869 240.818 938.982C240.671 941.066 233.014 944.904 225.646 917.732Z" fill="#D4F7D2"/>
<path fill-rule="evenodd" clip-rule="evenodd" d="M324.301 406.892C325.231 406.876 379.602 405.923 334.437 412.588C273.088 421.642 274.29 428.461 269.048 427.327C264.441 426.332 266.005 416.402 324.301 406.892Z" fill="#D4F7D2"/>
<path fill-rule="evenodd" clip-rule="evenodd" d="M238.687 500.434C240.874 521.819 249.917 546.597 239.236 527.878C218.742 491.968 240.467 451.837 239.671 469.088C238.939 484.983 238.713 484.618 238.687 500.434Z" fill="#D4F7D2"/>
<path fill-rule="evenodd" clip-rule="evenodd" d="M204.567 1249.87C240.574 1233.7 222.38 1209.81 232.521 1207.02C246.675 1203.12 230.846 1257.16 206.226 1253.66C203.667 1253.3 204.412 1252.66 204.567 1249.87Z" fill="#D4F7D2"/>
<path fill-rule="evenodd" clip-rule="evenodd" d="M513.611 552.109C487.269 542.04 487.408 542.184 485.164 541.234C458.565 529.981 513.816 539.982 544.434 558.611C572.154 575.48 515.95 553.044 513.611 552.109Z" fill="#D4F7D2"/>
<path fill-rule="evenodd" clip-rule="evenodd" d="M1058.71 250.93C1071.34 243.719 1156.45 203.417 1126.67 223.987C1118.3 229.767 1064.98 254.458 1060.35 253.064C1059.49 252.804 1059.57 251.19 1058.71 250.93Z" fill="black"/>
<path fill-rule="evenodd" clip-rule="evenodd" d="M1135.02 187.547C1221.71 139.142 1105.16 214.361 1098.63 214.818C1090.99 215.351 1097.1 208.591 1135.02 187.547Z" fill="black"/>
<path fill-rule="evenodd" clip-rule="evenodd" d="M455.688 248.599C444.227 275.321 443.56 306.023 438.806 291.113C436.013 282.351 453.69 223.709 460.484 238.099C460.88 238.934 461.009 239.209 455.688 248.599Z" fill="black"/>
<path fill-rule="evenodd" clip-rule="evenodd" d="M260.777 458.021C276.141 445.222 276.807 441.715 279.535 445.442C282.561 449.579 278.842 449.312 267.263 461.736C250.395 479.833 250.694 491.141 247.612 494.559C245.53 496.866 236.522 490.624 260.777 458.021Z" fill="#D4F7D2"/>
<path fill-rule="evenodd" clip-rule="evenodd" d="M1261.66 1164.23C1251.63 1156.56 1250.72 1157.12 1250.34 1154.19C1248.22 1138.13 1293.87 1177.77 1288.5 1183.41C1286.68 1185.33 1286 1184.05 1261.66 1164.23Z" fill="#D4F7D2"/>
<path fill-rule="evenodd" clip-rule="evenodd" d="M760.385 292.452C758.647 293.667 756.91 294.883 755.172 296.096C744.929 288.215 753.76 284.656 758.923 271.715C769.693 244.714 777.629 251.751 777.613 253.82C777.539 262.511 771.056 259.944 768.824 264.666C764.779 273.234 765.827 273.484 761.669 282.133C760.128 285.336 755.983 285.756 760.385 292.452Z" fill="#D4F7D2"/>
<path fill-rule="evenodd" clip-rule="evenodd" d="M1090.94 154.138C1091.37 153.519 1095.86 147.059 1096.36 146.41C1096.87 145.754 1133.63 107.526 1106.28 143.381C1075.24 184.087 1079.99 187.014 1077.15 190.408C1053.39 218.782 1089.38 156.824 1090.94 154.138Z" fill="black"/>
<path fill-rule="evenodd" clip-rule="evenodd" d="M1151 393.131C1149.03 392 1136.15 384.608 1127.47 377.166C1118.09 369.121 1123.54 366.49 1124.64 367.28C1169.39 399.311 1174.63 393.255 1175.34 397.94C1176.32 404.487 1152.81 393.943 1151 393.131Z" fill="black"/>
<path fill-rule="evenodd" clip-rule="evenodd" d="M1049.76 183.843C1063.1 155.257 1069.17 157.22 1068.99 159.682C1068.51 166.1 1059.06 167.857 1043.85 214.503C1043.65 215.135 1041.3 222.328 1040.94 222.286C1039.51 222.115 1038.81 220.018 1037.38 219.847C1041.7 205.021 1041.56 205.226 1046.72 190.909L1049.76 183.843Z" fill="black"/>
<path fill-rule="evenodd" clip-rule="evenodd" d="M707.281 223.604C708.473 223.268 728.945 217.474 722.734 224.507C717.492 230.444 714.497 226.722 709.016 234.364C708.68 234.831 708.604 234.702 703.464 238.913C701.792 238.611 701.125 236.07 699.451 235.765C697.715 235.45 696.088 236.852 694.371 237.264C689.171 238.516 676.847 237.776 671.169 232.366C659.002 220.771 677.684 233.135 691.675 231.88C701.866 230.964 704.625 233.258 707.281 223.604Z" fill="black"/>
<path fill-rule="evenodd" clip-rule="evenodd" d="M1166.87 324.564C1164.69 325.217 1123.94 337.416 1138.61 327.945C1139.11 327.619 1164 318.747 1172.23 317.295C1198.99 312.578 1199.15 320.004 1197.64 320.792C1195.44 321.939 1194.97 319.038 1166.87 324.564Z" fill="black"/>
<path fill-rule="evenodd" clip-rule="evenodd" d="M747.42 175.511C774.095 176.186 773.825 255.256 765.22 214.392C764.514 211.043 764.162 209.368 747.42 175.511Z" fill="#D4F7D2"/>
<path fill-rule="evenodd" clip-rule="evenodd" d="M1127.44 140.819C1126.96 141.465 1093.76 180.467 1117.9 144.022C1140.46 109.949 1167.09 94.3172 1154.11 109.529C1140.72 125.221 1140.45 124.673 1127.44 140.819Z" fill="black"/>
<path fill-rule="evenodd" clip-rule="evenodd" d="M641.094 108.028C637.568 105.14 603.99 77.6221 603.793 64.9985C603.638 54.9973 610.368 72.905 629.263 90.461C629.72 90.8836 644.619 103.872 644.601 104.006C644.37 105.77 641.325 106.264 641.094 108.028Z" fill="black"/>
<path fill-rule="evenodd" clip-rule="evenodd" d="M576.669 260.325L576.346 264.307C564.872 270.707 564.62 269.221 552.401 274.159C549.771 275.222 522.636 284.966 521.552 284.16C514.378 278.826 561.463 265.381 576.669 260.325Z" fill="black"/>
<path fill-rule="evenodd" clip-rule="evenodd" d="M1148.69 295.03L1149.77 299.03C1139.95 302.59 1098.77 319.508 1098.62 319.408C1088.12 312.14 1144.4 296.24 1148.69 295.03Z" fill="black"/>
<path fill-rule="evenodd" clip-rule="evenodd" d="M1049.76 183.843L1046.72 190.909C1045.18 192.56 1044.52 188.901 1043.01 190.513C1042.52 191.043 1042.58 190.978 1039.36 198.784C1033.07 214.075 1035.12 214.484 1029.27 229.688C1019.19 255.873 1023.61 211.455 1041.97 183.777C1046.23 177.356 1049.54 183.733 1049.76 183.843Z" fill="black"/>
<path fill-rule="evenodd" clip-rule="evenodd" d="M611.264 164.184C610.187 153.603 609.355 145.959 615.107 149.76C616.656 150.781 638.821 165.426 620.819 172.227C613.555 174.97 614.251 171.253 611.264 164.184Z" fill="#D4F7D2"/>
<path fill-rule="evenodd" clip-rule="evenodd" d="M808.527 1030.38C792.263 975.417 826.28 1040.8 820.707 1046.74C819.592 1047.94 815.733 1049.99 808.527 1030.38Z" fill="#D4F7D2"/>
<path fill-rule="evenodd" clip-rule="evenodd" d="M427.669 1222.3C423.553 1247.99 401.807 1183.71 415.518 1196.91C423.02 1204.13 427.112 1220.12 427.669 1222.3Z" fill="#D4F7D2"/>
<path fill-rule="evenodd" clip-rule="evenodd" d="M804.55 246C807.283 248.027 832.385 266.643 825.831 282.811C820.896 294.975 823.694 278.521 816.546 267.853C810.477 258.8 787.577 235.477 804.55 246Z" fill="black"/>
<path fill-rule="evenodd" clip-rule="evenodd" d="M1065.05 180.527C1066.14 178.275 1079.5 150.802 1082.67 154.621C1083.89 156.094 1064.87 195.944 1063.19 199.475C1030.42 268.147 1064.49 181.945 1065.05 180.527Z" fill="black"/>
<path fill-rule="evenodd" clip-rule="evenodd" d="M356.258 306.456C347.065 322.577 341.647 345.152 343.82 326.593C345.978 308.157 372.95 259.915 365.708 282.705C365.088 284.653 365.007 284.464 356.258 306.456Z" fill="black"/>
<path fill-rule="evenodd" clip-rule="evenodd" d="M507.615 120.814C562.698 143.108 490.723 125.828 484.967 116.924C480.948 110.705 505.896 120.163 507.615 120.814Z" fill="black"/>
<path fill-rule="evenodd" clip-rule="evenodd" d="M376.815 249.948C377.369 246.709 375.699 246.541 377.875 243.761C388.36 230.376 402.661 226.817 410.869 225.691C429.745 223.097 411.092 231.578 410.622 231.681C391.391 235.805 393.573 240.118 376.815 249.948Z" fill="black"/>
<path fill-rule="evenodd" clip-rule="evenodd" d="M571.317 306.451C578.323 294.791 580.898 292.079 581.932 290.993C601.428 270.478 568.429 323.18 565.064 326.207C552.364 337.626 570.456 307.869 571.317 306.451Z" fill="black"/>
<path fill-rule="evenodd" clip-rule="evenodd" d="M1214.13 366.611C1215.38 366.43 1228.64 364.48 1229.7 364.613C1250.39 367.254 1194.39 377.555 1191.37 371.37C1188 364.459 1194.48 367.987 1214.13 366.611Z" fill="black"/>
<path fill-rule="evenodd" clip-rule="evenodd" d="M468.674 256.377C468.251 254.629 468.265 252.794 467.845 251.045C463.778 234.214 481.059 253.949 474.181 282.811C470.302 299.086 469.622 269.751 468.674 256.377Z" fill="black"/>
<path fill-rule="evenodd" clip-rule="evenodd" d="M406.705 303.745L406.471 306.357C404.991 307.953 403.229 306.328 401.694 311.504C392.966 340.92 396.37 278.542 400.337 282.031C401.471 283.026 402.022 284.664 402.182 286.165C402.618 290.213 400.875 294.494 402.096 298.379C402.229 298.802 403.13 296.755 406.891 301.13C407.931 302.343 405.676 302.548 406.705 303.745Z" fill="black"/>
<path fill-rule="evenodd" clip-rule="evenodd" d="M397.689 1201.69C413.315 1219.16 418.339 1233.6 410.761 1230.51C408.385 1229.55 401.495 1218.06 400.802 1216.91C393.255 1204.32 396.841 1203.66 397.689 1201.69Z" fill="#D4F7D2"/>
<path fill-rule="evenodd" clip-rule="evenodd" d="M241.548 907.408C244.095 892.8 243.307 891.845 245.425 891.456C249.723 890.671 248.379 899.691 249.061 918.04C251.166 974.69 241.656 908.445 241.548 907.408Z" fill="#D4F7D2"/>
<path fill-rule="evenodd" clip-rule="evenodd" d="M303.732 388.713C304.567 388.472 359.293 374.972 314.348 390.987C304.034 394.659 293.337 401.76 292.736 401.783C281.225 402.251 302.561 389.417 303.732 388.713Z" fill="#D4F7D2"/>
<path fill-rule="evenodd" clip-rule="evenodd" d="M453.299 277.671L456.176 276.723C456.906 279.196 462.195 297.119 460.037 308.717C453.354 344.666 453.301 280.214 453.299 277.671Z" fill="black"/>
<path fill-rule="evenodd" clip-rule="evenodd" d="M761.631 236.676C762.259 241.136 761.6 240.913 758.271 243.929C756.636 244.793 729.241 259.238 735.52 248.084C736.465 246.407 737.255 247.924 757.384 238.002C757.702 237.844 757.384 238.002 761.631 236.676Z" fill="#D4F7D2"/>
<path fill-rule="evenodd" clip-rule="evenodd" d="M1111.8 384.949C1097.3 369.533 1099.69 366.994 1101.36 366.955C1103.33 366.908 1129.62 394.184 1111.8 384.949Z" fill="black"/>
<path fill-rule="evenodd" clip-rule="evenodd" d="M806.912 431.136C806.269 431.315 779.368 436.41 802.009 424.382C811.236 419.479 815.373 427.443 812.291 429.346C810.682 430.336 808.521 430.144 806.912 431.136Z" fill="black"/>
<path fill-rule="evenodd" clip-rule="evenodd" d="M62.7568 452.246C66.9411 454.034 66.592 453.929 66.9411 454.034C68.4898 454.491 68.3848 453.69 69.8889 454.134C55.8215 467.435 44.3031 472.585 49.7369 464.348C50.5191 463.159 50.9312 463.915 62.7568 452.246Z" fill="black"/>
<path fill-rule="evenodd" clip-rule="evenodd" d="M539.974 601.472C539.307 601.8 531.639 605.567 531.639 605.567C531.106 605.662 531.217 605.297 525.956 601.903C538.225 588.182 541.136 591.623 541.163 593.03C541.171 593.505 539.976 594.781 539.85 594.915C536.506 598.488 539.924 598.85 539.974 601.472Z" fill="#D4F7D2"/>
<path fill-rule="evenodd" clip-rule="evenodd" d="M1172.58 157.028C1154.7 172.776 1174.72 139.396 1179.26 144.195C1180.91 145.943 1173.28 156.102 1172.58 157.028Z" fill="black"/>
<path fill-rule="evenodd" clip-rule="evenodd" d="M736.214 198.553C742.438 196.81 741.488 199.889 746.528 204.286C754.132 209.048 752.279 210.481 752.757 212.125C751.056 212.327 749.357 212.531 747.656 212.736C741.031 206.098 740.829 206.504 736.214 198.553Z" fill="black"/>
<path fill-rule="evenodd" clip-rule="evenodd" d="M736.214 198.553C740.829 206.504 741.031 206.097 747.656 212.736L746.304 214.747C737.4 209.271 737.988 209.003 730.746 201.648C732.568 200.616 734.392 199.585 736.214 198.553Z" fill="black"/>
<path fill-rule="evenodd" clip-rule="evenodd" d="M1033.48 1159.75C1039.56 1156.33 1042.89 1155.19 1042.44 1161.92C1042.2 1165.51 1026.01 1174.94 1033.48 1159.75Z" fill="black"/>
<path fill-rule="evenodd" clip-rule="evenodd" d="M1195.76 113.902C1195.32 114.572 1195.65 114.435 1190.39 122.378C1190.01 122.956 1180.59 137.194 1182.18 125.066C1183.25 116.963 1194.39 114.238 1195.76 113.902Z" fill="black"/>
<path fill-rule="evenodd" clip-rule="evenodd" d="M944.007 109.629C943.768 109.159 937.011 108.823 943.807 101.549C944.818 100.47 944.72 100.67 948.445 97.6929C969.907 80.5385 944.684 108.868 944.007 109.629Z" fill="black"/>
<path fill-rule="evenodd" clip-rule="evenodd" d="M1104.03 330.31C1103.61 330.439 1087.48 332.171 1101.6 325.299C1101.7 325.252 1117.01 322.031 1104.03 330.31Z" fill="black"/>
<path fill-rule="evenodd" clip-rule="evenodd" d="M310.874 850.619C321.918 864.442 306.173 855.084 306.118 854.803C305.367 850.997 307.215 852.063 310.874 850.619Z" fill="black"/>
<path fill-rule="evenodd" clip-rule="evenodd" d="M768.522 233.177C772.326 231.594 772.135 231.655 775.928 232.45L773.011 237.645C769.541 236.902 769.914 236.38 768.522 233.177Z" fill="black"/>
<path fill-rule="evenodd" clip-rule="evenodd" d="M790.814 222.488C788.347 232.117 782.753 223.706 785.225 221.239C787.753 218.721 788.2 219.808 790.814 222.488Z" fill="black"/>
<path fill-rule="evenodd" clip-rule="evenodd" d="M749.95 216.81C752.806 220.85 752.798 220.816 753.035 221.173C754.04 222.69 753.636 222.535 754.83 224.341L749.706 225.887C748.85 224.231 750.806 222.191 745.196 221.097C745.616 221.008 750.423 219.976 750.423 219.976C751.087 219.141 749.286 217.645 749.95 216.81Z" fill="black"/>
<path fill-rule="evenodd" clip-rule="evenodd" d="M1177.6 369.275C1180.61 365.852 1182.93 364.784 1183.22 369.152C1183.25 369.601 1183.2 377.854 1177.6 369.275Z" fill="black"/>
<path fill-rule="evenodd" clip-rule="evenodd" d="M747.656 212.736C749.357 212.531 751.055 212.327 752.756 212.125C751.821 213.686 750.884 215.248 749.95 216.81L746.304 214.747L747.656 212.736Z" fill="black"/>
<path fill-rule="evenodd" clip-rule="evenodd" d="M862.66 229.36C866.403 230.271 866.419 229.964 866.403 230.271C866.403 230.271 861.99 234.555 861.604 234.925C861.956 233.072 862.308 231.216 862.66 229.36Z" fill="black"/>
<path fill-rule="evenodd" clip-rule="evenodd" d="M933.433 761.017C932.474 761.464 932.595 761.524 928.726 764.971C928.613 761.196 930.02 762.227 933.433 761.017Z" fill="black"/>
<path fill-rule="evenodd" clip-rule="evenodd" d="M292.73 148.768C297.167 150.781 297.571 150.521 297.505 150.936C297.403 151.584 295.791 151.049 295.689 151.697L292.73 148.768Z" fill="black"/>
<path fill-rule="evenodd" clip-rule="evenodd" d="M359.127 731.455C359.458 731.641 363.259 733.786 363.259 733.786C363.445 735.253 361.203 733.022 361.387 734.473L359.127 731.455Z" fill="black"/>
<path fill-rule="evenodd" clip-rule="evenodd" d="M378.838 975.341L376.961 977.997C377.093 976.519 375.069 978.504 375.179 977.236C375.208 976.905 375.179 977.236 378.838 975.341Z" fill="#D4F7D2"/>
</svg>
