<svg width="234" height="334" viewBox="0 0 234 334" fill="none" xmlns="http://www.w3.org/2000/svg">
    <path d="M226.589 188.3C226.299 183.63 226.749 180.62 224.679 176.57C221.989 171.3 218.319 170.7 216.229 166.48C213.579 161.13 217.999 157.96 217.869 150.12C217.789 145.39 215.389 140.99 210.779 132.39C208.269 127.71 204.619 121.48 199.549 114.47C192.169 104.27 183.289 97.7901 176.659 92.4701C176.109 92.0301 175.659 91.6702 175.349 91.4302C175.129 94.3102 174.179 96.3201 173.549 97.4201C172.999 98.3701 171.369 101.19 169.589 101.28C169.889 99.8701 170.069 98.6001 170.179 97.5301C170.119 93.8301 169.719 90.2301 168.989 86.7201C168.259 80.8901 167.179 75.4201 165.579 69.9801C161.859 57.3001 156.699 48.3802 154.899 45.4202C143.129 26.0802 127.069 15.6502 119.549 11.3802C113.159 7.75015 103.039 2.15015 88.7293 0.470151C86.0093 0.150151 77.8593 -0.639849 67.4593 1.02015C64.4493 1.50015 57.4693 2.79015 49.1893 6.20015C43.7193 8.45015 31.2193 13.7702 19.9593 26.2702C17.3993 29.1202 5.5593 42.7001 1.6193 64.3301C0.239298 71.8801 -1.91071 84.5802 3.40929 99.7602C8.29929 113.72 17.0293 122 19.3793 124.15C23.4893 127.92 31.7093 135.46 42.4293 135.94C49.6693 136.26 56.0493 133.27 55.8193 131.87C55.6393 130.8 51.7293 131.4 46.9093 128.25C44.0693 126.39 42.2393 124.09 40.6993 122.16C40.6993 122.16 38.0793 118.87 36.3093 115.14C31.8793 105.84 33.9793 93.3302 34.2293 91.9302C35.1393 86.8002 38.1693 69.6902 54.3093 60.6301C56.0493 59.6501 70.6193 51.8001 88.6593 57.8801C92.0993 59.0401 108.039 64.3101 112.349 76.5001C112.489 76.8801 112.759 77.4902 113.089 78.2002C110.529 77.6202 101.409 66.3702 92.6593 65.8502C89.1593 65.6402 85.4693 66.1702 85.4693 66.1702C83.6193 66.5202 81.7493 66.9302 79.8493 67.4302C65.3993 71.2502 54.4893 78.7002 54.4893 78.7002C51.9093 80.3402 48.6893 82.5501 45.1593 85.4201C44.5993 85.9701 43.9193 86.7201 43.2893 87.7201C42.6193 88.7701 42.2093 89.7601 41.9493 90.5301C40.9493 94.0301 40.1093 98.9802 40.9293 104.76C41.6093 109.61 43.2293 113.41 44.5693 115.94C45.6593 117.77 47.7593 120.74 51.3893 123.12C57.6493 127.23 64.1293 126.8 66.2093 126.57C63.2893 134.4 58.9093 137.77 56.5693 139.21C43.3193 147.34 24.3293 137.01 18.5493 133.87C14.6993 131.77 11.7093 129.62 9.6493 128C8.5693 132.42 7.85929 136.26 7.38929 139.3C6.12929 147.38 6.11929 152.41 6.13929 153.97C6.13929 154.67 6.1593 155.2 6.1693 155.49C6.4993 167.77 9.49929 177.95 10.2693 180.47C11.5693 184.7 12.2393 186.8 13.3493 188.86C18.4193 198.25 15.7193 194.39 19.1293 200.06C20.6093 202.51 21.0393 203.22 21.3993 203.77C21.6493 204.15 21.9093 204.53 21.9193 204.54C22.1393 204.85 22.5093 205.28 23.0893 205.87C23.7593 205.79 24.6993 205.66 25.8193 205.43C27.9293 205 30.0593 204.33 33.3193 202.91C37.0893 201.26 40.2993 199.85 43.8893 197.01C46.1593 195.21 47.3093 194.29 47.8093 192.89C48.8493 189.98 47.0093 187.88 48.5793 185.53C48.7193 185.32 49.8393 183.7 51.5793 183.48C53.3693 183.26 54.4293 184.71 55.4193 184.12C56.0693 183.73 56.2293 182.75 56.4593 181.33C56.9493 178.26 55.9593 177.59 56.2193 174.93C56.2493 174.58 56.6693 170.74 59.1293 169.15C59.5393 168.88 60.5693 168.22 61.4893 168.6C62.2493 168.92 62.2793 169.69 63.0993 170.01C63.8393 170.3 64.7093 170.04 65.2493 169.61C66.2393 168.82 66.2893 167.26 66.3193 165.53C66.3793 162.34 66.4093 160.75 66.3093 158.23C66.0993 152.96 66.0193 150.28 67.3993 148.45C68.2693 147.3 69.8393 146.12 71.2393 146.5C73.1393 147.01 74.0793 150.22 74.2193 150.76C74.6993 152.5 74.3993 153.51 75.2293 154.29C75.8493 154.87 76.8793 155.11 77.4893 154.65C77.8893 154.35 78.0793 153.78 78.1193 151.7C78.1593 149.69 78.0293 148.25 77.9593 147.28C77.9293 146.91 77.9193 145.33 77.8893 142.18C77.8393 136.93 77.8593 137.22 77.8393 136.4C77.7193 130.99 77.3493 131.06 77.4793 129.32C77.8493 124.33 81.3193 118.28 85.3893 118.08C87.6693 117.97 89.4993 119.73 89.9293 120.14C91.9493 122.08 92.5993 124.88 92.9193 126.27C93.5793 129.14 93.1093 130.46 94.2693 131.67C94.9593 132.39 96.0993 132.94 97.1393 132.6C98.3293 132.21 98.8493 130.8 99.2293 129.8C99.5893 128.82 99.7493 127.94 99.9193 123.43C100.009 120.94 100.009 119.92 100.569 118.54C100.849 117.86 101.239 116.91 102.129 116.3C103.319 115.48 104.039 116.23 105.189 115.75C107.379 114.85 106.679 111.38 109.059 109.92C110.339 109.13 111.919 109.29 112.989 109.8C114.199 110.38 114.849 111.45 115.399 112.37C116.699 114.53 116.199 115.5 117.349 116.76C118.209 117.7 119.659 118.42 120.829 117.99C121.739 117.66 121.849 116.87 122.969 115.31C123.489 114.58 124.889 112.63 126.999 111.54C127.749 111.15 130.079 109.94 131.969 110.99C132.889 111.5 133.479 112.4 134.369 113.79C135.489 115.51 135.649 116.47 136.359 116.58C137.109 116.7 137.419 115.72 138.469 115.04C140.439 113.75 143.299 114.61 145.059 115.9C145.459 116.19 148.059 118.11 148.029 120.77C148.019 121.65 147.729 122.02 145.839 125.5C143.879 129.12 143.699 129.63 143.849 130.24C144.309 132.08 146.979 131.64 147.689 133.54C148.399 135.46 146.599 138.45 144.619 140.08C142.539 141.79 141.329 141.11 136.909 142.61C134.779 143.33 129.989 144.95 130.009 146.82C130.019 147.96 131.829 148.83 134.439 150.08C138.609 152.08 140.299 151.74 141.169 153.45C141.939 154.98 141.599 157.21 140.619 158.46C139.589 159.78 138.519 159.19 136.019 160.39C135.319 160.73 134.809 161.06 134.389 161.39C132.869 162.59 132.499 163.26 131.169 163.92C131.009 164 130.339 164.32 129.499 164.47C127.559 164.82 126.239 163.97 124.769 163.52C121.809 162.61 117.839 163.22 117.089 164.91C116.569 166.08 117.589 167.69 118.629 169.29C122.289 174.95 126.479 175.39 126.849 178.64C127.099 180.8 125.489 182.65 124.859 183.38C121.129 187.7 114.259 186.32 112.809 186.02C104.719 184.4 101.019 178.23 98.2993 180.15C97.1793 180.95 96.6293 182.83 96.7493 184.22C96.9593 186.85 99.5493 187.59 99.6893 190.23C99.7893 192.2 98.4593 193.72 98.3493 193.85C95.7993 196.69 90.3893 195 88.0093 194.26C81.9793 192.38 79.5893 189.11 77.3693 190.55C76.2293 191.29 75.2893 192.95 75.6193 194.15C75.9693 195.4 77.4993 195.66 77.6393 196.97C77.7293 197.83 77.1593 198.54 76.8893 198.87C75.0893 201.1 69.2293 201.96 62.4193 201.11C56.0593 200.4 52.8893 199.67 50.8093 200.41C50.1393 200.65 49.2793 201.16 47.5493 202.19C45.7693 203.25 45.0193 203.85 43.7693 204.68C40.8893 206.58 38.3893 207.69 36.9493 208.33C35.5093 208.97 33.6793 209.76 31.1293 210.43C29.2993 210.91 27.7093 211.17 26.4993 211.32C27.7393 212.96 29.4593 215.34 31.3493 218.31C35.9193 225.47 42.7093 235.27 44.1693 246.67C46.0793 261.59 39.4093 268.79 44.9893 275.85C47.3893 278.88 48.9593 277.98 57.2593 282.67C57.8493 283 67.7093 288.64 76.0793 296.85C80.3993 301.09 81.7393 303.48 91.8993 318.94C100.769 332.43 105.199 339.17 106.629 341.03C112.459 348.61 119.519 354.9 133.629 367.48C133.629 367.48 145.429 378 161.389 383.18C161.699 383.28 162.619 383.58 162.809 383.3C163.039 382.95 162.019 381.92 161.869 381.75C159.979 379.75 155.009 368.82 152.719 361.75C149.069 350.46 141.159 326.31 151.629 315.11C154.849 311.67 159.959 309.29 159.489 305.55C159.329 304.29 158.649 303.74 154.489 299.32C150.609 295.21 148.679 293.15 147.539 291.8C143.229 286.69 141.629 283.35 139.839 283.77C138.709 284.03 138.919 285.47 137.719 286.01C134.709 287.37 128.119 280.71 124.079 273.74C122.729 271.4 121.839 269.13 120.129 264.67C118.119 259.45 114.419 249.2 115.219 248.85C115.899 248.55 119.589 255.68 128.119 268.24C130.869 272.29 134.019 276.75 135.809 276.11C137.269 275.59 136.359 272.23 137.719 271.47C142.109 269.01 161.899 298.38 165.299 296.4C166.719 295.57 163.939 290 165.539 288.93C169.459 286.3 191.989 315.94 197.449 312.66C199.389 311.49 197.879 306.8 199.629 306.11C203.069 304.76 209.459 322.49 215.989 321.93C222.219 321.4 229.899 304.11 226.079 289.2C223.219 278.04 215.839 275.71 213.809 262.2C212.789 255.44 214.629 255.92 214.079 246.11C213.129 229.16 207.219 219.89 210.809 217.2C212.359 216.04 213.709 217.59 221.169 218.02C227.939 218.41 231.319 218.6 232.899 216.93C236.539 213.06 227.679 205.27 226.629 188.29L226.589 188.3Z"
          fill="#9f0712"/>
</svg>
