<svg width="409" height="409" viewBox="0 0 409 409" fill="none" xmlns="http://www.w3.org/2000/svg">
<circle cx="204.5" cy="204.5" r="204.5" fill="#202020"/>
<path d="M294.161 209.391C292.083 202.855 292.147 203.898 291.719 201.955C291.005 198.723 291.108 197.13 289.768 194.567C289.626 194.296 288.96 193.333 287.628 191.406C285.035 187.656 284.139 186.574 283.552 184.544C283.211 183.365 283.069 182.45 283.077 181.709C283.1 178.708 284.932 176.757 284.845 171.519C284.781 167.753 282.878 164.25 279.223 157.403C276.409 152.141 274.252 148.112 270.32 143.137C270.32 143.137 263.057 133.909 249.571 124.929C248.953 124.515 248.326 124.165 248.326 124.165C248.001 123.982 247.732 123.838 247.549 123.743C246.939 121.259 246.091 117.979 244.965 114.157C244.315 111.952 243.062 107.701 241.397 103.115C239.304 97.3667 236.783 91.6664 234.911 88.1555C226.111 71.6118 209.921 62.2492 207.4 60.8242C203.253 58.4835 194.619 53.7306 182.449 52.3692C179.373 52.0269 173.22 51.581 165.585 52.8071C163.199 53.1892 157.665 54.2162 151.1 56.9311C146.763 58.7224 136.853 62.9578 127.925 72.9095C125.895 75.1785 116.508 85.99 113.384 103.21C112.259 109.412 110.356 119.69 114.804 131.417C115.882 134.268 119.775 143.622 129.146 150.469C137.241 156.384 143.853 156.153 145.28 156.074C147.183 155.97 149.633 155.524 149.673 154.919C149.705 154.394 147.889 154.203 145.875 152.666C145.09 152.069 144.4 151.361 143.235 149.729C142.085 148.112 139.818 145.111 138.407 141.218C136.971 137.269 134.688 130.916 136.131 123.146C138.716 109.229 151.346 102.136 155.159 100.241C155.294 100.177 155.5 100.074 155.778 99.9383C173.165 91.6983 187.119 98.9431 187.119 98.9431C191.709 101.331 194.897 104.747 194.5 105.463C194.167 106.068 191.717 104.898 186.707 104.548C183.757 104.341 181.45 104.532 180.078 104.651C177.185 104.898 174.592 105.4 172.364 105.973C169.177 106.769 164.451 108.337 159.449 111.578C155.865 113.902 152.178 116.291 149.379 121.052C148.412 122.7 145.296 128.352 146.279 135.382C146.747 138.71 148.055 141.122 148.967 142.858C149.8 144.442 151.203 147.061 153.986 149.657C156.483 151.99 159.06 153.343 160.963 154.123C158.386 158.128 155.532 160.078 153.827 161.026C153.827 161.026 142.799 167.18 126.815 158.534C124.008 157.013 121.257 155.007 121.257 155.007C120.702 154.601 120.203 154.219 119.759 153.868C118.903 157.387 118.34 160.444 117.967 162.865C116.968 169.298 116.96 173.302 116.976 174.544C116.976 175.101 116.992 175.523 117 175.754C117.261 185.531 119.64 193.635 120.25 195.642C120.433 196.247 121.297 198.938 122.692 202.321C123.224 203.603 123.62 204.487 124.357 206.103C125.436 208.475 125.919 209.399 126.427 210.259C127.505 212.106 128.068 213.029 128.964 213.427C129.384 213.618 130.105 213.897 132.69 213.268C134.791 212.759 135.838 212.512 137.344 211.915C139.429 211.095 141.903 210.107 144.741 208.069C147.318 206.222 148.603 205.291 149.086 203.866C149.934 201.358 148.333 199.543 149.705 197.688C149.776 197.592 150.83 196.199 152.242 196.231C153.851 196.271 154.581 198.134 155.706 197.791C156.452 197.56 156.816 196.525 156.888 196.326C157.11 195.697 157.007 195.164 156.991 194.766C156.935 193.508 156.539 192.807 156.697 191.231C156.721 190.952 157.054 187.895 159.005 186.629C159.33 186.414 160.146 185.889 160.876 186.191C161.478 186.446 161.502 187.059 162.152 187.314C162.739 187.545 163.429 187.338 163.857 186.996C164.642 186.367 164.681 185.125 164.705 183.747C164.753 181.208 164.777 179.942 164.697 177.936C164.531 173.74 164.467 171.606 165.561 170.149C166.251 169.234 167.496 168.294 168.606 168.597C170.112 169.003 170.858 171.559 170.969 171.988C171.349 173.374 171.111 174.178 171.769 174.799C172.261 175.261 173.078 175.452 173.561 175.085C173.878 174.847 174.029 174.393 174.061 172.737C174.1 170.866 173.934 170.062 173.934 169.218C173.934 167.403 174.576 166.209 174.941 165.229C176.63 160.747 173.593 158.144 174.941 152.611C175.543 150.15 177.224 146.233 179.817 145.963C181.498 145.788 182.996 147.197 183.416 147.603C185.018 149.147 185.533 151.377 185.787 152.483C186.31 154.768 185.938 155.819 186.857 156.782C187.404 157.355 188.308 157.793 189.133 157.523C190.076 157.212 190.488 156.09 190.79 155.294C191.075 154.513 191.202 153.813 191.337 150.222C191.408 148.24 191.408 147.428 191.852 146.329C192.074 145.788 192.383 145.031 193.089 144.546C194.032 143.893 194.603 144.49 195.515 144.108C197.251 143.391 196.696 140.629 198.583 139.466C199.598 138.837 200.851 138.965 201.699 139.371C202.659 139.833 203.174 140.684 203.61 141.417C204.641 143.137 204.244 143.909 205.156 144.912C205.838 145.66 206.987 146.233 207.915 145.891C208.637 145.628 208.724 144.999 209.612 143.758C210.024 143.176 211.134 141.624 212.807 140.756C213.402 140.446 215.249 139.482 216.747 140.318C217.477 140.724 217.945 141.441 218.65 142.547C219.538 143.917 219.665 144.681 220.228 144.769C220.823 144.864 221.068 144.084 221.901 143.543C223.463 142.516 225.73 143.2 227.126 144.227C227.443 144.458 229.504 145.987 229.48 148.104C229.473 148.805 229.243 149.1 227.744 151.87C226.19 154.752 226.047 155.158 226.166 155.644C226.531 157.109 228.648 156.758 229.211 158.271C229.774 159.8 228.347 162.18 226.777 163.478C225.128 164.839 224.168 164.298 220.664 165.492C218.975 166.065 215.178 167.355 215.193 168.844C215.201 169.751 216.636 170.444 218.706 171.439C222.012 173.031 223.352 172.761 224.042 174.122C224.652 175.34 224.382 177.116 223.605 178.111C222.789 179.162 221.941 178.692 219.958 179.647C219.403 179.918 218.999 180.181 218.666 180.443C217.461 181.399 217.168 181.932 216.113 182.458C215.986 182.521 215.455 182.776 214.789 182.895C213.251 183.174 212.204 182.497 211.039 182.139C208.692 181.415 205.545 181.9 204.95 183.246C204.538 184.177 205.346 185.459 206.171 186.733C209.073 191.239 212.395 191.589 212.688 194.177C212.886 195.896 211.61 197.369 211.11 197.95C208.153 201.39 202.706 200.291 201.557 200.052C195.142 198.762 192.209 193.85 190.052 195.379C189.164 196.016 188.728 197.513 188.823 198.619C188.99 200.713 191.043 201.302 191.154 203.404C191.234 204.972 190.179 206.182 190.092 206.286C188.07 208.547 183.781 207.201 181.894 206.612C177.113 205.116 175.218 202.512 173.458 203.659C172.554 204.248 171.809 205.569 172.071 206.525C172.348 207.52 173.561 207.727 173.672 208.77C173.744 209.455 173.292 210.02 173.078 210.283C171.65 212.058 167.004 212.743 161.605 212.066C156.563 211.501 154.049 210.919 152.4 211.509C151.869 211.7 151.187 212.106 149.816 212.926C148.381 213.786 148.055 214.104 146.819 214.908C144.527 216.389 142.593 217.289 141.411 217.814C140.27 218.323 138.819 218.952 136.797 219.486C135.346 219.868 134.086 220.075 133.126 220.194C134.109 221.5 135.473 223.395 136.971 225.759C140.595 231.46 145.978 239.262 147.136 248.338C148.65 260.216 143.362 265.948 147.786 271.569C149.689 273.981 150.933 273.265 157.514 276.999C157.982 277.261 165.799 281.752 172.435 288.288C175.86 291.663 176.923 293.566 184.978 305.874C192.011 316.614 195.523 321.98 196.657 323.461C201.279 329.496 206.06 335.284 217.247 345.299C217.247 345.299 226.373 354.892 239.518 356.978C239.764 357.018 240.66 357.026 240.81 356.795C241.278 356.166 239.343 352.217 239.248 352.002C238.527 350.291 233.984 339.543 232.168 333.922C229.623 326.033 223.764 310.962 232.327 302.833C234.341 300.922 237.813 299.155 237.678 296.297C237.647 295.541 237.361 294.84 234.578 291.544C231.431 287.818 230.884 287.643 228.529 284.92C225.278 281.154 224.137 278.973 222.456 279.212C221.552 279.339 221.568 280.008 220.648 280.303C219.594 280.645 214.107 277.954 209.834 270.2C208.637 268.034 207.986 266.203 206.734 262.62C204.783 257.063 202.881 250.288 203.459 250.073C204.022 249.858 206.694 255.941 212.807 264.993C214.9 268.09 217.191 271.227 219.039 270.773C220.355 270.446 220.196 268.623 221.298 268.09C225.556 266.012 238.725 289.808 243.165 287.937C244.378 287.428 243.744 285.454 245.052 284.801C249.357 282.659 260.893 301.663 266.046 299.442C268.163 298.526 268.132 296.146 270.019 295.604C273.935 294.482 278.034 308.669 283.362 308.263C288.381 307.881 294.264 293.59 291.362 282.205C289.094 273.32 283.243 271.465 281.634 260.71C281.071 256.968 281.602 256.013 281.84 253.162C281.285 250.67 281.824 248.091 281.856 247.892C282.26 245.225 280.357 241.069 277.947 231.468C276.988 227.662 276.433 225.743 277.479 224.669C278.335 223.785 279.438 224.287 285.622 224.486C286.621 224.517 289.261 224.589 292.575 224.072C295.294 223.642 296.063 223.196 296.531 222.559C297.221 221.612 297.102 220.425 296.484 217.639C295.548 213.451 294.478 210.235 294.192 209.343L294.161 209.391Z" fill="white"/>
</svg>
