<svg width="2122" height="2122" viewBox="0 0 2122 2122" fill="none" xmlns="http://www.w3.org/2000/svg">
<circle cx="1061" cy="1061" r="1061" fill="black"/>
<path fill-rule="evenodd" clip-rule="evenodd" d="M864.22 727.991L870.749 731.949C892.854 753.398 949.297 817.33 1021.58 846.735C1044.12 855.905 1047.2 847.407 1067.04 861.168C1090.92 877.721 1120.91 893.159 1118.57 951.392L1116.31 952.699C1115.95 952.119 1114.75 954.006 1114.39 953.426C1111.11 948.152 1110.13 913.174 1076.08 886.809C1019.93 843.328 1084.28 901.687 1091.95 915.104C1114.08 953.801 1038.81 882.249 1050.75 901.574C1064.52 923.866 1119.5 940.385 1108.93 990.99C1096.9 1048.56 1005 920.508 1029.55 962.007C1055.93 1006.62 1093.87 1016.64 1100.91 1018.49C1110.3 1020.98 1101.14 1040.3 1074.6 1024.29C1025.52 994.696 988.79 927.675 1017.01 977.555C1046.32 1029.38 1091.94 1042.07 1100.17 1044.35C1127.43 1051.94 1091.06 1066.05 1064.4 1045C1000.93 994.869 1009.34 986.514 1003.25 983.157C996.366 979.366 999.361 989.013 1020.22 1016.27C1029.92 1028.93 1072.75 1065.44 1082.21 1065.87C1121.29 1067.64 1119.86 1073.94 1148.83 1099.92C1205.49 1150.72 1228.1 1125.17 1260.14 1133.47C1281.9 1139.12 1220.92 1136.63 1220.62 1140.56C1219.45 1155.83 1278.89 1142.85 1323.01 1165.21C1385.78 1197.03 1411.03 1258.51 1391.17 1233.37C1356.76 1189.85 1303.11 1165.12 1297 1166.17C1282.04 1168.73 1343.82 1195.53 1369.34 1228.8C1411.01 1283.14 1417.44 1276.38 1472.27 1317.59C1527.21 1358.89 1509.23 1379.62 1548.88 1396.02C1561.68 1401.32 1539.97 1406.61 1518.9 1383.64C1487.68 1349.6 1491.07 1345.62 1442.41 1315.29C1369.54 1269.88 1355.01 1226.76 1338.69 1212.04C1288.43 1166.68 1246.01 1158.18 1236.9 1156.36C1129.24 1134.78 1149.69 1081.52 1084.74 1079.39C1055.76 1078.44 1053.59 1057.77 1036.7 1047.25C1018.42 1035.85 1017.89 1036.25 997.867 1009.42C966.79 967.774 997.807 1031 1024.83 1053.25C1076.66 1095.92 1080.76 1088.41 1082.02 1088.51C1105.08 1090.36 1106.53 1088.58 1127.85 1107.77C1213.08 1184.5 1250.42 1140.46 1302.03 1196.1C1316.93 1212.15 1323.92 1204.25 1343.25 1230.67C1374.95 1273.99 1371.95 1278.39 1464.63 1338.52C1516.87 1372.41 1496.39 1393.2 1531.67 1414.98C1544.08 1422.64 1534.36 1424.75 1533.57 1424.71C1501.65 1423.12 1492.62 1379.6 1492.23 1378.7C1491.94 1380.17 1489.54 1380.6 1489.26 1382.06C1485.97 1399.05 1498.79 1415.42 1500.64 1417.78C1511.13 1431.18 1546.28 1443.77 1523.14 1440.45C1481.83 1434.53 1484.37 1389.08 1481.92 1371.29C1481.16 1365.76 1457.93 1351.1 1421.29 1326.03C1357.66 1282.5 1365.7 1274.38 1330.42 1230.62C1295.01 1186.68 1331.14 1277.52 1405.5 1326.04C1467.27 1366.35 1472.01 1367.01 1484.24 1423.9C1495.99 1478.54 1551.36 1439 1594.15 1452.22C1595.39 1452.6 1631.06 1463.62 1606.87 1462.25C1602.01 1461.98 1547.02 1458.85 1546.12 1465.74C1543.99 1482.09 1632.7 1439.01 1664.92 1515.86C1665.09 1516.27 1668.03 1528.92 1659.83 1518.2C1603.46 1444.48 1523.29 1522.35 1478.8 1442.19C1464.88 1417.1 1488.22 1397.64 1423.12 1356.06C1287.43 1269.41 1336.56 1213.43 1255.23 1178.28C1250.44 1176.22 1250.75 1182.02 1257.67 1185.45C1262.96 1188.07 1292.22 1202.57 1306.57 1240.72C1334.13 1313.99 1358.66 1316.25 1432.93 1372.64C1473.27 1403.27 1465.63 1439.78 1471.65 1452.34C1498.68 1508.82 1570.28 1481.33 1614.51 1498.55C1654.81 1514.23 1679.92 1576.45 1664.49 1558.5C1621.63 1508.64 1603.07 1502.86 1546.73 1506.1C1461.7 1511 1455.88 1428.58 1451.29 1419.19C1443.12 1402.49 1408.43 1369.03 1405.79 1371.79C1398.14 1379.77 1434.06 1401 1447.32 1431.76C1450.4 1438.9 1433.38 1445.47 1403.31 1391.92C1377.36 1345.7 1375.76 1346.78 1336.98 1310.77C1315.47 1290.8 1333.78 1321.26 1334.16 1321.5C1398.89 1361.3 1398.67 1426.05 1434.25 1444.15C1453.93 1454.17 1452.28 1484.53 1489.46 1504.41C1519.3 1520.37 1545.6 1514.38 1557.21 1513.87C1629.69 1510.64 1663.14 1576.35 1663.71 1594.38C1664.2 1609.52 1654.8 1579.22 1640.71 1563.58C1602.59 1521.25 1557.65 1538.09 1557.18 1538.1C1545.17 1538.25 1557.23 1526.73 1557.24 1526.39C1558.44 1505.22 1495.45 1580.97 1436.04 1455.71C1432.7 1448.67 1411.01 1454.64 1387.27 1405.29C1363.49 1355.86 1343.15 1352.85 1321.26 1326.6C1305.57 1307.78 1310.81 1192.87 1218.65 1186.86C1142.93 1181.93 1153.4 1155.59 1112.92 1128.4C1083.17 1108.41 1061.58 1134.62 1036.22 1078.08C1025.92 1055.12 1011.15 1067.73 980.894 1021.41C980.34 1020.56 954.226 980.582 970.438 1014.23C990.178 1055.21 1013.27 1067.79 1018.47 1070.62C1026.33 1074.91 1037.07 1126.21 1084.75 1129.25C1114.19 1131.13 1115.72 1139.77 1134.98 1158.44C1189.98 1211.76 1223.89 1179.9 1259.51 1207.22C1309.23 1245.37 1290.25 1304.54 1324.78 1344.12C1334.05 1354.73 1341.63 1347.84 1353.89 1374.68C1363.85 1396.49 1368.91 1393.1 1380.79 1413.8C1384.1 1419.56 1396.6 1451.74 1396.13 1452.52C1393.89 1456.21 1389.99 1454.8 1364.58 1408.8C1340.59 1365.35 1323.21 1360.38 1303.84 1328.7C1287.5 1302 1294.07 1212.48 1213.39 1205.51C1164.53 1201.28 1162.66 1200.36 1128.92 1164.48C1099.81 1133.53 1088.23 1142.26 1079.41 1140.73C1025.11 1131.35 1021.17 1106.03 1012.95 1085.77C1007.88 1073.28 986.286 1065.23 967.635 1034.61C966.882 1033.37 944.372 996.408 954.392 1022.22C968.058 1057.42 990.567 1074.77 994.943 1078.14C1015.05 1093.64 1002.77 1143.98 1087.27 1149.5C1111.04 1151.05 1121.03 1168.73 1134.73 1182.33C1182.16 1229.41 1216.35 1200.44 1246.54 1223.07C1302.58 1265.1 1265.44 1322.14 1327.15 1373.21C1352.61 1394.28 1291.51 1378.77 1278.77 1308.54C1264.72 1231.15 1241.56 1226.04 1189.63 1222.62C1138.17 1219.23 1141.92 1193.29 1106.54 1168.24C1084.69 1152.76 1012.4 1171.77 997.124 1103.95C992.769 1084.61 973.623 1088.21 942.319 1028.05C932.917 1009.98 935.158 1036.81 956.723 1066.53C967.162 1080.91 968.47 1079.65 978.773 1093.95C987.102 1105.52 993.202 1163.77 1071.54 1169.7C1116.14 1173.09 1112.18 1183.6 1143.22 1215.92C1176.28 1250.36 1215.62 1230.52 1233.91 1240.99C1294.73 1275.78 1245.32 1358.7 1334.88 1396.93L1334.31 1400.64C1324.39 1409.26 1356.28 1438.71 1341.96 1434.42C1338.78 1433.47 1341.67 1429.09 1308.17 1410.33C1285.93 1397.87 1251.36 1353.71 1284.9 1383.39C1287.62 1385.8 1307.41 1403.32 1323.72 1407.03C1392.49 1422.64 1275.72 1399.39 1266.24 1329.4C1265.29 1322.38 1265.07 1268.76 1229.12 1250.61C1214.48 1243.22 1163.94 1263.69 1130.87 1217.36C1085.72 1154.13 1058.59 1199.83 996.182 1157.87C943.041 1122.13 910.302 1049.54 905.373 1038.61C890.57 1005.78 900.081 1077.56 966.939 1145.37C1028.53 1207.84 1086.74 1166.59 1115.03 1212.11C1139.29 1251.14 1146.45 1256.09 1215.97 1257.66C1257.57 1258.6 1266.11 1342.9 1252.88 1329.29C1251.08 1327.43 1247.26 1270.65 1218.61 1268.72C1206.54 1267.9 1156.77 1272.31 1122.39 1241.83C1112.74 1233.27 1114.86 1232.01 1107.47 1217.07C1101.95 1205.91 1082.06 1198.27 1079.5 1197.28C1074.3 1196.53 1074.63 1196.75 1069.05 1197.33C1035.56 1195.61 972.352 1202.44 896.925 1066.29C885.123 1044.98 876.277 1016.55 879.658 1040.73C882.417 1060.46 933.82 1158 985.207 1184.61C1038.22 1212.08 1056.34 1193.74 1065.81 1224.68C1074.45 1252.87 1077.17 1272.99 1118.65 1285.19C1119.26 1286 1119.87 1286.82 1120.48 1287.63C1116.39 1293.38 1115.21 1290.87 1108.41 1289.25C1059.65 1277.63 1062.9 1222.69 1047.6 1217.68C976.925 1194.56 934.169 1190.78 906.761 1153.21C853.566 1080.3 834.781 1011.37 838.44 1040.78C841.945 1068.95 903.551 1173.38 914.565 1178.76C964.17 1202.98 989.533 1201.24 1034.7 1224.71C1042.23 1228.62 1047.25 1221.1 1048.61 1229.63C1052.5 1254.03 1077.37 1300.93 1124.06 1303.24C1125.16 1303.3 1151.51 1304.6 1134.89 1311.74C1125.76 1315.66 1077.25 1314.8 1051.48 1263.4C1040.91 1242.32 1042.92 1233.9 1034.59 1239.92C1028.33 1244.44 996.996 1215.56 997.841 1227.15C998.665 1238.45 1024.85 1224.9 1050.18 1277.08C1063.49 1304.52 1024.77 1247.07 984.566 1233.26C838.537 1183.09 850.733 1145.69 841.005 1154.17C836.831 1157.81 866.654 1194.05 924.992 1218.19C951.441 1229.14 1040.23 1243.5 1056.46 1324.13C1067.93 1381.11 1029.69 1390.06 1067.45 1436.16C1120.91 1501.42 1189.36 1499.86 1188.17 1560.55C1187.75 1581.59 1147.1 1636.39 1242.65 1680.31C1244.06 1680.96 1328.77 1706.3 1308.28 1783.77C1304.22 1799.1 1294.45 1807.8 1296.96 1796.75C1324.94 1673.65 1165.59 1707.97 1167.27 1607.77C1167.86 1572.52 1197.52 1546.14 1139.06 1509.17C1128.04 1502.2 1101.14 1482.91 1105.38 1495.01C1109.52 1506.82 1175.45 1518.52 1164.83 1570.78C1147.03 1658.37 1166.34 1662.46 1239.23 1700.35C1339.67 1752.57 1263.17 1843.24 1274.67 1810.14C1307.68 1715.17 1199.48 1715.72 1161.81 1664.71C1115.2 1601.6 1177.03 1559.01 1137.07 1526.52C1136.05 1525.69 1114.79 1508.41 1121.59 1521.07C1129.72 1536.2 1142.96 1549.29 1132.51 1607.85C1132 1610.74 1125.09 1649.42 1118.87 1641.85C1109.36 1630.25 1167.9 1564.76 1086.23 1493.45C1040.09 1453.16 1004.76 1446.47 1022.94 1403.71C1051.17 1337.31 995.284 1267.79 961.429 1260.63C955.006 1259.28 923.354 1252.58 885.698 1228.99C872.925 1220.99 875.127 1211.05 881.923 1215.2C953.909 1259.14 974.959 1237.75 1013.15 1288.01C1069.07 1361.61 1013.91 1413.7 1034.97 1437C1041.06 1443.75 1105.2 1493.72 1063.83 1450.14C1014.32 1397.98 1071.49 1378.72 1036.96 1308.75C1004.21 1242.41 954.825 1247.24 885.835 1210.1C836.653 1183.63 822.835 1141.61 822.013 1156.25C821.564 1164.22 859.679 1203.65 859.679 1203.83C859.787 1212.38 829.04 1192.24 809.754 1160.44C809.403 1159.86 799.018 1142.73 802.323 1156.3C806.846 1174.87 847.714 1211.36 824.885 1198.09C799.055 1183.07 784.161 1143.68 783.431 1156.38C783.187 1160.62 796.768 1182.5 802.297 1189.68C821.086 1214.08 794.348 1192.94 793.842 1192.44C779.974 1178.81 750.702 1131.5 764.478 1161.49C780.302 1195.94 816.107 1228.68 785.557 1205.91C766.87 1191.98 737.517 1135.85 745.922 1161.52C751.553 1178.72 786.003 1217.03 765.234 1202.24C748.353 1190.22 735.049 1161.54 733.304 1158.31C720.727 1135.04 730.235 1163.63 730.437 1164.1C731.073 1165.62 744.841 1198.28 733.606 1184.34C713.086 1158.88 679.457 1145.32 717.388 1127.81C738.903 1117.88 739.318 1119.17 759.777 1107.57C769.224 1102.21 807.919 1126.62 861.238 1146.57C874.287 1151.46 899.235 1170.93 886.861 1154.21C819.742 1063.48 823.179 1016.94 817.74 1035.73C817.653 1036.02 826.688 1075.61 831.358 1087.58C835.17 1097.35 850.15 1122.24 840.527 1116.96C836.482 1114.73 814.395 1074.51 807.376 1048.3C807.182 1047.57 793.416 1005.12 799.333 1043.29C799.761 1046.04 817.852 1106.92 797.141 1066.29C781.244 1035.11 787.57 1033.01 781.008 1018.92C771.975 999.526 777.301 1031.75 777.488 1032.89C780.089 1048.63 784.31 1052.85 777.443 1052.12C768.529 1051.17 766.518 1009.23 756.241 1014.27C753.293 1015.71 776.443 1062.18 753.414 1038.7C730.12 1014.95 687.277 1029.16 706.802 1030.02C723.573 1030.76 724.143 1028 738.929 1035.45L741.189 1038.47C731.852 1037.38 720.289 1032.76 703.143 1039.89C702.665 1040.09 676.591 1054.59 701.447 1046.14C757.911 1026.94 767.578 1079 756.231 1095.68C740.47 1118.85 709.251 1097.24 708.899 1097.09C676.583 1083.79 637.573 1124.17 609.727 1108.87C611.659 1107.09 610.514 1104.58 614.782 1105.77C639.387 1112.66 673.758 1077.87 714.514 1086.2C715.514 1086.4 753.298 1094.12 727.056 1083.78C677.911 1064.4 668.708 1101.51 607.299 1100.38C570.835 1087.3 592.291 1070.86 610.913 1008.87C649.871 879.201 649.175 870.985 669.981 871.505C689.802 872.001 694.939 862.772 704.872 880.17C713.383 895.08 731.424 887.344 753.073 925.761C773.327 961.703 788.145 985.824 843.06 981.894C884.625 978.92 970.344 932.484 903.475 958.563C851.025 979.017 832.542 973.016 841.953 968.921C848.764 965.958 850.728 971.525 929.47 937.881C951.302 928.554 925.223 933.704 924.766 933.896C834.361 971.706 823.215 963.795 828.62 957.993C834.151 952.056 839.992 964.992 923.128 921.117C924.918 920.172 949.176 907.37 942.676 905.045C941.997 904.8 889.071 935.124 840.569 949.289C808.08 958.776 847.764 943.007 874.096 922.07C880.813 916.728 872.964 916.006 872.2 914.817C871.395 913.565 906.11 890.4 897.046 904.05C896.592 904.732 886.362 920.136 895.463 914.161C896.345 913.581 896.227 913.55 905.758 905.903C911.019 909.297 910.909 909.662 911.442 909.567C911.442 909.567 919.109 905.801 919.776 905.472C933.266 898.364 933.2 898.445 934.347 897.797C963.64 881.236 993.481 850.431 994.964 846.368C997.56 839.262 983.464 849.258 982.626 849.851C980.739 847.888 978.854 845.922 976.967 843.958C945.732 842.144 944.727 841.359 944.64 838.742C944.535 835.516 983.794 837.593 964.816 832.266C957.117 830.103 956.914 831.618 866.943 811.878C740.047 784.037 728.072 809.964 729.736 799.068C729.933 797.79 765.898 779.383 782.738 775.343C852.004 758.732 861.593 779.026 861.908 767.786C862.107 760.74 814.277 759.205 795.871 762.037C739.318 770.736 726.922 784.515 733.7 773.451C736.378 769.077 780.869 751.474 827.476 753.178C858.6 754.317 862.813 756.128 860.543 752.59C853.209 741.153 753.285 752.844 774.839 744.019C777.981 742.733 798.244 742.709 817.238 737.215C833.49 732.514 843.591 727.159 864.22 727.991Z" fill="#53994F"/>
<path fill-rule="evenodd" clip-rule="evenodd" d="M1555.61 986.527C1568.39 981.865 1591.5 982.411 1616.82 950.932C1631.83 932.263 1635.61 929.452 1630.63 928.932C1620.62 927.887 1593.91 989.226 1515.24 972.129C1491.6 966.992 1533.87 982.584 1545.46 1038.57C1549.93 1060.16 1551.02 1036.05 1550.95 1035.55C1545.39 995.988 1541.3 990.971 1548.54 991.848C1574.14 1035.99 1540.42 1084.37 1599.32 1097.97C1606 1099.51 1666.22 1113.41 1675.09 1137.93C1682.58 1158.66 1657.94 1113.81 1609.71 1114.88C1592.16 1115.27 1568.21 1122.38 1534.44 1082.12C1511.62 1054.93 1519.17 1016.1 1462 978.844C1391.35 932.807 1275.78 1033.69 1236.8 930.562C1224.72 898.624 1219.05 870.29 1218.93 893.815C1218.91 897.86 1230.91 949.068 1250.49 969.48C1291.9 1012.64 1373.97 962.585 1426.07 974.552C1523.66 996.967 1490.42 1106.48 1591.15 1122.87C1592.27 1123.05 1653.14 1117.68 1682.09 1169.62C1697.25 1196.81 1670.86 1147.26 1617.45 1141.54C1538.18 1133.06 1528.58 1121.88 1493.65 1051.52C1442.37 948.244 1327.42 1001.52 1312.97 1002.89C1214.88 1012.24 1232.53 915.447 1221.89 943.79C1220.64 947.115 1232.14 1014.12 1294.69 1011.91C1354.16 1009.81 1434.24 946.74 1491.12 1064.59C1548.44 1183.35 1615.58 1119.95 1661.04 1173C1683.22 1198.88 1682.94 1214.18 1675.85 1205.49C1610.59 1125.48 1552 1198.03 1490.21 1089.91C1461.72 1040.06 1450.2 986.7 1331.77 1020.94C1199.08 1059.31 1214.14 923.404 1197.1 883.475C1186.87 859.488 1153.7 820.761 1173.54 834.251C1177.35 836.842 1174.81 839.627 1217.68 871.255C1226.86 878.028 1223.19 883.294 1234.49 885.063C1252.43 887.869 1269.37 959.062 1363.16 931.218C1456.77 903.428 1474.1 964.887 1517.8 965.527C1604.26 966.79 1615.08 899.818 1656.75 920.401C1679.89 931.827 1696.77 979.91 1674.47 949.903C1650.42 917.553 1629.23 950.405 1627.17 953.594C1623.94 958.602 1603.82 989.774 1562.48 990.509C1558.15 990.585 1557.78 990.848 1555.61 986.527Z" fill="#53994F"/>
<path fill-rule="evenodd" clip-rule="evenodd" d="M771.771 1277.31L769.749 1279.66C766.045 1279.56 762.344 1279.45 758.64 1279.34C754.981 1281.24 755.01 1280.91 754.981 1281.24C754.871 1282.5 756.895 1280.52 756.764 1282C793.692 1293.16 816.235 1297.74 815.248 1329.46C814.422 1356.06 837.149 1460.57 902.658 1511.76C903.307 1512.26 918.13 1523.85 903.606 1521.99C890.142 1520.28 926.089 1560.29 920.277 1620.98C915.455 1671.34 858.23 1713.38 886.819 1675.44C918.755 1633.06 914.589 1556.14 868.838 1492.7C822.389 1428.28 804.153 1392.07 806.016 1324.33C806.725 1298.56 775.677 1372.26 839.126 1465.21C839.464 1465.71 897.794 1531.08 899.115 1605.11C900.69 1693.38 790.248 1704.71 812.482 1773.02C824.171 1808.94 793.149 1763.68 800.848 1736.28C817.842 1675.83 952.707 1663.53 851.518 1499.82C825.735 1458.11 783.943 1430 787.917 1324.27C789.487 1282.49 763.73 1367.15 798 1434.78C818.821 1475.86 937.909 1597.83 844.704 1674.74C808.355 1704.74 770.715 1721.48 793.346 1781C800.751 1800.47 749.038 1749.48 793.734 1702.65C834.626 1659.82 907.394 1650.53 844.656 1526.97C820.674 1479.73 754.595 1429.08 771.666 1313.98C771.088 1313.65 770.511 1313.33 769.933 1313C766.048 1314.33 760.158 1316.35 761.405 1363.63C764.334 1474.88 832.602 1478.84 860.343 1587C885.184 1683.86 730.212 1666.76 766.279 1775.82C774.159 1799.64 726.715 1742.84 765.035 1700.13C807.977 1652.25 874.327 1648.4 845.339 1571.17C810.232 1477.65 749.689 1462.27 750.338 1353.14C750.448 1334.57 758.858 1294.81 750.771 1310.48C747.558 1316.7 738.018 1357.07 744.704 1397.59C751.574 1439.2 773.304 1472.87 756.582 1452.86C719.074 1407.95 737.879 1319.89 740.305 1308.53C751.178 1257.62 702.573 1370.17 739.024 1444.68C739.318 1445.28 751.632 1470.45 736.016 1452.42C730.487 1446.04 702.828 1397.33 721.825 1318.93C722.043 1318.04 735.727 1260.67 718.898 1307.8C694.598 1375.85 717.638 1444.81 717.294 1445.11C709.125 1452.27 684.76 1376 710.104 1305.9C720.903 1276.03 671.611 1339.42 699.302 1439.74C706.471 1465.71 681.946 1430.38 682.439 1374.13C682.849 1327.58 706.573 1272.3 686.847 1314.43C683.151 1322.33 665.967 1380.33 682.292 1434.72C690.062 1460.61 693.685 1464.16 688.275 1463.59C682.917 1463.03 663.846 1410.96 666.899 1371.49C668.868 1346.04 677.436 1314.02 670.406 1322.44C669.062 1324.05 643.875 1382.89 674.383 1461.09C678.247 1470.98 692.401 1498.49 683.088 1494.83C681.324 1494.14 602.461 1350.78 690.241 1294.26C741.956 1260.97 765.93 1274.11 771.771 1277.31Z" fill="#53994F"/>
<path fill-rule="evenodd" clip-rule="evenodd" d="M1586 611.829C1625.23 605.865 1625.07 613.601 1664.9 614.601C1672.45 614.79 1691.63 636.659 1654.24 670.553C1607.37 713.039 1587.85 697.533 1592.63 710.296C1600.7 731.831 1543.72 724.276 1507.08 705.211C1461.85 681.681 1466.32 675.465 1462.31 673.685C1449.34 667.92 1449.86 667.548 1436.89 656.964C1416.14 640.027 1467.5 657.134 1538.81 660.318C1590.76 662.636 1635.15 649.852 1638.07 646.608C1649.25 634.16 1618.64 655.008 1549.36 653.735C1512.58 653.06 1422.75 637.72 1421.45 635.995C1418.51 632.11 1418.04 627.078 1471.11 600.796C1552.49 560.49 1569.48 592.184 1569.78 599.77C1570.25 612.118 1573.69 611.556 1586 611.829Z" fill="#53994F"/>
<path fill-rule="evenodd" clip-rule="evenodd" d="M945.884 394.818C946.855 396.881 945.8 396.894 946.766 398.947C948.543 402.714 947.801 397.787 950.688 394.545C966.244 397.49 985.078 459.506 984.648 467.58C966.63 461.968 844.475 330.264 880.467 378.932C886.638 387.279 888.378 385.541 971.378 471.513C1000.44 501.616 872.408 500.729 845.667 471.248C831.854 456.02 831.797 456.403 816.482 442.601C818.48 437.466 824.365 422.346 805.127 374.682C800.457 363.105 796.233 367.578 796.601 368.77C801.087 383.386 802.334 382.659 806.423 397.632C815.59 431.201 813.167 436.458 811.752 439.524C789.497 419.301 790.287 417.839 789.602 405.573C787.544 368.81 773.545 346.71 775.078 360.893C775.141 361.486 782.664 390.818 783.063 405.562C783.389 417.553 774.889 401.176 774.522 400.47C771.758 395.144 767.214 398.588 730.125 340.003C729.813 339.512 708.66 314.559 722.862 339.662C786.237 451.691 843.173 461.624 833.684 471.744C831.101 474.5 830.505 472.479 816.417 467.15C707.427 425.853 707.836 371.545 708.204 318.885C708.374 294.501 721.604 307.182 722.644 308.177C723.644 309.135 753.732 329.18 753.978 329.23C760.331 330.479 761.788 317.997 769.474 324.418C782.73 335.496 787.416 353.813 790.356 351.989C818.732 334.372 830.726 442.714 833.369 447.2C865.187 501.183 952.308 485.121 952.373 484.48C952.801 480.327 870.481 470.841 857.007 436.729C846.68 410.581 839.393 398.485 859.068 395.997C867.344 394.952 872.408 397.448 869.885 389.628C869.072 387.108 858.233 353.501 874.448 356.84C892.676 360.593 901.228 379.606 912.295 369.783C918.464 364.313 925.955 371.805 928.641 377.364C930.678 381.585 931.234 382.357 935.424 380.223C941.852 376.95 945.826 394.645 945.884 394.818Z" fill="#53994F"/>
<path fill-rule="evenodd" clip-rule="evenodd" d="M1579.37 416.453C1577.08 426.948 1572.66 454.466 1540.24 507.197C1505.6 563.524 1408.59 564.763 1375.95 580.988C1367.78 585.047 1369.08 579.91 1369.33 579.427C1371.7 574.872 1372.64 575.891 1399.2 562.104C1412.65 555.119 1501.02 478.091 1514.66 465.336C1552.29 430.138 1586.57 373.333 1562.47 400.289C1538.42 427.192 1546.07 435.227 1421.05 534.589C1406.25 545.89 1407.25 546.955 1391.13 556.463C1375.18 565.868 1382.96 551.203 1384.69 547.619C1409.53 496.012 1403.88 476.28 1431.7 445.347C1448.87 426.253 1452.47 432.206 1457.87 436.448C1467.25 443.822 1494.19 404.09 1507.31 404.628C1515.7 404.974 1515.15 403.389 1522.87 399.89C1527.16 397.945 1531.55 396.223 1535.82 394.23C1564.6 380.814 1570.32 371.487 1578.3 376.483C1591.52 384.767 1580.35 412.689 1579.37 416.453Z" fill="#53994F"/>
<path fill-rule="evenodd" clip-rule="evenodd" d="M672.533 452.767L675.491 455.697C660.473 458.094 658.68 458.771 657.292 459.298C639.101 466.181 638.539 461.454 623.458 448.93C571.089 405.439 632.908 475.164 664.518 487.299C665.492 487.675 691.587 497.694 669.821 499.217C625.75 502.299 586.8 453.09 581.705 446.654C533.864 386.211 516.762 388.208 509.328 332.07C503.175 285.597 542.288 317.863 551.979 311.214C587.144 287.083 614.678 369.004 626.865 352.227C628.797 349.568 642.875 330.19 666.078 364.515C672.275 373.681 675.304 362.696 676.081 361.63C688.863 344.087 704.547 383.882 707.626 415.899C711.755 458.808 746.182 482.099 722.788 467.633C687.264 445.669 698.893 414.49 683.613 378.422C670.913 348.447 690.233 423.577 686.878 427.714C678.56 437.976 658.722 378.202 657.599 375.403C633.509 315.396 659.418 398.209 660.011 400.105C671.094 435.534 709.65 459.986 685.786 452.219C635.276 435.776 657.709 404.651 638.98 370.534C627.167 349.022 647.498 420.624 645.379 425.801C644.82 427.171 643.311 428.843 628.811 417.54C598.613 394.004 612.139 383.664 570.803 330.757C543.724 296.094 580.043 353.524 581.185 355.327C582.274 357.049 602.902 389.662 588.333 379.766C562.555 362.26 533.996 334.716 533.408 334.884C521.222 338.415 578.773 379.729 605.999 406.504C642.943 442.834 646.802 437.283 672.533 452.767Z" fill="#53994F"/>
<path fill-rule="evenodd" clip-rule="evenodd" d="M1330 1552.55C1338.19 1623.15 1440.07 1642.62 1452.1 1644.92C1462.17 1646.84 1528.2 1659.46 1559 1715.59C1575.59 1745.83 1538.82 1680.25 1455.02 1659.49C1288.39 1618.2 1335.34 1554.05 1307.27 1492.49C1292.86 1460.91 1220.12 1372.57 1229.51 1355.96C1235.91 1344.64 1237.81 1399.98 1296.74 1432.97C1375.99 1477.33 1336.26 1522.45 1361.39 1562.48C1418.15 1652.95 1489.41 1585.72 1554.19 1678.79C1574.07 1707.35 1527.61 1653.5 1478.24 1639.95C1413.19 1622.09 1353.8 1626.68 1339.78 1521.06C1337.5 1503.93 1332.15 1475.99 1304.18 1448.91C1282.35 1427.77 1313.72 1472.41 1314.69 1474.37C1326.7 1498.45 1327.28 1521.02 1330 1552.55Z" fill="#53994F"/>
<path fill-rule="evenodd" clip-rule="evenodd" d="M864.22 727.991C883.343 713.782 971.265 736.656 984.004 757.638C986.288 761.399 990.955 769.085 1030.21 787.463C1061.65 802.181 1108.37 794.107 1119.93 789.826C1120.38 789.658 1144.3 777.995 1121.48 783.993C1042.39 804.775 1001.94 759.546 967.433 737.835C902.283 696.843 893.578 706.687 853.799 706.789C848.076 706.805 851.329 700.943 859.144 700.192C920.374 694.307 965.839 721.339 990.819 737.948C1072.83 792.464 1087 780.066 1174.21 752.897C1251.24 728.905 1317.76 769.401 1333.08 820.509C1333.39 821.551 1349.96 890.374 1330.64 833.899C1302.11 750.519 1202.48 757.312 1160.39 780.116C1068.24 830.038 1024.23 801.52 968.929 760.234C925.249 727.626 893.14 732.58 877.201 729.942C873.731 729.367 874.24 730.863 870.749 731.95L864.22 727.991Z" fill="#53994F"/>
<path fill-rule="evenodd" clip-rule="evenodd" d="M560.497 586.167C576.061 607.346 535.429 671.782 467.822 671.968C459.33 671.994 414.474 668.031 414.049 657.518C413.322 639.591 481.18 549.575 560.497 586.167Z" fill="#53994F"/>
<path fill-rule="evenodd" clip-rule="evenodd" d="M1517.49 812.337C1513.7 818.167 1504.91 831.66 1434.9 785.063C1375.65 745.631 1351.18 686.789 1369.98 728.306C1373.81 736.758 1402.9 771.285 1421.06 782.887C1421.16 782.953 1476.32 812.177 1452.39 816.067C1443.97 817.438 1407.93 807.909 1372.12 766.557C1335.37 724.114 1338.33 721.924 1300.16 680.922C1298.15 678.762 1271.94 650.603 1281.42 649.102C1282.14 648.989 1305.31 659.549 1306 639.158C1306.81 614.769 1265.24 611.023 1278.92 607.598C1291.54 604.432 1337.75 634.701 1303.44 663.796C1298.4 668.073 1309.55 688.813 1317.07 677.378C1332.07 654.572 1462.14 785.757 1478.55 796.448C1494.62 806.919 1495.48 804.622 1517.49 812.337Z" fill="#53994F"/>
<path fill-rule="evenodd" clip-rule="evenodd" d="M1455.17 711.923C1475.94 733.724 1475.42 733.782 1495.05 756.493C1535.79 803.638 1547.54 792.28 1599.66 761.053C1624.29 746.295 1566.74 804.793 1538.9 807.746C1469.21 815.143 1445.46 720.696 1326.09 662.914C1315.23 657.657 1321.5 644.531 1331.34 645.453C1414.31 653.239 1444.42 711.858 1453.39 727.237C1460.32 737.916 1467.16 751.172 1464.18 738.743C1461.08 725.825 1459.09 726.883 1452.35 715.278L1455.17 711.923Z" fill="#53994F"/>
<path fill-rule="evenodd" clip-rule="evenodd" d="M786.507 607.745C785.478 606.548 787.733 606.343 786.694 605.131C782.932 600.755 782.032 602.802 781.898 602.38C780.677 598.495 782.42 594.213 781.984 590.166C781.824 588.664 781.273 587.026 780.139 586.031C776.173 582.543 772.768 644.92 781.496 615.505C783.032 610.328 784.793 611.953 786.274 610.357C785.854 612.885 782.864 648.997 769.39 654.153C750.592 661.348 755.837 667.876 729.828 691.018C715.569 703.707 721.927 653.436 716.659 647.506C706.405 635.959 736.128 558.92 757.764 538.033C771.201 525.06 850.429 492.943 864.186 492.127C886.184 490.822 859.194 496.39 841.338 508.951C782.024 550.675 766.578 567.003 739.504 638.72C739.323 639.201 732.199 667.083 742.982 644.099C765.534 596.038 761.772 593.599 797.493 554.127C811.791 538.33 803.116 559.004 802.753 559.485C786.384 581.141 788.053 594.954 786.507 607.745Z" fill="#53994F"/>
<path fill-rule="evenodd" clip-rule="evenodd" d="M1025.21 418.839C1015.84 447.187 1016.62 447.329 1015.67 449.733C1011.01 461.532 954.345 394.8 963.532 368.631C969.963 350.306 964.978 350.135 960.445 326.894C957.027 309.361 1003.3 342.924 1008.31 341.72C1027.52 337.113 1036.13 362.672 1052.7 387.434C1070.1 413.442 1041.82 438.535 1074.28 449.56C1080.07 451.529 1129.01 468.155 1129.3 502.622C1113.32 492.962 1116.26 482.808 1108.56 480.957C1096.24 477.996 1091.94 458.569 1087.35 460.393C1086.07 460.897 1085.71 462.787 1084.44 463.291C1080.19 459.708 1078.31 455.713 1066.84 456.243C1060.42 446.412 1056.35 450.909 1050.47 442.328C1044.98 434.316 1037.97 411.356 1033.86 406.788C1031.28 403.924 1030.25 411.579 1025.21 418.839Z" fill="#53994F"/>
<path fill-rule="evenodd" clip-rule="evenodd" d="M976.673 604.676C971.922 619.219 964.671 657.468 921.824 647.532C907.378 644.183 917.009 632.415 908.772 631.514C908.192 631.451 860.963 646.395 883.614 616.339C891.854 605.406 898.023 603.721 888.297 594.132C884.969 590.85 879.351 578.361 937.547 562.687C1004.82 544.569 923.194 560.361 921.965 560.629C920.498 560.949 895.952 566.301 903.449 557.644C905.929 554.78 907.612 558.295 948.032 541.613C977.6 529.41 1026.1 526.212 1013.3 538.865C1012.22 539.928 934.662 545.378 955.631 550.557C960.151 551.672 1022.92 539.18 988.016 556.006C947.827 575.379 952.016 591.74 922.199 597.888C921.624 598.006 890.247 609.913 919.28 604.637C932.051 602.316 933.363 605.634 943.055 597.261C962.322 580.61 1042.4 530.208 1006.42 566.065C981.771 590.622 992.861 614.176 981.768 608.259C981.24 601.146 981.33 601.18 981.198 600.576C980.167 595.812 978.82 600.23 976.673 604.676Z" fill="#53994F"/>
<path fill-rule="evenodd" clip-rule="evenodd" d="M869.436 540.823C868.73 539.479 861.314 525.346 858.763 525.134C856.889 524.979 855.91 526.924 866.312 547.415C877.374 569.2 863.834 621.038 850.565 630.598C843.155 635.94 840.254 632.711 836.718 641.277C826.785 665.338 827.021 665.343 826.142 667.419C811.576 701.899 806.41 668.871 805.546 662.883C789.04 548.528 828.675 536.463 854.437 516.891C858.204 514.027 885.795 533.237 869.436 540.823Z" fill="#53994F"/>
<path fill-rule="evenodd" clip-rule="evenodd" d="M1174.03 537.019C1213.9 536.442 1224.67 568.533 1225.8 571.144C1233.69 589.365 1270.69 587.183 1250.39 618.345C1239.01 635.806 1280.7 649.684 1270.68 665.154C1263.08 676.872 1245.19 660.885 1244.61 660.534C1233.84 654.076 1226.62 675.205 1221.17 678.478C1196.53 693.267 1205.03 635.268 1199.68 626.293C1187.64 606.078 1190 605.254 1188.82 581.469C1187.75 559.77 1172.83 564.314 1172.75 542.545C1172.3 541.524 1171.86 540.503 1171.41 539.482L1174.03 537.019Z" fill="#53994F"/>
<path fill-rule="evenodd" clip-rule="evenodd" d="M1059.87 1392.65C1059.9 1390.34 1060.29 1366.65 1063.95 1364.18C1075.29 1356.54 1053.15 1431.77 1160.46 1482.56C1205.61 1503.94 1212.22 1545.98 1204.61 1573.4C1181.63 1656.2 1259.5 1658.03 1285.98 1677.06C1357.31 1728.33 1314.07 1823.49 1319.05 1773.17C1326.17 1701.25 1259.25 1682.06 1239.2 1671.43C1165.97 1632.64 1194.57 1581.1 1195.99 1571.2C1209.31 1478.14 1085.81 1501.75 1059.87 1392.65Z" fill="#53994F"/>
<path fill-rule="evenodd" clip-rule="evenodd" d="M1140.19 596.452C1142.29 600.836 1132.04 648.178 1145.78 610.711C1152.81 591.528 1158.27 593.675 1161.2 573.657C1162.84 562.471 1177.82 588.858 1150.91 628.994C1150.24 629.992 1136.41 650.614 1147.28 643.547C1152.08 640.426 1170.34 611.556 1172.71 596.864C1177.76 565.574 1157.98 545.296 1170.96 556.179C1182 565.427 1193.56 654.462 1176.35 659.31C1161.17 663.586 1187.28 681.615 1173.47 690.997C1158.56 701.124 1154.73 688.086 1148.15 694.659C1135.54 707.256 1120.64 700.52 1118.38 686.476C1117.45 680.717 1118.84 673.107 1111.61 667.086C1104 660.759 1114.43 624.684 1134.97 600.096C1136.71 598.883 1138.45 597.667 1140.19 596.452Z" fill="#53994F"/>
<path fill-rule="evenodd" clip-rule="evenodd" d="M1402.02 1039.22C1361.83 1031.41 1361.05 1039.18 1358.28 1037.03C1343.67 1025.7 1431.28 989.286 1473.49 1072.1C1507.79 1139.41 1519.87 1152.42 1601.65 1170.02C1669.12 1184.54 1685.72 1265.92 1671.05 1242.02C1629.32 1174.02 1576.95 1187.96 1536.51 1166.2C1454.13 1121.87 1492.25 1072.59 1402.02 1039.22Z" fill="#53994F"/>
<path fill-rule="evenodd" clip-rule="evenodd" d="M1112.41 1581.56C1111.28 1573.8 1105.28 1532.56 1060.21 1498.61C997.365 1451.27 990.357 1445.67 1004.87 1400.08C1018.7 1356.63 999.161 1307.33 965.724 1283.41C950.176 1272.29 904.69 1267.68 880.498 1242.43C865.614 1226.89 901.346 1245.78 902.963 1246.64C959.059 1276.3 970.856 1259.88 999.62 1301.34C1039.37 1358.65 1011.63 1414.35 1011.1 1416.1C997.326 1461.44 1075.24 1470.68 1112.59 1542.6C1133.08 1582.05 1107.64 1640.72 1102.32 1646.15C1083.34 1665.46 1108.5 1636.73 1112.41 1581.56Z" fill="#53994F"/>
<path fill-rule="evenodd" clip-rule="evenodd" d="M884.039 1413.35C887.528 1397.1 888.016 1397.52 893.418 1382.11C895.81 1375.29 880.679 1364.45 876.729 1342.75C865.544 1281.28 854.959 1285.79 830.124 1263.83C829.647 1263.41 827.426 1255.59 837.766 1261.64C882.9 1288.02 886.572 1340.99 890.673 1353.05C896.146 1369.14 907.207 1365.27 904.113 1358.21C902.742 1355.08 893.035 1332.92 895.655 1316.37C899.204 1293.96 906.955 1346.63 908.73 1347.99C915.657 1353.32 918.605 1314.76 922.398 1331.91C927.152 1353.4 913.738 1374.16 915.222 1375.72C919.637 1380.34 928.725 1359.63 929.961 1358.77C932.205 1357.2 942.138 1363.08 917.618 1390.71C850.011 1466.89 994.029 1542.66 1011.09 1584.17C1016.81 1598.1 1010.25 1602.05 1008.26 1597.54C974.846 1521.58 878.036 1514.08 884.039 1413.35Z" fill="#53994F"/>
<path fill-rule="evenodd" clip-rule="evenodd" d="M1101.69 1594.8C1092.19 1646.04 1082.72 1644.63 1080.28 1641.33C1068.83 1625.87 1144.54 1586.07 1026.37 1498.31C968.94 1455.66 962.277 1446.28 986.966 1400.06C1002.14 1371.66 983.739 1294.33 924.601 1287.16C903.254 1284.57 884.942 1262.43 855.597 1243.95C854.726 1243.41 840.603 1234.51 848.465 1233.26C854.353 1232.33 908.759 1275.55 927.328 1279.03C930.268 1279.58 949.832 1277.93 973.402 1301.64C1026.97 1355.52 988.236 1411.18 988.039 1431.88C987.501 1488.03 1105.73 1498.17 1101.69 1594.8Z" fill="#53994F"/>
<path fill-rule="evenodd" clip-rule="evenodd" d="M1158.36 512.5C1147.16 485.528 1149.78 482.611 1124.96 467.195C1104.09 454.23 1117.54 415.603 1132.17 411.983C1145.61 408.657 1139.98 395.369 1150.02 389.324C1173.81 374.997 1174.17 412.046 1181.85 412.558C1199.28 413.716 1183.6 451.455 1183.05 453.146C1173.4 482.924 1174.03 527.79 1164.74 512.334C1165.84 506.079 1177.13 442.194 1165.11 432.91C1157.82 427.282 1171.72 514.124 1152.5 474.025C1151.89 472.747 1132.83 432.98 1140.95 460.577C1148.07 484.753 1163.37 490.494 1158.36 512.5Z" fill="#53994F"/>
<path fill-rule="evenodd" clip-rule="evenodd" d="M983.579 1379.51C975.132 1425.5 938.224 1439.55 996.153 1486.12C1044.21 1524.76 1105.28 1551.82 1071.44 1628.67C1053.94 1668.43 1068.94 1616.72 1069.24 1615.71C1099.44 1511.65 891.974 1494.8 968.525 1397.23C988.301 1372.02 956.528 1308.35 929.625 1304.11C906.194 1300.42 904.013 1302.89 853.726 1261.21C852.875 1260.5 833.106 1244.12 848.379 1248.48C872.424 1255.34 869.756 1283.76 932.229 1296.22C935.941 1296.96 952.163 1303.15 968.325 1324.9C984.264 1346.35 983.674 1374.97 983.579 1379.51Z" fill="#53994F"/>
<path fill-rule="evenodd" clip-rule="evenodd" d="M1093.73 1379.12C1131.44 1493.65 1213.36 1443.27 1224.85 1534.14C1230.05 1575.27 1192.64 1612.35 1263.78 1645.9C1293.47 1659.91 1295.33 1657.89 1299.52 1665.69C1309.96 1685.13 1199.4 1645.27 1209.33 1592.23C1216.95 1551.51 1233.52 1511.58 1158.27 1473.71C1051.76 1420.12 1086.62 1326.01 1090.2 1353.04C1091.25 1360.99 1090.76 1360.67 1091.88 1368.98C1092.59 1374.23 1093.03 1373.92 1093.73 1379.12Z" fill="#53994F"/>
<path fill-rule="evenodd" clip-rule="evenodd" d="M1462.58 1611.44C1457.16 1610.57 1418.24 1604.32 1397.98 1588.18C1332.76 1536.24 1395 1482.34 1303.22 1428.08C1258.31 1401.54 1249.91 1359.43 1255.45 1359.81C1268.69 1360.72 1247.63 1388.12 1315.26 1424.78C1385.27 1462.73 1352.95 1520.62 1394.97 1565.23C1430.06 1602.49 1470.77 1599.3 1473.22 1599.58C1541.31 1607.19 1561.84 1659.09 1557.29 1659.17C1542.85 1659.43 1553.84 1627.78 1462.58 1611.44Z" fill="#53994F"/>
<path fill-rule="evenodd" clip-rule="evenodd" d="M1296.19 1544.87C1277.28 1407.45 1187.45 1416.41 1164.36 1339.74C1164.18 1339.16 1161 1306.98 1169.55 1334.37C1177.45 1359.67 1206.56 1389.07 1210.68 1389.93C1221.98 1392.28 1210.33 1359.41 1209.26 1352.9C1208.93 1350.82 1201.91 1307.89 1210.95 1326.63C1224.27 1354.23 1205.78 1365.78 1262.45 1437.75C1311.1 1499.54 1305.11 1507.01 1308.82 1552.55C1313.94 1615.46 1360.38 1632.42 1372.73 1642.56C1374.97 1644.4 1373.68 1649.02 1368.45 1646.37C1306.27 1614.87 1300.73 1585.81 1296.19 1544.87Z" fill="#53994F"/>
<path fill-rule="evenodd" clip-rule="evenodd" d="M1129.51 529.887L1134.63 528.341C1138.73 529.551 1139.03 529.675 1139.22 533.856C1138.85 534.087 1134.55 536.736 1134.55 536.736C1128.15 539.085 1068.98 560.778 1071.72 594.457C1073.22 612.772 1078.27 572.263 1095.24 571.515C1128.35 570.06 1128.01 552.864 1134.56 555.174C1135.89 555.647 1136.39 557.537 1137.72 558.006C1128.2 571.488 1129.05 571.596 1120.84 586.296C1115.72 595.447 1100.45 602.734 1099.27 604.64C1090.06 619.487 1127.74 586.603 1120.74 602.18C1110.11 625.857 1092.97 622.482 1079.46 622.135C1078.01 623.198 1067.46 635.066 1055.59 632.052C1048.71 630.307 1040.59 617.854 1039.04 607.832C1033.47 571.932 1055.71 578.127 1061.07 578.361C1082.54 579.3 1064.18 544.146 1129.51 529.887Z" fill="#53994F"/>
<path fill-rule="evenodd" clip-rule="evenodd" d="M1290.22 525.551C1288.65 526.436 1288.19 528.698 1286.63 529.583C1286.32 529.759 1272.01 517.096 1269.68 521.658C1268.85 523.262 1268.94 524.365 1287.39 535.581C1289.06 536.592 1289.95 535.896 1295.05 531.205C1303.25 543.228 1301.57 545.892 1315.78 549.58C1339.96 555.854 1329.53 591.782 1305.11 576.208C1305.24 571.58 1304.95 571.814 1305.24 571.58C1305.43 571.423 1330.66 579.419 1315.59 560.521C1314.02 560.555 1312.45 560.587 1310.88 560.618C1308.2 569.31 1296.04 559.227 1297.89 568.121C1298.66 571.822 1298.26 571.599 1298.69 575.539C1297.98 577.012 1290.08 593.439 1282.49 587.963C1274.04 581.876 1274.99 563.325 1255.31 563.695C1234.99 564.073 1233.13 564.74 1220.69 547.407C1217.56 543.047 1178.11 526.042 1202.77 531.751C1207.63 532.875 1234.08 547.682 1241.41 538.925C1241.79 538.555 1246.21 534.271 1246.21 534.271C1246.22 533.964 1246.21 534.271 1242.46 533.36C1210.59 534.235 1211.77 525.572 1213.9 524.47C1236.32 512.812 1257.57 531.759 1260.41 534.29C1267.21 540.356 1286.97 572.216 1283.17 557.72C1280.34 546.929 1264.92 530.714 1260.09 523.821C1251.69 511.838 1211.14 518.534 1232.41 506.428C1254.59 493.802 1286.58 522.309 1290.22 525.551Z" fill="#53994F"/>
<path fill-rule="evenodd" clip-rule="evenodd" d="M1230.2 1584.35C1235.98 1548.77 1246.71 1496.37 1178.93 1461.24C1170.01 1456.62 1091.7 1416.03 1106.47 1358.63C1115.35 1324.11 1107.51 1371.48 1125.26 1402.3C1156.79 1457.04 1248.33 1449.8 1244.38 1547.36C1242.3 1598.78 1232.16 1612.14 1294.35 1642.58C1305.49 1648.03 1303.68 1656.4 1297.02 1653.45C1264.5 1639.03 1226.36 1622.34 1230.2 1584.35Z" fill="#53994F"/>
<path fill-rule="evenodd" clip-rule="evenodd" d="M518.81 731.705C521.004 728.212 539.453 698.856 542.955 686.125C549.349 662.873 546.296 660.967 554.678 655.323C573.266 642.81 541.107 710.422 535.602 720.258C503.829 777.023 541.369 798.362 533.812 810.109C531.268 814.06 522.285 812.813 515.865 754.175C515.153 747.681 509.111 758.656 508.775 759.268C460.963 846.111 380.538 831.4 379.803 820.068C379.656 817.79 395.779 811.138 397.249 810.532C473.668 779.003 482.21 787.586 518.81 731.705Z" fill="#53994F"/>
<path fill-rule="evenodd" clip-rule="evenodd" d="M691.921 538.311C699.727 548.669 695.391 634.596 648.763 670.396C619.998 692.482 660.145 525.645 691.921 538.311Z" fill="#53994F"/>
<path fill-rule="evenodd" clip-rule="evenodd" d="M1538.32 1275.35C1600.92 1305.13 1593.3 1315.07 1633.2 1371.59C1659.88 1409.38 1709.72 1442.5 1670.35 1417.99C1610.84 1380.94 1603.98 1325.78 1551.25 1296.67C1496.35 1266.36 1478.9 1272.36 1425.69 1193.16C1425 1192.12 1399.86 1154.71 1422.85 1177.84C1467 1222.28 1466.71 1241.19 1538.32 1275.35Z" fill="#53994F"/>
<path fill-rule="evenodd" clip-rule="evenodd" d="M1544.08 1266.47C1507.04 1249.03 1503.35 1245.14 1502.61 1244.65C1464.1 1218.98 1437.35 1177.65 1437.19 1177.12C1431.43 1157.8 1443.65 1178.29 1458.35 1192.01C1513.98 1243.89 1559.03 1256.88 1559.33 1257.01C1632.77 1290.02 1628.64 1340.95 1667.26 1392.58C1688.84 1421.43 1659.45 1391.43 1659.02 1390.91C1606.12 1328.64 1623.2 1310.4 1544.08 1266.47Z" fill="#53994F"/>
<path fill-rule="evenodd" clip-rule="evenodd" d="M669.451 542.17C657.882 562.078 653.961 571.465 652.85 574.121C651.128 573.363 650.393 571.087 648.671 570.328C646.844 569.522 644.269 576.379 643.553 581.193C604.277 639.479 573.428 652.693 570.318 651.625C564.091 649.488 566.356 627.892 566.574 625.816C577.006 571.31 581.794 565.792 635.856 557.642C652.861 555.08 575.534 620.353 578.174 639.082C579.093 645.592 585.548 627.068 621.258 590.354C658.053 552.531 652.383 543.866 669.451 542.17Z" fill="#53994F"/>
<path fill-rule="evenodd" clip-rule="evenodd" d="M1052.13 1597.41C1043.49 1565.14 1042.4 1564.41 989.401 1516.72C951.368 1482.5 932.539 1469.68 930.063 1442.36C928.142 1421.15 947.118 1397.43 949.717 1394.18C970.646 1368.03 934.815 1324.97 935.187 1321.66C937.159 1304.16 981.435 1364.07 960.847 1394.84C905.971 1476.87 983.456 1482.68 1044.38 1550.76C1082.11 1592.93 1042.18 1655.2 1048.21 1628.75C1051.77 1613.2 1051.97 1613.37 1052.13 1597.41Z" fill="#53994F"/>
<path fill-rule="evenodd" clip-rule="evenodd" d="M1066.84 456.243C1078.31 455.713 1080.19 459.708 1084.44 463.291C1085.63 467.092 1087.55 473.287 1110.55 505.648C1117.79 513.003 1117.2 513.271 1126.11 518.747L1129.75 520.81C1129.09 521.645 1130.89 523.141 1130.22 523.976C1130.22 523.976 1125.42 525.008 1125 525.097C1103.86 515.201 1091.75 484.863 1040.04 474.665C1035.87 473.844 1036.69 479.343 1040.59 480.616C1044.66 481.942 1080.32 493.578 1089 503.136C1113.18 529.74 1054.19 518.896 1033.37 488.701C1014.36 461.131 1023.58 422.814 1036.08 438.574C1053.23 460.199 1055.83 459.214 1066.84 456.243Z" fill="#53994F"/>
<path fill-rule="evenodd" clip-rule="evenodd" d="M1202.89 1081.58C1206.94 1081.09 1212.37 1084.68 1211.54 1074.9C1211.49 1074.32 1211.14 1067.05 1218.84 1074.55C1286.6 1140.55 1358.39 1106.59 1401.13 1144.37C1417.46 1158.8 1420.81 1171.86 1412.63 1164.69C1360.53 1119.04 1342.3 1149.41 1284.55 1126.36C1230.13 1104.64 1232.28 1086.3 1216.1 1091.08C1147.96 1111.22 1142.91 984.367 1154.82 1022.73C1159.78 1038.71 1161.99 1073.86 1202.89 1081.58Z" fill="#53994F"/>
<path fill-rule="evenodd" clip-rule="evenodd" d="M1195.73 510.99C1207.65 489.909 1210.76 491.594 1210.67 489.502C1209.87 472.702 1230.35 474.573 1238.8 462.824C1247.25 451.059 1233.78 461.299 1213.08 470.494C1206.07 473.61 1208.29 464.407 1207.59 463.601C1201.17 456.222 1198.63 487.759 1196.33 494.271C1187.77 518.503 1193.2 477.088 1191.94 477.169C1185.99 477.553 1184.37 509.851 1183.69 512.914C1183.59 513.394 1173.61 532.785 1177.57 513.14C1185 476.201 1182.7 438.592 1226.45 437.947C1262.53 437.416 1258.28 458.745 1258.78 463.199C1259.94 473.337 1154.81 565.514 1195.73 510.99Z" fill="#53994F"/>
<path fill-rule="evenodd" clip-rule="evenodd" d="M1117.34 819.058C1119.44 816.669 1118.15 815.755 1121.17 814.7C1127.82 812.372 1147.63 802.743 1155.9 800.415C1273.51 767.298 1283.76 890.13 1280.6 892.791C1277.48 895.424 1271.4 877.782 1270.32 875.844C1219.86 785.237 1127.73 821.15 1117.34 819.058Z" fill="#53994F"/>
<path fill-rule="evenodd" clip-rule="evenodd" d="M1307.01 398.989C1366.14 386.124 1369.6 387.25 1369.43 392.269C1367.21 455.211 1276.66 516.631 1275.63 500.377C1275.4 496.854 1318.84 465.743 1315.47 455.469C1311.65 443.819 1343.82 443.785 1343.39 434.358C1343.11 428.439 1307.5 452.768 1318.64 434.516C1320.11 432.111 1347.91 419.16 1341.75 413.592C1340.91 412.826 1340.71 413.516 1323.74 424.433C1316.65 428.996 1318.29 423.189 1317.68 418.635C1314.05 407.72 1313.76 408.148 1307.01 398.989Z" fill="#53994F"/>
<path fill-rule="evenodd" clip-rule="evenodd" d="M1488.76 1593.15C1459.69 1590.15 1459.87 1590.19 1457.36 1589.91C1396.87 1583.16 1375.57 1493.66 1375.66 1492.2C1376.65 1476.25 1387.06 1498.64 1387.53 1499.66C1421.96 1573.73 1441.78 1577.61 1489 1580.72C1569.89 1586.05 1585.59 1676.73 1570.74 1654.65C1554.54 1630.56 1559.05 1610.05 1488.76 1593.15Z" fill="#53994F"/>
<path fill-rule="evenodd" clip-rule="evenodd" d="M1523.53 1215.81C1595.71 1254.89 1632.24 1251.75 1666.87 1361.04C1683.79 1414.43 1661.04 1346.04 1627.2 1301.25C1574.78 1231.85 1523.05 1254.06 1462.4 1180.12C1454.71 1170.74 1460.38 1168.66 1462.31 1169.98C1463.07 1170.51 1470.6 1181.3 1473.85 1183.89C1497.06 1202.29 1497.7 1200.96 1523.53 1215.81Z" fill="#53994F"/>
<path fill-rule="evenodd" clip-rule="evenodd" d="M641.109 1635.19C665.232 1633.03 688.889 1635.39 708.225 1604.45C725.032 1577.55 721.019 1575.82 716.236 1544.58C712.417 1519.63 757.737 1593.81 693.042 1630.43C644.931 1657.67 637.355 1640.67 606.834 1649.32C544.994 1666.84 578.794 1717.5 582.372 1726.24C590.415 1745.91 578.781 1763.19 578.384 1752.04C577.048 1714.43 551.793 1705.95 561.051 1673.01C572.494 1632.31 640.933 1635.2 641.109 1635.19Z" fill="#53994F"/>
<path fill-rule="evenodd" clip-rule="evenodd" d="M512.035 726.72C511.523 732.332 510.859 733.002 495.878 737.593C434.492 754.109 432.19 748.064 428.806 752.393C424.475 757.931 433.177 755.052 442.559 756.246C430.733 767.914 430.321 767.158 429.539 768.347C424.105 776.585 435.623 771.434 449.691 758.134C453.2 756.868 490.636 743.405 494.088 743.846C495.607 744.04 495.833 746.888 497.356 747.082C491.649 752.912 478.372 770.762 452.274 778.908C431.051 785.531 385.678 779.572 394.828 768.116C428.339 726.169 489.916 732.616 512.035 726.72Z" fill="#53994F"/>
<path fill-rule="evenodd" clip-rule="evenodd" d="M461.118 912.218C469.565 908.394 468.79 907.669 474.159 900.272C509.425 851.686 518.059 795.159 515.384 828.064C509.081 905.538 435.392 938.476 444.724 920.175C469.229 872.119 468.368 871.841 488.546 807.035C493.287 791.812 506.646 786.762 506.538 799.267C506.194 838.742 462.48 909.436 461.118 912.218Z" fill="#53994F"/>
<path fill-rule="evenodd" clip-rule="evenodd" d="M825.953 1594.79C808.124 1669.86 705.445 1658.05 702.581 1736.41C701.938 1754.02 714.706 1769.98 706.516 1768.67C697.05 1767.16 674.087 1702.68 744.003 1658.51C758.63 1649.26 811.542 1626.23 814.787 1578.89C815.795 1564.2 804.987 1549.22 816.175 1558.96C826.822 1568.23 826.05 1591.83 825.953 1594.79Z" fill="#53994F"/>
<path fill-rule="evenodd" clip-rule="evenodd" d="M665.954 1731.35C698.536 1612.81 800.155 1650.5 794.301 1557.8C792.634 1531.42 803.859 1557.51 803.924 1557.84C817.585 1625.61 734.685 1647.01 704.962 1676.9C638.98 1743.25 698.908 1810.29 678.499 1790.51C663.405 1775.89 665.676 1736.18 665.954 1731.35Z" fill="#53994F"/>
<path fill-rule="evenodd" clip-rule="evenodd" d="M565.955 503.015C552.011 499.965 529.491 480.732 528.354 460.637C527.711 449.279 561.385 460.338 572.307 466.764C594.859 480.036 592.034 484.344 633.549 504.464C642.904 509 640.993 515.334 630.616 516.24C584.666 520.251 557.88 482.74 556.093 483.614C554.531 484.38 555.405 485.087 565.955 503.015Z" fill="#53994F"/>
<path fill-rule="evenodd" clip-rule="evenodd" d="M1302.75 399.669C1312.27 422.903 1315.19 423.596 1306.93 447.205C1298.83 470.373 1272.58 498.618 1255.03 499.052C1239.17 499.443 1237.83 499.283 1238.1 497.697C1241.06 480.842 1247.65 485.73 1273.1 470.095C1300.52 453.24 1295.33 423.291 1290.19 434.849C1286.19 443.864 1287.83 444.543 1281.4 451.917L1279.45 449.636C1289.38 411.405 1271.17 454.098 1270.79 454.235C1265.4 456.122 1260.5 439.083 1266.89 429.891C1279.75 411.377 1286.02 399.357 1302.75 399.669Z" fill="#53994F"/>
<path fill-rule="evenodd" clip-rule="evenodd" d="M1575.68 922.716C1586.53 921.422 1606.16 892.649 1649.16 898.427C1677.52 902.236 1687.8 938.379 1672 920.923C1631.3 875.938 1601.22 947.32 1543.94 953.037C1468.55 960.563 1438.16 903.664 1462.18 920.834C1524.41 965.32 1566.96 933.093 1575.68 922.716Z" fill="#53994F"/>
<path fill-rule="evenodd" clip-rule="evenodd" d="M1580.5 1214.89C1595.94 1221.44 1641.86 1234.15 1673.41 1324.25C1685.01 1357.37 1661.63 1310.69 1660.93 1309.3C1617.77 1223.14 1521.85 1220.7 1491.05 1177.46C1479.88 1161.77 1496.18 1174.79 1496.54 1175.1C1524.5 1199.99 1575.96 1213.35 1580.5 1214.89Z" fill="#53994F"/>
<path fill-rule="evenodd" clip-rule="evenodd" d="M945.59 1365.95L947.601 1366.6C947.709 1384.45 946.614 1384.38 936.261 1398.62C875.847 1481.74 1035.3 1545.21 1031.32 1578.77C1031.16 1580.09 1027.67 1586.11 1016.66 1570.85C975.303 1513.55 854.86 1460.83 934.34 1383.9C940.592 1377.85 943.716 1364.93 943.958 1364.62C944.383 1364.06 945.162 1366.51 945.59 1365.95Z" fill="#53994F"/>
<path fill-rule="evenodd" clip-rule="evenodd" d="M521.558 1681.23C524.926 1709.78 552.541 1755.04 536.34 1743.92C528.501 1738.55 516.145 1698.56 514.872 1694.44C512.741 1687.54 503.803 1620.49 578.09 1607.92C632.701 1598.68 633.769 1593.47 649.679 1563.57C657.756 1548.39 671.154 1593.57 614.958 1610.79C592.488 1617.68 529.27 1613.92 521.558 1681.23Z" fill="#53994F"/>
<path fill-rule="evenodd" clip-rule="evenodd" d="M1677.89 1298.1C1623.7 1183.98 1550.45 1213.22 1502.95 1160.75C1491.6 1148.21 1506.46 1153.67 1506.91 1154.1C1539.26 1185.01 1558.99 1176.72 1601.51 1196.28C1669.25 1227.43 1680.1 1297.37 1680.08 1297.57L1677.89 1298.1Z" fill="#53994F"/>
<path fill-rule="evenodd" clip-rule="evenodd" d="M1226.27 737.346C1224.89 737.008 1207.69 732.826 1214.41 724.001C1229.74 703.899 1347.73 744.342 1357.2 828.145C1362.32 873.405 1354.94 811.321 1322.71 779.113C1292.73 749.14 1234.55 738.814 1226.27 737.346Z" fill="#53994F"/>
<path fill-rule="evenodd" clip-rule="evenodd" d="M1185.39 972.326C1196.82 1020.65 1215.06 1053.5 1198.09 1029.71C1145.15 955.508 1192.51 923.254 1131.79 859.753C1113.02 840.12 1138.77 847.704 1144.58 852.744C1180.19 883.609 1175.3 908.47 1185.39 972.326Z" fill="#53994F"/>
<path fill-rule="evenodd" clip-rule="evenodd" d="M734.301 1764.73C732.409 1764.85 725.996 1765.27 722.305 1744.28C709.815 1673.21 815.45 1666.01 835.34 1597.27C845.99 1560.46 844.404 1604.24 843.756 1607.85C830.786 1679.97 711.658 1667.05 734.301 1764.73Z" fill="#53994F"/>
<path fill-rule="evenodd" clip-rule="evenodd" d="M507.192 1720.61C479.71 1688.2 486.328 1610.26 567.383 1591.29C599.933 1583.68 619.053 1585.24 627.346 1549.85C632.971 1525.83 651.892 1569.02 616.953 1588.57C590.829 1603.19 493.455 1599.65 501.65 1689.15C502.997 1703.86 510.095 1717.54 509.908 1718.01C509.452 1719.18 507.648 1719.44 507.192 1720.61Z" fill="#53994F"/>
<path fill-rule="evenodd" clip-rule="evenodd" d="M1375.83 1099.56C1392.28 1104.83 1409.5 1107 1431.15 1145.77C1431.43 1146.27 1443.83 1172.48 1427.78 1152.04C1379.31 1090.27 1332.7 1142.23 1247.67 1085.1C1240.68 1080.41 1245.88 1077.63 1247.35 1078.28C1254.91 1081.62 1292.87 1105.9 1334.02 1103.32C1355.28 1101.99 1354.81 1097.17 1375.83 1099.56Z" fill="#53994F"/>
<path fill-rule="evenodd" clip-rule="evenodd" d="M651.359 1612.05C652.139 1611.94 661.135 1610.68 661.156 1613.2C661.337 1636.28 599.206 1620.74 571.124 1643.09C534.857 1671.97 552.615 1704.26 557.027 1715.39C570.249 1748.75 557.563 1762.9 556.277 1752.48C553.864 1732.95 551.213 1733.98 544.895 1715.04C513.387 1620.56 609.966 1618.3 651.359 1612.05Z" fill="#53994F"/>
<path fill-rule="evenodd" clip-rule="evenodd" d="M1095.07 713.803C1105.07 714.787 1110.73 713.099 1107.28 722.833C1103.49 733.524 1167.43 730.07 1142.12 735.509C1094.08 745.836 1052.66 720.712 1045.95 716.648C1042.14 714.338 1008.55 688.865 1006.63 683.597C1005.76 681.198 1009.73 659.329 1038.19 688.272C1055.23 705.597 1090.18 712.797 1095.07 713.803Z" fill="#53994F"/>
<path fill-rule="evenodd" clip-rule="evenodd" d="M1428.79 1118.51C1392.89 1083.41 1378.84 1087.61 1339.33 1093.4C1313.45 1097.2 1265.29 1080.5 1253.14 1074.19C1214.19 1053.97 1281.39 1078.74 1284.35 1078.45C1325.32 1074.39 1326.04 1083.4 1365.82 1073.32C1398.16 1065.13 1435.16 1105.21 1428.79 1118.51Z" fill="#53994F"/>
<path fill-rule="evenodd" clip-rule="evenodd" d="M1221.31 1016.71C1169.17 963.194 1207.09 904.861 1153.79 853.763C1145.06 845.392 1144.63 836.025 1150.33 838.535C1211.03 865.231 1192.61 949.124 1217.93 1001.62C1224.17 1014.56 1224.17 1014.53 1224.15 1014.58C1223.65 1015.65 1221.81 1015.64 1221.31 1016.71Z" fill="#53994F"/>
<path fill-rule="evenodd" clip-rule="evenodd" d="M1313.23 1065.02C1332.9 1062.53 1332.62 1061.59 1350.19 1052C1367.4 1042.62 1400.31 1039.91 1427.49 1062.92C1443.13 1076.15 1457.29 1108.36 1457.47 1111.63C1458.19 1124.5 1447.04 1100.49 1435.47 1088.94C1392 1045.56 1367.05 1077.07 1308.53 1068.97C1312.4 1065.52 1312.28 1065.46 1313.23 1065.02Z" fill="#53994F"/>
<path fill-rule="evenodd" clip-rule="evenodd" d="M720.993 1240.76C721.074 1241.6 724.825 1280.28 713.769 1248.57C705.899 1226 709.661 1260.96 709.335 1261.28C702.481 1268.07 692.966 1234.21 693.136 1250.61C693.144 1251.26 696.084 1264.58 695.236 1265.83C687.689 1276.96 655.457 1217.7 725.04 1217.72C767.733 1217.74 759.85 1247.38 759.861 1248.29C760.095 1266.13 750.246 1232.66 746.893 1235.77C746.531 1236.11 748.303 1266.68 740.09 1245.92C730.259 1221.07 735.546 1251.22 734.732 1252.82C730.041 1262.02 730.162 1240.28 720.993 1240.76Z" fill="#53994F"/>
<path fill-rule="evenodd" clip-rule="evenodd" d="M664.172 527.99C647.878 533.544 635.1 544.01 596.796 530.381C579.82 524.343 561.156 511.72 574.917 523.629C613.572 557.093 645.739 541.768 659.09 535.62C663.67 533.51 663.048 536.214 665.072 537.069C659.547 540.201 654.234 543.7 648.708 546.832C599.602 574.673 569.898 524.635 552.657 509.762C535.552 495.004 585.388 516.579 596.628 520.411C634.494 533.318 661.757 511.029 674.764 516.482C682.46 519.708 665.311 527.472 664.172 527.99Z" fill="#53994F"/>
<path fill-rule="evenodd" clip-rule="evenodd" d="M1438.75 1702.99C1409.46 1692.11 1405.34 1690.02 1402.56 1688.62C1389.52 1682.04 1395.8 1674.6 1402.07 1676.79C1427.03 1685.5 1519.74 1705.81 1541.72 1770.46C1544.16 1777.63 1538.75 1775.84 1536.6 1772.74C1506.86 1729.96 1483.73 1723.29 1438.75 1702.99Z" fill="#53994F"/>
<path fill-rule="evenodd" clip-rule="evenodd" d="M1069.05 1197.33C1074.63 1196.75 1074.3 1196.53 1079.5 1197.28C1079.55 1200.12 1077.07 1200.93 1081.34 1204.19C1120.71 1234.2 1109.38 1276.11 1213.32 1276.61C1235.93 1276.72 1244.36 1314.28 1240.33 1319.73C1233.92 1328.38 1235.43 1317.74 1230.73 1303.61C1219.95 1271.21 1183.22 1303.97 1127.28 1265.66C1098.59 1243.5 1072.26 1203.4 1069.05 1197.33Z" fill="#53994F"/>
<path fill-rule="evenodd" clip-rule="evenodd" d="M1108.17 745.227C1138.58 746.715 1159.57 743.431 1143.54 750.364C1140.74 751.574 1083.2 760.562 1043.28 737.8C1039.98 735.918 980.269 697.2 980.014 696.743C978.613 694.239 981.907 673.716 1015.69 700.641C1055.55 732.417 1058.84 737.415 1108.17 745.227Z" fill="#53994F"/>
<path fill-rule="evenodd" clip-rule="evenodd" d="M677.57 824.811C677.397 814.298 644.584 803.775 660.305 773.632C667.469 759.892 714.362 833.951 677.751 835.343C613.942 837.766 647.642 753.38 647.101 780.598C647.015 784.893 646.395 815.965 677.57 824.811Z" fill="#53994F"/>
<path fill-rule="evenodd" clip-rule="evenodd" d="M1457.16 1736.98C1413.77 1719.52 1372.85 1703.26 1369.03 1694.11C1364.59 1683.48 1384.78 1692.39 1386.02 1692.94C1460.26 1725.75 1460.95 1724.04 1467.28 1727.14C1526.95 1756.36 1528.57 1808.94 1518 1788.72C1499.65 1753.63 1492.29 1753.29 1457.16 1736.98Z" fill="#53994F"/>
<path fill-rule="evenodd" clip-rule="evenodd" d="M1451.9 1669.02C1461.15 1672.04 1531.22 1694.88 1549.38 1741.62C1562.75 1776.04 1542.21 1731.91 1511.66 1711.39C1463.81 1679.25 1375.06 1663.3 1400.11 1656.1C1400.65 1655.94 1447.76 1667.97 1451.9 1669.02Z" fill="#53994F"/>
<path fill-rule="evenodd" clip-rule="evenodd" d="M1576.99 912.216C1576.98 910.92 1576.87 887.04 1571.3 897.065C1569.32 900.632 1555.52 941.682 1502.2 932.371C1469.29 926.622 1442.33 891.348 1471.12 908.4C1505.86 928.982 1561.4 930.392 1569.99 875.311C1570.09 874.71 1574.99 847.867 1577.19 872.857C1578.11 883.247 1583.98 880.979 1585.1 891.24C1586.54 904.554 1583.27 916.083 1581.38 915.232C1579.76 914.503 1578.61 912.946 1576.99 912.216Z" fill="#53994F"/>
<path fill-rule="evenodd" clip-rule="evenodd" d="M557.395 589.882C558.405 591.669 560.456 590.444 560.23 594.906C560.175 595.985 559.49 595.636 559.429 596.822C554.106 597.521 554.408 597.471 549.016 598.605C532.717 605.553 527.995 601.072 522.047 617.644C510.497 649.832 467.084 659.106 484.517 648.047C500.54 637.885 500.409 637.862 513.04 623.634C517.03 619.137 512.589 618.612 512.132 617.481C502.884 622.329 484.029 623.637 455.211 642.699C453.846 643.602 433.878 656.811 435.936 649.485C437.112 645.293 494.056 609.118 523.32 600.657C551.423 592.533 508.859 592.491 478.411 602.912C465.26 607.412 475.902 598.332 476.274 598.145C504.32 584.002 526.53 595.111 557.395 589.882Z" fill="black"/>
<path fill-rule="evenodd" clip-rule="evenodd" d="M1102.19 765.24C1092.09 771.227 1054.08 768.434 1018.84 747.127C1013.74 744.043 955.977 709.123 955.754 707.437C952.019 679.145 1031 741.728 1045.63 748.734C1083.58 766.901 1090.99 755.766 1102.19 765.24Z" fill="#53994F"/>
<path fill-rule="evenodd" clip-rule="evenodd" d="M1515.17 912.904C1451.2 903.895 1464.23 876.686 1430.53 863.433C1410.18 855.429 1363.89 866.134 1389.47 857.456C1436.93 841.351 1480.73 887.079 1492.1 892.736C1520.75 906.997 1532.06 898.322 1535.88 900.038C1537.65 900.839 1542.6 910.315 1515.17 912.904Z" fill="#53994F"/>
<path fill-rule="evenodd" clip-rule="evenodd" d="M1226.56 1113.11C1228.09 1113.23 1250.79 1114.95 1243.97 1121.14C1240.95 1123.88 1142.28 1135.16 1128.92 1032.89C1127.55 1022.45 1133.99 1027.21 1134.27 1027.84C1151.55 1066.3 1147.01 1099 1226.56 1113.11Z" fill="#53994F"/>
<path fill-rule="evenodd" clip-rule="evenodd" d="M582.125 1697.1C582.141 1696.67 578.823 1674.32 607.527 1658.8C627.02 1648.25 686.413 1656.3 686.193 1660.32C685.434 1674.16 605.936 1645.76 595.804 1688.98C590.438 1711.87 597.906 1710.92 609.128 1736.42C611.068 1740.83 590.522 1735.26 582.125 1697.1Z" fill="#53994F"/>
<path fill-rule="evenodd" clip-rule="evenodd" d="M1107.78 862.005C1115.92 844.835 1120.95 857.13 1133.85 870.707C1171.33 910.158 1160.34 989.278 1153.71 969.459C1149.04 955.479 1148.63 895.24 1107.78 862.005Z" fill="#53994F"/>
<path fill-rule="evenodd" clip-rule="evenodd" d="M877.064 880.635C861.566 898.217 803.32 919.115 812.841 867.749C815.028 855.955 830.799 868.983 864.378 877.039C873.447 879.215 873.523 878.74 877.064 880.635Z" fill="#53994F"/>
<path fill-rule="evenodd" clip-rule="evenodd" d="M1468.14 1567.16C1468.1 1567.15 1452.42 1565.53 1434.91 1551.38C1408.35 1529.9 1389.04 1471.74 1389.57 1468.75C1391.5 1457.92 1404.54 1489.32 1408.75 1496.83C1437.53 1548.1 1482.38 1563.52 1482.55 1563.76C1486.05 1568.94 1469.32 1567.28 1468.14 1567.16Z" fill="#53994F"/>
<path fill-rule="evenodd" clip-rule="evenodd" d="M547.632 799.044C561.369 851.046 584.101 841.992 586.012 851.733C588.879 866.341 514.437 828.326 544.698 741.783C547.687 733.225 553.804 724.838 572.189 678.053C610.861 579.649 570.202 700.116 569.512 701.906C553.439 743.607 541.02 749.175 547.632 799.044Z" fill="#53994F"/>
<path fill-rule="evenodd" clip-rule="evenodd" d="M1087.08 527.604C1084.43 537.259 1081.67 534.964 1071.48 535.881C1057.49 537.135 1038.8 524.772 1050.97 536.366C1056.65 541.776 1068.97 542.517 1074.17 541.264C1075.89 540.852 1077.52 539.451 1079.25 539.766C1080.93 540.07 1081.59 542.611 1083.27 542.913C1070.28 554.479 1070.34 557.592 1053.21 554.975C1032.65 551.83 1007.98 519.821 1047.94 519.976C1065.14 520.041 1064.23 527.407 1087.08 527.604Z" fill="#53994F"/>
<path fill-rule="evenodd" clip-rule="evenodd" d="M893.363 1098.3C930.045 1154.49 932.993 1152.03 955.15 1172.65C969.438 1185.95 924.553 1175.72 881.947 1096.19C854.411 1044.8 859.283 1029.55 863.567 1038.62C871.429 1055.25 868.223 1056.69 893.363 1098.3Z" fill="black"/>
<path fill-rule="evenodd" clip-rule="evenodd" d="M841.769 1376.45C853.224 1417.22 852.578 1423.54 869.092 1427.9C881.703 1431.23 862.624 1451.79 851.612 1431.57C829.993 1391.87 812.348 1309.4 827.688 1323.97C830.841 1326.96 831.418 1327.51 841.769 1376.45Z" fill="#53994F"/>
<path fill-rule="evenodd" clip-rule="evenodd" d="M1222.98 1170.32C1223.03 1173.05 1223.72 1173.92 1221.01 1174.17C1164.94 1179.35 1119.58 1111.39 1095.15 1109.44C1092.15 1109.2 1059.97 1106.64 1060.25 1095.64C1060.33 1092.61 1062.06 1096.38 1097.91 1100.52C1138.71 1105.22 1119.37 1148.71 1222.98 1170.32Z" fill="black"/>
<path fill-rule="evenodd" clip-rule="evenodd" d="M1279.38 838.351C1259.08 809.584 1257.38 810.92 1227.07 793.251C1216.88 787.308 1238.29 778.469 1260.43 794.206C1302.73 824.268 1298.73 890.449 1291.93 867.599C1286.76 850.182 1280.23 840.091 1279.38 838.351Z" fill="#53994F"/>
<path fill-rule="evenodd" clip-rule="evenodd" d="M1047.92 920.107C1085.45 949.691 1107.92 964.013 1098.93 986.141C1088.94 1010.74 1009.29 915.82 1056.59 955.537C1058.88 957.458 1089.24 982.949 1089.82 972.489C1090.09 967.819 1045.47 927.916 1045.14 922.627C1045.06 921.38 1048 921.354 1047.92 920.107Z" fill="black"/>
<path fill-rule="evenodd" clip-rule="evenodd" d="M1144.5 1392.79C1183.51 1450.15 1216.06 1431.26 1211.43 1450.51C1209.29 1459.41 1137.29 1425.14 1131.23 1387.39C1127.57 1364.59 1134.75 1360.98 1139.35 1366.67C1140.69 1368.33 1137.06 1369.22 1144.5 1392.79Z" fill="#53994F"/>
<path fill-rule="evenodd" clip-rule="evenodd" d="M1465.59 1517.92C1468.53 1519.44 1540.79 1556.85 1494.07 1547.95C1446.76 1538.94 1409.77 1472.97 1430.9 1482.59C1441.56 1487.44 1432.04 1499.61 1465.59 1517.92Z" fill="#53994F"/>
<path fill-rule="evenodd" clip-rule="evenodd" d="M1314.2 838.517C1314.31 839.842 1317.11 876.262 1310.06 854.605C1297.49 816.018 1293.58 818.147 1266.19 788.484C1259.88 781.649 1272.44 778.045 1283.67 784.263C1305.74 796.49 1313.22 833.634 1314.2 838.517Z" fill="#53994F"/>
<path fill-rule="evenodd" clip-rule="evenodd" d="M1139.22 533.856C1139.96 536.13 1140.7 538.403 1141.43 540.676C1137.19 542.002 1137.5 541.844 1137.19 542.002C1117.06 551.924 1116.27 550.407 1115.32 552.084C1109.04 563.238 1136.44 548.793 1138.07 547.929C1140.51 553.024 1140.82 553.384 1137.72 558.006C1136.39 557.537 1135.89 555.647 1134.56 555.174C1128.01 552.864 1128.35 570.06 1095.24 571.515C1078.27 572.263 1073.21 612.772 1071.72 594.457C1068.98 560.778 1128.15 539.085 1134.55 536.736C1134.55 536.736 1138.85 534.087 1139.22 533.856Z" fill="black"/>
<path fill-rule="evenodd" clip-rule="evenodd" d="M1043.88 1683.77C1044.51 1665.79 1051.56 1670.63 1052.38 1671.49C1054.37 1673.59 1052.44 1688.36 1062.16 1704.23C1082.83 1737.99 1106.68 1733.92 1113.41 1734.3C1132.15 1735.33 1061.1 1766.46 1043.88 1683.77Z" fill="#53994F"/>
<path fill-rule="evenodd" clip-rule="evenodd" d="M1103.57 863.835C1113.18 875.708 1116.85 875.529 1126.02 894.041C1134.16 910.481 1137.15 936.495 1136.43 938.052C1128.64 954.854 1129.05 903.68 1095.06 872.896C1069.54 849.786 1102.76 863.255 1103.57 863.835Z" fill="#53994F"/>
<path fill-rule="evenodd" clip-rule="evenodd" d="M1073.42 1747.3C1068.02 1757.14 1047.5 1740.16 1038.48 1727.77C1020.64 1703.3 1021.65 1686.98 1029.26 1670.57C1038.35 1650.97 1034.19 1686.48 1036.89 1697.14C1045.23 1730.01 1068.67 1743.31 1073.42 1747.3Z" fill="#53994F"/>
<path fill-rule="evenodd" clip-rule="evenodd" d="M1018.39 1715.68C1030.67 1739.15 1032.39 1739.11 1031.03 1740.92C1026.42 1747.08 984.784 1707.71 1017.14 1652.74C1026.99 1636.01 1026.12 1654.08 1025.95 1654.78C1019.38 1681.76 1009.81 1688.22 1018.39 1715.68Z" fill="#53994F"/>
<path fill-rule="evenodd" clip-rule="evenodd" d="M617.512 1484.16C570.357 1427.37 640.794 1354.02 621.355 1400.94C595.263 1463.92 625.319 1471.16 620.408 1481.84C619.891 1482.96 618.03 1483.04 617.512 1484.16Z" fill="#53994F"/>
<path fill-rule="evenodd" clip-rule="evenodd" d="M811.61 458.661C805.037 455.597 762.058 435.574 738.181 405.507C722.056 385.2 715.105 353.296 717.478 348.938C718.008 347.962 721 346.956 723.822 361.289C735.112 418.656 813.944 453.663 813.907 455.781C813.889 457.007 811.631 457.432 811.61 458.661Z" fill="black"/>
<path fill-rule="evenodd" clip-rule="evenodd" d="M970.394 1660.42C971.536 1657.21 981.448 1621.79 987.59 1621.64C997.565 1621.4 983.955 1658.43 983.432 1660.52C973.651 1699.8 994.413 1719.97 982.855 1711.86C968.832 1702.01 970.234 1664.65 970.394 1660.42Z" fill="#53994F"/>
<path fill-rule="evenodd" clip-rule="evenodd" d="M990.404 1130.03L987.325 1133.04C980.343 1125.99 924.816 1069.98 917.736 1030.41C917.723 1030.34 920.894 1025.54 923.372 1031.08C947.927 1086.01 957.371 1079.81 990.404 1130.03Z" fill="black"/>
<path fill-rule="evenodd" clip-rule="evenodd" d="M892.66 879.246C852.474 865.313 852.529 865.528 848.909 863.864C756.716 821.517 911.465 867.274 909.688 880.897C909.271 884.095 893.975 879.629 892.66 879.246Z" fill="#53994F"/>
<path fill-rule="evenodd" clip-rule="evenodd" d="M649.199 471.203C652.953 469.699 680.67 458.582 698.979 462.485C702.064 463.141 719.457 473.907 721.189 474.98C741.216 487.378 712.608 476.909 711.9 476.652C698.05 471.583 678.092 493.418 649.199 471.203Z" fill="#53994F"/>
<path fill-rule="evenodd" clip-rule="evenodd" d="M885.454 526.9C885.856 526.903 890.462 526.95 890.462 526.95C938.542 533.006 959.975 508.937 980.387 498.44C1006.11 485.21 1023.09 505.312 1008.56 503.49C974.121 499.17 976.649 510.735 945.312 525.792C920.96 537.492 887.194 536.387 884.367 528.669L885.454 526.9Z" fill="black"/>
<path fill-rule="evenodd" clip-rule="evenodd" d="M574.287 772.873C571.575 821.502 588.115 818.163 588.357 830.749C588.564 841.483 542.122 795.231 583.784 728.687C597.515 706.752 599.537 707.403 601.382 708.49C604.863 710.54 592.234 725.941 586.448 736.486C577.111 753.501 578.34 753.863 574.287 772.873Z" fill="#53994F"/>
<path fill-rule="evenodd" clip-rule="evenodd" d="M566.632 1421.37C568.572 1405.21 568.979 1387.52 594.549 1364.78C619.232 1342.84 573.391 1397.52 574.084 1434.71C575.331 1501.49 566.748 1422.58 566.632 1421.37Z" fill="#53994F"/>
<path fill-rule="evenodd" clip-rule="evenodd" d="M597.838 1473.15C594.683 1473.12 594.73 1472.92 593.137 1469.89C563.196 1412.97 609.593 1369.68 610.38 1381.83C611.402 1397.57 581.148 1394.94 597.838 1473.15Z" fill="#53994F"/>
<path fill-rule="evenodd" clip-rule="evenodd" d="M924.727 1200.52C919.828 1198.1 876.49 1176.65 866.911 1164.08C854.13 1147.31 876.749 1166.03 877.414 1166.58C905.092 1189.5 976.342 1212.62 979.182 1214.63C1001.64 1230.49 928.921 1202.16 924.727 1200.52Z" fill="black"/>
<path fill-rule="evenodd" clip-rule="evenodd" d="M1158.36 512.499C1163.37 490.494 1148.07 484.753 1140.95 460.577C1132.83 432.98 1151.89 472.746 1152.5 474.025C1171.72 514.124 1157.82 427.281 1165.11 432.909C1177.13 442.194 1165.84 506.079 1164.74 512.334C1162.61 512.389 1160.49 512.444 1158.36 512.499Z" fill="black"/>
<path fill-rule="evenodd" clip-rule="evenodd" d="M1396.62 1737.24C1368.61 1721.11 1368.71 1721.35 1366.37 1719.82C1350.96 1709.72 1384.24 1716.41 1412.11 1732.39C1438.86 1747.74 1441.36 1744.27 1441.67 1746.89C1442.99 1758.21 1399.98 1738.76 1396.62 1737.24Z" fill="#53994F"/>
<path fill-rule="evenodd" clip-rule="evenodd" d="M607.299 1100.38C668.708 1101.51 677.911 1064.4 727.056 1083.78C753.298 1094.12 715.514 1086.4 714.514 1086.2C673.758 1077.87 639.387 1112.66 614.782 1105.77C610.514 1104.58 611.659 1107.09 609.727 1108.87C607.249 1105.02 607.488 1105.08 607.299 1100.38Z" fill="#53994F"/>
<path fill-rule="evenodd" clip-rule="evenodd" d="M707.81 1576.5C694.491 1622.19 665.45 1618.97 670.879 1613.77C690.873 1594.63 694.761 1595.89 698.591 1568.35C699.108 1564.65 695.31 1539.51 706.004 1550.61C710.556 1555.34 708.075 1574.44 707.81 1576.5Z" fill="#53994F"/>
<path fill-rule="evenodd" clip-rule="evenodd" d="M838.238 920.999C777.958 936.298 846.245 907.129 858.322 900.493C860.467 899.317 892.437 881.758 887.355 890.909C879.9 904.331 842.517 919.288 838.238 920.999Z" fill="#53994F"/>
<path fill-rule="evenodd" clip-rule="evenodd" d="M1446.91 730.842C1443.43 729.088 1435.2 724.938 1407.57 702.119C1355.66 659.248 1345.79 668.104 1347.49 662.61C1352.43 646.674 1420.82 705.448 1432.34 714.029C1443.39 722.258 1443.5 722.279 1446.91 730.842Z" fill="black"/>
<path fill-rule="evenodd" clip-rule="evenodd" d="M665.455 1169.82C668.01 1165.11 667.968 1165.13 668.214 1164.73C671.65 1159.25 686.051 1172.53 689.099 1179.54C697.606 1199.1 650.795 1202.7 665.455 1169.82Z" fill="#53994F"/>
<path fill-rule="evenodd" clip-rule="evenodd" d="M664.172 527.989C668.742 530.966 669.503 531.73 666.621 536.413L665.072 537.069C663.048 536.213 663.67 533.51 659.09 535.62C645.739 541.768 613.572 557.093 574.917 523.629C561.156 511.72 579.82 524.343 596.796 530.381C635.1 544.01 647.878 533.544 664.172 527.989Z" fill="black"/>
<path fill-rule="evenodd" clip-rule="evenodd" d="M1324.08 686.372C1324.97 686.222 1326.04 681.883 1333.87 689.254C1335.27 690.569 1343.52 698.334 1348.97 707.884C1379.13 760.659 1396.53 759.657 1391.31 764.274C1384 770.731 1334.59 703.631 1324.08 686.372Z" fill="black"/>
<path fill-rule="evenodd" clip-rule="evenodd" d="M1102.72 1711.14C1109.62 1712.54 1109.46 1712.09 1116.36 1712.21C1138.09 1712.59 1082.06 1738.79 1068.97 1694.37C1067.11 1688.08 1071.96 1679.86 1078.5 1689.87C1086.82 1702.57 1085.85 1704.02 1102.72 1711.14Z" fill="#53994F"/>
<path fill-rule="evenodd" clip-rule="evenodd" d="M767.103 486.286C751.112 482.693 748.151 481.446 746.584 480.787C724.337 471.421 750.802 476.322 751.295 476.461C801.64 490.596 838.59 479.301 845.276 482.645C850.875 485.444 844.43 496.051 767.103 486.286Z" fill="#53994F"/>
<path fill-rule="evenodd" clip-rule="evenodd" d="M976.967 843.958C978.854 845.922 980.739 847.888 982.626 849.851C977.872 852.531 944.766 871.201 914.531 846.008C888.271 824.129 962.096 863.239 976.967 843.958Z" fill="#53994F"/>
<path fill-rule="evenodd" clip-rule="evenodd" d="M588.49 418.698C606.361 442.937 601.526 446.024 599.18 446.003C595.247 445.969 599.371 440.679 565.062 410.62C545.519 393.5 538.584 368.321 548.32 380.194C556.662 390.369 553.777 393.374 588.49 418.698Z" fill="black"/>
<path fill-rule="evenodd" clip-rule="evenodd" d="M536.085 470.476C536.093 469.712 536.904 469.103 536.909 468.336C536.956 463.582 542.007 460.028 591.787 491.195C604.135 498.925 630.556 508.144 620.542 508.743C597.891 510.097 582.253 484.64 536.085 470.476Z" fill="black"/>
<path fill-rule="evenodd" clip-rule="evenodd" d="M664.755 853.182C612.546 844.672 627.656 802.092 630.729 812.246C638.828 839.018 658.197 841.732 672.315 847.032C683.534 851.245 665.529 853.101 664.755 853.182Z" fill="#53994F"/>
<path fill-rule="evenodd" clip-rule="evenodd" d="M1084.44 463.291C1085.71 462.787 1086.07 460.897 1087.35 460.393C1091.94 458.569 1096.24 477.996 1108.56 480.957C1116.26 482.808 1113.32 492.961 1129.3 502.621C1128.31 504.509 1127.32 506.399 1126.33 508.286C1121.29 503.889 1122.24 500.81 1116.02 502.553C1114.19 503.585 1112.37 504.616 1110.55 505.648C1087.55 473.287 1085.63 467.092 1084.44 463.291Z" fill="black"/>
<path fill-rule="evenodd" clip-rule="evenodd" d="M993.134 637.053C991.722 637.744 975.888 645.482 974.119 642.004C971.559 636.969 975.883 623.936 982.303 623.902C1014.88 623.726 1014.98 600.049 1021.07 610.525C1024.31 616.1 995.693 635.334 993.134 637.053Z" fill="#53994F"/>
<path fill-rule="evenodd" clip-rule="evenodd" d="M1121.29 1271.59C1090.84 1273.67 1070.05 1231.28 1073.93 1226.93C1077.27 1223.18 1077.62 1227.34 1093.05 1245.07C1105.88 1259.81 1108.93 1256.31 1121.29 1271.59Z" fill="#53994F"/>
<path fill-rule="evenodd" clip-rule="evenodd" d="M623.823 1460.5C621.303 1444.54 620.652 1444.86 621.896 1428.96C622.437 1422.05 627.026 1422.85 627.519 1426.8C635.31 1489.21 644.503 1486.93 644.222 1492.34C644.067 1495.36 635.063 1497.98 623.823 1460.5Z" fill="#53994F"/>
<path fill-rule="evenodd" clip-rule="evenodd" d="M850.324 1319.28C834.177 1251.83 872.108 1330.77 870.368 1345.76C870.061 1348.39 863.344 1350.72 850.324 1319.28Z" fill="#53994F"/>
<path fill-rule="evenodd" clip-rule="evenodd" d="M1001.51 1668.4C1000.94 1670.43 990.903 1705.8 988.572 1691.37C981.962 1650.43 1013.14 1627.58 1006.55 1652.52C1006.21 1653.81 1006.18 1653.7 1001.51 1668.4Z" fill="#53994F"/>
<path fill-rule="evenodd" clip-rule="evenodd" d="M674.226 1573.41C675.304 1553.77 673.729 1553.73 674.178 1552.09C675.593 1546.93 681.418 1553.44 681.838 1553.91C702.736 1577.25 654.95 1613.05 656.882 1597.28C657.861 1589.3 666.991 1594.67 674.226 1573.41Z" fill="#53994F"/>
<path fill-rule="evenodd" clip-rule="evenodd" d="M687.904 560.177C694.186 596.25 658.539 652.575 654.168 654.774C642.975 660.408 698.118 575.715 680.98 566.102C684.18 562.603 683.935 562.569 687.904 560.177Z" fill="black"/>
<path fill-rule="evenodd" clip-rule="evenodd" d="M559.429 596.822C556.106 605.86 549.389 636.019 499.18 656.927C452.424 676.402 519.482 648.078 542.763 617.279C543.606 616.163 552.003 605.052 552.04 602.432C552.061 600.807 548.995 600.23 549.016 598.605C554.407 597.471 554.106 597.521 559.429 596.822Z" fill="black"/>
<path fill-rule="evenodd" clip-rule="evenodd" d="M908.793 460.664C881.719 444.916 881.939 442.622 883.74 440.808C884.273 440.273 886.488 438.036 893.048 442.276C944.721 475.666 950.691 464.438 957.891 472.096C970.215 485.207 912.539 462.16 908.793 460.664Z" fill="black"/>
<path fill-rule="evenodd" clip-rule="evenodd" d="M850.339 1369.11C841.406 1325.24 881.671 1400.9 872.056 1408.25C869.21 1410.42 867.118 1408.87 850.339 1369.11Z" fill="#53994F"/>
<path fill-rule="evenodd" clip-rule="evenodd" d="M995.282 608.317C995.565 607.202 993.722 606.225 994.006 605.109C997.061 593.105 1017.91 569.504 1020.94 565.081C1036.13 542.95 1031.07 584.603 995.282 608.317Z" fill="#53994F"/>
<path fill-rule="evenodd" clip-rule="evenodd" d="M1599.44 996.746C1613.08 990.606 1614.39 992.867 1624.46 982.057C1630.68 975.374 1634.44 964.359 1638.27 965.483C1654.12 970.126 1602.66 1012.37 1578.47 1008.09C1566.12 1005.91 1597.6 997.253 1599.44 996.746Z" fill="#53994F"/>
<path fill-rule="evenodd" clip-rule="evenodd" d="M685.227 551.888C688.989 555.059 688.828 555.316 687.904 560.177C683.935 562.569 684.18 562.603 680.98 566.102C679.082 570.307 659.415 613.869 657.712 618.849C642.445 663.5 650.59 596.135 685.227 551.888Z" fill="black"/>
<path fill-rule="evenodd" clip-rule="evenodd" d="M1334.87 1396.93C1336.15 1397.07 1347.76 1387.25 1369.57 1445.32C1373.69 1456.29 1368.93 1455.81 1368.22 1455.42C1365.71 1454.01 1348.5 1408.73 1334.31 1400.64L1334.87 1396.93Z" fill="#53994F"/>
<path fill-rule="evenodd" clip-rule="evenodd" d="M811.752 439.525C813.167 436.459 815.59 431.201 806.423 397.632C802.333 382.659 801.087 383.386 796.6 368.77C796.233 367.579 800.457 363.106 805.127 374.682C824.365 422.347 818.48 437.467 816.482 442.601C814.905 441.575 813.33 440.551 811.752 439.525Z" fill="black"/>
<path fill-rule="evenodd" clip-rule="evenodd" d="M495.878 737.593C497.49 740.678 501.642 740.544 497.356 747.083C495.833 746.888 495.607 744.04 494.088 743.846C490.636 743.405 453.201 756.869 449.691 758.134C448.187 757.69 448.292 758.491 446.743 758.034C446.394 757.929 446.743 758.034 442.559 756.247C433.177 755.052 424.475 757.932 428.806 752.393C432.19 748.064 434.492 754.11 495.878 737.593Z" fill="black"/>
<path fill-rule="evenodd" clip-rule="evenodd" d="M575.646 628.708C575.528 626.01 572.008 628.978 571.887 626.214C571.84 625.112 572 625.156 574.951 612.772C586.91 562.571 646.149 557.581 625.206 567.372C580.531 588.259 585.393 602.6 575.646 628.708Z" fill="black"/>
<path fill-rule="evenodd" clip-rule="evenodd" d="M765.308 489.654C757.008 499.498 737.583 500.432 707.151 519.261C650.829 554.111 727.403 489.226 765.308 489.654Z" fill="#53994F"/>
<path fill-rule="evenodd" clip-rule="evenodd" d="M1095.59 1325.96C1092.94 1324.55 1072.78 1313.76 1064.26 1305.46C1059.87 1301.19 1062.88 1298.26 1066.36 1300.41C1092.17 1316.37 1092.76 1314.79 1120.75 1325.32C1122.64 1326.03 1121.19 1334.11 1095.59 1325.96Z" fill="#53994F"/>
<path fill-rule="evenodd" clip-rule="evenodd" d="M1570.19 638.699C1568.07 639.3 1513.63 654.756 1542.78 640.749C1567.15 629.036 1641.12 622.03 1617.07 632.575C1617 632.606 1595.63 631.622 1570.19 638.699Z" fill="black"/>
<path fill-rule="evenodd" clip-rule="evenodd" d="M605.448 1221.73C605.212 1208.52 605.046 1208.61 605.38 1206.26C605.511 1205.32 620.985 1147.99 614.079 1198.18C610.666 1222.98 620.77 1240.87 620.62 1242.98C620.473 1245.07 612.816 1248.9 605.448 1221.73Z" fill="#53994F"/>
<path fill-rule="evenodd" clip-rule="evenodd" d="M704.103 710.891C705.033 710.876 759.404 709.923 714.238 716.588C652.89 725.641 654.092 732.461 648.85 731.327C644.243 730.332 645.807 720.402 704.103 710.891Z" fill="#53994F"/>
<path fill-rule="evenodd" clip-rule="evenodd" d="M618.489 804.434C620.676 825.82 629.719 850.597 619.038 831.878C598.544 795.968 620.269 755.837 619.473 773.088C618.741 788.983 618.515 788.618 618.489 804.434Z" fill="#53994F"/>
<path fill-rule="evenodd" clip-rule="evenodd" d="M584.369 1553.87C620.376 1537.7 602.182 1513.81 612.323 1511.02C626.477 1507.12 610.648 1561.16 586.028 1557.66C583.469 1557.3 584.214 1556.66 584.369 1553.87Z" fill="#53994F"/>
<path fill-rule="evenodd" clip-rule="evenodd" d="M893.413 856.109C867.071 846.04 867.21 846.184 864.966 845.234C838.367 833.981 893.618 843.982 924.236 862.611C951.956 879.48 895.752 857.044 893.413 856.109Z" fill="#53994F"/>
<path fill-rule="evenodd" clip-rule="evenodd" d="M1438.51 554.93C1451.15 547.719 1536.25 507.418 1506.47 527.987C1498.11 533.767 1444.78 558.458 1440.16 557.064C1439.29 556.804 1439.37 555.19 1438.51 554.93Z" fill="black"/>
<path fill-rule="evenodd" clip-rule="evenodd" d="M1514.82 491.547C1601.51 443.142 1484.96 518.361 1478.44 518.818C1470.79 519.351 1476.9 512.591 1514.82 491.547Z" fill="black"/>
<path fill-rule="evenodd" clip-rule="evenodd" d="M835.49 552.599C824.029 579.321 823.362 610.023 818.608 595.113C815.815 586.351 833.492 527.708 840.286 542.099C840.682 542.933 840.811 543.209 835.49 552.599Z" fill="black"/>
<path fill-rule="evenodd" clip-rule="evenodd" d="M640.578 762.022C655.942 749.222 656.609 745.715 659.337 749.443C662.363 753.58 658.643 753.312 647.065 765.736C630.196 783.833 630.496 795.141 627.414 798.559C625.332 800.866 616.323 794.624 640.578 762.022Z" fill="#53994F"/>
<path fill-rule="evenodd" clip-rule="evenodd" d="M1641.46 1468.23C1631.43 1460.56 1630.53 1461.12 1630.14 1458.19C1628.03 1442.13 1673.67 1481.77 1668.3 1487.41C1666.49 1489.33 1665.8 1488.05 1641.46 1468.23Z" fill="#53994F"/>
<path fill-rule="evenodd" clip-rule="evenodd" d="M1140.19 596.452C1138.45 597.667 1136.71 598.883 1134.97 600.096C1124.73 592.215 1133.56 588.656 1138.72 575.715C1149.5 548.714 1157.43 555.751 1157.41 557.82C1157.34 566.511 1150.86 563.944 1148.63 568.666C1144.58 577.234 1145.63 577.484 1141.47 586.133C1139.93 589.336 1135.78 589.756 1140.19 596.452Z" fill="#53994F"/>
<path fill-rule="evenodd" clip-rule="evenodd" d="M1470.74 458.138C1471.18 457.519 1475.66 451.059 1476.17 450.41C1476.67 449.754 1513.43 411.526 1486.09 447.381C1455.04 488.087 1459.79 491.014 1456.95 494.408C1433.19 522.782 1469.19 460.824 1470.74 458.138Z" fill="black"/>
<path fill-rule="evenodd" clip-rule="evenodd" d="M1530.8 697.131C1528.83 696 1515.95 688.608 1507.27 681.166C1497.89 673.121 1503.34 670.49 1504.44 671.28C1549.19 703.311 1554.44 697.255 1555.14 701.94C1556.12 708.487 1532.61 697.943 1530.8 697.131Z" fill="black"/>
<path fill-rule="evenodd" clip-rule="evenodd" d="M1429.56 487.843C1442.9 459.257 1448.98 461.22 1448.79 463.683C1448.31 470.101 1438.87 471.857 1423.65 518.503C1423.45 519.136 1421.1 526.328 1420.74 526.286C1419.31 526.116 1418.61 524.018 1417.19 523.848C1421.5 509.022 1421.36 509.226 1426.52 494.91L1429.56 487.843Z" fill="black"/>
<path fill-rule="evenodd" clip-rule="evenodd" d="M1087.08 527.604C1088.27 527.268 1108.75 521.474 1102.54 528.507C1097.29 534.444 1094.3 530.722 1088.82 538.364C1088.48 538.831 1088.41 538.702 1083.27 542.913C1081.59 542.611 1080.93 540.07 1079.25 539.765C1077.52 539.45 1075.89 540.852 1074.17 541.264C1068.97 542.516 1056.65 541.776 1050.97 536.366C1038.8 524.771 1057.49 537.135 1071.48 535.88C1081.67 534.964 1084.43 537.258 1087.08 527.604Z" fill="black"/>
<path fill-rule="evenodd" clip-rule="evenodd" d="M1546.67 628.564C1544.49 629.217 1503.74 641.416 1518.41 631.945C1518.91 631.619 1543.8 622.747 1552.03 621.295C1578.8 616.578 1578.95 624.004 1577.44 624.792C1575.24 625.939 1574.77 623.038 1546.67 628.564Z" fill="black"/>
<path fill-rule="evenodd" clip-rule="evenodd" d="M1127.22 479.511C1153.9 480.186 1153.63 559.256 1145.02 518.393C1144.32 515.043 1143.96 513.368 1127.22 479.511Z" fill="#53994F"/>
<path fill-rule="evenodd" clip-rule="evenodd" d="M1507.24 444.819C1506.76 445.465 1473.57 484.467 1497.7 448.021C1520.26 413.949 1546.89 398.317 1533.91 413.529C1520.52 429.221 1520.25 428.672 1507.24 444.819Z" fill="black"/>
<path fill-rule="evenodd" clip-rule="evenodd" d="M1020.9 412.027C1017.37 409.14 983.792 381.622 983.595 368.998C983.44 358.997 990.17 376.905 1009.07 394.461C1009.52 394.884 1024.42 407.872 1024.4 408.006C1024.17 409.77 1021.13 410.263 1020.9 412.027Z" fill="black"/>
<path fill-rule="evenodd" clip-rule="evenodd" d="M956.471 564.325L956.148 568.307C944.674 574.707 944.422 573.221 932.203 578.158C929.573 579.222 902.438 588.966 901.354 588.16C894.18 582.826 941.264 569.38 956.471 564.325Z" fill="black"/>
<path fill-rule="evenodd" clip-rule="evenodd" d="M1528.49 599.03L1529.57 603.03C1519.75 606.59 1478.57 623.508 1478.43 623.408C1467.93 616.14 1524.2 600.24 1528.49 599.03Z" fill="black"/>
<path fill-rule="evenodd" clip-rule="evenodd" d="M1429.56 487.843L1426.52 494.909C1424.98 496.56 1424.32 492.901 1422.81 494.513C1422.32 495.043 1422.38 494.978 1419.17 502.784C1412.87 518.075 1414.92 518.484 1409.07 533.688C1398.99 559.873 1403.41 515.455 1421.77 487.777C1426.03 481.356 1429.34 487.733 1429.56 487.843Z" fill="black"/>
<path fill-rule="evenodd" clip-rule="evenodd" d="M991.066 468.184C989.989 457.603 989.157 449.959 994.909 453.76C996.458 454.781 1018.62 469.426 1000.62 476.227C993.357 478.97 994.053 475.253 991.066 468.184Z" fill="#53994F"/>
<path fill-rule="evenodd" clip-rule="evenodd" d="M1188.33 1334.38C1172.06 1279.42 1206.08 1344.8 1200.51 1350.74C1199.39 1351.94 1195.53 1353.99 1188.33 1334.38Z" fill="#53994F"/>
<path fill-rule="evenodd" clip-rule="evenodd" d="M807.471 1526.3C803.355 1551.99 781.609 1487.71 795.319 1500.91C802.822 1508.13 806.914 1524.12 807.471 1526.3Z" fill="#53994F"/>
<path fill-rule="evenodd" clip-rule="evenodd" d="M1184.35 550C1187.08 552.026 1212.19 570.643 1205.63 586.81C1200.7 598.975 1203.5 582.521 1196.35 571.853C1190.28 562.799 1167.38 539.476 1184.35 550Z" fill="black"/>
<path fill-rule="evenodd" clip-rule="evenodd" d="M1444.85 484.528C1445.95 482.275 1459.3 454.802 1462.47 458.621C1463.69 460.094 1444.67 499.944 1442.99 503.475C1410.22 572.147 1444.29 485.945 1444.85 484.528Z" fill="black"/>
<path fill-rule="evenodd" clip-rule="evenodd" d="M736.06 610.457C726.867 626.577 721.449 649.152 723.623 630.593C725.781 612.158 752.753 563.915 745.51 586.706C744.891 588.653 744.809 588.464 736.06 610.457Z" fill="black"/>
<path fill-rule="evenodd" clip-rule="evenodd" d="M887.418 424.814C942.501 447.108 870.526 429.828 864.769 420.924C860.75 414.705 885.698 424.163 887.418 424.814Z" fill="black"/>
<path fill-rule="evenodd" clip-rule="evenodd" d="M756.616 553.948C757.17 550.709 755.501 550.541 757.677 547.761C768.161 534.376 782.462 530.817 790.67 529.691C809.547 527.097 790.894 535.578 790.424 535.681C771.193 539.805 773.374 544.118 756.616 553.948Z" fill="black"/>
<path fill-rule="evenodd" clip-rule="evenodd" d="M951.118 610.451C958.125 598.791 960.7 596.079 961.734 594.993C981.23 574.478 948.231 627.18 944.866 630.207C932.166 641.626 950.257 611.869 951.118 610.451Z" fill="black"/>
<path fill-rule="evenodd" clip-rule="evenodd" d="M1593.94 670.611C1595.18 670.43 1608.44 668.48 1609.51 668.614C1630.19 671.254 1574.19 681.555 1571.17 675.37C1567.8 668.459 1574.29 671.987 1593.94 670.611Z" fill="black"/>
<path fill-rule="evenodd" clip-rule="evenodd" d="M848.476 560.377C848.053 558.629 848.066 556.794 847.646 555.046C843.58 538.214 860.86 557.949 853.983 586.811C850.103 603.086 849.423 573.751 848.476 560.377Z" fill="black"/>
<path fill-rule="evenodd" clip-rule="evenodd" d="M786.507 607.745L786.274 610.357C784.793 611.953 783.032 610.328 781.496 615.504C772.768 644.92 776.173 582.542 780.139 586.031C781.273 587.026 781.824 588.664 781.984 590.165C782.42 594.213 780.677 598.494 781.898 602.379C782.032 602.802 782.932 600.754 786.694 605.13C787.733 606.343 785.478 606.548 786.507 607.745Z" fill="black"/>
<path fill-rule="evenodd" clip-rule="evenodd" d="M777.49 1505.69C793.117 1523.16 798.141 1537.6 790.563 1534.51C788.187 1533.55 781.297 1522.06 780.604 1520.91C773.057 1508.32 776.642 1507.66 777.49 1505.69Z" fill="#53994F"/>
<path fill-rule="evenodd" clip-rule="evenodd" d="M621.35 1211.41C623.896 1196.8 623.109 1195.84 625.227 1195.46C629.524 1194.67 628.18 1203.69 628.863 1222.04C630.968 1278.69 621.458 1212.45 621.35 1211.41Z" fill="#53994F"/>
<path fill-rule="evenodd" clip-rule="evenodd" d="M683.534 692.714C684.369 692.472 739.095 678.972 694.149 694.987C683.836 698.659 673.139 705.76 672.538 705.784C661.027 706.251 682.363 693.417 683.534 692.714Z" fill="#53994F"/>
<path fill-rule="evenodd" clip-rule="evenodd" d="M833.101 581.671L835.978 580.723C836.708 583.196 841.997 601.119 839.839 612.717C833.156 648.666 833.104 584.214 833.101 581.671Z" fill="black"/>
<path fill-rule="evenodd" clip-rule="evenodd" d="M1141.43 540.676C1142.06 545.136 1141.4 544.913 1138.07 547.929C1136.44 548.793 1109.04 563.238 1115.32 552.085C1116.27 550.407 1117.06 551.924 1137.19 542.002C1137.5 541.844 1137.19 542.002 1141.43 540.676Z" fill="#53994F"/>
<path fill-rule="evenodd" clip-rule="evenodd" d="M1491.6 688.949C1477.11 673.532 1479.49 670.994 1481.16 670.955C1483.13 670.907 1509.42 698.184 1491.6 688.949Z" fill="black"/>
<path fill-rule="evenodd" clip-rule="evenodd" d="M1186.71 735.136C1186.07 735.315 1159.17 740.41 1181.81 728.382C1191.04 723.479 1195.17 731.443 1192.09 733.346C1190.48 734.336 1188.32 734.144 1186.71 735.136Z" fill="black"/>
<path fill-rule="evenodd" clip-rule="evenodd" d="M442.559 756.247C446.743 758.034 446.394 757.929 446.743 758.034C448.292 758.491 448.187 757.69 449.691 758.134C435.624 771.435 424.105 776.585 429.539 768.348C430.321 767.159 430.733 767.915 442.559 756.247Z" fill="black"/>
<path fill-rule="evenodd" clip-rule="evenodd" d="M919.776 905.472C919.109 905.8 911.441 909.567 911.441 909.567C910.909 909.662 911.019 909.297 905.758 905.903C918.028 892.182 920.939 895.623 920.965 897.03C920.973 897.505 919.778 898.781 919.652 898.915C916.308 902.488 919.726 902.85 919.776 905.472Z" fill="#53994F"/>
<path fill-rule="evenodd" clip-rule="evenodd" d="M1552.38 461.029C1534.5 476.776 1554.52 443.397 1559.06 448.195C1560.72 449.943 1553.08 460.102 1552.38 461.029Z" fill="black"/>
<path fill-rule="evenodd" clip-rule="evenodd" d="M1116.02 502.553C1122.24 500.81 1121.29 503.889 1126.33 508.286C1133.93 513.048 1132.08 514.481 1132.56 516.124C1130.86 516.327 1129.16 516.531 1127.46 516.736C1120.83 510.097 1120.63 510.504 1116.02 502.553Z" fill="black"/>
<path fill-rule="evenodd" clip-rule="evenodd" d="M1116.02 502.553C1120.63 510.504 1120.83 510.097 1127.46 516.736L1126.11 518.747C1117.2 513.271 1117.79 513.003 1110.55 505.648C1112.37 504.616 1114.19 503.585 1116.02 502.553Z" fill="black"/>
<path fill-rule="evenodd" clip-rule="evenodd" d="M1413.29 1463.75C1419.37 1460.33 1422.69 1459.19 1422.24 1465.92C1422 1469.51 1405.81 1478.94 1413.29 1463.75Z" fill="black"/>
<path fill-rule="evenodd" clip-rule="evenodd" d="M1575.56 417.902C1575.12 418.572 1575.45 418.435 1570.2 426.378C1569.81 426.956 1560.39 441.194 1561.98 429.066C1563.05 420.963 1574.2 418.238 1575.56 417.902Z" fill="black"/>
<path fill-rule="evenodd" clip-rule="evenodd" d="M1323.81 413.629C1323.57 413.159 1316.81 412.823 1323.61 405.549C1324.62 404.47 1324.52 404.67 1328.25 401.693C1349.71 384.539 1324.49 412.868 1323.81 413.629Z" fill="black"/>
<path fill-rule="evenodd" clip-rule="evenodd" d="M1483.84 634.31C1483.41 634.438 1467.28 636.171 1481.4 629.299C1481.5 629.251 1496.82 626.031 1483.84 634.31Z" fill="black"/>
<path fill-rule="evenodd" clip-rule="evenodd" d="M690.677 1154.62C701.72 1168.44 685.975 1159.08 685.92 1158.8C685.169 1155 687.017 1156.06 690.677 1154.62Z" fill="black"/>
<path fill-rule="evenodd" clip-rule="evenodd" d="M1148.32 537.177C1152.13 535.594 1151.94 535.655 1155.73 536.45L1152.81 541.645C1149.34 540.902 1149.72 540.38 1148.32 537.177Z" fill="black"/>
<path fill-rule="evenodd" clip-rule="evenodd" d="M1170.62 526.488C1168.15 536.116 1162.55 527.706 1165.03 525.238C1167.56 522.721 1168 523.808 1170.62 526.488Z" fill="black"/>
<path fill-rule="evenodd" clip-rule="evenodd" d="M1129.75 520.81C1132.61 524.85 1132.6 524.816 1132.84 525.173C1133.84 526.69 1133.44 526.535 1134.63 528.341L1129.51 529.887C1128.65 528.231 1130.61 526.191 1125 525.097C1125.42 525.007 1130.22 523.976 1130.22 523.976C1130.89 523.141 1129.09 521.645 1129.75 520.81Z" fill="black"/>
<path fill-rule="evenodd" clip-rule="evenodd" d="M1557.41 673.276C1560.41 669.853 1562.73 668.784 1563.02 673.152C1563.05 673.601 1563 681.854 1557.41 673.276Z" fill="black"/>
<path fill-rule="evenodd" clip-rule="evenodd" d="M1127.46 516.736C1129.16 516.531 1130.86 516.327 1132.56 516.125C1131.62 517.686 1130.69 519.248 1129.75 520.81L1126.11 518.747L1127.46 516.736Z" fill="black"/>
<path fill-rule="evenodd" clip-rule="evenodd" d="M1242.46 533.36C1246.21 534.271 1246.22 533.964 1246.21 534.271C1246.21 534.271 1241.79 538.555 1241.41 538.925C1241.76 537.072 1242.11 535.216 1242.46 533.36Z" fill="black"/>
<path fill-rule="evenodd" clip-rule="evenodd" d="M1313.23 1065.02C1312.28 1065.46 1312.4 1065.52 1308.53 1068.97C1308.42 1065.2 1309.82 1066.23 1313.23 1065.02Z" fill="black"/>
<path fill-rule="evenodd" clip-rule="evenodd" d="M672.532 452.768C676.969 454.781 677.373 454.521 677.307 454.936C677.205 455.584 675.593 455.049 675.491 455.697L672.532 452.768Z" fill="black"/>
<path fill-rule="evenodd" clip-rule="evenodd" d="M738.929 1035.45C739.26 1035.64 743.061 1037.79 743.061 1037.79C743.247 1039.25 741.006 1037.02 741.189 1038.47L738.929 1035.45Z" fill="black"/>
<path fill-rule="evenodd" clip-rule="evenodd" d="M758.64 1279.34L756.763 1282C756.894 1280.52 754.871 1282.5 754.981 1281.24C755.01 1280.91 754.981 1281.24 758.64 1279.34Z" fill="#53994F"/>
</svg>
