<svg width="2122" height="2122" viewBox="0 0 2122 2122" fill="none" xmlns="http://www.w3.org/2000/svg">
<circle cx="1061" cy="1061" r="1061" fill="black"/>
<path fill-rule="evenodd" clip-rule="evenodd" d="M864.418 727.991L870.947 731.949C893.052 753.398 949.495 817.33 1021.78 846.735C1044.32 855.905 1047.39 847.407 1067.24 861.168C1091.12 877.721 1121.11 893.159 1118.77 951.392L1116.51 952.699C1116.15 952.119 1114.95 954.006 1114.59 953.426C1111.31 948.152 1110.32 913.174 1076.28 886.809C1020.13 843.328 1084.48 901.687 1092.15 915.104C1114.28 953.801 1039.01 882.249 1050.95 901.574C1064.72 923.866 1119.7 940.385 1109.13 990.99C1097.1 1048.56 1005.2 920.508 1029.74 962.007C1056.13 1006.62 1094.07 1016.64 1101.11 1018.49C1110.5 1020.98 1101.34 1040.3 1074.79 1024.29C1025.72 994.696 988.988 927.675 1017.2 977.555C1046.52 1029.38 1092.14 1042.07 1100.36 1044.35C1127.63 1051.94 1091.26 1066.05 1064.6 1045C1001.12 994.869 1009.54 986.514 1003.45 983.157C996.564 979.366 999.559 989.013 1020.42 1016.27C1030.12 1028.93 1072.95 1065.44 1082.4 1065.87C1121.48 1067.64 1120.06 1073.94 1149.03 1099.92C1205.69 1150.72 1228.3 1125.17 1260.33 1133.47C1282.1 1139.12 1221.12 1136.63 1220.82 1140.56C1219.65 1155.83 1279.09 1142.85 1323.21 1165.21C1385.98 1197.03 1411.23 1258.51 1391.36 1233.37C1356.96 1189.85 1303.31 1165.12 1297.19 1166.17C1282.24 1168.73 1344.02 1195.53 1369.53 1228.8C1411.21 1283.14 1417.64 1276.38 1472.47 1317.59C1527.41 1358.89 1509.43 1379.62 1549.08 1396.02C1561.88 1401.32 1540.16 1406.61 1519.1 1383.64C1487.88 1349.6 1491.27 1345.62 1442.6 1315.29C1369.73 1269.88 1355.2 1226.76 1338.89 1212.04C1288.62 1166.68 1246.21 1158.18 1237.1 1156.36C1129.44 1134.78 1149.88 1081.52 1084.94 1079.39C1055.96 1078.44 1053.79 1057.77 1036.9 1047.25C1018.62 1035.85 1018.08 1036.25 998.065 1009.42C966.988 967.774 998.005 1031 1025.03 1053.25C1076.86 1095.92 1080.96 1088.41 1082.21 1088.51C1105.28 1090.36 1106.73 1088.58 1128.05 1107.77C1213.28 1184.5 1250.61 1140.46 1302.23 1196.1C1317.13 1212.15 1324.12 1204.25 1343.45 1230.67C1375.15 1273.99 1372.15 1278.39 1464.83 1338.52C1517.07 1372.41 1496.58 1393.2 1531.87 1414.98C1544.28 1422.64 1534.56 1424.75 1533.77 1424.71C1501.85 1423.12 1492.82 1379.6 1492.43 1378.7C1492.14 1380.17 1489.74 1380.6 1489.46 1382.06C1486.17 1399.05 1498.99 1415.42 1500.84 1417.78C1511.33 1431.18 1546.48 1443.77 1523.34 1440.45C1482.03 1434.53 1484.57 1389.08 1482.12 1371.29C1481.36 1365.76 1458.13 1351.1 1421.49 1326.03C1357.86 1282.5 1365.89 1274.38 1330.62 1230.62C1295.2 1186.68 1331.34 1277.52 1405.69 1326.04C1467.47 1366.35 1472.2 1367.01 1484.44 1423.9C1496.19 1478.54 1551.56 1439 1594.35 1452.22C1595.59 1452.6 1631.26 1463.62 1607.07 1462.25C1602.2 1461.98 1547.22 1458.85 1546.32 1465.74C1544.19 1482.09 1632.9 1439.01 1665.11 1515.86C1665.29 1516.27 1668.22 1528.92 1660.02 1518.2C1603.66 1444.48 1523.49 1522.35 1479 1442.19C1465.07 1417.1 1488.42 1397.64 1423.32 1356.06C1287.63 1269.41 1336.75 1213.43 1255.43 1178.28C1250.64 1176.22 1250.94 1182.02 1257.87 1185.45C1263.16 1188.07 1292.42 1202.57 1306.77 1240.72C1334.33 1313.99 1358.86 1316.25 1433.12 1372.64C1473.47 1403.27 1465.83 1439.78 1471.85 1452.34C1498.88 1508.82 1570.48 1481.33 1614.71 1498.55C1655.01 1514.23 1680.12 1576.45 1664.69 1558.5C1621.83 1508.64 1603.27 1502.86 1546.93 1506.1C1461.9 1511 1456.08 1428.58 1451.49 1419.19C1443.32 1402.49 1408.63 1369.03 1405.99 1371.79C1398.34 1379.77 1434.26 1401 1447.52 1431.76C1450.6 1438.9 1433.58 1445.47 1403.51 1391.92C1377.56 1345.7 1375.96 1346.78 1337.18 1310.77C1315.67 1290.8 1333.98 1321.26 1334.36 1321.5C1399.09 1361.3 1398.87 1426.05 1434.45 1444.15C1454.13 1454.17 1452.47 1484.53 1489.65 1504.41C1519.5 1520.37 1545.8 1514.38 1557.41 1513.87C1629.88 1510.64 1663.34 1576.35 1663.91 1594.38C1664.4 1609.52 1655 1579.22 1640.91 1563.58C1602.79 1521.25 1557.84 1538.09 1557.37 1538.1C1545.37 1538.25 1557.42 1526.73 1557.44 1526.39C1558.63 1505.22 1495.65 1580.97 1436.24 1455.71C1432.89 1448.67 1411.21 1454.64 1387.47 1405.29C1363.69 1355.86 1343.34 1352.85 1321.46 1326.6C1305.77 1307.78 1311.01 1192.87 1218.85 1186.86C1143.13 1181.93 1153.6 1155.59 1113.12 1128.4C1083.37 1108.41 1061.78 1134.62 1036.42 1078.08C1026.12 1055.12 1011.35 1067.73 981.092 1021.41C980.538 1020.56 954.424 980.582 970.636 1014.23C990.376 1055.21 1013.46 1067.79 1018.67 1070.62C1026.53 1074.91 1037.27 1126.21 1084.94 1129.25C1114.39 1131.13 1115.92 1139.77 1135.17 1158.44C1190.18 1211.76 1224.09 1179.9 1259.71 1207.22C1309.43 1245.37 1290.45 1304.54 1324.98 1344.12C1334.24 1354.73 1341.83 1347.84 1354.09 1374.68C1364.05 1396.49 1369.1 1393.1 1380.99 1413.8C1384.3 1419.56 1396.8 1451.74 1396.33 1452.52C1394.08 1456.21 1390.18 1454.8 1364.78 1408.8C1340.79 1365.35 1323.41 1360.38 1304.04 1328.7C1287.7 1302 1294.27 1212.48 1213.59 1205.51C1164.73 1201.28 1162.86 1200.36 1129.12 1164.48C1100.01 1133.53 1088.43 1142.26 1079.61 1140.73C1025.3 1131.35 1021.37 1106.03 1013.14 1085.77C1008.07 1073.28 986.484 1065.23 967.833 1034.61C967.08 1033.37 944.57 996.408 954.59 1022.22C968.256 1057.42 990.765 1074.77 995.141 1078.14C1015.25 1093.64 1002.97 1143.98 1087.46 1149.5C1111.24 1151.05 1121.23 1168.73 1134.93 1182.33C1182.36 1229.41 1216.55 1200.44 1246.74 1223.07C1302.78 1265.1 1265.64 1322.14 1327.35 1373.21C1352.81 1394.28 1291.71 1378.77 1278.96 1308.54C1264.92 1231.15 1241.76 1226.04 1189.83 1222.62C1138.37 1219.23 1142.12 1193.29 1106.74 1168.24C1084.89 1152.76 1012.59 1171.77 997.322 1103.95C992.967 1084.61 973.821 1088.21 942.517 1028.05C933.115 1009.98 935.356 1036.81 956.921 1066.53C967.36 1080.91 968.668 1079.65 978.971 1093.95C987.3 1105.52 993.4 1163.77 1071.74 1169.7C1116.34 1173.09 1112.38 1183.6 1143.41 1215.92C1176.48 1250.36 1215.82 1230.52 1234.11 1240.99C1294.93 1275.78 1245.52 1358.7 1335.07 1396.93L1334.51 1400.64C1324.58 1409.26 1356.48 1438.71 1342.16 1434.42C1338.98 1433.47 1341.86 1429.09 1308.36 1410.33C1286.12 1397.87 1251.56 1353.71 1285.09 1383.39C1287.82 1385.8 1307.61 1403.32 1323.92 1407.03C1392.69 1422.64 1275.92 1399.39 1266.44 1329.4C1265.49 1322.38 1265.27 1268.76 1229.32 1250.61C1214.68 1243.22 1164.14 1263.69 1131.07 1217.36C1085.92 1154.13 1058.78 1199.83 996.38 1157.87C943.239 1122.13 910.5 1049.54 905.571 1038.61C890.768 1005.78 900.279 1077.56 967.137 1145.37C1028.73 1207.84 1086.94 1166.59 1115.23 1212.11C1139.49 1251.14 1146.65 1256.09 1216.16 1257.66C1257.76 1258.6 1266.31 1342.9 1253.08 1329.29C1251.28 1327.43 1247.45 1270.65 1218.8 1268.72C1206.73 1267.9 1156.97 1272.31 1122.58 1241.83C1112.94 1233.27 1115.06 1232.01 1107.67 1217.07C1102.14 1205.91 1082.25 1198.27 1079.69 1197.28C1074.5 1196.53 1074.83 1196.75 1069.25 1197.33C1035.75 1195.61 972.55 1202.44 897.123 1066.29C885.321 1044.98 876.475 1016.55 879.856 1040.73C882.615 1060.46 934.018 1158 985.405 1184.61C1038.42 1212.08 1056.54 1193.74 1066.01 1224.68C1074.64 1252.87 1077.37 1272.99 1118.84 1285.19C1119.46 1286 1120.06 1286.82 1120.68 1287.63C1116.59 1293.38 1115.41 1290.87 1108.61 1289.25C1059.85 1277.63 1063.1 1222.69 1047.79 1217.68C977.123 1194.56 934.367 1190.78 906.959 1153.21C853.764 1080.3 834.979 1011.37 838.638 1040.78C842.143 1068.95 903.749 1173.38 914.763 1178.76C964.368 1202.98 989.731 1201.24 1034.9 1224.71C1042.43 1228.62 1047.45 1221.1 1048.81 1229.63C1052.7 1254.03 1077.57 1300.93 1124.26 1303.24C1125.36 1303.3 1151.7 1304.6 1135.09 1311.74C1125.96 1315.66 1077.45 1314.8 1051.68 1263.4C1041.11 1242.32 1043.12 1233.9 1034.79 1239.92C1028.53 1244.44 997.194 1215.56 998.039 1227.15C998.863 1238.45 1025.05 1224.9 1050.38 1277.08C1063.69 1304.52 1024.96 1247.07 984.764 1233.26C838.735 1183.09 850.931 1145.69 841.203 1154.17C837.029 1157.81 866.852 1194.05 925.19 1218.19C951.639 1229.14 1040.43 1243.5 1056.66 1324.13C1068.13 1381.11 1029.89 1390.06 1067.65 1436.16C1121.11 1501.42 1189.56 1499.86 1188.37 1560.55C1187.95 1581.59 1147.3 1636.39 1242.84 1680.31C1244.26 1680.96 1328.97 1706.3 1308.47 1783.77C1304.42 1799.1 1294.65 1807.8 1297.16 1796.75C1325.14 1673.65 1165.79 1707.97 1167.47 1607.77C1168.06 1572.52 1197.72 1546.14 1139.25 1509.17C1128.24 1502.2 1101.34 1482.91 1105.58 1495.01C1109.72 1506.82 1175.65 1518.52 1165.03 1570.78C1147.23 1658.37 1166.54 1662.46 1239.43 1700.35C1339.86 1752.57 1263.37 1843.24 1274.87 1810.14C1307.88 1715.17 1199.68 1715.72 1162.01 1664.71C1115.4 1601.6 1177.22 1559.01 1137.27 1526.52C1136.25 1525.69 1114.99 1508.41 1121.79 1521.07C1129.92 1536.2 1143.16 1549.29 1132.71 1607.85C1132.19 1610.74 1125.29 1649.42 1119.07 1641.85C1109.56 1630.25 1168.1 1564.76 1086.43 1493.45C1040.29 1453.16 1004.96 1446.47 1023.14 1403.71C1051.36 1337.31 995.482 1267.79 961.627 1260.63C955.204 1259.28 923.552 1252.58 885.896 1228.99C873.123 1220.99 875.325 1211.05 882.121 1215.2C954.107 1259.14 975.157 1237.75 1013.35 1288.01C1069.27 1361.61 1014.11 1413.7 1035.16 1437C1041.26 1443.75 1105.4 1493.72 1064.03 1450.14C1014.52 1397.98 1071.69 1378.72 1037.16 1308.75C1004.41 1242.41 955.023 1247.24 886.033 1210.1C836.851 1183.63 823.033 1141.61 822.211 1156.25C821.762 1164.22 859.877 1203.65 859.877 1203.83C859.985 1212.38 829.238 1192.24 809.952 1160.44C809.601 1159.86 799.216 1142.73 802.521 1156.3C807.044 1174.87 847.912 1211.36 825.083 1198.09C799.253 1183.07 784.359 1143.68 783.629 1156.38C783.385 1160.62 796.966 1182.5 802.495 1189.68C821.284 1214.08 794.546 1192.94 794.04 1192.44C780.172 1178.81 750.9 1131.5 764.676 1161.49C780.5 1195.94 816.305 1228.68 785.755 1205.91C767.068 1191.98 737.715 1135.85 746.12 1161.52C751.751 1178.72 786.201 1217.03 765.432 1202.24C748.551 1190.22 735.247 1161.54 733.502 1158.31C720.925 1135.04 730.433 1163.63 730.635 1164.1C731.271 1165.62 745.039 1198.28 733.804 1184.34C713.284 1158.88 679.655 1145.32 717.586 1127.81C739.101 1117.88 739.516 1119.17 759.975 1107.57C769.422 1102.21 808.117 1126.62 861.436 1146.57C874.485 1151.46 899.433 1170.93 887.059 1154.21C819.94 1063.48 823.377 1016.94 817.938 1035.73C817.851 1036.02 826.886 1075.61 831.556 1087.58C835.368 1097.35 850.348 1122.24 840.725 1116.96C836.68 1114.73 814.593 1074.51 807.574 1048.3C807.38 1047.57 793.614 1005.12 799.531 1043.29C799.959 1046.04 818.05 1106.92 797.339 1066.29C781.442 1035.11 787.768 1033.01 781.206 1018.92C772.173 999.526 777.499 1031.75 777.686 1032.89C780.287 1048.63 784.508 1052.85 777.641 1052.12C768.727 1051.17 766.716 1009.23 756.439 1014.27C753.491 1015.71 776.641 1062.18 753.612 1038.7C730.318 1014.95 687.475 1029.16 707 1030.02C723.771 1030.76 724.341 1028 739.127 1035.45L741.387 1038.47C732.05 1037.38 720.487 1032.76 703.341 1039.89C702.863 1040.09 676.789 1054.59 701.645 1046.14C758.109 1026.94 767.776 1079 756.429 1095.68C740.668 1118.85 709.449 1097.24 709.097 1097.09C676.781 1083.79 637.771 1124.17 609.925 1108.87C611.857 1107.09 610.712 1104.58 614.98 1105.77C639.585 1112.66 673.956 1077.87 714.712 1086.2C715.712 1086.4 753.496 1094.12 727.254 1083.78C678.109 1064.4 668.906 1101.51 607.497 1100.38C571.033 1087.3 592.489 1070.86 611.111 1008.87C650.069 879.201 649.373 870.985 670.179 871.505C690 872.001 695.137 862.772 705.07 880.17C713.581 895.08 731.622 887.344 753.271 925.761C773.525 961.703 788.343 985.824 843.258 981.894C884.823 978.92 970.542 932.484 903.673 958.563C851.223 979.017 832.74 973.016 842.151 968.921C848.962 965.958 850.926 971.525 929.668 937.881C951.5 928.554 925.421 933.704 924.964 933.896C834.559 971.706 823.413 963.795 828.818 957.993C834.349 952.056 840.19 964.992 923.326 921.117C925.116 920.172 949.374 907.37 942.874 905.045C942.195 904.8 889.269 935.124 840.767 949.289C808.278 958.776 847.962 943.007 874.294 922.07C881.011 916.728 873.162 916.006 872.398 914.817C871.593 913.565 906.308 890.4 897.244 904.05C896.79 904.732 886.56 920.136 895.661 914.161C896.543 913.581 896.425 913.55 905.956 905.903C911.217 909.297 911.107 909.662 911.64 909.567C911.64 909.567 919.307 905.801 919.974 905.472C933.464 898.364 933.398 898.445 934.545 897.797C963.838 881.236 993.679 850.431 995.162 846.368C997.758 839.262 983.662 849.258 982.824 849.851C980.937 847.888 979.052 845.922 977.165 843.958C945.93 842.144 944.925 841.359 944.838 838.742C944.733 835.516 983.992 837.593 965.014 832.266C957.315 830.103 957.112 831.618 867.141 811.878C740.245 784.037 728.27 809.964 729.934 799.068C730.131 797.79 766.096 779.383 782.936 775.343C852.202 758.732 861.791 779.026 862.106 767.786C862.305 760.74 814.475 759.205 796.069 762.037C739.516 770.736 727.12 784.515 733.898 773.451C736.576 769.077 781.067 751.474 827.674 753.178C858.798 754.317 863.011 756.128 860.741 752.59C853.407 741.153 753.483 752.844 775.037 744.019C778.179 742.733 798.442 742.709 817.436 737.215C833.688 732.514 843.789 727.159 864.418 727.991Z" fill="#4F5C99"/>
<path fill-rule="evenodd" clip-rule="evenodd" d="M1555.81 986.527C1568.59 981.865 1591.7 982.411 1617.01 950.932C1632.03 932.263 1635.8 929.452 1630.83 928.932C1620.82 927.887 1594.11 989.226 1515.44 972.129C1491.8 966.992 1534.07 982.584 1545.65 1038.57C1550.12 1060.16 1551.22 1036.05 1551.15 1035.55C1545.58 995.988 1541.5 990.971 1548.74 991.848C1574.34 1035.99 1540.62 1084.37 1599.52 1097.97C1606.2 1099.51 1666.41 1113.41 1675.28 1137.93C1682.78 1158.66 1658.14 1113.81 1609.91 1114.88C1592.36 1115.27 1568.41 1122.38 1534.64 1082.12C1511.82 1054.93 1519.36 1016.1 1462.2 978.844C1391.55 932.807 1275.98 1033.69 1237 930.562C1224.92 898.624 1219.25 870.29 1219.13 893.815C1219.11 897.86 1231.1 949.068 1250.69 969.48C1292.1 1012.64 1374.17 962.585 1426.27 974.552C1523.86 996.967 1490.62 1106.48 1591.35 1122.87C1592.46 1123.05 1653.33 1117.68 1682.29 1169.62C1697.44 1196.81 1671.06 1147.26 1617.65 1141.54C1538.38 1133.06 1528.78 1121.88 1493.85 1051.52C1442.57 948.244 1327.62 1001.52 1313.17 1002.89C1215.08 1012.24 1232.73 915.447 1222.09 943.79C1220.84 947.115 1232.34 1014.12 1294.88 1011.91C1354.36 1009.81 1434.43 946.74 1491.32 1064.59C1548.64 1183.35 1615.78 1119.95 1661.23 1173C1683.41 1198.88 1683.14 1214.18 1676.05 1205.49C1610.79 1125.48 1552.19 1198.03 1490.41 1089.91C1461.92 1040.06 1450.4 986.7 1331.97 1020.94C1199.28 1059.31 1214.33 923.404 1197.3 883.475C1187.07 859.488 1153.9 820.761 1173.74 834.251C1177.54 836.842 1175.01 839.627 1217.88 871.255C1227.06 878.028 1223.38 883.294 1234.69 885.063C1252.62 887.869 1269.57 959.062 1363.36 931.218C1456.96 903.428 1474.3 964.887 1518 965.527C1604.46 966.79 1615.27 899.818 1656.95 920.401C1680.09 931.827 1696.96 979.91 1674.66 949.903C1650.62 917.553 1629.42 950.405 1627.37 953.594C1624.14 958.602 1604.02 989.774 1562.68 990.509C1558.35 990.585 1557.98 990.848 1555.81 986.527Z" fill="#4F5C99"/>
<path fill-rule="evenodd" clip-rule="evenodd" d="M771.969 1277.31L769.947 1279.66C766.243 1279.56 762.542 1279.45 758.838 1279.34C755.179 1281.24 755.208 1280.91 755.179 1281.24C755.069 1282.5 757.093 1280.52 756.961 1282C793.89 1293.16 816.433 1297.74 815.446 1329.46C814.62 1356.06 837.347 1460.57 902.856 1511.76C903.505 1512.26 918.328 1523.85 903.804 1521.99C890.34 1520.28 926.287 1560.29 920.475 1620.98C915.653 1671.34 858.428 1713.38 887.017 1675.44C918.953 1633.06 914.787 1556.14 869.036 1492.7C822.586 1428.28 804.351 1392.07 806.214 1324.33C806.923 1298.56 775.875 1372.26 839.323 1465.21C839.662 1465.71 897.992 1531.08 899.313 1605.11C900.888 1693.38 790.446 1704.71 812.68 1773.02C824.369 1808.94 793.347 1763.68 801.046 1736.28C818.04 1675.83 952.905 1663.53 851.716 1499.82C825.933 1458.11 784.141 1430 788.115 1324.27C789.685 1282.49 763.928 1367.15 798.198 1434.78C819.019 1475.86 938.107 1597.83 844.902 1674.74C808.553 1704.74 770.913 1721.48 793.543 1781C800.949 1800.47 749.236 1749.48 793.932 1702.65C834.824 1659.82 907.592 1650.53 844.854 1526.97C820.872 1479.73 754.793 1429.08 771.864 1313.98C771.286 1313.65 770.709 1313.33 770.131 1313C766.246 1314.33 760.356 1316.35 761.602 1363.63C764.532 1474.88 832.8 1478.84 860.541 1587C885.382 1683.86 730.41 1666.76 766.477 1775.82C774.357 1799.64 726.913 1742.84 765.233 1700.13C808.175 1652.25 874.525 1648.4 845.537 1571.17C810.43 1477.65 749.887 1462.27 750.535 1353.14C750.646 1334.57 759.056 1294.81 750.969 1310.48C747.756 1316.7 738.216 1357.07 744.902 1397.59C751.772 1439.2 773.502 1472.87 756.78 1452.86C719.272 1407.95 738.077 1319.89 740.503 1308.53C751.375 1257.62 702.771 1370.17 739.222 1444.68C739.516 1445.28 751.83 1470.45 736.213 1452.42C730.685 1446.04 703.026 1397.33 722.023 1318.93C722.241 1318.04 735.925 1260.67 719.096 1307.8C694.796 1375.85 717.836 1444.81 717.492 1445.11C709.323 1452.27 684.958 1376 710.302 1305.9C721.101 1276.03 671.809 1339.42 699.5 1439.74C706.669 1465.71 682.144 1430.38 682.637 1374.13C683.047 1327.58 706.771 1272.3 687.045 1314.43C683.349 1322.33 666.165 1380.33 682.49 1434.72C690.26 1460.61 693.883 1464.16 688.473 1463.59C683.115 1463.03 664.044 1410.96 667.097 1371.49C669.066 1346.04 677.634 1314.02 670.604 1322.44C669.26 1324.05 644.073 1382.89 674.581 1461.09C678.445 1470.98 692.599 1498.49 683.286 1494.83C681.522 1494.14 602.659 1350.78 690.439 1294.26C742.154 1260.97 766.128 1274.11 771.969 1277.31Z" fill="#4F5C99"/>
<path fill-rule="evenodd" clip-rule="evenodd" d="M1586.2 611.829C1625.43 605.865 1625.27 613.601 1665.1 614.601C1672.65 614.79 1691.83 636.659 1654.44 670.553C1607.57 713.039 1588.04 697.533 1592.83 710.296C1600.9 731.831 1543.92 724.276 1507.28 705.211C1462.05 681.681 1466.51 675.465 1462.51 673.685C1449.54 667.92 1450.06 667.548 1437.09 656.964C1416.34 640.027 1467.7 657.134 1539.01 660.318C1590.95 662.636 1635.35 649.852 1638.26 646.608C1649.45 634.16 1618.84 655.008 1549.55 653.735C1512.78 653.06 1422.95 637.72 1421.65 635.995C1418.71 632.11 1418.24 627.078 1471.31 600.796C1552.69 560.49 1569.68 592.184 1569.97 599.77C1570.45 612.118 1573.89 611.556 1586.2 611.829Z" fill="#4F5C99"/>
<path fill-rule="evenodd" clip-rule="evenodd" d="M946.082 394.818C947.053 396.881 945.998 396.894 946.964 398.947C948.741 402.714 947.998 397.787 950.886 394.545C966.442 397.49 985.276 459.506 984.846 467.58C966.828 461.968 844.673 330.264 880.665 378.932C886.836 387.279 888.576 385.541 971.576 471.513C1000.64 501.616 872.606 500.729 845.865 471.248C832.052 456.02 831.994 456.403 816.68 442.601C818.678 437.466 824.563 422.346 805.324 374.682C800.655 363.105 796.431 367.578 796.798 368.77C801.285 383.386 802.531 382.659 806.621 397.632C815.788 431.201 813.365 436.458 811.95 439.524C789.695 419.301 790.485 417.839 789.8 405.573C787.742 368.81 773.743 346.71 775.276 360.893C775.339 361.486 782.862 390.818 783.261 405.562C783.587 417.553 775.087 401.176 774.72 400.47C771.955 395.144 767.412 398.588 730.323 340.003C730.011 339.512 708.858 314.559 723.06 339.662C786.435 451.691 843.371 461.624 833.882 471.744C831.299 474.5 830.703 472.479 816.615 467.15C707.625 425.853 708.034 371.545 708.402 318.885C708.572 294.501 721.802 307.182 722.842 308.177C723.842 309.135 753.93 329.18 754.176 329.23C760.529 330.479 761.986 317.997 769.672 324.418C782.928 335.496 787.614 353.813 790.554 351.989C818.93 334.372 830.923 442.714 833.567 447.2C865.384 501.183 952.506 485.121 952.571 484.48C952.999 480.327 870.679 470.841 857.205 436.729C846.878 410.581 839.591 398.485 859.266 395.997C867.542 394.952 872.606 397.448 870.083 389.628C869.269 387.108 858.431 353.501 874.645 356.84C892.873 360.593 901.426 379.606 912.493 369.783C918.661 364.313 926.153 371.805 928.839 377.364C930.876 381.585 931.432 382.357 935.622 380.223C942.05 376.95 946.024 394.645 946.082 394.818Z" fill="#4F5C99"/>
<path fill-rule="evenodd" clip-rule="evenodd" d="M1579.57 416.453C1577.28 426.948 1572.86 454.466 1540.43 507.197C1505.8 563.524 1408.79 564.763 1376.15 580.988C1367.98 585.047 1369.28 579.91 1369.53 579.427C1371.89 574.872 1372.84 575.891 1399.4 562.104C1412.85 555.119 1501.22 478.091 1514.86 465.336C1552.49 430.138 1586.77 373.333 1562.67 400.289C1538.62 427.192 1546.26 435.227 1421.25 534.589C1406.45 545.89 1407.45 546.955 1391.32 556.463C1375.37 565.868 1383.16 551.203 1384.89 547.619C1409.73 496.012 1404.08 476.28 1431.9 445.347C1449.07 426.253 1452.67 432.206 1458.06 436.448C1467.44 443.822 1494.39 404.09 1507.5 404.628C1515.9 404.974 1515.35 403.389 1523.07 399.89C1527.36 397.945 1531.75 396.223 1536.02 394.23C1564.8 380.814 1570.52 371.487 1578.49 376.483C1591.72 384.767 1580.55 412.689 1579.57 416.453Z" fill="#4F5C99"/>
<path fill-rule="evenodd" clip-rule="evenodd" d="M672.731 452.767L675.689 455.697C660.671 458.094 658.878 458.771 657.49 459.298C639.299 466.181 638.737 461.454 623.656 448.93C571.287 405.439 633.106 475.164 664.716 487.299C665.69 487.675 691.785 497.694 670.019 499.217C625.948 502.299 586.998 453.09 581.903 446.654C534.062 386.211 516.96 388.208 509.526 332.07C503.373 285.597 542.486 317.863 552.177 311.214C587.342 287.083 614.876 369.004 627.063 352.227C628.995 349.568 643.073 330.19 666.276 364.515C672.473 373.681 675.502 362.696 676.279 361.63C689.061 344.087 704.745 383.882 707.824 415.899C711.953 458.808 746.38 482.099 722.986 467.633C687.462 445.669 699.091 414.49 683.811 378.422C671.111 348.447 690.431 423.577 687.076 427.714C678.758 437.976 658.92 378.202 657.797 375.403C633.707 315.396 659.616 398.209 660.209 400.105C671.292 435.534 709.848 459.986 685.984 452.219C635.474 435.776 657.907 404.651 639.178 370.534C627.365 349.022 647.696 420.624 645.577 425.801C645.018 427.171 643.509 428.843 629.008 417.54C598.81 394.004 612.337 383.664 571.001 330.757C543.922 296.094 580.241 353.524 581.383 355.327C582.472 357.049 603.1 389.662 588.531 379.766C562.753 362.26 534.194 334.716 533.606 334.884C521.42 338.415 578.971 379.729 606.197 406.504C643.141 442.834 647 437.283 672.731 452.767Z" fill="#4F5C99"/>
<path fill-rule="evenodd" clip-rule="evenodd" d="M1330.2 1552.55C1338.38 1623.15 1440.26 1642.62 1452.3 1644.92C1462.36 1646.84 1528.4 1659.46 1559.2 1715.59C1575.79 1745.83 1539.02 1680.25 1455.22 1659.49C1288.58 1618.2 1335.54 1554.05 1307.46 1492.49C1293.06 1460.91 1220.32 1372.57 1229.71 1355.96C1236.11 1344.64 1238.01 1399.98 1296.94 1432.97C1376.19 1477.33 1336.46 1522.45 1361.58 1562.48C1418.35 1652.95 1489.61 1585.72 1554.39 1678.79C1574.27 1707.35 1527.8 1653.5 1478.44 1639.95C1413.39 1622.09 1354 1626.68 1339.98 1521.06C1337.7 1503.93 1332.35 1475.99 1304.38 1448.91C1282.55 1427.77 1313.91 1472.41 1314.89 1474.37C1326.9 1498.45 1327.48 1521.02 1330.2 1552.55Z" fill="#4F5C99"/>
<path fill-rule="evenodd" clip-rule="evenodd" d="M864.418 727.991C883.541 713.782 971.463 736.656 984.202 757.638C986.486 761.399 991.153 769.085 1030.41 787.463C1061.84 802.181 1108.57 794.107 1120.13 789.826C1120.58 789.658 1144.5 777.995 1121.67 783.993C1042.59 804.775 1002.14 759.546 967.631 737.835C902.481 696.843 893.776 706.687 853.997 706.789C848.275 706.805 851.527 700.943 859.342 700.192C920.572 694.307 966.037 721.339 991.017 737.948C1073.02 792.464 1087.2 780.066 1174.41 752.897C1251.44 728.905 1317.96 769.401 1333.28 820.509C1333.59 821.551 1350.15 890.374 1330.83 833.899C1302.31 750.519 1202.68 757.312 1160.59 780.116C1068.44 830.038 1024.43 801.52 969.127 760.234C925.447 727.626 893.338 732.58 877.399 729.942C873.929 729.367 874.438 730.863 870.947 731.95L864.418 727.991Z" fill="#4F5C99"/>
<path fill-rule="evenodd" clip-rule="evenodd" d="M560.695 586.167C576.259 607.346 535.627 671.782 468.02 671.968C459.528 671.994 414.672 668.031 414.247 657.518C413.52 639.591 481.378 549.575 560.695 586.167Z" fill="#4F5C99"/>
<path fill-rule="evenodd" clip-rule="evenodd" d="M1517.69 812.337C1513.9 818.167 1505.11 831.66 1435.1 785.063C1375.85 745.631 1351.38 686.789 1370.18 728.306C1374.01 736.758 1403.1 771.285 1421.26 782.887C1421.36 782.953 1476.52 812.177 1452.59 816.067C1444.17 817.438 1408.12 807.909 1372.32 766.557C1335.57 724.114 1338.53 721.924 1300.36 680.922C1298.35 678.762 1272.13 650.603 1281.62 649.102C1282.33 648.989 1305.51 659.549 1306.2 639.158C1307.01 614.769 1265.44 611.023 1279.12 607.598C1291.74 604.432 1337.95 634.701 1303.64 663.796C1298.59 668.073 1309.74 688.813 1317.27 677.378C1332.26 654.572 1462.34 785.757 1478.75 796.448C1494.82 806.919 1495.68 804.622 1517.69 812.337Z" fill="#4F5C99"/>
<path fill-rule="evenodd" clip-rule="evenodd" d="M1455.36 711.923C1476.14 733.724 1475.62 733.782 1495.25 756.493C1535.99 803.638 1547.74 792.28 1599.86 761.053C1624.49 746.295 1566.93 804.793 1539.09 807.746C1469.41 815.143 1445.65 720.696 1326.29 662.914C1315.43 657.657 1321.7 644.531 1331.53 645.453C1414.51 653.239 1444.62 711.858 1453.58 727.237C1460.52 737.916 1467.35 751.172 1464.38 738.743C1461.28 725.825 1459.29 726.883 1452.54 715.278L1455.36 711.923Z" fill="#4F5C99"/>
<path fill-rule="evenodd" clip-rule="evenodd" d="M786.705 607.745C785.676 606.548 787.931 606.343 786.892 605.131C783.13 600.755 782.23 602.802 782.096 602.38C780.875 598.495 782.618 594.213 782.182 590.166C782.022 588.664 781.471 587.026 780.337 586.031C776.371 582.543 772.966 644.92 781.694 615.505C783.23 610.328 784.991 611.953 786.472 610.357C786.052 612.885 783.062 648.997 769.588 654.153C750.79 661.348 756.035 667.876 730.026 691.018C715.767 703.707 722.125 653.436 716.857 647.506C706.604 635.959 736.326 558.92 757.962 538.033C771.399 525.06 850.627 492.943 864.384 492.127C886.382 490.822 859.392 496.39 841.536 508.951C782.222 550.675 766.776 567.003 739.702 638.72C739.521 639.201 732.397 667.083 743.18 644.099C765.732 596.038 761.97 593.599 797.691 554.127C811.989 538.33 803.314 559.004 802.951 559.485C786.582 581.141 788.251 594.954 786.705 607.745Z" fill="#4F5C99"/>
<path fill-rule="evenodd" clip-rule="evenodd" d="M1025.4 418.839C1016.04 447.187 1016.82 447.329 1015.87 449.733C1011.2 461.532 954.543 394.8 963.73 368.631C970.161 350.306 965.176 350.135 960.643 326.894C957.225 309.361 1003.5 342.924 1008.51 341.72C1027.71 337.113 1036.33 362.672 1052.9 387.434C1070.3 413.442 1042.02 438.535 1074.48 449.56C1080.27 451.529 1129.21 468.155 1129.5 502.622C1113.52 492.962 1116.46 482.808 1108.76 480.957C1096.43 477.996 1092.14 458.569 1087.54 460.393C1086.27 460.897 1085.91 462.787 1084.64 463.291C1080.39 459.708 1078.51 455.713 1067.04 456.243C1060.62 446.412 1056.55 450.909 1050.67 442.328C1045.18 434.316 1038.17 411.356 1034.06 406.788C1031.48 403.924 1030.45 411.579 1025.4 418.839Z" fill="#4F5C99"/>
<path fill-rule="evenodd" clip-rule="evenodd" d="M976.871 604.676C972.12 619.219 964.869 657.468 922.021 647.532C907.576 644.183 917.207 632.415 908.97 631.514C908.39 631.451 861.161 646.395 883.812 616.339C892.052 605.406 898.221 603.721 888.495 594.132C885.166 590.85 879.549 578.361 937.745 562.687C1005.02 544.569 923.392 560.361 922.163 560.629C920.696 560.949 896.149 566.301 903.646 557.644C906.127 554.78 907.81 558.295 948.229 541.613C977.797 529.41 1026.29 526.212 1013.49 538.865C1012.42 539.928 934.86 545.378 955.829 550.557C960.349 551.672 1023.12 539.18 988.213 556.006C948.025 575.379 952.214 591.74 922.397 597.888C921.822 598.006 890.445 609.913 919.478 604.637C932.248 602.316 933.561 605.634 943.252 597.261C962.52 580.61 1042.6 530.208 1006.61 566.065C981.969 590.622 993.059 614.176 981.966 608.259C981.438 601.146 981.528 601.18 981.396 600.576C980.365 595.812 979.018 600.23 976.871 604.676Z" fill="#4F5C99"/>
<path fill-rule="evenodd" clip-rule="evenodd" d="M869.634 540.823C868.928 539.479 861.512 525.346 858.961 525.134C857.087 524.979 856.108 526.924 866.51 547.415C877.572 569.2 864.032 621.038 850.763 630.598C843.353 635.94 840.452 632.711 836.916 641.277C826.983 665.338 827.219 665.343 826.34 667.419C811.774 701.899 806.608 668.871 805.744 662.883C789.238 548.528 828.873 536.463 854.635 516.891C858.402 514.027 885.993 533.237 869.634 540.823Z" fill="#4F5C99"/>
<path fill-rule="evenodd" clip-rule="evenodd" d="M1174.23 537.019C1214.09 536.442 1224.87 568.533 1226 571.144C1233.89 589.365 1270.89 587.183 1250.58 618.345C1239.21 635.806 1280.9 649.684 1270.87 665.154C1263.28 676.872 1245.39 660.885 1244.81 660.534C1234.04 654.076 1226.82 675.205 1221.37 678.478C1196.73 693.267 1205.22 635.268 1199.88 626.293C1187.84 606.078 1190.19 605.254 1189.02 581.469C1187.95 559.77 1173.03 564.314 1172.95 542.545C1172.5 541.524 1172.06 540.503 1171.61 539.482L1174.23 537.019Z" fill="#4F5C99"/>
<path fill-rule="evenodd" clip-rule="evenodd" d="M1060.06 1392.65C1060.1 1390.34 1060.49 1366.65 1064.15 1364.18C1075.48 1356.54 1053.34 1431.77 1160.65 1482.56C1205.81 1503.94 1212.41 1545.98 1204.81 1573.4C1181.83 1656.2 1259.7 1658.03 1286.18 1677.06C1357.51 1728.33 1314.27 1823.49 1319.25 1773.17C1326.37 1701.25 1259.45 1682.06 1239.39 1671.43C1166.17 1632.64 1194.77 1581.1 1196.19 1571.2C1209.51 1478.14 1086.01 1501.75 1060.06 1392.65Z" fill="#4F5C99"/>
<path fill-rule="evenodd" clip-rule="evenodd" d="M1140.38 596.452C1142.48 600.836 1132.24 648.178 1145.97 610.711C1153.01 591.528 1158.47 593.675 1161.4 573.657C1163.04 562.471 1178.02 588.858 1151.11 628.994C1150.44 629.992 1136.61 650.614 1147.48 643.547C1152.28 640.426 1170.54 611.556 1172.91 596.864C1177.96 565.574 1158.17 545.296 1171.16 556.179C1182.2 565.427 1193.76 654.462 1176.54 659.31C1161.37 663.586 1187.48 681.615 1173.67 690.997C1158.76 701.124 1154.92 688.086 1148.35 694.659C1135.74 707.256 1120.84 700.52 1118.57 686.476C1117.65 680.717 1119.04 673.107 1111.8 667.086C1104.2 660.759 1114.63 624.684 1135.17 600.096C1136.91 598.883 1138.65 597.667 1140.38 596.452Z" fill="#4F5C99"/>
<path fill-rule="evenodd" clip-rule="evenodd" d="M1402.22 1039.22C1362.03 1031.41 1361.25 1039.18 1358.48 1037.03C1343.87 1025.7 1431.47 989.286 1473.68 1072.1C1507.99 1139.41 1520.07 1152.42 1601.85 1170.02C1669.31 1184.54 1685.91 1265.92 1671.25 1242.02C1629.52 1174.02 1577.15 1187.96 1536.71 1166.2C1454.33 1121.87 1492.44 1072.59 1402.22 1039.22Z" fill="#4F5C99"/>
<path fill-rule="evenodd" clip-rule="evenodd" d="M1112.61 1581.56C1111.48 1573.8 1105.48 1532.56 1060.41 1498.61C997.564 1451.27 990.555 1445.67 1005.07 1400.08C1018.9 1356.63 999.359 1307.33 965.922 1283.41C950.374 1272.29 904.888 1267.68 880.696 1242.43C865.812 1226.89 901.544 1245.78 903.161 1246.64C959.257 1276.3 971.054 1259.88 999.818 1301.34C1039.57 1358.65 1011.83 1414.35 1011.3 1416.1C997.524 1461.44 1075.44 1470.68 1112.79 1542.6C1133.28 1582.05 1107.84 1640.72 1102.51 1646.15C1083.54 1665.46 1108.7 1636.73 1112.61 1581.56Z" fill="#4F5C99"/>
<path fill-rule="evenodd" clip-rule="evenodd" d="M884.237 1413.35C887.726 1397.1 888.214 1397.52 893.616 1382.11C896.008 1375.29 880.877 1364.45 876.927 1342.75C865.741 1281.28 855.157 1285.79 830.322 1263.83C829.844 1263.41 827.624 1255.59 837.964 1261.64C883.098 1288.02 886.77 1340.99 890.87 1353.05C896.344 1369.14 907.405 1365.27 904.31 1358.21C902.94 1355.08 893.233 1332.92 895.853 1316.37C899.402 1293.96 907.153 1346.63 908.928 1347.99C915.855 1353.32 918.803 1314.76 922.596 1331.91C927.35 1353.4 913.936 1374.16 915.419 1375.72C919.835 1380.34 928.923 1359.63 930.159 1358.77C932.403 1357.2 942.336 1363.08 917.816 1390.71C850.209 1466.89 994.227 1542.66 1011.28 1584.17C1017.01 1598.1 1010.45 1602.05 1008.46 1597.54C975.044 1521.58 878.234 1514.08 884.237 1413.35Z" fill="#4F5C99"/>
<path fill-rule="evenodd" clip-rule="evenodd" d="M1101.89 1594.8C1092.39 1646.04 1082.91 1644.63 1080.47 1641.33C1069.03 1625.87 1144.74 1586.07 1026.56 1498.31C969.138 1455.66 962.475 1446.28 987.163 1400.06C1002.34 1371.66 983.937 1294.33 924.799 1287.16C903.452 1284.57 885.14 1262.43 855.795 1243.95C854.924 1243.41 840.801 1234.51 848.663 1233.26C854.551 1232.33 908.957 1275.55 927.526 1279.03C930.466 1279.58 950.03 1277.93 973.6 1301.64C1027.17 1355.52 988.434 1411.18 988.237 1431.88C987.699 1488.03 1105.92 1498.17 1101.89 1594.8Z" fill="#4F5C99"/>
<path fill-rule="evenodd" clip-rule="evenodd" d="M1158.56 512.5C1147.36 485.528 1149.97 482.611 1125.16 467.195C1104.29 454.23 1117.74 415.603 1132.37 411.983C1145.81 408.657 1140.18 395.369 1150.22 389.324C1174.01 374.997 1174.37 412.046 1182.05 412.558C1199.48 413.716 1183.8 451.455 1183.25 453.146C1173.6 482.924 1174.22 527.79 1164.94 512.334C1166.04 506.079 1177.33 442.194 1165.3 432.91C1158.02 427.282 1171.92 514.124 1152.7 474.025C1152.09 472.747 1133.03 432.98 1141.15 460.577C1148.27 484.753 1163.57 490.494 1158.56 512.5Z" fill="#4F5C99"/>
<path fill-rule="evenodd" clip-rule="evenodd" d="M983.777 1379.51C975.33 1425.5 938.422 1439.55 996.351 1486.12C1044.41 1524.76 1105.47 1551.82 1071.64 1628.67C1054.13 1668.43 1069.14 1616.72 1069.44 1615.71C1099.64 1511.65 892.172 1494.8 968.723 1397.23C988.499 1372.02 956.726 1308.35 929.823 1304.11C906.392 1300.42 904.211 1302.89 853.924 1261.21C853.073 1260.5 833.304 1244.12 848.577 1248.48C872.622 1255.34 869.954 1283.76 932.427 1296.22C936.139 1296.96 952.361 1303.15 968.523 1324.9C984.462 1346.35 983.872 1374.97 983.777 1379.51Z" fill="#4F5C99"/>
<path fill-rule="evenodd" clip-rule="evenodd" d="M1093.93 1379.12C1131.64 1493.65 1213.56 1443.27 1225.05 1534.14C1230.25 1575.27 1192.84 1612.35 1263.97 1645.9C1293.67 1659.91 1295.53 1657.89 1299.72 1665.69C1310.16 1685.13 1199.59 1645.27 1209.52 1592.23C1217.15 1551.51 1233.72 1511.58 1158.47 1473.71C1051.95 1420.12 1086.82 1326.01 1090.4 1353.04C1091.45 1360.99 1090.96 1360.67 1092.08 1368.98C1092.79 1374.23 1093.22 1373.92 1093.93 1379.12Z" fill="#4F5C99"/>
<path fill-rule="evenodd" clip-rule="evenodd" d="M1462.78 1611.44C1457.35 1610.57 1418.44 1604.32 1398.18 1588.18C1332.96 1536.24 1395.2 1482.34 1303.42 1428.08C1258.51 1401.54 1250.11 1359.43 1255.65 1359.81C1268.88 1360.72 1247.83 1388.12 1315.46 1424.78C1385.47 1462.73 1353.15 1520.62 1395.16 1565.23C1430.26 1602.49 1470.96 1599.3 1473.42 1599.58C1541.51 1607.19 1562.03 1659.09 1557.48 1659.17C1543.05 1659.43 1554.04 1627.78 1462.78 1611.44Z" fill="#4F5C99"/>
<path fill-rule="evenodd" clip-rule="evenodd" d="M1296.38 1544.87C1277.48 1407.45 1187.65 1416.41 1164.55 1339.74C1164.38 1339.16 1161.2 1306.98 1169.75 1334.37C1177.65 1359.67 1206.76 1389.07 1210.87 1389.93C1222.18 1392.28 1210.53 1359.41 1209.46 1352.9C1209.12 1350.82 1202.1 1307.89 1211.15 1326.63C1224.47 1354.23 1205.98 1365.78 1262.65 1437.75C1311.3 1499.54 1305.31 1507.01 1309.02 1552.55C1314.14 1615.46 1360.58 1632.42 1372.92 1642.56C1375.17 1644.4 1373.87 1649.02 1368.65 1646.37C1306.46 1614.87 1300.93 1585.81 1296.38 1544.87Z" fill="#4F5C99"/>
<path fill-rule="evenodd" clip-rule="evenodd" d="M1129.71 529.887L1134.83 528.341C1138.93 529.551 1139.22 529.675 1139.42 533.856C1139.05 534.087 1134.75 536.736 1134.75 536.736C1128.34 539.085 1069.18 560.778 1071.92 594.457C1073.41 612.772 1078.47 572.263 1095.44 571.515C1128.54 570.06 1128.21 552.864 1134.76 555.174C1136.09 555.647 1136.59 557.537 1137.92 558.006C1128.4 571.488 1129.25 571.596 1121.03 586.296C1115.92 595.447 1100.65 602.734 1099.47 604.64C1090.26 619.487 1127.93 586.603 1120.94 602.18C1110.3 625.857 1093.16 622.482 1079.66 622.135C1078.21 623.198 1067.66 635.066 1055.78 632.052C1048.91 630.307 1040.79 617.854 1039.24 607.832C1033.67 571.932 1055.91 578.127 1061.27 578.361C1082.73 579.3 1064.38 544.146 1129.71 529.887Z" fill="#4F5C99"/>
<path fill-rule="evenodd" clip-rule="evenodd" d="M1290.41 525.551C1288.85 526.436 1288.39 528.698 1286.83 529.583C1286.52 529.759 1272.21 517.096 1269.87 521.658C1269.05 523.262 1269.14 524.365 1287.59 535.581C1289.25 536.592 1290.15 535.896 1295.25 531.205C1303.44 543.228 1301.76 545.892 1315.97 549.58C1340.16 555.854 1329.73 591.782 1305.31 576.208C1305.43 571.58 1305.15 571.814 1305.43 571.58C1305.63 571.423 1330.86 579.419 1315.79 560.521C1314.22 560.555 1312.65 560.587 1311.08 560.618C1308.4 569.31 1296.23 559.227 1298.09 568.121C1298.86 571.822 1298.46 571.599 1298.89 575.539C1298.18 577.012 1290.28 593.439 1282.69 587.963C1274.24 581.876 1275.19 563.325 1255.51 563.695C1235.19 564.073 1233.33 564.74 1220.89 547.407C1217.75 543.047 1178.31 526.042 1202.97 531.751C1207.82 532.875 1234.27 547.682 1241.6 538.925C1241.99 538.555 1246.4 534.271 1246.4 534.271C1246.42 533.964 1246.4 534.271 1242.66 533.36C1210.79 534.235 1211.97 525.572 1214.09 524.47C1236.52 512.812 1257.77 531.759 1260.61 534.29C1267.41 540.356 1287.17 572.216 1283.37 557.72C1280.54 546.929 1265.12 530.714 1260.29 523.821C1251.89 511.838 1211.34 518.534 1232.6 506.428C1254.78 493.802 1286.78 522.309 1290.41 525.551Z" fill="#4F5C99"/>
<path fill-rule="evenodd" clip-rule="evenodd" d="M1230.4 1584.35C1236.18 1548.77 1246.91 1496.37 1179.13 1461.24C1170.21 1456.62 1091.89 1416.03 1106.66 1358.63C1115.54 1324.11 1107.71 1371.48 1125.46 1402.3C1156.99 1457.04 1248.53 1449.8 1244.58 1547.36C1242.5 1598.78 1232.35 1612.14 1294.54 1642.58C1305.69 1648.03 1303.88 1656.4 1297.22 1653.45C1264.7 1639.03 1226.56 1622.34 1230.4 1584.35Z" fill="#4F5C99"/>
<path fill-rule="evenodd" clip-rule="evenodd" d="M519.008 731.705C521.202 728.212 539.651 698.856 543.153 686.125C549.547 662.873 546.494 660.967 554.876 655.323C573.464 642.81 541.305 710.422 535.8 720.258C504.027 777.023 541.567 798.362 534.01 810.109C531.466 814.06 522.483 812.813 516.063 754.175C515.351 747.681 509.309 758.656 508.973 759.268C461.161 846.111 380.736 831.4 380.001 820.068C379.854 817.79 395.977 811.138 397.447 810.532C473.866 779.003 482.408 787.586 519.008 731.705Z" fill="#4F5C99"/>
<path fill-rule="evenodd" clip-rule="evenodd" d="M692.119 538.311C699.925 548.669 695.589 634.596 648.961 670.396C620.196 692.482 660.343 525.645 692.119 538.311Z" fill="#4F5C99"/>
<path fill-rule="evenodd" clip-rule="evenodd" d="M1538.52 1275.35C1601.12 1305.13 1593.5 1315.07 1633.4 1371.59C1660.08 1409.38 1709.92 1442.5 1670.55 1417.99C1611.04 1380.94 1604.18 1325.78 1551.45 1296.67C1496.55 1266.36 1479.1 1272.36 1425.89 1193.16C1425.19 1192.12 1400.05 1154.71 1423.04 1177.84C1467.19 1222.28 1466.91 1241.19 1538.52 1275.35Z" fill="#4F5C99"/>
<path fill-rule="evenodd" clip-rule="evenodd" d="M1544.27 1266.47C1507.24 1249.03 1503.55 1245.14 1502.81 1244.65C1464.3 1218.98 1437.55 1177.65 1437.39 1177.12C1431.63 1157.8 1443.85 1178.29 1458.55 1192.01C1514.18 1243.89 1559.23 1256.88 1559.52 1257.01C1632.97 1290.02 1628.84 1340.95 1667.46 1392.58C1689.03 1421.43 1659.65 1391.43 1659.22 1390.91C1606.32 1328.64 1623.4 1310.4 1544.27 1266.47Z" fill="#4F5C99"/>
<path fill-rule="evenodd" clip-rule="evenodd" d="M669.649 542.17C658.08 562.078 654.159 571.465 653.048 574.121C651.326 573.363 650.591 571.087 648.869 570.328C647.042 569.522 644.467 576.379 643.751 581.193C604.475 639.479 573.626 652.693 570.516 651.625C564.289 649.488 566.554 627.892 566.772 625.816C577.204 571.31 581.992 565.792 636.054 557.642C653.059 555.08 575.732 620.353 578.372 639.082C579.291 645.592 585.746 627.068 621.456 590.354C658.251 552.531 652.581 543.866 669.649 542.17Z" fill="#4F5C99"/>
<path fill-rule="evenodd" clip-rule="evenodd" d="M1052.33 1597.41C1043.69 1565.14 1042.6 1564.41 989.599 1516.72C951.566 1482.5 932.737 1469.68 930.261 1442.36C928.34 1421.15 947.316 1397.43 949.915 1394.18C970.844 1368.03 935.013 1324.97 935.385 1321.66C937.357 1304.16 981.633 1364.07 961.045 1394.84C906.169 1476.87 983.654 1482.68 1044.58 1550.76C1082.31 1592.93 1042.38 1655.2 1048.41 1628.75C1051.96 1613.2 1052.17 1613.37 1052.33 1597.41Z" fill="#4F5C99"/>
<path fill-rule="evenodd" clip-rule="evenodd" d="M1067.04 456.243C1078.51 455.713 1080.39 459.708 1084.64 463.291C1085.82 467.092 1087.75 473.287 1110.75 505.648C1117.99 513.003 1117.4 513.271 1126.3 518.747L1129.95 520.81C1129.29 521.645 1131.09 523.141 1130.42 523.976C1130.42 523.976 1125.62 525.008 1125.2 525.097C1104.05 515.201 1091.95 484.863 1040.24 474.665C1036.07 473.844 1036.88 479.343 1040.79 480.616C1044.85 481.942 1080.51 493.578 1089.2 503.136C1113.38 529.74 1054.38 518.896 1033.57 488.701C1014.56 461.131 1023.78 422.814 1036.28 438.574C1053.43 460.199 1056.03 459.214 1067.04 456.243Z" fill="#4F5C99"/>
<path fill-rule="evenodd" clip-rule="evenodd" d="M1203.09 1081.58C1207.14 1081.09 1212.57 1084.68 1211.74 1074.9C1211.69 1074.32 1211.34 1067.05 1219.04 1074.55C1286.8 1140.55 1358.59 1106.59 1401.33 1144.37C1417.66 1158.8 1421.01 1171.86 1412.83 1164.69C1360.73 1119.04 1342.5 1149.41 1284.75 1126.36C1230.33 1104.64 1232.47 1086.3 1216.3 1091.08C1148.16 1111.22 1143.11 984.367 1155.02 1022.73C1159.98 1038.71 1162.19 1073.86 1203.09 1081.58Z" fill="#4F5C99"/>
<path fill-rule="evenodd" clip-rule="evenodd" d="M1195.93 510.99C1207.84 489.909 1210.96 491.594 1210.86 489.502C1210.07 472.702 1230.55 474.573 1239 462.824C1247.45 451.059 1233.98 461.299 1213.28 470.494C1206.27 473.61 1208.49 464.407 1207.79 463.601C1201.37 456.222 1198.83 487.759 1196.53 494.271C1187.97 518.503 1193.4 477.088 1192.14 477.169C1186.19 477.553 1184.57 509.851 1183.89 512.914C1183.78 513.394 1173.81 532.785 1177.76 513.14C1185.2 476.201 1182.9 438.592 1226.65 437.947C1262.73 437.416 1258.48 458.745 1258.98 463.199C1260.13 473.337 1155.01 565.514 1195.93 510.99Z" fill="#4F5C99"/>
<path fill-rule="evenodd" clip-rule="evenodd" d="M1117.54 819.058C1119.64 816.669 1118.35 815.755 1121.37 814.7C1128.02 812.372 1147.83 802.743 1156.1 800.415C1273.71 767.298 1283.95 890.13 1280.8 892.791C1277.67 895.424 1271.6 877.782 1270.52 875.844C1220.06 785.237 1127.92 821.15 1117.54 819.058Z" fill="#4F5C99"/>
<path fill-rule="evenodd" clip-rule="evenodd" d="M1307.2 398.989C1366.34 386.124 1369.8 387.25 1369.62 392.269C1367.41 455.211 1276.86 516.631 1275.82 500.377C1275.6 496.854 1319.04 465.743 1315.67 455.469C1311.85 443.819 1344.02 443.785 1343.58 434.358C1343.31 428.439 1307.7 452.768 1318.84 434.516C1320.31 432.111 1348.1 419.16 1341.95 413.592C1341.11 412.826 1340.91 413.516 1323.94 424.433C1316.85 428.996 1318.48 423.189 1317.87 418.635C1314.25 407.72 1313.96 408.148 1307.2 398.989Z" fill="#4F5C99"/>
<path fill-rule="evenodd" clip-rule="evenodd" d="M1488.96 1593.15C1459.89 1590.15 1460.07 1590.19 1457.56 1589.91C1397.07 1583.16 1375.76 1493.66 1375.86 1492.2C1376.85 1476.25 1387.26 1498.64 1387.73 1499.66C1422.15 1573.73 1441.98 1577.61 1489.2 1580.72C1570.08 1586.05 1585.79 1676.73 1570.94 1654.65C1554.74 1630.56 1559.25 1610.05 1488.96 1593.15Z" fill="#4F5C99"/>
<path fill-rule="evenodd" clip-rule="evenodd" d="M1523.72 1215.81C1595.91 1254.89 1632.44 1251.75 1667.07 1361.04C1683.99 1414.43 1661.24 1346.04 1627.4 1301.25C1574.98 1231.85 1523.25 1254.06 1462.6 1180.12C1454.91 1170.74 1460.57 1168.66 1462.5 1169.98C1463.27 1170.51 1470.79 1181.3 1474.05 1183.89C1497.26 1202.29 1497.9 1200.96 1523.72 1215.81Z" fill="#4F5C99"/>
<path fill-rule="evenodd" clip-rule="evenodd" d="M641.307 1635.19C665.43 1633.03 689.087 1635.39 708.423 1604.45C725.23 1577.55 721.217 1575.82 716.434 1544.58C712.615 1519.63 757.935 1593.81 693.24 1630.43C645.129 1657.67 637.553 1640.67 607.032 1649.32C545.192 1666.84 578.992 1717.5 582.57 1726.24C590.613 1745.91 578.979 1763.19 578.582 1752.04C577.246 1714.43 551.991 1705.95 561.249 1673.01C572.692 1632.31 641.131 1635.2 641.307 1635.19Z" fill="#4F5C99"/>
<path fill-rule="evenodd" clip-rule="evenodd" d="M512.233 726.72C511.721 732.332 511.057 733.002 496.076 737.593C434.69 754.109 432.388 748.064 429.004 752.393C424.673 757.931 433.375 755.052 442.757 756.246C430.931 767.914 430.519 767.158 429.737 768.347C424.303 776.585 435.822 771.434 449.889 758.134C453.399 756.868 490.834 743.405 494.286 743.846C495.805 744.04 496.031 746.888 497.554 747.082C491.847 752.912 478.57 770.762 452.472 778.908C431.249 785.531 385.876 779.572 395.026 768.116C428.537 726.169 490.114 732.616 512.233 726.72Z" fill="#4F5C99"/>
<path fill-rule="evenodd" clip-rule="evenodd" d="M461.316 912.218C469.763 908.394 468.988 907.669 474.357 900.272C509.623 851.686 518.257 795.159 515.582 828.064C509.28 905.538 435.591 938.476 444.922 920.175C469.427 872.119 468.566 871.841 488.744 807.035C493.485 791.812 506.844 786.762 506.736 799.267C506.392 838.742 462.678 909.436 461.316 912.218Z" fill="#4F5C99"/>
<path fill-rule="evenodd" clip-rule="evenodd" d="M826.151 1594.79C808.322 1669.86 705.643 1658.05 702.779 1736.41C702.136 1754.02 714.904 1769.98 706.714 1768.67C697.248 1767.16 674.284 1702.68 744.201 1658.51C758.828 1649.26 811.74 1626.23 814.984 1578.89C815.992 1564.2 805.185 1549.22 816.373 1558.96C827.02 1568.23 826.248 1591.83 826.151 1594.79Z" fill="#4F5C99"/>
<path fill-rule="evenodd" clip-rule="evenodd" d="M666.152 1731.35C698.734 1612.81 800.353 1650.5 794.499 1557.8C792.832 1531.42 804.057 1557.51 804.122 1557.84C817.783 1625.61 734.883 1647.01 705.16 1676.9C639.178 1743.25 699.106 1810.29 678.697 1790.51C663.603 1775.89 665.874 1736.18 666.152 1731.35Z" fill="#4F5C99"/>
<path fill-rule="evenodd" clip-rule="evenodd" d="M566.153 503.015C552.209 499.965 529.689 480.732 528.552 460.637C527.909 449.279 561.583 460.338 572.505 466.764C595.057 480.036 592.232 484.344 633.747 504.464C643.102 509 641.191 515.334 630.814 516.24C584.864 520.251 558.078 482.74 556.291 483.614C554.729 484.38 555.603 485.087 566.153 503.015Z" fill="#4F5C99"/>
<path fill-rule="evenodd" clip-rule="evenodd" d="M1302.95 399.669C1312.47 422.903 1315.39 423.596 1307.13 447.205C1299.02 470.373 1272.77 498.618 1255.23 499.052C1239.37 499.443 1238.02 499.283 1238.3 497.697C1241.26 480.842 1247.85 485.73 1273.29 470.095C1300.72 453.24 1295.52 423.291 1290.39 434.849C1286.38 443.864 1288.03 444.543 1281.6 451.917L1279.65 449.636C1289.57 411.405 1271.37 454.098 1270.99 454.235C1265.6 456.122 1260.7 439.083 1267.09 429.891C1279.95 411.377 1286.21 399.357 1302.95 399.669Z" fill="#4F5C99"/>
<path fill-rule="evenodd" clip-rule="evenodd" d="M1575.88 922.716C1586.73 921.422 1606.36 892.649 1649.36 898.427C1677.72 902.236 1688 938.379 1672.2 920.923C1631.49 875.938 1601.42 947.32 1544.14 953.037C1468.75 960.563 1438.36 903.664 1462.38 920.834C1524.61 965.32 1567.15 933.093 1575.88 922.716Z" fill="#4F5C99"/>
<path fill-rule="evenodd" clip-rule="evenodd" d="M1580.7 1214.89C1596.14 1221.44 1642.06 1234.15 1673.61 1324.25C1685.21 1357.37 1661.83 1310.69 1661.13 1309.3C1617.97 1223.14 1522.05 1220.7 1491.25 1177.46C1480.08 1161.77 1496.38 1174.79 1496.74 1175.1C1524.7 1199.99 1576.16 1213.35 1580.7 1214.89Z" fill="#4F5C99"/>
<path fill-rule="evenodd" clip-rule="evenodd" d="M945.788 1365.95L947.799 1366.6C947.907 1384.45 946.812 1384.38 936.459 1398.62C876.045 1481.74 1035.49 1545.21 1031.52 1578.77C1031.36 1580.09 1027.87 1586.11 1016.85 1570.85C975.501 1513.55 855.058 1460.83 934.537 1383.9C940.79 1377.85 943.914 1364.93 944.155 1364.62C944.581 1364.06 945.36 1366.51 945.788 1365.95Z" fill="#4F5C99"/>
<path fill-rule="evenodd" clip-rule="evenodd" d="M521.756 1681.23C525.124 1709.78 552.739 1755.04 536.538 1743.92C528.699 1738.55 516.343 1698.56 515.07 1694.44C512.939 1687.54 504.001 1620.49 578.288 1607.92C632.899 1598.68 633.967 1593.47 649.877 1563.57C657.954 1548.39 671.352 1593.57 615.156 1610.79C592.686 1617.68 529.468 1613.92 521.756 1681.23Z" fill="#4F5C99"/>
<path fill-rule="evenodd" clip-rule="evenodd" d="M1678.09 1298.1C1623.9 1183.98 1550.64 1213.22 1503.15 1160.75C1491.8 1148.21 1506.66 1153.67 1507.11 1154.1C1539.46 1185.01 1559.19 1176.72 1601.71 1196.28C1669.45 1227.43 1680.3 1297.37 1680.28 1297.57L1678.09 1298.1Z" fill="#4F5C99"/>
<path fill-rule="evenodd" clip-rule="evenodd" d="M1226.47 737.346C1225.08 737.008 1207.88 732.826 1214.61 724.001C1229.93 703.899 1347.93 744.342 1357.4 828.145C1362.51 873.405 1355.13 811.321 1322.91 779.113C1292.92 749.14 1234.75 738.814 1226.47 737.346Z" fill="#4F5C99"/>
<path fill-rule="evenodd" clip-rule="evenodd" d="M1185.58 972.326C1197.02 1020.65 1215.25 1053.5 1198.28 1029.71C1145.35 955.508 1192.71 923.254 1131.99 859.753C1113.22 840.12 1138.97 847.704 1144.78 852.744C1180.39 883.609 1175.5 908.47 1185.58 972.326Z" fill="#4F5C99"/>
<path fill-rule="evenodd" clip-rule="evenodd" d="M734.499 1764.73C732.607 1764.85 726.194 1765.27 722.503 1744.28C710.013 1673.21 815.649 1666.01 835.538 1597.27C846.188 1560.46 844.602 1604.24 843.954 1607.85C830.984 1679.97 711.856 1667.05 734.499 1764.73Z" fill="#4F5C99"/>
<path fill-rule="evenodd" clip-rule="evenodd" d="M507.39 1720.61C479.909 1688.2 486.526 1610.26 567.581 1591.29C600.131 1583.68 619.251 1585.24 627.544 1549.85C633.169 1525.83 652.09 1569.02 617.151 1588.57C591.027 1603.19 493.653 1599.65 501.848 1689.15C503.195 1703.86 510.293 1717.54 510.106 1718.01C509.65 1719.18 507.846 1719.44 507.39 1720.61Z" fill="#4F5C99"/>
<path fill-rule="evenodd" clip-rule="evenodd" d="M1376.03 1099.56C1392.48 1104.83 1409.7 1107 1431.35 1145.77C1431.63 1146.27 1444.03 1172.48 1427.98 1152.04C1379.5 1090.27 1332.9 1142.23 1247.87 1085.1C1240.88 1080.41 1246.08 1077.63 1247.55 1078.28C1255.11 1081.62 1293.07 1105.9 1334.22 1103.32C1355.48 1101.99 1355 1097.17 1376.03 1099.56Z" fill="#4F5C99"/>
<path fill-rule="evenodd" clip-rule="evenodd" d="M651.557 1612.05C652.337 1611.94 661.333 1610.68 661.354 1613.2C661.535 1636.28 599.404 1620.74 571.321 1643.09C535.054 1671.97 552.813 1704.26 557.225 1715.39C570.447 1748.75 557.761 1762.9 556.474 1752.48C554.062 1732.95 551.411 1733.98 545.092 1715.04C513.585 1620.56 610.164 1618.3 651.557 1612.05Z" fill="#4F5C99"/>
<path fill-rule="evenodd" clip-rule="evenodd" d="M1095.26 713.803C1105.27 714.787 1110.93 713.099 1107.48 722.833C1103.69 733.524 1167.62 730.07 1142.32 735.509C1094.28 745.836 1052.85 720.712 1046.15 716.648C1042.34 714.338 1008.74 688.865 1006.83 683.597C1005.96 681.198 1009.92 659.329 1038.39 688.272C1055.43 705.597 1090.38 712.797 1095.26 713.803Z" fill="#4F5C99"/>
<path fill-rule="evenodd" clip-rule="evenodd" d="M1428.99 1118.51C1393.09 1083.41 1379.03 1087.61 1339.53 1093.4C1313.65 1097.2 1265.48 1080.5 1253.33 1074.19C1214.39 1053.97 1281.59 1078.74 1284.55 1078.45C1325.52 1074.39 1326.24 1083.4 1366.02 1073.32C1398.36 1065.13 1435.35 1105.21 1428.99 1118.51Z" fill="#4F5C99"/>
<path fill-rule="evenodd" clip-rule="evenodd" d="M1221.51 1016.71C1169.36 963.194 1207.29 904.861 1153.99 853.763C1145.26 845.392 1144.83 836.025 1150.53 838.535C1211.23 865.231 1192.8 949.124 1218.13 1001.62C1224.37 1014.56 1224.37 1014.53 1224.35 1014.58C1223.85 1015.65 1222 1015.64 1221.51 1016.71Z" fill="#4F5C99"/>
<path fill-rule="evenodd" clip-rule="evenodd" d="M1313.43 1065.02C1333.09 1062.53 1332.82 1061.59 1350.39 1052C1367.59 1042.62 1400.5 1039.91 1427.69 1062.92C1443.33 1076.15 1457.49 1108.36 1457.67 1111.63C1458.39 1124.5 1447.24 1100.49 1435.67 1088.94C1392.2 1045.56 1367.25 1077.07 1308.73 1068.97C1312.6 1065.52 1312.47 1065.46 1313.43 1065.02Z" fill="#4F5C99"/>
<path fill-rule="evenodd" clip-rule="evenodd" d="M721.191 1240.76C721.272 1241.6 725.023 1280.28 713.967 1248.57C706.097 1226 709.858 1260.96 709.533 1261.28C702.679 1268.07 693.163 1234.21 693.334 1250.61C693.342 1251.26 696.282 1264.58 695.434 1265.83C687.887 1276.96 655.655 1217.7 725.238 1217.72C767.931 1217.74 760.048 1247.38 760.059 1248.29C760.293 1266.13 750.444 1232.66 747.091 1235.77C746.729 1236.11 748.501 1266.68 740.287 1245.92C730.457 1221.07 735.744 1251.22 734.93 1252.82C730.239 1262.02 730.36 1240.28 721.191 1240.76Z" fill="#4F5C99"/>
<path fill-rule="evenodd" clip-rule="evenodd" d="M664.37 527.99C648.076 533.544 635.298 544.01 596.994 530.381C580.018 524.343 561.354 511.72 575.115 523.629C613.77 557.093 645.937 541.768 659.288 535.62C663.869 533.51 663.246 536.214 665.27 537.069C659.745 540.201 654.432 543.7 648.906 546.832C599.8 574.673 570.096 524.635 552.855 509.762C535.75 495.004 585.586 516.579 596.826 520.411C634.692 533.318 661.955 511.029 674.962 516.482C682.658 519.708 665.509 527.472 664.37 527.99Z" fill="#4F5C99"/>
<path fill-rule="evenodd" clip-rule="evenodd" d="M1438.94 1702.99C1409.66 1692.11 1405.53 1690.02 1402.75 1688.62C1389.71 1682.04 1395.99 1674.6 1402.27 1676.79C1427.23 1685.5 1519.94 1705.81 1541.92 1770.46C1544.36 1777.63 1538.95 1775.84 1536.8 1772.74C1507.06 1729.96 1483.93 1723.29 1438.94 1702.99Z" fill="#4F5C99"/>
<path fill-rule="evenodd" clip-rule="evenodd" d="M1069.25 1197.33C1074.83 1196.75 1074.5 1196.53 1079.69 1197.28C1079.75 1200.12 1077.26 1200.93 1081.54 1204.19C1120.91 1234.2 1109.58 1276.11 1213.52 1276.61C1236.13 1276.72 1244.56 1314.28 1240.52 1319.73C1234.12 1328.38 1235.63 1317.74 1230.93 1303.61C1220.15 1271.21 1183.42 1303.97 1127.48 1265.66C1098.78 1243.5 1072.46 1203.4 1069.25 1197.33Z" fill="#4F5C99"/>
<path fill-rule="evenodd" clip-rule="evenodd" d="M1108.37 745.227C1138.78 746.715 1159.77 743.431 1143.74 750.364C1140.93 751.574 1083.39 760.562 1043.48 737.8C1040.18 735.918 980.467 697.2 980.212 696.743C978.811 694.239 982.105 673.716 1015.88 700.641C1055.75 732.417 1059.04 737.415 1108.37 745.227Z" fill="#4F5C99"/>
<path fill-rule="evenodd" clip-rule="evenodd" d="M677.768 824.811C677.595 814.298 644.782 803.775 660.503 773.632C667.667 759.892 714.56 833.951 677.949 835.343C614.14 837.766 647.84 753.38 647.299 780.598C647.213 784.893 646.593 815.965 677.768 824.811Z" fill="#4F5C99"/>
<path fill-rule="evenodd" clip-rule="evenodd" d="M1457.36 1736.98C1413.97 1719.52 1373.04 1703.26 1369.23 1694.11C1364.79 1683.48 1384.97 1692.39 1386.22 1692.94C1460.46 1725.75 1461.15 1724.04 1467.48 1727.14C1527.15 1756.36 1528.76 1808.94 1518.2 1788.72C1499.85 1753.63 1492.49 1753.29 1457.36 1736.98Z" fill="#4F5C99"/>
<path fill-rule="evenodd" clip-rule="evenodd" d="M1452.1 1669.02C1461.35 1672.04 1531.42 1694.88 1549.58 1741.62C1562.95 1776.04 1542.41 1731.91 1511.86 1711.39C1464.01 1679.25 1375.26 1663.3 1400.31 1656.1C1400.85 1655.94 1447.96 1667.97 1452.1 1669.02Z" fill="#4F5C99"/>
<path fill-rule="evenodd" clip-rule="evenodd" d="M1577.19 912.216C1577.18 910.92 1577.07 887.04 1571.5 897.065C1569.52 900.632 1555.72 941.682 1502.4 932.371C1469.48 926.622 1442.53 891.348 1471.32 908.4C1506.06 928.982 1561.59 930.392 1570.19 875.311C1570.28 874.71 1575.19 847.867 1577.39 872.857C1578.31 883.247 1584.18 880.979 1585.29 891.24C1586.74 904.554 1583.46 916.083 1581.58 915.232C1579.96 914.503 1578.81 912.946 1577.19 912.216Z" fill="#4F5C99"/>
<path fill-rule="evenodd" clip-rule="evenodd" d="M557.593 589.882C558.603 591.669 560.653 590.444 560.428 594.906C560.373 595.985 559.687 595.636 559.627 596.822C554.304 597.521 554.605 597.471 549.214 598.605C532.915 605.553 528.193 601.072 522.244 617.644C510.694 649.832 467.282 659.106 484.715 648.047C500.738 637.885 500.607 637.862 513.238 623.634C517.228 619.137 512.787 618.612 512.33 617.481C503.082 622.329 484.227 623.637 455.409 642.699C454.044 643.602 434.076 656.811 436.134 649.485C437.31 645.293 494.254 609.118 523.518 600.657C551.621 592.533 509.056 592.491 478.609 602.912C465.458 607.412 476.1 598.332 476.472 598.145C504.518 584.002 526.728 595.111 557.593 589.882Z" fill="black"/>
<path fill-rule="evenodd" clip-rule="evenodd" d="M1102.39 765.24C1092.29 771.227 1054.28 768.434 1019.04 747.127C1013.94 744.043 956.175 709.123 955.952 707.437C952.217 679.145 1031.2 741.728 1045.83 748.734C1083.78 766.901 1091.18 755.766 1102.39 765.24Z" fill="#4F5C99"/>
<path fill-rule="evenodd" clip-rule="evenodd" d="M1515.37 912.904C1451.4 903.895 1464.43 876.686 1430.73 863.433C1410.38 855.429 1364.09 866.134 1389.67 857.456C1437.13 841.351 1480.93 887.079 1492.3 892.736C1520.94 906.997 1532.26 898.322 1536.07 900.038C1537.85 900.839 1542.8 910.315 1515.37 912.904Z" fill="#4F5C99"/>
<path fill-rule="evenodd" clip-rule="evenodd" d="M1226.76 1113.11C1228.29 1113.23 1250.99 1114.95 1244.16 1121.14C1241.15 1123.88 1142.48 1135.16 1129.12 1032.89C1127.75 1022.45 1134.19 1027.21 1134.47 1027.84C1151.74 1066.3 1147.21 1099 1226.76 1113.11Z" fill="#4F5C99"/>
<path fill-rule="evenodd" clip-rule="evenodd" d="M582.323 1697.1C582.339 1696.67 579.021 1674.32 607.725 1658.8C627.218 1648.25 686.611 1656.3 686.391 1660.32C685.632 1674.16 606.134 1645.76 596.002 1688.98C590.636 1711.87 598.104 1710.92 609.326 1736.42C611.266 1740.83 590.72 1735.26 582.323 1697.1Z" fill="#4F5C99"/>
<path fill-rule="evenodd" clip-rule="evenodd" d="M1107.98 862.005C1116.12 844.835 1121.15 857.13 1134.05 870.707C1171.53 910.158 1160.54 989.278 1153.91 969.459C1149.23 955.479 1148.83 895.24 1107.98 862.005Z" fill="#4F5C99"/>
<path fill-rule="evenodd" clip-rule="evenodd" d="M877.263 880.635C861.765 898.217 803.518 919.115 813.039 867.749C815.226 855.955 830.997 868.983 864.576 877.039C873.645 879.215 873.721 878.74 877.263 880.635Z" fill="#4F5C99"/>
<path fill-rule="evenodd" clip-rule="evenodd" d="M1468.34 1567.16C1468.29 1567.15 1452.62 1565.53 1435.11 1551.38C1408.55 1529.9 1389.24 1471.74 1389.77 1468.75C1391.69 1457.92 1404.74 1489.32 1408.95 1496.83C1437.72 1548.1 1482.58 1563.52 1482.75 1563.76C1486.24 1568.94 1469.52 1567.28 1468.34 1567.16Z" fill="#4F5C99"/>
<path fill-rule="evenodd" clip-rule="evenodd" d="M547.83 799.044C561.567 851.046 584.299 841.992 586.21 851.733C589.077 866.341 514.635 828.326 544.896 741.783C547.885 733.225 554.002 724.838 572.387 678.053C611.059 579.649 570.4 700.116 569.71 701.906C553.637 743.607 541.218 749.175 547.83 799.044Z" fill="#4F5C99"/>
<path fill-rule="evenodd" clip-rule="evenodd" d="M1087.28 527.604C1084.62 537.259 1081.87 534.964 1071.68 535.881C1057.68 537.135 1039 524.772 1051.17 536.366C1056.85 541.776 1069.17 542.517 1074.37 541.264C1076.09 540.852 1077.72 539.451 1079.45 539.766C1081.13 540.07 1081.79 542.611 1083.46 542.913C1070.48 554.479 1070.54 557.592 1053.41 554.975C1032.84 551.83 1008.18 519.821 1048.14 519.976C1065.33 520.041 1064.43 527.407 1087.28 527.604Z" fill="#4F5C99"/>
<path fill-rule="evenodd" clip-rule="evenodd" d="M893.561 1098.3C930.243 1154.49 933.191 1152.03 955.348 1172.65C969.636 1185.95 924.751 1175.72 882.145 1096.19C854.609 1044.8 859.481 1029.55 863.765 1038.62C871.627 1055.25 868.421 1056.69 893.561 1098.3Z" fill="black"/>
<path fill-rule="evenodd" clip-rule="evenodd" d="M841.967 1376.45C853.422 1417.22 852.776 1423.54 869.29 1427.9C881.901 1431.23 862.822 1451.79 851.81 1431.57C830.191 1391.87 812.546 1309.4 827.886 1323.97C831.039 1326.96 831.616 1327.51 841.967 1376.45Z" fill="#4F5C99"/>
<path fill-rule="evenodd" clip-rule="evenodd" d="M1223.18 1170.32C1223.22 1173.05 1223.91 1173.92 1221.21 1174.17C1165.14 1179.35 1119.78 1111.39 1095.34 1109.44C1092.35 1109.2 1060.17 1106.64 1060.45 1095.64C1060.53 1092.61 1062.26 1096.38 1098.11 1100.52C1138.91 1105.22 1119.56 1148.71 1223.18 1170.32Z" fill="black"/>
<path fill-rule="evenodd" clip-rule="evenodd" d="M1279.58 838.351C1259.28 809.584 1257.58 810.92 1227.27 793.251C1217.08 787.308 1238.49 778.469 1260.63 794.206C1302.93 824.268 1298.92 890.449 1292.13 867.599C1286.95 850.182 1280.43 840.091 1279.58 838.351Z" fill="#4F5C99"/>
<path fill-rule="evenodd" clip-rule="evenodd" d="M1048.12 920.107C1085.65 949.691 1108.11 964.013 1099.13 986.141C1089.14 1010.74 1009.49 915.82 1056.79 955.537C1059.08 957.458 1089.43 982.949 1090.02 972.489C1090.29 967.819 1045.67 927.916 1045.34 922.627C1045.26 921.38 1048.19 921.354 1048.12 920.107Z" fill="black"/>
<path fill-rule="evenodd" clip-rule="evenodd" d="M1144.7 1392.79C1183.71 1450.15 1216.26 1431.26 1211.63 1450.51C1209.49 1459.41 1137.48 1425.14 1131.43 1387.39C1127.77 1364.59 1134.95 1360.98 1139.55 1366.67C1140.89 1368.33 1137.25 1369.22 1144.7 1392.79Z" fill="#4F5C99"/>
<path fill-rule="evenodd" clip-rule="evenodd" d="M1465.79 1517.92C1468.73 1519.44 1540.98 1556.85 1494.27 1547.95C1446.96 1538.94 1409.96 1472.97 1431.1 1482.59C1441.76 1487.44 1432.24 1499.61 1465.79 1517.92Z" fill="#4F5C99"/>
<path fill-rule="evenodd" clip-rule="evenodd" d="M1314.4 838.517C1314.5 839.842 1317.3 876.262 1310.25 854.605C1297.69 816.018 1293.78 818.147 1266.39 788.484C1260.08 781.649 1272.64 778.045 1283.87 784.263C1305.94 796.49 1313.42 833.634 1314.4 838.517Z" fill="#4F5C99"/>
<path fill-rule="evenodd" clip-rule="evenodd" d="M1139.42 533.856C1140.16 536.13 1140.89 538.403 1141.63 540.676C1137.38 542.002 1137.7 541.844 1137.38 542.002C1117.26 551.924 1116.47 550.407 1115.52 552.084C1109.24 563.238 1136.64 548.793 1138.27 547.929C1140.71 553.024 1141.01 553.384 1137.92 558.006C1136.59 557.537 1136.09 555.647 1134.76 555.174C1128.21 552.864 1128.54 570.06 1095.44 571.515C1078.47 572.263 1073.41 612.772 1071.92 594.457C1069.18 560.778 1128.34 539.085 1134.75 536.736C1134.75 536.736 1139.05 534.087 1139.42 533.856Z" fill="black"/>
<path fill-rule="evenodd" clip-rule="evenodd" d="M1044.08 1683.77C1044.71 1665.79 1051.75 1670.63 1052.58 1671.49C1054.57 1673.59 1052.64 1688.36 1062.36 1704.23C1083.03 1737.99 1106.87 1733.92 1113.61 1734.3C1132.35 1735.33 1061.3 1766.46 1044.08 1683.77Z" fill="#4F5C99"/>
<path fill-rule="evenodd" clip-rule="evenodd" d="M1103.77 863.835C1113.38 875.708 1117.05 875.529 1126.21 894.041C1134.36 910.481 1137.34 936.495 1136.62 938.052C1128.83 954.854 1129.25 903.68 1095.26 872.896C1069.74 849.786 1102.96 863.255 1103.77 863.835Z" fill="#4F5C99"/>
<path fill-rule="evenodd" clip-rule="evenodd" d="M1073.62 1747.3C1068.22 1757.14 1047.7 1740.16 1038.68 1727.77C1020.84 1703.3 1021.85 1686.98 1029.46 1670.57C1038.55 1650.97 1034.39 1686.48 1037.09 1697.14C1045.43 1730.01 1068.87 1743.31 1073.62 1747.3Z" fill="#4F5C99"/>
<path fill-rule="evenodd" clip-rule="evenodd" d="M1018.58 1715.68C1030.87 1739.15 1032.59 1739.11 1031.23 1740.92C1026.62 1747.08 984.982 1707.71 1017.34 1652.74C1027.18 1636.01 1026.32 1654.08 1026.15 1654.78C1019.57 1681.76 1010.01 1688.22 1018.58 1715.68Z" fill="#4F5C99"/>
<path fill-rule="evenodd" clip-rule="evenodd" d="M617.71 1484.16C570.555 1427.37 640.992 1354.02 621.553 1400.94C595.461 1463.92 625.517 1471.16 620.606 1481.84C620.089 1482.96 618.228 1483.04 617.71 1484.16Z" fill="#4F5C99"/>
<path fill-rule="evenodd" clip-rule="evenodd" d="M811.808 458.661C805.235 455.597 762.256 435.574 738.379 405.507C722.254 385.2 715.303 353.296 717.676 348.938C718.206 347.962 721.198 346.956 724.02 361.289C735.31 418.656 814.142 453.663 814.105 455.781C814.087 457.007 811.829 457.432 811.808 458.661Z" fill="black"/>
<path fill-rule="evenodd" clip-rule="evenodd" d="M970.592 1660.42C971.734 1657.21 981.646 1621.79 987.788 1621.64C997.763 1621.4 984.153 1658.43 983.63 1660.52C973.849 1699.8 994.611 1719.97 983.053 1711.86C969.03 1702.01 970.432 1664.65 970.592 1660.42Z" fill="#4F5C99"/>
<path fill-rule="evenodd" clip-rule="evenodd" d="M990.602 1130.03L987.523 1133.04C980.541 1125.99 925.014 1069.98 917.934 1030.41C917.921 1030.34 921.092 1025.54 923.57 1031.08C948.124 1086.01 957.569 1079.81 990.602 1130.03Z" fill="black"/>
<path fill-rule="evenodd" clip-rule="evenodd" d="M892.858 879.246C852.672 865.313 852.727 865.528 849.107 863.864C756.914 821.517 911.663 867.274 909.886 880.897C909.469 884.095 894.173 879.629 892.858 879.246Z" fill="#4F5C99"/>
<path fill-rule="evenodd" clip-rule="evenodd" d="M649.397 471.203C653.151 469.699 680.868 458.582 699.177 462.485C702.262 463.141 719.655 473.907 721.387 474.98C741.414 487.378 712.806 476.909 712.098 476.652C698.248 471.583 678.29 493.418 649.397 471.203Z" fill="#4F5C99"/>
<path fill-rule="evenodd" clip-rule="evenodd" d="M885.652 526.9C886.054 526.903 890.66 526.95 890.66 526.95C938.74 533.006 960.173 508.937 980.585 498.44C1006.31 485.21 1023.29 505.312 1008.76 503.49C974.319 499.17 976.847 510.735 945.51 525.792C921.158 537.492 887.392 536.387 884.565 528.669L885.652 526.9Z" fill="black"/>
<path fill-rule="evenodd" clip-rule="evenodd" d="M574.485 772.873C571.773 821.502 588.313 818.163 588.555 830.749C588.762 841.483 542.32 795.231 583.982 728.687C597.713 706.752 599.735 707.403 601.58 708.49C605.061 710.54 592.432 725.941 586.646 736.486C577.309 753.501 578.538 753.863 574.485 772.873Z" fill="#4F5C99"/>
<path fill-rule="evenodd" clip-rule="evenodd" d="M566.83 1421.37C568.77 1405.21 569.177 1387.52 594.747 1364.78C619.43 1342.84 573.589 1397.52 574.282 1434.71C575.529 1501.49 566.946 1422.58 566.83 1421.37Z" fill="#4F5C99"/>
<path fill-rule="evenodd" clip-rule="evenodd" d="M598.036 1473.15C594.881 1473.12 594.928 1472.92 593.335 1469.89C563.394 1412.97 609.791 1369.68 610.578 1381.83C611.6 1397.57 581.346 1394.94 598.036 1473.15Z" fill="#4F5C99"/>
<path fill-rule="evenodd" clip-rule="evenodd" d="M924.925 1200.52C920.026 1198.1 876.688 1176.65 867.109 1164.08C854.328 1147.31 876.947 1166.03 877.612 1166.58C905.29 1189.5 976.54 1212.62 979.38 1214.63C1001.84 1230.49 929.119 1202.16 924.925 1200.52Z" fill="black"/>
<path fill-rule="evenodd" clip-rule="evenodd" d="M1158.56 512.499C1163.57 490.494 1148.27 484.753 1141.15 460.577C1133.03 432.98 1152.09 472.746 1152.7 474.025C1171.92 514.124 1158.02 427.281 1165.3 432.909C1177.33 442.194 1166.04 506.079 1164.94 512.334C1162.81 512.389 1160.69 512.444 1158.56 512.499Z" fill="black"/>
<path fill-rule="evenodd" clip-rule="evenodd" d="M1396.82 1737.24C1368.81 1721.11 1368.9 1721.35 1366.57 1719.82C1351.16 1709.72 1384.43 1716.41 1412.3 1732.39C1439.06 1747.74 1441.56 1744.27 1441.86 1746.89C1443.19 1758.21 1400.18 1738.76 1396.82 1737.24Z" fill="#4F5C99"/>
<path fill-rule="evenodd" clip-rule="evenodd" d="M607.497 1100.38C668.906 1101.51 678.109 1064.4 727.254 1083.78C753.496 1094.12 715.712 1086.4 714.712 1086.2C673.956 1077.87 639.585 1112.66 614.98 1105.77C610.712 1104.58 611.857 1107.09 609.925 1108.87C607.447 1105.02 607.686 1105.08 607.497 1100.38Z" fill="#4F5C99"/>
<path fill-rule="evenodd" clip-rule="evenodd" d="M708.008 1576.5C694.689 1622.19 665.648 1618.97 671.077 1613.77C691.071 1594.63 694.959 1595.89 698.789 1568.35C699.306 1564.65 695.508 1539.51 706.202 1550.61C710.754 1555.34 708.273 1574.44 708.008 1576.5Z" fill="#4F5C99"/>
<path fill-rule="evenodd" clip-rule="evenodd" d="M838.436 920.999C778.156 936.298 846.442 907.129 858.52 900.493C860.665 899.317 892.635 881.758 887.553 890.909C880.098 904.331 842.715 919.288 838.436 920.999Z" fill="#4F5C99"/>
<path fill-rule="evenodd" clip-rule="evenodd" d="M1447.11 730.842C1443.63 729.088 1435.4 724.938 1407.77 702.119C1355.86 659.248 1345.99 668.104 1347.69 662.61C1352.63 646.674 1421.02 705.448 1432.54 714.029C1443.59 722.258 1443.7 722.279 1447.11 730.842Z" fill="black"/>
<path fill-rule="evenodd" clip-rule="evenodd" d="M665.653 1169.82C668.208 1165.11 668.166 1165.13 668.412 1164.73C671.848 1159.25 686.249 1172.53 689.297 1179.54C697.804 1199.1 650.993 1202.7 665.653 1169.82Z" fill="#4F5C99"/>
<path fill-rule="evenodd" clip-rule="evenodd" d="M664.37 527.989C668.94 530.966 669.701 531.73 666.819 536.413L665.27 537.069C663.246 536.213 663.868 533.51 659.288 535.62C645.937 541.768 613.77 557.093 575.115 523.629C561.354 511.72 580.018 524.343 596.994 530.381C635.298 544.01 648.076 533.544 664.37 527.989Z" fill="black"/>
<path fill-rule="evenodd" clip-rule="evenodd" d="M1324.28 686.372C1325.17 686.222 1326.24 681.883 1334.07 689.254C1335.46 690.569 1343.71 698.334 1349.17 707.884C1379.33 760.659 1396.72 759.657 1391.51 764.274C1384.2 770.731 1334.79 703.631 1324.28 686.372Z" fill="black"/>
<path fill-rule="evenodd" clip-rule="evenodd" d="M1102.92 1711.14C1109.82 1712.54 1109.66 1712.09 1116.55 1712.21C1138.28 1712.59 1082.26 1738.79 1069.17 1694.37C1067.31 1688.08 1072.15 1679.86 1078.7 1689.87C1087.01 1702.57 1086.05 1704.02 1102.92 1711.14Z" fill="#4F5C99"/>
<path fill-rule="evenodd" clip-rule="evenodd" d="M767.301 486.286C751.31 482.693 748.349 481.446 746.782 480.787C724.535 471.421 751 476.322 751.493 476.461C801.838 490.596 838.788 479.301 845.474 482.645C851.073 485.444 844.628 496.051 767.301 486.286Z" fill="#4F5C99"/>
<path fill-rule="evenodd" clip-rule="evenodd" d="M977.165 843.958C979.052 845.922 980.937 847.888 982.824 849.851C978.07 852.531 944.964 871.201 914.729 846.008C888.469 824.129 962.294 863.239 977.165 843.958Z" fill="#4F5C99"/>
<path fill-rule="evenodd" clip-rule="evenodd" d="M588.688 418.698C606.559 442.937 601.724 446.024 599.377 446.003C595.445 445.969 599.569 440.679 565.26 410.62C545.717 393.5 538.782 368.321 548.518 380.194C556.86 390.369 553.975 393.374 588.688 418.698Z" fill="black"/>
<path fill-rule="evenodd" clip-rule="evenodd" d="M536.283 470.476C536.291 469.712 537.102 469.103 537.107 468.336C537.154 463.582 542.205 460.028 591.985 491.195C604.333 498.925 630.754 508.144 620.74 508.743C598.089 510.097 582.451 484.64 536.283 470.476Z" fill="black"/>
<path fill-rule="evenodd" clip-rule="evenodd" d="M664.953 853.182C612.744 844.672 627.854 802.092 630.927 812.246C639.026 839.018 658.395 841.732 672.513 847.032C683.732 851.245 665.727 853.101 664.953 853.182Z" fill="#4F5C99"/>
<path fill-rule="evenodd" clip-rule="evenodd" d="M1084.64 463.291C1085.91 462.787 1086.27 460.897 1087.54 460.393C1092.14 458.569 1096.43 477.996 1108.76 480.957C1116.46 482.808 1113.52 492.961 1129.5 502.621C1128.51 504.509 1127.52 506.399 1126.53 508.286C1121.49 503.889 1122.44 500.81 1116.21 502.553C1114.39 503.585 1112.57 504.616 1110.75 505.648C1087.75 473.287 1085.82 467.092 1084.64 463.291Z" fill="black"/>
<path fill-rule="evenodd" clip-rule="evenodd" d="M993.332 637.053C991.92 637.744 976.086 645.482 974.317 642.004C971.757 636.969 976.081 623.936 982.501 623.902C1015.08 623.726 1015.18 600.049 1021.26 610.525C1024.5 616.1 995.892 635.334 993.332 637.053Z" fill="#4F5C99"/>
<path fill-rule="evenodd" clip-rule="evenodd" d="M1121.49 1271.59C1091.04 1273.67 1070.24 1231.28 1074.12 1226.93C1077.47 1223.18 1077.82 1227.34 1093.25 1245.07C1106.08 1259.81 1109.12 1256.31 1121.49 1271.59Z" fill="#4F5C99"/>
<path fill-rule="evenodd" clip-rule="evenodd" d="M624.021 1460.5C621.501 1444.54 620.85 1444.86 622.094 1428.96C622.635 1422.05 627.223 1422.85 627.717 1426.8C635.508 1489.21 644.701 1486.93 644.42 1492.34C644.265 1495.36 635.261 1497.98 624.021 1460.5Z" fill="#4F5C99"/>
<path fill-rule="evenodd" clip-rule="evenodd" d="M850.522 1319.28C834.375 1251.83 872.307 1330.77 870.566 1345.76C870.259 1348.39 863.542 1350.72 850.522 1319.28Z" fill="#4F5C99"/>
<path fill-rule="evenodd" clip-rule="evenodd" d="M1001.71 1668.4C1001.13 1670.43 991.101 1705.8 988.77 1691.37C982.16 1650.43 1013.34 1627.58 1006.75 1652.52C1006.41 1653.81 1006.38 1653.7 1001.71 1668.4Z" fill="#4F5C99"/>
<path fill-rule="evenodd" clip-rule="evenodd" d="M674.424 1573.41C675.502 1553.77 673.927 1553.73 674.376 1552.09C675.791 1546.93 681.616 1553.44 682.036 1553.91C702.934 1577.25 655.148 1613.05 657.08 1597.28C658.059 1589.3 667.189 1594.67 674.424 1573.41Z" fill="#4F5C99"/>
<path fill-rule="evenodd" clip-rule="evenodd" d="M688.102 560.177C694.384 596.25 658.737 652.575 654.366 654.774C643.173 660.408 698.316 575.715 681.178 566.102C684.378 562.603 684.133 562.569 688.102 560.177Z" fill="black"/>
<path fill-rule="evenodd" clip-rule="evenodd" d="M559.627 596.822C556.304 605.86 549.586 636.019 499.378 656.927C452.622 676.402 519.68 648.078 542.961 617.279C543.804 616.163 552.201 605.052 552.238 602.432C552.259 600.807 549.193 600.23 549.214 598.605C554.605 597.471 554.304 597.521 559.627 596.822Z" fill="black"/>
<path fill-rule="evenodd" clip-rule="evenodd" d="M908.991 460.664C881.917 444.916 882.137 442.622 883.938 440.808C884.471 440.273 886.686 438.036 893.246 442.276C944.919 475.666 950.888 464.438 958.089 472.096C970.413 485.207 912.737 462.16 908.991 460.664Z" fill="black"/>
<path fill-rule="evenodd" clip-rule="evenodd" d="M850.537 1369.11C841.605 1325.24 881.869 1400.9 872.254 1408.25C869.408 1410.42 867.316 1408.87 850.537 1369.11Z" fill="#4F5C99"/>
<path fill-rule="evenodd" clip-rule="evenodd" d="M995.48 608.317C995.763 607.202 993.92 606.225 994.204 605.109C997.259 593.105 1018.11 569.504 1021.14 565.081C1036.33 542.95 1031.27 584.603 995.48 608.317Z" fill="#4F5C99"/>
<path fill-rule="evenodd" clip-rule="evenodd" d="M1599.63 996.746C1613.27 990.606 1614.58 992.867 1624.66 982.057C1630.88 975.374 1634.64 964.359 1638.47 965.483C1654.32 970.126 1602.85 1012.37 1578.67 1008.09C1566.32 1005.91 1597.8 997.253 1599.63 996.746Z" fill="#4F5C99"/>
<path fill-rule="evenodd" clip-rule="evenodd" d="M685.425 551.888C689.187 555.059 689.026 555.316 688.102 560.177C684.133 562.569 684.378 562.603 681.178 566.102C679.28 570.307 659.613 613.869 657.91 618.849C642.643 663.5 650.788 596.135 685.425 551.888Z" fill="black"/>
<path fill-rule="evenodd" clip-rule="evenodd" d="M1335.07 1396.93C1336.34 1397.07 1347.96 1387.25 1369.76 1445.32C1373.88 1456.29 1369.13 1455.81 1368.42 1455.42C1365.9 1454.01 1348.69 1408.73 1334.51 1400.64L1335.07 1396.93Z" fill="#4F5C99"/>
<path fill-rule="evenodd" clip-rule="evenodd" d="M811.95 439.525C813.365 436.459 815.788 431.201 806.621 397.632C802.531 382.659 801.284 383.386 796.798 368.77C796.431 367.579 800.655 363.106 805.324 374.682C824.563 422.347 818.678 437.467 816.68 442.601C815.102 441.575 813.527 440.551 811.95 439.525Z" fill="black"/>
<path fill-rule="evenodd" clip-rule="evenodd" d="M496.076 737.593C497.688 740.678 501.84 740.544 497.554 747.083C496.031 746.888 495.805 744.04 494.286 743.846C490.834 743.405 453.399 756.869 449.889 758.134C448.385 757.69 448.49 758.491 446.941 758.034C446.592 757.929 446.941 758.034 442.757 756.247C433.375 755.052 424.673 757.932 429.004 752.393C432.388 748.064 434.69 754.11 496.076 737.593Z" fill="black"/>
<path fill-rule="evenodd" clip-rule="evenodd" d="M575.844 628.708C575.726 626.01 572.206 628.978 572.085 626.214C572.038 625.112 572.198 625.156 575.149 612.772C587.108 562.571 646.347 557.581 625.404 567.372C580.729 588.259 585.591 602.6 575.844 628.708Z" fill="black"/>
<path fill-rule="evenodd" clip-rule="evenodd" d="M765.506 489.654C757.206 499.498 737.781 500.432 707.349 519.261C651.027 554.111 727.601 489.226 765.506 489.654Z" fill="#4F5C99"/>
<path fill-rule="evenodd" clip-rule="evenodd" d="M1095.78 1325.96C1093.14 1324.55 1072.98 1313.76 1064.46 1305.46C1060.07 1301.19 1063.07 1298.26 1066.55 1300.41C1092.37 1316.37 1092.96 1314.79 1120.95 1325.32C1122.84 1326.03 1121.39 1334.11 1095.78 1325.96Z" fill="#4F5C99"/>
<path fill-rule="evenodd" clip-rule="evenodd" d="M1570.39 638.699C1568.27 639.3 1513.83 654.756 1542.98 640.749C1567.34 629.036 1641.31 622.03 1617.27 632.575C1617.2 632.606 1595.82 631.622 1570.39 638.699Z" fill="black"/>
<path fill-rule="evenodd" clip-rule="evenodd" d="M605.646 1221.73C605.41 1208.52 605.244 1208.61 605.578 1206.26C605.709 1205.32 621.183 1147.99 614.277 1198.18C610.864 1222.98 620.968 1240.87 620.819 1242.98C620.672 1245.07 613.014 1248.9 605.646 1221.73Z" fill="#4F5C99"/>
<path fill-rule="evenodd" clip-rule="evenodd" d="M704.301 710.891C705.231 710.876 759.602 709.923 714.437 716.588C653.088 725.641 654.29 732.461 649.048 731.327C644.441 730.332 646.005 720.402 704.301 710.891Z" fill="#4F5C99"/>
<path fill-rule="evenodd" clip-rule="evenodd" d="M618.687 804.434C620.874 825.82 629.917 850.597 619.236 831.878C598.742 795.968 620.467 755.837 619.671 773.088C618.939 788.983 618.713 788.618 618.687 804.434Z" fill="#4F5C99"/>
<path fill-rule="evenodd" clip-rule="evenodd" d="M584.567 1553.87C620.574 1537.7 602.38 1513.81 612.521 1511.02C626.675 1507.12 610.846 1561.16 586.226 1557.66C583.667 1557.3 584.412 1556.66 584.567 1553.87Z" fill="#4F5C99"/>
<path fill-rule="evenodd" clip-rule="evenodd" d="M893.611 856.109C867.269 846.04 867.408 846.184 865.164 845.234C838.565 833.981 893.816 843.982 924.434 862.611C952.154 879.48 895.95 857.044 893.611 856.109Z" fill="#4F5C99"/>
<path fill-rule="evenodd" clip-rule="evenodd" d="M1438.71 554.93C1451.34 547.719 1536.45 507.418 1506.67 527.987C1498.3 533.767 1444.98 558.458 1440.35 557.064C1439.49 556.804 1439.57 555.19 1438.71 554.93Z" fill="black"/>
<path fill-rule="evenodd" clip-rule="evenodd" d="M1515.02 491.547C1601.71 443.142 1485.16 518.361 1478.63 518.818C1470.99 519.351 1477.1 512.591 1515.02 491.547Z" fill="black"/>
<path fill-rule="evenodd" clip-rule="evenodd" d="M835.688 552.599C824.227 579.321 823.56 610.023 818.806 595.113C816.013 586.351 833.69 527.708 840.484 542.099C840.88 542.933 841.009 543.209 835.688 552.599Z" fill="black"/>
<path fill-rule="evenodd" clip-rule="evenodd" d="M640.776 762.022C656.14 749.222 656.807 745.715 659.535 749.443C662.561 753.58 658.842 753.312 647.263 765.736C630.394 783.833 630.694 795.141 627.612 798.559C625.53 800.866 616.521 794.624 640.776 762.022Z" fill="#4F5C99"/>
<path fill-rule="evenodd" clip-rule="evenodd" d="M1641.66 1468.23C1631.63 1460.56 1630.72 1461.12 1630.34 1458.19C1628.23 1442.13 1673.87 1481.77 1668.5 1487.41C1666.68 1489.33 1666 1488.05 1641.66 1468.23Z" fill="#4F5C99"/>
<path fill-rule="evenodd" clip-rule="evenodd" d="M1140.38 596.452C1138.65 597.667 1136.91 598.883 1135.17 600.096C1124.93 592.215 1133.76 588.656 1138.92 575.715C1149.69 548.714 1157.63 555.751 1157.61 557.82C1157.54 566.511 1151.06 563.944 1148.82 568.666C1144.78 577.234 1145.83 577.484 1141.67 586.133C1140.13 589.336 1135.98 589.756 1140.38 596.452Z" fill="#4F5C99"/>
<path fill-rule="evenodd" clip-rule="evenodd" d="M1470.94 458.138C1471.37 457.519 1475.86 451.059 1476.36 450.41C1476.87 449.754 1513.63 411.526 1486.28 447.381C1455.24 488.087 1459.99 491.014 1457.15 494.408C1433.39 522.782 1469.38 460.824 1470.94 458.138Z" fill="black"/>
<path fill-rule="evenodd" clip-rule="evenodd" d="M1531 697.131C1529.03 696 1516.15 688.608 1507.47 681.166C1498.09 673.121 1503.54 670.49 1504.64 671.28C1549.39 703.311 1554.63 697.255 1555.34 701.94C1556.32 708.487 1532.81 697.943 1531 697.131Z" fill="black"/>
<path fill-rule="evenodd" clip-rule="evenodd" d="M1429.76 487.843C1443.1 459.257 1449.17 461.22 1448.99 463.683C1448.51 470.101 1439.06 471.857 1423.85 518.503C1423.65 519.136 1421.3 526.328 1420.94 526.286C1419.51 526.116 1418.81 524.018 1417.39 523.848C1421.7 509.022 1421.56 509.226 1426.72 494.91L1429.76 487.843Z" fill="black"/>
<path fill-rule="evenodd" clip-rule="evenodd" d="M1087.28 527.604C1088.47 527.268 1108.94 521.474 1102.73 528.507C1097.49 534.444 1094.5 530.722 1089.02 538.364C1088.68 538.831 1088.6 538.702 1083.46 542.913C1081.79 542.611 1081.13 540.07 1079.45 539.765C1077.72 539.45 1076.09 540.852 1074.37 541.264C1069.17 542.516 1056.85 541.776 1051.17 536.366C1039 524.771 1057.68 537.135 1071.68 535.88C1081.87 534.964 1084.62 537.258 1087.28 527.604Z" fill="black"/>
<path fill-rule="evenodd" clip-rule="evenodd" d="M1546.87 628.564C1544.69 629.217 1503.94 641.416 1518.61 631.945C1519.11 631.619 1544 622.747 1552.23 621.295C1578.99 616.578 1579.15 624.004 1577.64 624.792C1575.44 625.939 1574.97 623.038 1546.87 628.564Z" fill="black"/>
<path fill-rule="evenodd" clip-rule="evenodd" d="M1127.42 479.511C1154.09 480.186 1153.82 559.256 1145.22 518.393C1144.51 515.043 1144.16 513.368 1127.42 479.511Z" fill="#4F5C99"/>
<path fill-rule="evenodd" clip-rule="evenodd" d="M1507.44 444.819C1506.96 445.465 1473.76 484.467 1497.9 448.021C1520.46 413.949 1547.09 398.317 1534.11 413.529C1520.72 429.221 1520.45 428.672 1507.44 444.819Z" fill="black"/>
<path fill-rule="evenodd" clip-rule="evenodd" d="M1021.09 412.027C1017.57 409.14 983.99 381.622 983.793 368.998C983.638 358.997 990.368 376.905 1009.26 394.461C1009.72 394.884 1024.62 407.872 1024.6 408.006C1024.37 409.77 1021.33 410.263 1021.09 412.027Z" fill="black"/>
<path fill-rule="evenodd" clip-rule="evenodd" d="M956.669 564.325L956.346 568.307C944.872 574.707 944.62 573.221 932.401 578.158C929.77 579.222 902.636 588.966 901.552 588.16C894.377 582.826 941.462 569.38 956.669 564.325Z" fill="black"/>
<path fill-rule="evenodd" clip-rule="evenodd" d="M1528.69 599.03L1529.77 603.03C1519.95 606.59 1478.77 623.508 1478.62 623.408C1468.12 616.14 1524.4 600.24 1528.69 599.03Z" fill="black"/>
<path fill-rule="evenodd" clip-rule="evenodd" d="M1429.76 487.843L1426.72 494.909C1425.18 496.56 1424.52 492.901 1423.01 494.513C1422.52 495.043 1422.58 494.978 1419.36 502.784C1413.07 518.075 1415.12 518.484 1409.27 533.688C1399.19 559.873 1403.61 515.455 1421.97 487.777C1426.23 481.356 1429.54 487.733 1429.76 487.843Z" fill="black"/>
<path fill-rule="evenodd" clip-rule="evenodd" d="M991.264 468.184C990.187 457.603 989.355 449.959 995.107 453.76C996.656 454.781 1018.82 469.426 1000.82 476.227C993.555 478.97 994.251 475.253 991.264 468.184Z" fill="#4F5C99"/>
<path fill-rule="evenodd" clip-rule="evenodd" d="M1188.53 1334.38C1172.26 1279.42 1206.28 1344.8 1200.71 1350.74C1199.59 1351.94 1195.73 1353.99 1188.53 1334.38Z" fill="#4F5C99"/>
<path fill-rule="evenodd" clip-rule="evenodd" d="M807.669 1526.3C803.553 1551.99 781.807 1487.71 795.517 1500.91C803.02 1508.13 807.112 1524.12 807.669 1526.3Z" fill="#4F5C99"/>
<path fill-rule="evenodd" clip-rule="evenodd" d="M1184.55 550C1187.28 552.026 1212.39 570.643 1205.83 586.81C1200.9 598.975 1203.69 582.521 1196.55 571.853C1190.48 562.799 1167.58 539.476 1184.55 550Z" fill="black"/>
<path fill-rule="evenodd" clip-rule="evenodd" d="M1445.05 484.528C1446.14 482.275 1459.5 454.802 1462.67 458.621C1463.89 460.094 1444.87 499.944 1443.19 503.475C1410.42 572.147 1444.49 485.945 1445.05 484.528Z" fill="black"/>
<path fill-rule="evenodd" clip-rule="evenodd" d="M736.258 610.457C727.065 626.577 721.647 649.152 723.821 630.593C725.979 612.158 752.951 563.915 745.708 586.706C745.089 588.653 745.007 588.464 736.258 610.457Z" fill="black"/>
<path fill-rule="evenodd" clip-rule="evenodd" d="M887.616 424.814C942.699 447.108 870.724 429.828 864.967 420.924C860.948 414.705 885.896 424.163 887.616 424.814Z" fill="black"/>
<path fill-rule="evenodd" clip-rule="evenodd" d="M756.814 553.948C757.368 550.709 755.699 550.541 757.875 547.761C768.359 534.376 782.66 530.817 790.868 529.691C809.745 527.097 791.092 535.578 790.622 535.681C771.391 539.805 773.572 544.118 756.814 553.948Z" fill="black"/>
<path fill-rule="evenodd" clip-rule="evenodd" d="M951.316 610.451C958.323 598.791 960.898 596.079 961.932 594.993C981.428 574.478 948.429 627.18 945.064 630.207C932.364 641.626 950.455 611.869 951.316 610.451Z" fill="black"/>
<path fill-rule="evenodd" clip-rule="evenodd" d="M1594.13 670.611C1595.38 670.43 1608.64 668.48 1609.7 668.614C1630.39 671.254 1574.39 681.555 1571.37 675.37C1568 668.459 1574.48 671.987 1594.13 670.611Z" fill="black"/>
<path fill-rule="evenodd" clip-rule="evenodd" d="M848.674 560.377C848.251 558.629 848.264 556.794 847.844 555.046C843.778 538.214 861.058 557.949 854.181 586.811C850.301 603.086 849.621 573.751 848.674 560.377Z" fill="black"/>
<path fill-rule="evenodd" clip-rule="evenodd" d="M786.705 607.745L786.472 610.357C784.991 611.953 783.23 610.328 781.694 615.504C772.966 644.92 776.371 582.542 780.337 586.031C781.471 587.026 782.022 588.664 782.182 590.165C782.618 594.213 780.875 598.494 782.096 602.379C782.23 602.802 783.13 600.754 786.892 605.13C787.931 606.343 785.676 606.548 786.705 607.745Z" fill="black"/>
<path fill-rule="evenodd" clip-rule="evenodd" d="M777.688 1505.69C793.315 1523.16 798.339 1537.6 790.761 1534.51C788.385 1533.55 781.495 1522.06 780.802 1520.91C773.255 1508.32 776.84 1507.66 777.688 1505.69Z" fill="#4F5C99"/>
<path fill-rule="evenodd" clip-rule="evenodd" d="M621.548 1211.41C624.094 1196.8 623.307 1195.84 625.425 1195.46C629.722 1194.67 628.378 1203.69 629.061 1222.04C631.166 1278.69 621.656 1212.45 621.548 1211.41Z" fill="#4F5C99"/>
<path fill-rule="evenodd" clip-rule="evenodd" d="M683.732 692.714C684.567 692.472 739.293 678.972 694.347 694.987C684.034 698.659 673.337 705.76 672.736 705.784C661.225 706.251 682.561 693.417 683.732 692.714Z" fill="#4F5C99"/>
<path fill-rule="evenodd" clip-rule="evenodd" d="M833.299 581.671L836.176 580.723C836.906 583.196 842.195 601.119 840.037 612.717C833.354 648.666 833.302 584.214 833.299 581.671Z" fill="black"/>
<path fill-rule="evenodd" clip-rule="evenodd" d="M1141.63 540.676C1142.26 545.136 1141.6 544.913 1138.27 547.929C1136.64 548.793 1109.24 563.238 1115.52 552.085C1116.47 550.407 1117.26 551.924 1137.38 542.002C1137.7 541.844 1137.38 542.002 1141.63 540.676Z" fill="#4F5C99"/>
<path fill-rule="evenodd" clip-rule="evenodd" d="M1491.8 688.949C1477.3 673.532 1479.69 670.994 1481.36 670.955C1483.33 670.907 1509.62 698.184 1491.8 688.949Z" fill="black"/>
<path fill-rule="evenodd" clip-rule="evenodd" d="M1186.91 735.136C1186.27 735.315 1159.37 740.41 1182.01 728.382C1191.24 723.479 1195.37 731.443 1192.29 733.346C1190.68 734.336 1188.52 734.144 1186.91 735.136Z" fill="black"/>
<path fill-rule="evenodd" clip-rule="evenodd" d="M442.757 756.247C446.941 758.034 446.592 757.929 446.941 758.034C448.49 758.491 448.385 757.69 449.889 758.134C435.822 771.435 424.303 776.585 429.737 768.348C430.519 767.159 430.931 767.915 442.757 756.247Z" fill="black"/>
<path fill-rule="evenodd" clip-rule="evenodd" d="M919.974 905.472C919.307 905.8 911.64 909.567 911.64 909.567C911.107 909.662 911.217 909.297 905.956 905.903C918.226 892.182 921.137 895.623 921.163 897.03C921.171 897.505 919.977 898.781 919.851 898.915C916.506 902.488 919.924 902.85 919.974 905.472Z" fill="#4F5C99"/>
<path fill-rule="evenodd" clip-rule="evenodd" d="M1552.58 461.029C1534.7 476.776 1554.72 443.397 1559.26 448.195C1560.91 449.943 1553.28 460.102 1552.58 461.029Z" fill="black"/>
<path fill-rule="evenodd" clip-rule="evenodd" d="M1116.21 502.553C1122.44 500.81 1121.49 503.889 1126.53 508.286C1134.13 513.048 1132.28 514.481 1132.76 516.124C1131.06 516.327 1129.36 516.531 1127.66 516.736C1121.03 510.097 1120.83 510.504 1116.21 502.553Z" fill="black"/>
<path fill-rule="evenodd" clip-rule="evenodd" d="M1116.21 502.553C1120.83 510.504 1121.03 510.097 1127.66 516.736L1126.3 518.747C1117.4 513.271 1117.99 513.003 1110.75 505.648C1112.57 504.616 1114.39 503.585 1116.21 502.553Z" fill="black"/>
<path fill-rule="evenodd" clip-rule="evenodd" d="M1413.48 1463.75C1419.56 1460.33 1422.89 1459.19 1422.44 1465.92C1422.2 1469.51 1406.01 1478.94 1413.48 1463.75Z" fill="black"/>
<path fill-rule="evenodd" clip-rule="evenodd" d="M1575.76 417.902C1575.32 418.572 1575.65 418.435 1570.39 426.378C1570.01 426.956 1560.59 441.194 1562.18 429.066C1563.25 420.963 1574.39 418.238 1575.76 417.902Z" fill="black"/>
<path fill-rule="evenodd" clip-rule="evenodd" d="M1324.01 413.629C1323.77 413.159 1317.01 412.823 1323.81 405.549C1324.82 404.47 1324.72 404.67 1328.44 401.693C1349.91 384.539 1324.68 412.868 1324.01 413.629Z" fill="black"/>
<path fill-rule="evenodd" clip-rule="evenodd" d="M1484.03 634.31C1483.61 634.438 1467.48 636.171 1481.6 629.299C1481.7 629.251 1497.01 626.031 1484.03 634.31Z" fill="black"/>
<path fill-rule="evenodd" clip-rule="evenodd" d="M690.874 1154.62C701.918 1168.44 686.173 1159.08 686.118 1158.8C685.367 1155 687.215 1156.06 690.874 1154.62Z" fill="black"/>
<path fill-rule="evenodd" clip-rule="evenodd" d="M1148.52 537.177C1152.33 535.594 1152.13 535.655 1155.93 536.45L1153.01 541.645C1149.54 540.902 1149.91 540.38 1148.52 537.177Z" fill="black"/>
<path fill-rule="evenodd" clip-rule="evenodd" d="M1170.81 526.488C1168.35 536.116 1162.75 527.706 1165.23 525.238C1167.75 522.721 1168.2 523.808 1170.81 526.488Z" fill="black"/>
<path fill-rule="evenodd" clip-rule="evenodd" d="M1129.95 520.81C1132.81 524.85 1132.8 524.816 1133.03 525.173C1134.04 526.69 1133.64 526.535 1134.83 528.341L1129.71 529.887C1128.85 528.231 1130.81 526.191 1125.2 525.097C1125.62 525.007 1130.42 523.976 1130.42 523.976C1131.09 523.141 1129.29 521.645 1129.95 520.81Z" fill="black"/>
<path fill-rule="evenodd" clip-rule="evenodd" d="M1557.6 673.276C1560.61 669.853 1562.93 668.784 1563.22 673.152C1563.25 673.601 1563.2 681.854 1557.6 673.276Z" fill="black"/>
<path fill-rule="evenodd" clip-rule="evenodd" d="M1127.66 516.736C1129.36 516.531 1131.06 516.327 1132.76 516.125C1131.82 517.686 1130.88 519.248 1129.95 520.81L1126.3 518.747L1127.66 516.736Z" fill="black"/>
<path fill-rule="evenodd" clip-rule="evenodd" d="M1242.66 533.36C1246.4 534.271 1246.42 533.964 1246.4 534.271C1246.4 534.271 1241.99 538.555 1241.6 538.925C1241.96 537.072 1242.31 535.216 1242.66 533.36Z" fill="black"/>
<path fill-rule="evenodd" clip-rule="evenodd" d="M1313.43 1065.02C1312.47 1065.46 1312.6 1065.52 1308.73 1068.97C1308.61 1065.2 1310.02 1066.23 1313.43 1065.02Z" fill="black"/>
<path fill-rule="evenodd" clip-rule="evenodd" d="M672.731 452.768C677.167 454.781 677.571 454.521 677.505 454.936C677.403 455.584 675.791 455.049 675.689 455.697L672.731 452.768Z" fill="black"/>
<path fill-rule="evenodd" clip-rule="evenodd" d="M739.127 1035.45C739.458 1035.64 743.259 1037.79 743.259 1037.79C743.445 1039.25 741.204 1037.02 741.387 1038.47L739.127 1035.45Z" fill="black"/>
<path fill-rule="evenodd" clip-rule="evenodd" d="M758.838 1279.34L756.961 1282C757.093 1280.52 755.069 1282.5 755.179 1281.24C755.208 1280.91 755.179 1281.24 758.838 1279.34Z" fill="#4F5C99"/>
</svg>
